M48
; DRILL file {KiCad 8.0.4} date 2024-07-28T20:23:24+0200
; FORMAT={-:-/ absolute / inch / decimal}
; #@! TF.CreationDate,2024-07-28T20:23:24+02:00
; #@! TF.GenerationSoftware,Kicad,Pcbnew,8.0.4
; #@! TF.FileFunction,Plated,1,2,PTH
FMAT,2
INCH
; #@! TA.AperFunction,Plated,PTH,ComponentDrill
T1C0.0315
; #@! TA.AperFunction,Plated,PTH,ComponentDrill
T2C0.0394
; #@! TA.AperFunction,Plated,PTH,ComponentDrill
T3C0.0402
%
G90
G05
T1
X2.8998Y-1.7835
X2.9012Y-1.3858
X2.9012Y-1.5157
X2.9012Y-1.6535
X3.1998Y-1.7835
X3.2012Y-1.3858
X3.2012Y-1.5157
X3.2012Y-1.6535
T2
X3.3271Y-1.3953
X3.3271Y-1.4953
X3.3271Y-1.5953
X3.3271Y-1.6953
X3.3271Y-1.7953
X3.3271Y-1.8953
X3.3271Y-1.9953
X3.3271Y-2.0953
X3.4271Y-1.3953
X3.4271Y-1.4953
X3.4271Y-1.5953
X3.4271Y-1.6953
X3.4271Y-1.7953
X3.4271Y-1.8953
X3.4271Y-1.9953
X3.4271Y-2.0953
T3
X1.9969Y-1.4055
X1.9969Y-1.5055
X1.9969Y-1.6055
X1.9969Y-1.7055
X1.9969Y-1.8055
X1.9969Y-1.9055
X1.9969Y-2.0055
X1.9969Y-2.1055
X1.9969Y-2.2055
X1.9969Y-2.3055
X1.9969Y-2.4055
X1.9969Y-2.5055
X1.9969Y-2.6055
X1.9969Y-2.7055
X1.9969Y-2.8055
X1.9969Y-2.9055
X1.9969Y-3.0055
X1.9969Y-3.1055
X1.9969Y-3.2055
X1.9969Y-3.3055
X2.2469Y-3.2965
X2.3469Y-3.2965
X2.4469Y-3.2965
X2.6969Y-1.4055
X2.6969Y-1.5055
X2.6969Y-1.6055
X2.6969Y-1.7055
X2.6969Y-1.8055
X2.6969Y-1.9055
X2.6969Y-2.0055
X2.6969Y-2.1055
X2.6969Y-2.2055
X2.6969Y-2.3055
X2.6969Y-2.4055
X2.6969Y-2.5055
X2.6969Y-2.6055
X2.6969Y-2.7055
X2.6969Y-2.8055
X2.6969Y-2.9055
X2.6969Y-3.0055
X2.6969Y-3.1055
X2.6969Y-3.2055
X2.6969Y-3.3055
M30
