%TF.GenerationSoftware,KiCad,Pcbnew,8.0.4*%
%TF.CreationDate,2024-07-28T20:23:25+02:00*%
%TF.ProjectId,pico-modxo,7069636f-2d6d-46f6-9478-6f2e6b696361,1.0*%
%TF.SameCoordinates,Original*%
%TF.FileFunction,Drillmap*%
%TF.FilePolarity,Positive*%
%FSLAX45Y45*%
G04 Gerber Fmt 4.5, Leading zero omitted, Abs format (unit mm)*
G04 Created by KiCad (PCBNEW 8.0.4) date 2024-07-28 20:23:25*
%MOMM*%
%LPD*%
G01*
G04 APERTURE LIST*
%ADD10C,0.050000*%
%ADD11C,0.200000*%
%ADD12C,0.100000*%
%ADD13C,0.102000*%
G04 APERTURE END LIST*
D10*
X8500000Y-3100000D02*
G75*
G02*
X9000000Y-3600000I0J-500000D01*
G01*
X9000000Y-5392893D02*
G75*
G02*
X8853552Y-5746445I-500000J3D01*
G01*
X4500000Y-8300000D02*
X4500000Y-3600000D01*
X8853553Y-5746447D02*
X7746447Y-6853553D01*
X7600000Y-7207107D02*
X7600000Y-8300000D01*
X7100000Y-8800000D02*
X5000000Y-8800000D01*
X7600000Y-7207107D02*
G75*
G02*
X7746444Y-6853551I500020J-3D01*
G01*
X5000000Y-8800000D02*
G75*
G02*
X4500000Y-8300000I0J500000D01*
G01*
X7600000Y-8300000D02*
G75*
G02*
X7100000Y-8800000I-500000J0D01*
G01*
X9000000Y-3600000D02*
X9000000Y-5392893D01*
X4500000Y-3600000D02*
G75*
G02*
X5000000Y-3100000I500000J0D01*
G01*
X5000000Y-3100000D02*
X8500000Y-3100000D01*
D11*
D12*
X7325375Y-4490000D02*
X7405375Y-4570000D01*
X7405375Y-4490000D02*
X7325375Y-4570000D01*
X7329000Y-3480000D02*
X7409000Y-3560000D01*
X7409000Y-3480000D02*
X7329000Y-3560000D01*
X7329000Y-3810000D02*
X7409000Y-3890000D01*
X7409000Y-3810000D02*
X7329000Y-3890000D01*
X7329000Y-4160000D02*
X7409000Y-4240000D01*
X7409000Y-4160000D02*
X7329000Y-4240000D01*
X8087375Y-4490000D02*
X8167375Y-4570000D01*
X8167375Y-4490000D02*
X8087375Y-4570000D01*
X8091000Y-3480000D02*
X8171000Y-3560000D01*
X8171000Y-3480000D02*
X8091000Y-3560000D01*
X8091000Y-3810000D02*
X8171000Y-3890000D01*
X8171000Y-3810000D02*
X8091000Y-3890000D01*
X8091000Y-4160000D02*
X8171000Y-4240000D01*
X8171000Y-4160000D02*
X8091000Y-4240000D01*
X8500850Y-3544000D02*
G75*
G02*
X8400850Y-3544000I-50000J0D01*
G01*
X8400850Y-3544000D02*
G75*
G02*
X8500850Y-3544000I50000J0D01*
G01*
X8500850Y-3798000D02*
G75*
G02*
X8400850Y-3798000I-50000J0D01*
G01*
X8400850Y-3798000D02*
G75*
G02*
X8500850Y-3798000I50000J0D01*
G01*
X8500850Y-4052000D02*
G75*
G02*
X8400850Y-4052000I-50000J0D01*
G01*
X8400850Y-4052000D02*
G75*
G02*
X8500850Y-4052000I50000J0D01*
G01*
X8500850Y-4306000D02*
G75*
G02*
X8400850Y-4306000I-50000J0D01*
G01*
X8400850Y-4306000D02*
G75*
G02*
X8500850Y-4306000I50000J0D01*
G01*
X8500850Y-4560000D02*
G75*
G02*
X8400850Y-4560000I-50000J0D01*
G01*
X8400850Y-4560000D02*
G75*
G02*
X8500850Y-4560000I50000J0D01*
G01*
X8500850Y-4814000D02*
G75*
G02*
X8400850Y-4814000I-50000J0D01*
G01*
X8400850Y-4814000D02*
G75*
G02*
X8500850Y-4814000I50000J0D01*
G01*
X8500850Y-5068000D02*
G75*
G02*
X8400850Y-5068000I-50000J0D01*
G01*
X8400850Y-5068000D02*
G75*
G02*
X8500850Y-5068000I50000J0D01*
G01*
X8500850Y-5322000D02*
G75*
G02*
X8400850Y-5322000I-50000J0D01*
G01*
X8400850Y-5322000D02*
G75*
G02*
X8500850Y-5322000I50000J0D01*
G01*
X8754850Y-3544000D02*
G75*
G02*
X8654850Y-3544000I-50000J0D01*
G01*
X8654850Y-3544000D02*
G75*
G02*
X8754850Y-3544000I50000J0D01*
G01*
X8754850Y-3798000D02*
G75*
G02*
X8654850Y-3798000I-50000J0D01*
G01*
X8654850Y-3798000D02*
G75*
G02*
X8754850Y-3798000I50000J0D01*
G01*
X8754850Y-4052000D02*
G75*
G02*
X8654850Y-4052000I-50000J0D01*
G01*
X8654850Y-4052000D02*
G75*
G02*
X8754850Y-4052000I50000J0D01*
G01*
X8754850Y-4306000D02*
G75*
G02*
X8654850Y-4306000I-50000J0D01*
G01*
X8654850Y-4306000D02*
G75*
G02*
X8754850Y-4306000I50000J0D01*
G01*
X8754850Y-4560000D02*
G75*
G02*
X8654850Y-4560000I-50000J0D01*
G01*
X8654850Y-4560000D02*
G75*
G02*
X8754850Y-4560000I50000J0D01*
G01*
X8754850Y-4814000D02*
G75*
G02*
X8654850Y-4814000I-50000J0D01*
G01*
X8654850Y-4814000D02*
G75*
G02*
X8754850Y-4814000I50000J0D01*
G01*
X8754850Y-5068000D02*
G75*
G02*
X8654850Y-5068000I-50000J0D01*
G01*
X8654850Y-5068000D02*
G75*
G02*
X8754850Y-5068000I50000J0D01*
G01*
X8754850Y-5322000D02*
G75*
G02*
X8654850Y-5322000I-50000J0D01*
G01*
X8654850Y-5322000D02*
G75*
G02*
X8754850Y-5322000I50000J0D01*
G01*
D13*
X5072000Y-3519000D02*
X5072000Y-3621000D01*
X5021000Y-3570000D02*
X5123000Y-3570000D01*
X5072000Y-3773000D02*
X5072000Y-3875000D01*
X5021000Y-3824000D02*
X5123000Y-3824000D01*
X5072000Y-4027000D02*
X5072000Y-4129000D01*
X5021000Y-4078000D02*
X5123000Y-4078000D01*
X5072000Y-4281000D02*
X5072000Y-4383000D01*
X5021000Y-4332000D02*
X5123000Y-4332000D01*
X5072000Y-4535000D02*
X5072000Y-4637000D01*
X5021000Y-4586000D02*
X5123000Y-4586000D01*
X5072000Y-4789000D02*
X5072000Y-4891000D01*
X5021000Y-4840000D02*
X5123000Y-4840000D01*
X5072000Y-5043000D02*
X5072000Y-5145000D01*
X5021000Y-5094000D02*
X5123000Y-5094000D01*
X5072000Y-5297000D02*
X5072000Y-5399000D01*
X5021000Y-5348000D02*
X5123000Y-5348000D01*
X5072000Y-5551000D02*
X5072000Y-5653000D01*
X5021000Y-5602000D02*
X5123000Y-5602000D01*
X5072000Y-5805000D02*
X5072000Y-5907000D01*
X5021000Y-5856000D02*
X5123000Y-5856000D01*
X5072000Y-6059000D02*
X5072000Y-6161000D01*
X5021000Y-6110000D02*
X5123000Y-6110000D01*
X5072000Y-6313000D02*
X5072000Y-6415000D01*
X5021000Y-6364000D02*
X5123000Y-6364000D01*
X5072000Y-6567000D02*
X5072000Y-6669000D01*
X5021000Y-6618000D02*
X5123000Y-6618000D01*
X5072000Y-6821000D02*
X5072000Y-6923000D01*
X5021000Y-6872000D02*
X5123000Y-6872000D01*
X5072000Y-7075000D02*
X5072000Y-7177000D01*
X5021000Y-7126000D02*
X5123000Y-7126000D01*
X5072000Y-7329000D02*
X5072000Y-7431000D01*
X5021000Y-7380000D02*
X5123000Y-7380000D01*
X5072000Y-7583000D02*
X5072000Y-7685000D01*
X5021000Y-7634000D02*
X5123000Y-7634000D01*
X5072000Y-7837000D02*
X5072000Y-7939000D01*
X5021000Y-7888000D02*
X5123000Y-7888000D01*
X5072000Y-8091000D02*
X5072000Y-8193000D01*
X5021000Y-8142000D02*
X5123000Y-8142000D01*
X5072000Y-8345000D02*
X5072000Y-8447000D01*
X5021000Y-8396000D02*
X5123000Y-8396000D01*
X5707000Y-8322000D02*
X5707000Y-8424000D01*
X5656000Y-8373000D02*
X5758000Y-8373000D01*
X5961000Y-8322000D02*
X5961000Y-8424000D01*
X5910000Y-8373000D02*
X6012000Y-8373000D01*
X6215000Y-8322000D02*
X6215000Y-8424000D01*
X6164000Y-8373000D02*
X6266000Y-8373000D01*
X6850000Y-3519000D02*
X6850000Y-3621000D01*
X6799000Y-3570000D02*
X6901000Y-3570000D01*
X6850000Y-3773000D02*
X6850000Y-3875000D01*
X6799000Y-3824000D02*
X6901000Y-3824000D01*
X6850000Y-4027000D02*
X6850000Y-4129000D01*
X6799000Y-4078000D02*
X6901000Y-4078000D01*
X6850000Y-4281000D02*
X6850000Y-4383000D01*
X6799000Y-4332000D02*
X6901000Y-4332000D01*
X6850000Y-4535000D02*
X6850000Y-4637000D01*
X6799000Y-4586000D02*
X6901000Y-4586000D01*
X6850000Y-4789000D02*
X6850000Y-4891000D01*
X6799000Y-4840000D02*
X6901000Y-4840000D01*
X6850000Y-5043000D02*
X6850000Y-5145000D01*
X6799000Y-5094000D02*
X6901000Y-5094000D01*
X6850000Y-5297000D02*
X6850000Y-5399000D01*
X6799000Y-5348000D02*
X6901000Y-5348000D01*
X6850000Y-5551000D02*
X6850000Y-5653000D01*
X6799000Y-5602000D02*
X6901000Y-5602000D01*
X6850000Y-5805000D02*
X6850000Y-5907000D01*
X6799000Y-5856000D02*
X6901000Y-5856000D01*
X6850000Y-6059000D02*
X6850000Y-6161000D01*
X6799000Y-6110000D02*
X6901000Y-6110000D01*
X6850000Y-6313000D02*
X6850000Y-6415000D01*
X6799000Y-6364000D02*
X6901000Y-6364000D01*
X6850000Y-6567000D02*
X6850000Y-6669000D01*
X6799000Y-6618000D02*
X6901000Y-6618000D01*
X6850000Y-6821000D02*
X6850000Y-6923000D01*
X6799000Y-6872000D02*
X6901000Y-6872000D01*
X6850000Y-7075000D02*
X6850000Y-7177000D01*
X6799000Y-7126000D02*
X6901000Y-7126000D01*
X6850000Y-7329000D02*
X6850000Y-7431000D01*
X6799000Y-7380000D02*
X6901000Y-7380000D01*
X6850000Y-7583000D02*
X6850000Y-7685000D01*
X6799000Y-7634000D02*
X6901000Y-7634000D01*
X6850000Y-7837000D02*
X6850000Y-7939000D01*
X6799000Y-7888000D02*
X6901000Y-7888000D01*
X6850000Y-8091000D02*
X6850000Y-8193000D01*
X6799000Y-8142000D02*
X6901000Y-8142000D01*
X6850000Y-8345000D02*
X6850000Y-8447000D01*
X6799000Y-8396000D02*
X6901000Y-8396000D01*
D11*
X4758277Y-9113984D02*
X4758277Y-8913984D01*
X4758277Y-8913984D02*
X4805896Y-8913984D01*
X4805896Y-8913984D02*
X4834467Y-8923508D01*
X4834467Y-8923508D02*
X4853515Y-8942555D01*
X4853515Y-8942555D02*
X4863039Y-8961603D01*
X4863039Y-8961603D02*
X4872563Y-8999698D01*
X4872563Y-8999698D02*
X4872563Y-9028270D01*
X4872563Y-9028270D02*
X4863039Y-9066365D01*
X4863039Y-9066365D02*
X4853515Y-9085412D01*
X4853515Y-9085412D02*
X4834467Y-9104460D01*
X4834467Y-9104460D02*
X4805896Y-9113984D01*
X4805896Y-9113984D02*
X4758277Y-9113984D01*
X4958277Y-9113984D02*
X4958277Y-8980650D01*
X4958277Y-9018746D02*
X4967801Y-8999698D01*
X4967801Y-8999698D02*
X4977324Y-8990174D01*
X4977324Y-8990174D02*
X4996372Y-8980650D01*
X4996372Y-8980650D02*
X5015420Y-8980650D01*
X5082086Y-9113984D02*
X5082086Y-8980650D01*
X5082086Y-8913984D02*
X5072563Y-8923508D01*
X5072563Y-8923508D02*
X5082086Y-8933031D01*
X5082086Y-8933031D02*
X5091610Y-8923508D01*
X5091610Y-8923508D02*
X5082086Y-8913984D01*
X5082086Y-8913984D02*
X5082086Y-8933031D01*
X5205896Y-9113984D02*
X5186848Y-9104460D01*
X5186848Y-9104460D02*
X5177324Y-9085412D01*
X5177324Y-9085412D02*
X5177324Y-8913984D01*
X5310658Y-9113984D02*
X5291610Y-9104460D01*
X5291610Y-9104460D02*
X5282086Y-9085412D01*
X5282086Y-9085412D02*
X5282086Y-8913984D01*
X5539229Y-9113984D02*
X5539229Y-8913984D01*
X5539229Y-8913984D02*
X5605896Y-9056841D01*
X5605896Y-9056841D02*
X5672562Y-8913984D01*
X5672562Y-8913984D02*
X5672562Y-9113984D01*
X5853515Y-9113984D02*
X5853515Y-9009222D01*
X5853515Y-9009222D02*
X5843991Y-8990174D01*
X5843991Y-8990174D02*
X5824943Y-8980650D01*
X5824943Y-8980650D02*
X5786848Y-8980650D01*
X5786848Y-8980650D02*
X5767801Y-8990174D01*
X5853515Y-9104460D02*
X5834467Y-9113984D01*
X5834467Y-9113984D02*
X5786848Y-9113984D01*
X5786848Y-9113984D02*
X5767801Y-9104460D01*
X5767801Y-9104460D02*
X5758277Y-9085412D01*
X5758277Y-9085412D02*
X5758277Y-9066365D01*
X5758277Y-9066365D02*
X5767801Y-9047317D01*
X5767801Y-9047317D02*
X5786848Y-9037793D01*
X5786848Y-9037793D02*
X5834467Y-9037793D01*
X5834467Y-9037793D02*
X5853515Y-9028270D01*
X5948753Y-8980650D02*
X5948753Y-9180650D01*
X5948753Y-8990174D02*
X5967801Y-8980650D01*
X5967801Y-8980650D02*
X6005896Y-8980650D01*
X6005896Y-8980650D02*
X6024943Y-8990174D01*
X6024943Y-8990174D02*
X6034467Y-8999698D01*
X6034467Y-8999698D02*
X6043991Y-9018746D01*
X6043991Y-9018746D02*
X6043991Y-9075889D01*
X6043991Y-9075889D02*
X6034467Y-9094936D01*
X6034467Y-9094936D02*
X6024943Y-9104460D01*
X6024943Y-9104460D02*
X6005896Y-9113984D01*
X6005896Y-9113984D02*
X5967801Y-9113984D01*
X5967801Y-9113984D02*
X5948753Y-9104460D01*
X6129705Y-9094936D02*
X6139229Y-9104460D01*
X6139229Y-9104460D02*
X6129705Y-9113984D01*
X6129705Y-9113984D02*
X6120182Y-9104460D01*
X6120182Y-9104460D02*
X6129705Y-9094936D01*
X6129705Y-9094936D02*
X6129705Y-9113984D01*
X6129705Y-8990174D02*
X6139229Y-8999698D01*
X6139229Y-8999698D02*
X6129705Y-9009222D01*
X6129705Y-9009222D02*
X6120182Y-8999698D01*
X6120182Y-8999698D02*
X6129705Y-8990174D01*
X6129705Y-8990174D02*
X6129705Y-9009222D01*
D12*
X4417500Y-9402500D02*
X4497500Y-9482500D01*
X4497500Y-9402500D02*
X4417500Y-9482500D01*
D11*
X4796372Y-9333984D02*
X4815420Y-9333984D01*
X4815420Y-9333984D02*
X4834467Y-9343508D01*
X4834467Y-9343508D02*
X4843991Y-9353031D01*
X4843991Y-9353031D02*
X4853515Y-9372079D01*
X4853515Y-9372079D02*
X4863039Y-9410174D01*
X4863039Y-9410174D02*
X4863039Y-9457793D01*
X4863039Y-9457793D02*
X4853515Y-9495889D01*
X4853515Y-9495889D02*
X4843991Y-9514936D01*
X4843991Y-9514936D02*
X4834467Y-9524460D01*
X4834467Y-9524460D02*
X4815420Y-9533984D01*
X4815420Y-9533984D02*
X4796372Y-9533984D01*
X4796372Y-9533984D02*
X4777324Y-9524460D01*
X4777324Y-9524460D02*
X4767801Y-9514936D01*
X4767801Y-9514936D02*
X4758277Y-9495889D01*
X4758277Y-9495889D02*
X4748753Y-9457793D01*
X4748753Y-9457793D02*
X4748753Y-9410174D01*
X4748753Y-9410174D02*
X4758277Y-9372079D01*
X4758277Y-9372079D02*
X4767801Y-9353031D01*
X4767801Y-9353031D02*
X4777324Y-9343508D01*
X4777324Y-9343508D02*
X4796372Y-9333984D01*
X4948753Y-9514936D02*
X4958277Y-9524460D01*
X4958277Y-9524460D02*
X4948753Y-9533984D01*
X4948753Y-9533984D02*
X4939229Y-9524460D01*
X4939229Y-9524460D02*
X4948753Y-9514936D01*
X4948753Y-9514936D02*
X4948753Y-9533984D01*
X5072563Y-9419698D02*
X5053515Y-9410174D01*
X5053515Y-9410174D02*
X5043991Y-9400650D01*
X5043991Y-9400650D02*
X5034467Y-9381603D01*
X5034467Y-9381603D02*
X5034467Y-9372079D01*
X5034467Y-9372079D02*
X5043991Y-9353031D01*
X5043991Y-9353031D02*
X5053515Y-9343508D01*
X5053515Y-9343508D02*
X5072563Y-9333984D01*
X5072563Y-9333984D02*
X5110658Y-9333984D01*
X5110658Y-9333984D02*
X5129705Y-9343508D01*
X5129705Y-9343508D02*
X5139229Y-9353031D01*
X5139229Y-9353031D02*
X5148753Y-9372079D01*
X5148753Y-9372079D02*
X5148753Y-9381603D01*
X5148753Y-9381603D02*
X5139229Y-9400650D01*
X5139229Y-9400650D02*
X5129705Y-9410174D01*
X5129705Y-9410174D02*
X5110658Y-9419698D01*
X5110658Y-9419698D02*
X5072563Y-9419698D01*
X5072563Y-9419698D02*
X5053515Y-9429222D01*
X5053515Y-9429222D02*
X5043991Y-9438746D01*
X5043991Y-9438746D02*
X5034467Y-9457793D01*
X5034467Y-9457793D02*
X5034467Y-9495889D01*
X5034467Y-9495889D02*
X5043991Y-9514936D01*
X5043991Y-9514936D02*
X5053515Y-9524460D01*
X5053515Y-9524460D02*
X5072563Y-9533984D01*
X5072563Y-9533984D02*
X5110658Y-9533984D01*
X5110658Y-9533984D02*
X5129705Y-9524460D01*
X5129705Y-9524460D02*
X5139229Y-9514936D01*
X5139229Y-9514936D02*
X5148753Y-9495889D01*
X5148753Y-9495889D02*
X5148753Y-9457793D01*
X5148753Y-9457793D02*
X5139229Y-9438746D01*
X5139229Y-9438746D02*
X5129705Y-9429222D01*
X5129705Y-9429222D02*
X5110658Y-9419698D01*
X5272563Y-9333984D02*
X5291610Y-9333984D01*
X5291610Y-9333984D02*
X5310658Y-9343508D01*
X5310658Y-9343508D02*
X5320182Y-9353031D01*
X5320182Y-9353031D02*
X5329705Y-9372079D01*
X5329705Y-9372079D02*
X5339229Y-9410174D01*
X5339229Y-9410174D02*
X5339229Y-9457793D01*
X5339229Y-9457793D02*
X5329705Y-9495889D01*
X5329705Y-9495889D02*
X5320182Y-9514936D01*
X5320182Y-9514936D02*
X5310658Y-9524460D01*
X5310658Y-9524460D02*
X5291610Y-9533984D01*
X5291610Y-9533984D02*
X5272563Y-9533984D01*
X5272563Y-9533984D02*
X5253515Y-9524460D01*
X5253515Y-9524460D02*
X5243991Y-9514936D01*
X5243991Y-9514936D02*
X5234467Y-9495889D01*
X5234467Y-9495889D02*
X5224944Y-9457793D01*
X5224944Y-9457793D02*
X5224944Y-9410174D01*
X5224944Y-9410174D02*
X5234467Y-9372079D01*
X5234467Y-9372079D02*
X5243991Y-9353031D01*
X5243991Y-9353031D02*
X5253515Y-9343508D01*
X5253515Y-9343508D02*
X5272563Y-9333984D01*
X5463039Y-9333984D02*
X5482086Y-9333984D01*
X5482086Y-9333984D02*
X5501134Y-9343508D01*
X5501134Y-9343508D02*
X5510658Y-9353031D01*
X5510658Y-9353031D02*
X5520182Y-9372079D01*
X5520182Y-9372079D02*
X5529705Y-9410174D01*
X5529705Y-9410174D02*
X5529705Y-9457793D01*
X5529705Y-9457793D02*
X5520182Y-9495889D01*
X5520182Y-9495889D02*
X5510658Y-9514936D01*
X5510658Y-9514936D02*
X5501134Y-9524460D01*
X5501134Y-9524460D02*
X5482086Y-9533984D01*
X5482086Y-9533984D02*
X5463039Y-9533984D01*
X5463039Y-9533984D02*
X5443991Y-9524460D01*
X5443991Y-9524460D02*
X5434467Y-9514936D01*
X5434467Y-9514936D02*
X5424944Y-9495889D01*
X5424944Y-9495889D02*
X5415420Y-9457793D01*
X5415420Y-9457793D02*
X5415420Y-9410174D01*
X5415420Y-9410174D02*
X5424944Y-9372079D01*
X5424944Y-9372079D02*
X5434467Y-9353031D01*
X5434467Y-9353031D02*
X5443991Y-9343508D01*
X5443991Y-9343508D02*
X5463039Y-9333984D01*
X5615420Y-9533984D02*
X5615420Y-9400650D01*
X5615420Y-9419698D02*
X5624943Y-9410174D01*
X5624943Y-9410174D02*
X5643991Y-9400650D01*
X5643991Y-9400650D02*
X5672563Y-9400650D01*
X5672563Y-9400650D02*
X5691610Y-9410174D01*
X5691610Y-9410174D02*
X5701134Y-9429222D01*
X5701134Y-9429222D02*
X5701134Y-9533984D01*
X5701134Y-9429222D02*
X5710658Y-9410174D01*
X5710658Y-9410174D02*
X5729705Y-9400650D01*
X5729705Y-9400650D02*
X5758277Y-9400650D01*
X5758277Y-9400650D02*
X5777324Y-9410174D01*
X5777324Y-9410174D02*
X5786848Y-9429222D01*
X5786848Y-9429222D02*
X5786848Y-9533984D01*
X5882086Y-9533984D02*
X5882086Y-9400650D01*
X5882086Y-9419698D02*
X5891610Y-9410174D01*
X5891610Y-9410174D02*
X5910658Y-9400650D01*
X5910658Y-9400650D02*
X5939229Y-9400650D01*
X5939229Y-9400650D02*
X5958277Y-9410174D01*
X5958277Y-9410174D02*
X5967801Y-9429222D01*
X5967801Y-9429222D02*
X5967801Y-9533984D01*
X5967801Y-9429222D02*
X5977324Y-9410174D01*
X5977324Y-9410174D02*
X5996372Y-9400650D01*
X5996372Y-9400650D02*
X6024943Y-9400650D01*
X6024943Y-9400650D02*
X6043991Y-9410174D01*
X6043991Y-9410174D02*
X6053515Y-9429222D01*
X6053515Y-9429222D02*
X6053515Y-9533984D01*
X6443991Y-9324460D02*
X6272563Y-9581603D01*
X6701134Y-9333984D02*
X6720182Y-9333984D01*
X6720182Y-9333984D02*
X6739229Y-9343508D01*
X6739229Y-9343508D02*
X6748753Y-9353031D01*
X6748753Y-9353031D02*
X6758277Y-9372079D01*
X6758277Y-9372079D02*
X6767801Y-9410174D01*
X6767801Y-9410174D02*
X6767801Y-9457793D01*
X6767801Y-9457793D02*
X6758277Y-9495889D01*
X6758277Y-9495889D02*
X6748753Y-9514936D01*
X6748753Y-9514936D02*
X6739229Y-9524460D01*
X6739229Y-9524460D02*
X6720182Y-9533984D01*
X6720182Y-9533984D02*
X6701134Y-9533984D01*
X6701134Y-9533984D02*
X6682086Y-9524460D01*
X6682086Y-9524460D02*
X6672563Y-9514936D01*
X6672563Y-9514936D02*
X6663039Y-9495889D01*
X6663039Y-9495889D02*
X6653515Y-9457793D01*
X6653515Y-9457793D02*
X6653515Y-9410174D01*
X6653515Y-9410174D02*
X6663039Y-9372079D01*
X6663039Y-9372079D02*
X6672563Y-9353031D01*
X6672563Y-9353031D02*
X6682086Y-9343508D01*
X6682086Y-9343508D02*
X6701134Y-9333984D01*
X6853515Y-9514936D02*
X6863039Y-9524460D01*
X6863039Y-9524460D02*
X6853515Y-9533984D01*
X6853515Y-9533984D02*
X6843991Y-9524460D01*
X6843991Y-9524460D02*
X6853515Y-9514936D01*
X6853515Y-9514936D02*
X6853515Y-9533984D01*
X6986848Y-9333984D02*
X7005896Y-9333984D01*
X7005896Y-9333984D02*
X7024944Y-9343508D01*
X7024944Y-9343508D02*
X7034467Y-9353031D01*
X7034467Y-9353031D02*
X7043991Y-9372079D01*
X7043991Y-9372079D02*
X7053515Y-9410174D01*
X7053515Y-9410174D02*
X7053515Y-9457793D01*
X7053515Y-9457793D02*
X7043991Y-9495889D01*
X7043991Y-9495889D02*
X7034467Y-9514936D01*
X7034467Y-9514936D02*
X7024944Y-9524460D01*
X7024944Y-9524460D02*
X7005896Y-9533984D01*
X7005896Y-9533984D02*
X6986848Y-9533984D01*
X6986848Y-9533984D02*
X6967801Y-9524460D01*
X6967801Y-9524460D02*
X6958277Y-9514936D01*
X6958277Y-9514936D02*
X6948753Y-9495889D01*
X6948753Y-9495889D02*
X6939229Y-9457793D01*
X6939229Y-9457793D02*
X6939229Y-9410174D01*
X6939229Y-9410174D02*
X6948753Y-9372079D01*
X6948753Y-9372079D02*
X6958277Y-9353031D01*
X6958277Y-9353031D02*
X6967801Y-9343508D01*
X6967801Y-9343508D02*
X6986848Y-9333984D01*
X7120182Y-9333984D02*
X7243991Y-9333984D01*
X7243991Y-9333984D02*
X7177325Y-9410174D01*
X7177325Y-9410174D02*
X7205896Y-9410174D01*
X7205896Y-9410174D02*
X7224944Y-9419698D01*
X7224944Y-9419698D02*
X7234467Y-9429222D01*
X7234467Y-9429222D02*
X7243991Y-9448270D01*
X7243991Y-9448270D02*
X7243991Y-9495889D01*
X7243991Y-9495889D02*
X7234467Y-9514936D01*
X7234467Y-9514936D02*
X7224944Y-9524460D01*
X7224944Y-9524460D02*
X7205896Y-9533984D01*
X7205896Y-9533984D02*
X7148753Y-9533984D01*
X7148753Y-9533984D02*
X7129706Y-9524460D01*
X7129706Y-9524460D02*
X7120182Y-9514936D01*
X7434467Y-9533984D02*
X7320182Y-9533984D01*
X7377325Y-9533984D02*
X7377325Y-9333984D01*
X7377325Y-9333984D02*
X7358277Y-9362555D01*
X7358277Y-9362555D02*
X7339229Y-9381603D01*
X7339229Y-9381603D02*
X7320182Y-9391127D01*
X7615420Y-9333984D02*
X7520182Y-9333984D01*
X7520182Y-9333984D02*
X7510658Y-9429222D01*
X7510658Y-9429222D02*
X7520182Y-9419698D01*
X7520182Y-9419698D02*
X7539229Y-9410174D01*
X7539229Y-9410174D02*
X7586848Y-9410174D01*
X7586848Y-9410174D02*
X7605896Y-9419698D01*
X7605896Y-9419698D02*
X7615420Y-9429222D01*
X7615420Y-9429222D02*
X7624944Y-9448270D01*
X7624944Y-9448270D02*
X7624944Y-9495889D01*
X7624944Y-9495889D02*
X7615420Y-9514936D01*
X7615420Y-9514936D02*
X7605896Y-9524460D01*
X7605896Y-9524460D02*
X7586848Y-9533984D01*
X7586848Y-9533984D02*
X7539229Y-9533984D01*
X7539229Y-9533984D02*
X7520182Y-9524460D01*
X7520182Y-9524460D02*
X7510658Y-9514936D01*
X7701134Y-9333984D02*
X7701134Y-9372079D01*
X7777325Y-9333984D02*
X7777325Y-9372079D01*
X8072563Y-9610174D02*
X8063039Y-9600650D01*
X8063039Y-9600650D02*
X8043991Y-9572079D01*
X8043991Y-9572079D02*
X8034468Y-9553031D01*
X8034468Y-9553031D02*
X8024944Y-9524460D01*
X8024944Y-9524460D02*
X8015420Y-9476841D01*
X8015420Y-9476841D02*
X8015420Y-9438746D01*
X8015420Y-9438746D02*
X8024944Y-9391127D01*
X8024944Y-9391127D02*
X8034468Y-9362555D01*
X8034468Y-9362555D02*
X8043991Y-9343508D01*
X8043991Y-9343508D02*
X8063039Y-9314936D01*
X8063039Y-9314936D02*
X8072563Y-9305412D01*
X8177325Y-9419698D02*
X8158277Y-9410174D01*
X8158277Y-9410174D02*
X8148753Y-9400650D01*
X8148753Y-9400650D02*
X8139229Y-9381603D01*
X8139229Y-9381603D02*
X8139229Y-9372079D01*
X8139229Y-9372079D02*
X8148753Y-9353031D01*
X8148753Y-9353031D02*
X8158277Y-9343508D01*
X8158277Y-9343508D02*
X8177325Y-9333984D01*
X8177325Y-9333984D02*
X8215420Y-9333984D01*
X8215420Y-9333984D02*
X8234468Y-9343508D01*
X8234468Y-9343508D02*
X8243991Y-9353031D01*
X8243991Y-9353031D02*
X8253515Y-9372079D01*
X8253515Y-9372079D02*
X8253515Y-9381603D01*
X8253515Y-9381603D02*
X8243991Y-9400650D01*
X8243991Y-9400650D02*
X8234468Y-9410174D01*
X8234468Y-9410174D02*
X8215420Y-9419698D01*
X8215420Y-9419698D02*
X8177325Y-9419698D01*
X8177325Y-9419698D02*
X8158277Y-9429222D01*
X8158277Y-9429222D02*
X8148753Y-9438746D01*
X8148753Y-9438746D02*
X8139229Y-9457793D01*
X8139229Y-9457793D02*
X8139229Y-9495889D01*
X8139229Y-9495889D02*
X8148753Y-9514936D01*
X8148753Y-9514936D02*
X8158277Y-9524460D01*
X8158277Y-9524460D02*
X8177325Y-9533984D01*
X8177325Y-9533984D02*
X8215420Y-9533984D01*
X8215420Y-9533984D02*
X8234468Y-9524460D01*
X8234468Y-9524460D02*
X8243991Y-9514936D01*
X8243991Y-9514936D02*
X8253515Y-9495889D01*
X8253515Y-9495889D02*
X8253515Y-9457793D01*
X8253515Y-9457793D02*
X8243991Y-9438746D01*
X8243991Y-9438746D02*
X8234468Y-9429222D01*
X8234468Y-9429222D02*
X8215420Y-9419698D01*
X8491611Y-9533984D02*
X8491611Y-9333984D01*
X8577325Y-9533984D02*
X8577325Y-9429222D01*
X8577325Y-9429222D02*
X8567801Y-9410174D01*
X8567801Y-9410174D02*
X8548753Y-9400650D01*
X8548753Y-9400650D02*
X8520182Y-9400650D01*
X8520182Y-9400650D02*
X8501134Y-9410174D01*
X8501134Y-9410174D02*
X8491611Y-9419698D01*
X8701134Y-9533984D02*
X8682087Y-9524460D01*
X8682087Y-9524460D02*
X8672563Y-9514936D01*
X8672563Y-9514936D02*
X8663039Y-9495889D01*
X8663039Y-9495889D02*
X8663039Y-9438746D01*
X8663039Y-9438746D02*
X8672563Y-9419698D01*
X8672563Y-9419698D02*
X8682087Y-9410174D01*
X8682087Y-9410174D02*
X8701134Y-9400650D01*
X8701134Y-9400650D02*
X8729706Y-9400650D01*
X8729706Y-9400650D02*
X8748753Y-9410174D01*
X8748753Y-9410174D02*
X8758277Y-9419698D01*
X8758277Y-9419698D02*
X8767801Y-9438746D01*
X8767801Y-9438746D02*
X8767801Y-9495889D01*
X8767801Y-9495889D02*
X8758277Y-9514936D01*
X8758277Y-9514936D02*
X8748753Y-9524460D01*
X8748753Y-9524460D02*
X8729706Y-9533984D01*
X8729706Y-9533984D02*
X8701134Y-9533984D01*
X8882087Y-9533984D02*
X8863039Y-9524460D01*
X8863039Y-9524460D02*
X8853515Y-9505412D01*
X8853515Y-9505412D02*
X8853515Y-9333984D01*
X9034468Y-9524460D02*
X9015420Y-9533984D01*
X9015420Y-9533984D02*
X8977325Y-9533984D01*
X8977325Y-9533984D02*
X8958277Y-9524460D01*
X8958277Y-9524460D02*
X8948753Y-9505412D01*
X8948753Y-9505412D02*
X8948753Y-9429222D01*
X8948753Y-9429222D02*
X8958277Y-9410174D01*
X8958277Y-9410174D02*
X8977325Y-9400650D01*
X8977325Y-9400650D02*
X9015420Y-9400650D01*
X9015420Y-9400650D02*
X9034468Y-9410174D01*
X9034468Y-9410174D02*
X9043992Y-9429222D01*
X9043992Y-9429222D02*
X9043992Y-9448270D01*
X9043992Y-9448270D02*
X8948753Y-9467317D01*
X9120182Y-9524460D02*
X9139230Y-9533984D01*
X9139230Y-9533984D02*
X9177325Y-9533984D01*
X9177325Y-9533984D02*
X9196373Y-9524460D01*
X9196373Y-9524460D02*
X9205896Y-9505412D01*
X9205896Y-9505412D02*
X9205896Y-9495889D01*
X9205896Y-9495889D02*
X9196373Y-9476841D01*
X9196373Y-9476841D02*
X9177325Y-9467317D01*
X9177325Y-9467317D02*
X9148753Y-9467317D01*
X9148753Y-9467317D02*
X9129706Y-9457793D01*
X9129706Y-9457793D02*
X9120182Y-9438746D01*
X9120182Y-9438746D02*
X9120182Y-9429222D01*
X9120182Y-9429222D02*
X9129706Y-9410174D01*
X9129706Y-9410174D02*
X9148753Y-9400650D01*
X9148753Y-9400650D02*
X9177325Y-9400650D01*
X9177325Y-9400650D02*
X9196373Y-9410174D01*
X9272563Y-9610174D02*
X9282087Y-9600650D01*
X9282087Y-9600650D02*
X9301134Y-9572079D01*
X9301134Y-9572079D02*
X9310658Y-9553031D01*
X9310658Y-9553031D02*
X9320182Y-9524460D01*
X9320182Y-9524460D02*
X9329706Y-9476841D01*
X9329706Y-9476841D02*
X9329706Y-9438746D01*
X9329706Y-9438746D02*
X9320182Y-9391127D01*
X9320182Y-9391127D02*
X9310658Y-9362555D01*
X9310658Y-9362555D02*
X9301134Y-9343508D01*
X9301134Y-9343508D02*
X9282087Y-9314936D01*
X9282087Y-9314936D02*
X9272563Y-9305412D01*
D12*
X4497500Y-9706500D02*
G75*
G02*
X4397500Y-9706500I-50000J0D01*
G01*
X4397500Y-9706500D02*
G75*
G02*
X4497500Y-9706500I50000J0D01*
G01*
D11*
X4863039Y-9797984D02*
X4748753Y-9797984D01*
X4805896Y-9797984D02*
X4805896Y-9597984D01*
X4805896Y-9597984D02*
X4786848Y-9626555D01*
X4786848Y-9626555D02*
X4767801Y-9645603D01*
X4767801Y-9645603D02*
X4748753Y-9655127D01*
X4948753Y-9778936D02*
X4958277Y-9788460D01*
X4958277Y-9788460D02*
X4948753Y-9797984D01*
X4948753Y-9797984D02*
X4939229Y-9788460D01*
X4939229Y-9788460D02*
X4948753Y-9778936D01*
X4948753Y-9778936D02*
X4948753Y-9797984D01*
X5082086Y-9597984D02*
X5101134Y-9597984D01*
X5101134Y-9597984D02*
X5120182Y-9607508D01*
X5120182Y-9607508D02*
X5129705Y-9617031D01*
X5129705Y-9617031D02*
X5139229Y-9636079D01*
X5139229Y-9636079D02*
X5148753Y-9674174D01*
X5148753Y-9674174D02*
X5148753Y-9721793D01*
X5148753Y-9721793D02*
X5139229Y-9759889D01*
X5139229Y-9759889D02*
X5129705Y-9778936D01*
X5129705Y-9778936D02*
X5120182Y-9788460D01*
X5120182Y-9788460D02*
X5101134Y-9797984D01*
X5101134Y-9797984D02*
X5082086Y-9797984D01*
X5082086Y-9797984D02*
X5063039Y-9788460D01*
X5063039Y-9788460D02*
X5053515Y-9778936D01*
X5053515Y-9778936D02*
X5043991Y-9759889D01*
X5043991Y-9759889D02*
X5034467Y-9721793D01*
X5034467Y-9721793D02*
X5034467Y-9674174D01*
X5034467Y-9674174D02*
X5043991Y-9636079D01*
X5043991Y-9636079D02*
X5053515Y-9617031D01*
X5053515Y-9617031D02*
X5063039Y-9607508D01*
X5063039Y-9607508D02*
X5082086Y-9597984D01*
X5272563Y-9597984D02*
X5291610Y-9597984D01*
X5291610Y-9597984D02*
X5310658Y-9607508D01*
X5310658Y-9607508D02*
X5320182Y-9617031D01*
X5320182Y-9617031D02*
X5329705Y-9636079D01*
X5329705Y-9636079D02*
X5339229Y-9674174D01*
X5339229Y-9674174D02*
X5339229Y-9721793D01*
X5339229Y-9721793D02*
X5329705Y-9759889D01*
X5329705Y-9759889D02*
X5320182Y-9778936D01*
X5320182Y-9778936D02*
X5310658Y-9788460D01*
X5310658Y-9788460D02*
X5291610Y-9797984D01*
X5291610Y-9797984D02*
X5272563Y-9797984D01*
X5272563Y-9797984D02*
X5253515Y-9788460D01*
X5253515Y-9788460D02*
X5243991Y-9778936D01*
X5243991Y-9778936D02*
X5234467Y-9759889D01*
X5234467Y-9759889D02*
X5224944Y-9721793D01*
X5224944Y-9721793D02*
X5224944Y-9674174D01*
X5224944Y-9674174D02*
X5234467Y-9636079D01*
X5234467Y-9636079D02*
X5243991Y-9617031D01*
X5243991Y-9617031D02*
X5253515Y-9607508D01*
X5253515Y-9607508D02*
X5272563Y-9597984D01*
X5463039Y-9597984D02*
X5482086Y-9597984D01*
X5482086Y-9597984D02*
X5501134Y-9607508D01*
X5501134Y-9607508D02*
X5510658Y-9617031D01*
X5510658Y-9617031D02*
X5520182Y-9636079D01*
X5520182Y-9636079D02*
X5529705Y-9674174D01*
X5529705Y-9674174D02*
X5529705Y-9721793D01*
X5529705Y-9721793D02*
X5520182Y-9759889D01*
X5520182Y-9759889D02*
X5510658Y-9778936D01*
X5510658Y-9778936D02*
X5501134Y-9788460D01*
X5501134Y-9788460D02*
X5482086Y-9797984D01*
X5482086Y-9797984D02*
X5463039Y-9797984D01*
X5463039Y-9797984D02*
X5443991Y-9788460D01*
X5443991Y-9788460D02*
X5434467Y-9778936D01*
X5434467Y-9778936D02*
X5424944Y-9759889D01*
X5424944Y-9759889D02*
X5415420Y-9721793D01*
X5415420Y-9721793D02*
X5415420Y-9674174D01*
X5415420Y-9674174D02*
X5424944Y-9636079D01*
X5424944Y-9636079D02*
X5434467Y-9617031D01*
X5434467Y-9617031D02*
X5443991Y-9607508D01*
X5443991Y-9607508D02*
X5463039Y-9597984D01*
X5615420Y-9797984D02*
X5615420Y-9664650D01*
X5615420Y-9683698D02*
X5624943Y-9674174D01*
X5624943Y-9674174D02*
X5643991Y-9664650D01*
X5643991Y-9664650D02*
X5672563Y-9664650D01*
X5672563Y-9664650D02*
X5691610Y-9674174D01*
X5691610Y-9674174D02*
X5701134Y-9693222D01*
X5701134Y-9693222D02*
X5701134Y-9797984D01*
X5701134Y-9693222D02*
X5710658Y-9674174D01*
X5710658Y-9674174D02*
X5729705Y-9664650D01*
X5729705Y-9664650D02*
X5758277Y-9664650D01*
X5758277Y-9664650D02*
X5777324Y-9674174D01*
X5777324Y-9674174D02*
X5786848Y-9693222D01*
X5786848Y-9693222D02*
X5786848Y-9797984D01*
X5882086Y-9797984D02*
X5882086Y-9664650D01*
X5882086Y-9683698D02*
X5891610Y-9674174D01*
X5891610Y-9674174D02*
X5910658Y-9664650D01*
X5910658Y-9664650D02*
X5939229Y-9664650D01*
X5939229Y-9664650D02*
X5958277Y-9674174D01*
X5958277Y-9674174D02*
X5967801Y-9693222D01*
X5967801Y-9693222D02*
X5967801Y-9797984D01*
X5967801Y-9693222D02*
X5977324Y-9674174D01*
X5977324Y-9674174D02*
X5996372Y-9664650D01*
X5996372Y-9664650D02*
X6024943Y-9664650D01*
X6024943Y-9664650D02*
X6043991Y-9674174D01*
X6043991Y-9674174D02*
X6053515Y-9693222D01*
X6053515Y-9693222D02*
X6053515Y-9797984D01*
X6443991Y-9588460D02*
X6272563Y-9845603D01*
X6701134Y-9597984D02*
X6720182Y-9597984D01*
X6720182Y-9597984D02*
X6739229Y-9607508D01*
X6739229Y-9607508D02*
X6748753Y-9617031D01*
X6748753Y-9617031D02*
X6758277Y-9636079D01*
X6758277Y-9636079D02*
X6767801Y-9674174D01*
X6767801Y-9674174D02*
X6767801Y-9721793D01*
X6767801Y-9721793D02*
X6758277Y-9759889D01*
X6758277Y-9759889D02*
X6748753Y-9778936D01*
X6748753Y-9778936D02*
X6739229Y-9788460D01*
X6739229Y-9788460D02*
X6720182Y-9797984D01*
X6720182Y-9797984D02*
X6701134Y-9797984D01*
X6701134Y-9797984D02*
X6682086Y-9788460D01*
X6682086Y-9788460D02*
X6672563Y-9778936D01*
X6672563Y-9778936D02*
X6663039Y-9759889D01*
X6663039Y-9759889D02*
X6653515Y-9721793D01*
X6653515Y-9721793D02*
X6653515Y-9674174D01*
X6653515Y-9674174D02*
X6663039Y-9636079D01*
X6663039Y-9636079D02*
X6672563Y-9617031D01*
X6672563Y-9617031D02*
X6682086Y-9607508D01*
X6682086Y-9607508D02*
X6701134Y-9597984D01*
X6853515Y-9778936D02*
X6863039Y-9788460D01*
X6863039Y-9788460D02*
X6853515Y-9797984D01*
X6853515Y-9797984D02*
X6843991Y-9788460D01*
X6843991Y-9788460D02*
X6853515Y-9778936D01*
X6853515Y-9778936D02*
X6853515Y-9797984D01*
X6986848Y-9597984D02*
X7005896Y-9597984D01*
X7005896Y-9597984D02*
X7024944Y-9607508D01*
X7024944Y-9607508D02*
X7034467Y-9617031D01*
X7034467Y-9617031D02*
X7043991Y-9636079D01*
X7043991Y-9636079D02*
X7053515Y-9674174D01*
X7053515Y-9674174D02*
X7053515Y-9721793D01*
X7053515Y-9721793D02*
X7043991Y-9759889D01*
X7043991Y-9759889D02*
X7034467Y-9778936D01*
X7034467Y-9778936D02*
X7024944Y-9788460D01*
X7024944Y-9788460D02*
X7005896Y-9797984D01*
X7005896Y-9797984D02*
X6986848Y-9797984D01*
X6986848Y-9797984D02*
X6967801Y-9788460D01*
X6967801Y-9788460D02*
X6958277Y-9778936D01*
X6958277Y-9778936D02*
X6948753Y-9759889D01*
X6948753Y-9759889D02*
X6939229Y-9721793D01*
X6939229Y-9721793D02*
X6939229Y-9674174D01*
X6939229Y-9674174D02*
X6948753Y-9636079D01*
X6948753Y-9636079D02*
X6958277Y-9617031D01*
X6958277Y-9617031D02*
X6967801Y-9607508D01*
X6967801Y-9607508D02*
X6986848Y-9597984D01*
X7120182Y-9597984D02*
X7243991Y-9597984D01*
X7243991Y-9597984D02*
X7177325Y-9674174D01*
X7177325Y-9674174D02*
X7205896Y-9674174D01*
X7205896Y-9674174D02*
X7224944Y-9683698D01*
X7224944Y-9683698D02*
X7234467Y-9693222D01*
X7234467Y-9693222D02*
X7243991Y-9712270D01*
X7243991Y-9712270D02*
X7243991Y-9759889D01*
X7243991Y-9759889D02*
X7234467Y-9778936D01*
X7234467Y-9778936D02*
X7224944Y-9788460D01*
X7224944Y-9788460D02*
X7205896Y-9797984D01*
X7205896Y-9797984D02*
X7148753Y-9797984D01*
X7148753Y-9797984D02*
X7129706Y-9788460D01*
X7129706Y-9788460D02*
X7120182Y-9778936D01*
X7339229Y-9797984D02*
X7377325Y-9797984D01*
X7377325Y-9797984D02*
X7396372Y-9788460D01*
X7396372Y-9788460D02*
X7405896Y-9778936D01*
X7405896Y-9778936D02*
X7424944Y-9750365D01*
X7424944Y-9750365D02*
X7434467Y-9712270D01*
X7434467Y-9712270D02*
X7434467Y-9636079D01*
X7434467Y-9636079D02*
X7424944Y-9617031D01*
X7424944Y-9617031D02*
X7415420Y-9607508D01*
X7415420Y-9607508D02*
X7396372Y-9597984D01*
X7396372Y-9597984D02*
X7358277Y-9597984D01*
X7358277Y-9597984D02*
X7339229Y-9607508D01*
X7339229Y-9607508D02*
X7329706Y-9617031D01*
X7329706Y-9617031D02*
X7320182Y-9636079D01*
X7320182Y-9636079D02*
X7320182Y-9683698D01*
X7320182Y-9683698D02*
X7329706Y-9702746D01*
X7329706Y-9702746D02*
X7339229Y-9712270D01*
X7339229Y-9712270D02*
X7358277Y-9721793D01*
X7358277Y-9721793D02*
X7396372Y-9721793D01*
X7396372Y-9721793D02*
X7415420Y-9712270D01*
X7415420Y-9712270D02*
X7424944Y-9702746D01*
X7424944Y-9702746D02*
X7434467Y-9683698D01*
X7605896Y-9664650D02*
X7605896Y-9797984D01*
X7558277Y-9588460D02*
X7510658Y-9731317D01*
X7510658Y-9731317D02*
X7634467Y-9731317D01*
X7701134Y-9597984D02*
X7701134Y-9636079D01*
X7777325Y-9597984D02*
X7777325Y-9636079D01*
X8072563Y-9874174D02*
X8063039Y-9864650D01*
X8063039Y-9864650D02*
X8043991Y-9836079D01*
X8043991Y-9836079D02*
X8034468Y-9817031D01*
X8034468Y-9817031D02*
X8024944Y-9788460D01*
X8024944Y-9788460D02*
X8015420Y-9740841D01*
X8015420Y-9740841D02*
X8015420Y-9702746D01*
X8015420Y-9702746D02*
X8024944Y-9655127D01*
X8024944Y-9655127D02*
X8034468Y-9626555D01*
X8034468Y-9626555D02*
X8043991Y-9607508D01*
X8043991Y-9607508D02*
X8063039Y-9578936D01*
X8063039Y-9578936D02*
X8072563Y-9569412D01*
X8253515Y-9797984D02*
X8139229Y-9797984D01*
X8196372Y-9797984D02*
X8196372Y-9597984D01*
X8196372Y-9597984D02*
X8177325Y-9626555D01*
X8177325Y-9626555D02*
X8158277Y-9645603D01*
X8158277Y-9645603D02*
X8139229Y-9655127D01*
X8424944Y-9597984D02*
X8386848Y-9597984D01*
X8386848Y-9597984D02*
X8367801Y-9607508D01*
X8367801Y-9607508D02*
X8358277Y-9617031D01*
X8358277Y-9617031D02*
X8339229Y-9645603D01*
X8339229Y-9645603D02*
X8329706Y-9683698D01*
X8329706Y-9683698D02*
X8329706Y-9759889D01*
X8329706Y-9759889D02*
X8339229Y-9778936D01*
X8339229Y-9778936D02*
X8348753Y-9788460D01*
X8348753Y-9788460D02*
X8367801Y-9797984D01*
X8367801Y-9797984D02*
X8405896Y-9797984D01*
X8405896Y-9797984D02*
X8424944Y-9788460D01*
X8424944Y-9788460D02*
X8434468Y-9778936D01*
X8434468Y-9778936D02*
X8443991Y-9759889D01*
X8443991Y-9759889D02*
X8443991Y-9712270D01*
X8443991Y-9712270D02*
X8434468Y-9693222D01*
X8434468Y-9693222D02*
X8424944Y-9683698D01*
X8424944Y-9683698D02*
X8405896Y-9674174D01*
X8405896Y-9674174D02*
X8367801Y-9674174D01*
X8367801Y-9674174D02*
X8348753Y-9683698D01*
X8348753Y-9683698D02*
X8339229Y-9693222D01*
X8339229Y-9693222D02*
X8329706Y-9712270D01*
X8682087Y-9797984D02*
X8682087Y-9597984D01*
X8767801Y-9797984D02*
X8767801Y-9693222D01*
X8767801Y-9693222D02*
X8758277Y-9674174D01*
X8758277Y-9674174D02*
X8739230Y-9664650D01*
X8739230Y-9664650D02*
X8710658Y-9664650D01*
X8710658Y-9664650D02*
X8691611Y-9674174D01*
X8691611Y-9674174D02*
X8682087Y-9683698D01*
X8891611Y-9797984D02*
X8872563Y-9788460D01*
X8872563Y-9788460D02*
X8863039Y-9778936D01*
X8863039Y-9778936D02*
X8853515Y-9759889D01*
X8853515Y-9759889D02*
X8853515Y-9702746D01*
X8853515Y-9702746D02*
X8863039Y-9683698D01*
X8863039Y-9683698D02*
X8872563Y-9674174D01*
X8872563Y-9674174D02*
X8891611Y-9664650D01*
X8891611Y-9664650D02*
X8920182Y-9664650D01*
X8920182Y-9664650D02*
X8939230Y-9674174D01*
X8939230Y-9674174D02*
X8948753Y-9683698D01*
X8948753Y-9683698D02*
X8958277Y-9702746D01*
X8958277Y-9702746D02*
X8958277Y-9759889D01*
X8958277Y-9759889D02*
X8948753Y-9778936D01*
X8948753Y-9778936D02*
X8939230Y-9788460D01*
X8939230Y-9788460D02*
X8920182Y-9797984D01*
X8920182Y-9797984D02*
X8891611Y-9797984D01*
X9072563Y-9797984D02*
X9053515Y-9788460D01*
X9053515Y-9788460D02*
X9043992Y-9769412D01*
X9043992Y-9769412D02*
X9043992Y-9597984D01*
X9224944Y-9788460D02*
X9205896Y-9797984D01*
X9205896Y-9797984D02*
X9167801Y-9797984D01*
X9167801Y-9797984D02*
X9148753Y-9788460D01*
X9148753Y-9788460D02*
X9139230Y-9769412D01*
X9139230Y-9769412D02*
X9139230Y-9693222D01*
X9139230Y-9693222D02*
X9148753Y-9674174D01*
X9148753Y-9674174D02*
X9167801Y-9664650D01*
X9167801Y-9664650D02*
X9205896Y-9664650D01*
X9205896Y-9664650D02*
X9224944Y-9674174D01*
X9224944Y-9674174D02*
X9234468Y-9693222D01*
X9234468Y-9693222D02*
X9234468Y-9712270D01*
X9234468Y-9712270D02*
X9139230Y-9731317D01*
X9310658Y-9788460D02*
X9329706Y-9797984D01*
X9329706Y-9797984D02*
X9367801Y-9797984D01*
X9367801Y-9797984D02*
X9386849Y-9788460D01*
X9386849Y-9788460D02*
X9396373Y-9769412D01*
X9396373Y-9769412D02*
X9396373Y-9759889D01*
X9396373Y-9759889D02*
X9386849Y-9740841D01*
X9386849Y-9740841D02*
X9367801Y-9731317D01*
X9367801Y-9731317D02*
X9339230Y-9731317D01*
X9339230Y-9731317D02*
X9320182Y-9721793D01*
X9320182Y-9721793D02*
X9310658Y-9702746D01*
X9310658Y-9702746D02*
X9310658Y-9693222D01*
X9310658Y-9693222D02*
X9320182Y-9674174D01*
X9320182Y-9674174D02*
X9339230Y-9664650D01*
X9339230Y-9664650D02*
X9367801Y-9664650D01*
X9367801Y-9664650D02*
X9386849Y-9674174D01*
X9463039Y-9874174D02*
X9472563Y-9864650D01*
X9472563Y-9864650D02*
X9491611Y-9836079D01*
X9491611Y-9836079D02*
X9501134Y-9817031D01*
X9501134Y-9817031D02*
X9510658Y-9788460D01*
X9510658Y-9788460D02*
X9520182Y-9740841D01*
X9520182Y-9740841D02*
X9520182Y-9702746D01*
X9520182Y-9702746D02*
X9510658Y-9655127D01*
X9510658Y-9655127D02*
X9501134Y-9626555D01*
X9501134Y-9626555D02*
X9491611Y-9607508D01*
X9491611Y-9607508D02*
X9472563Y-9578936D01*
X9472563Y-9578936D02*
X9463039Y-9569412D01*
D13*
X4446500Y-9919500D02*
X4446500Y-10021500D01*
X4395500Y-9970500D02*
X4497500Y-9970500D01*
D11*
X4863039Y-10061984D02*
X4748753Y-10061984D01*
X4805896Y-10061984D02*
X4805896Y-9861984D01*
X4805896Y-9861984D02*
X4786848Y-9890555D01*
X4786848Y-9890555D02*
X4767801Y-9909603D01*
X4767801Y-9909603D02*
X4748753Y-9919127D01*
X4948753Y-10042936D02*
X4958277Y-10052460D01*
X4958277Y-10052460D02*
X4948753Y-10061984D01*
X4948753Y-10061984D02*
X4939229Y-10052460D01*
X4939229Y-10052460D02*
X4948753Y-10042936D01*
X4948753Y-10042936D02*
X4948753Y-10061984D01*
X5082086Y-9861984D02*
X5101134Y-9861984D01*
X5101134Y-9861984D02*
X5120182Y-9871508D01*
X5120182Y-9871508D02*
X5129705Y-9881031D01*
X5129705Y-9881031D02*
X5139229Y-9900079D01*
X5139229Y-9900079D02*
X5148753Y-9938174D01*
X5148753Y-9938174D02*
X5148753Y-9985793D01*
X5148753Y-9985793D02*
X5139229Y-10023889D01*
X5139229Y-10023889D02*
X5129705Y-10042936D01*
X5129705Y-10042936D02*
X5120182Y-10052460D01*
X5120182Y-10052460D02*
X5101134Y-10061984D01*
X5101134Y-10061984D02*
X5082086Y-10061984D01*
X5082086Y-10061984D02*
X5063039Y-10052460D01*
X5063039Y-10052460D02*
X5053515Y-10042936D01*
X5053515Y-10042936D02*
X5043991Y-10023889D01*
X5043991Y-10023889D02*
X5034467Y-9985793D01*
X5034467Y-9985793D02*
X5034467Y-9938174D01*
X5034467Y-9938174D02*
X5043991Y-9900079D01*
X5043991Y-9900079D02*
X5053515Y-9881031D01*
X5053515Y-9881031D02*
X5063039Y-9871508D01*
X5063039Y-9871508D02*
X5082086Y-9861984D01*
X5224944Y-9881031D02*
X5234467Y-9871508D01*
X5234467Y-9871508D02*
X5253515Y-9861984D01*
X5253515Y-9861984D02*
X5301134Y-9861984D01*
X5301134Y-9861984D02*
X5320182Y-9871508D01*
X5320182Y-9871508D02*
X5329705Y-9881031D01*
X5329705Y-9881031D02*
X5339229Y-9900079D01*
X5339229Y-9900079D02*
X5339229Y-9919127D01*
X5339229Y-9919127D02*
X5329705Y-9947698D01*
X5329705Y-9947698D02*
X5215420Y-10061984D01*
X5215420Y-10061984D02*
X5339229Y-10061984D01*
X5463039Y-9861984D02*
X5482086Y-9861984D01*
X5482086Y-9861984D02*
X5501134Y-9871508D01*
X5501134Y-9871508D02*
X5510658Y-9881031D01*
X5510658Y-9881031D02*
X5520182Y-9900079D01*
X5520182Y-9900079D02*
X5529705Y-9938174D01*
X5529705Y-9938174D02*
X5529705Y-9985793D01*
X5529705Y-9985793D02*
X5520182Y-10023889D01*
X5520182Y-10023889D02*
X5510658Y-10042936D01*
X5510658Y-10042936D02*
X5501134Y-10052460D01*
X5501134Y-10052460D02*
X5482086Y-10061984D01*
X5482086Y-10061984D02*
X5463039Y-10061984D01*
X5463039Y-10061984D02*
X5443991Y-10052460D01*
X5443991Y-10052460D02*
X5434467Y-10042936D01*
X5434467Y-10042936D02*
X5424944Y-10023889D01*
X5424944Y-10023889D02*
X5415420Y-9985793D01*
X5415420Y-9985793D02*
X5415420Y-9938174D01*
X5415420Y-9938174D02*
X5424944Y-9900079D01*
X5424944Y-9900079D02*
X5434467Y-9881031D01*
X5434467Y-9881031D02*
X5443991Y-9871508D01*
X5443991Y-9871508D02*
X5463039Y-9861984D01*
X5615420Y-10061984D02*
X5615420Y-9928650D01*
X5615420Y-9947698D02*
X5624943Y-9938174D01*
X5624943Y-9938174D02*
X5643991Y-9928650D01*
X5643991Y-9928650D02*
X5672563Y-9928650D01*
X5672563Y-9928650D02*
X5691610Y-9938174D01*
X5691610Y-9938174D02*
X5701134Y-9957222D01*
X5701134Y-9957222D02*
X5701134Y-10061984D01*
X5701134Y-9957222D02*
X5710658Y-9938174D01*
X5710658Y-9938174D02*
X5729705Y-9928650D01*
X5729705Y-9928650D02*
X5758277Y-9928650D01*
X5758277Y-9928650D02*
X5777324Y-9938174D01*
X5777324Y-9938174D02*
X5786848Y-9957222D01*
X5786848Y-9957222D02*
X5786848Y-10061984D01*
X5882086Y-10061984D02*
X5882086Y-9928650D01*
X5882086Y-9947698D02*
X5891610Y-9938174D01*
X5891610Y-9938174D02*
X5910658Y-9928650D01*
X5910658Y-9928650D02*
X5939229Y-9928650D01*
X5939229Y-9928650D02*
X5958277Y-9938174D01*
X5958277Y-9938174D02*
X5967801Y-9957222D01*
X5967801Y-9957222D02*
X5967801Y-10061984D01*
X5967801Y-9957222D02*
X5977324Y-9938174D01*
X5977324Y-9938174D02*
X5996372Y-9928650D01*
X5996372Y-9928650D02*
X6024943Y-9928650D01*
X6024943Y-9928650D02*
X6043991Y-9938174D01*
X6043991Y-9938174D02*
X6053515Y-9957222D01*
X6053515Y-9957222D02*
X6053515Y-10061984D01*
X6443991Y-9852460D02*
X6272563Y-10109603D01*
X6701134Y-9861984D02*
X6720182Y-9861984D01*
X6720182Y-9861984D02*
X6739229Y-9871508D01*
X6739229Y-9871508D02*
X6748753Y-9881031D01*
X6748753Y-9881031D02*
X6758277Y-9900079D01*
X6758277Y-9900079D02*
X6767801Y-9938174D01*
X6767801Y-9938174D02*
X6767801Y-9985793D01*
X6767801Y-9985793D02*
X6758277Y-10023889D01*
X6758277Y-10023889D02*
X6748753Y-10042936D01*
X6748753Y-10042936D02*
X6739229Y-10052460D01*
X6739229Y-10052460D02*
X6720182Y-10061984D01*
X6720182Y-10061984D02*
X6701134Y-10061984D01*
X6701134Y-10061984D02*
X6682086Y-10052460D01*
X6682086Y-10052460D02*
X6672563Y-10042936D01*
X6672563Y-10042936D02*
X6663039Y-10023889D01*
X6663039Y-10023889D02*
X6653515Y-9985793D01*
X6653515Y-9985793D02*
X6653515Y-9938174D01*
X6653515Y-9938174D02*
X6663039Y-9900079D01*
X6663039Y-9900079D02*
X6672563Y-9881031D01*
X6672563Y-9881031D02*
X6682086Y-9871508D01*
X6682086Y-9871508D02*
X6701134Y-9861984D01*
X6853515Y-10042936D02*
X6863039Y-10052460D01*
X6863039Y-10052460D02*
X6853515Y-10061984D01*
X6853515Y-10061984D02*
X6843991Y-10052460D01*
X6843991Y-10052460D02*
X6853515Y-10042936D01*
X6853515Y-10042936D02*
X6853515Y-10061984D01*
X6986848Y-9861984D02*
X7005896Y-9861984D01*
X7005896Y-9861984D02*
X7024944Y-9871508D01*
X7024944Y-9871508D02*
X7034467Y-9881031D01*
X7034467Y-9881031D02*
X7043991Y-9900079D01*
X7043991Y-9900079D02*
X7053515Y-9938174D01*
X7053515Y-9938174D02*
X7053515Y-9985793D01*
X7053515Y-9985793D02*
X7043991Y-10023889D01*
X7043991Y-10023889D02*
X7034467Y-10042936D01*
X7034467Y-10042936D02*
X7024944Y-10052460D01*
X7024944Y-10052460D02*
X7005896Y-10061984D01*
X7005896Y-10061984D02*
X6986848Y-10061984D01*
X6986848Y-10061984D02*
X6967801Y-10052460D01*
X6967801Y-10052460D02*
X6958277Y-10042936D01*
X6958277Y-10042936D02*
X6948753Y-10023889D01*
X6948753Y-10023889D02*
X6939229Y-9985793D01*
X6939229Y-9985793D02*
X6939229Y-9938174D01*
X6939229Y-9938174D02*
X6948753Y-9900079D01*
X6948753Y-9900079D02*
X6958277Y-9881031D01*
X6958277Y-9881031D02*
X6967801Y-9871508D01*
X6967801Y-9871508D02*
X6986848Y-9861984D01*
X7224944Y-9928650D02*
X7224944Y-10061984D01*
X7177325Y-9852460D02*
X7129706Y-9995317D01*
X7129706Y-9995317D02*
X7253515Y-9995317D01*
X7367801Y-9861984D02*
X7386848Y-9861984D01*
X7386848Y-9861984D02*
X7405896Y-9871508D01*
X7405896Y-9871508D02*
X7415420Y-9881031D01*
X7415420Y-9881031D02*
X7424944Y-9900079D01*
X7424944Y-9900079D02*
X7434467Y-9938174D01*
X7434467Y-9938174D02*
X7434467Y-9985793D01*
X7434467Y-9985793D02*
X7424944Y-10023889D01*
X7424944Y-10023889D02*
X7415420Y-10042936D01*
X7415420Y-10042936D02*
X7405896Y-10052460D01*
X7405896Y-10052460D02*
X7386848Y-10061984D01*
X7386848Y-10061984D02*
X7367801Y-10061984D01*
X7367801Y-10061984D02*
X7348753Y-10052460D01*
X7348753Y-10052460D02*
X7339229Y-10042936D01*
X7339229Y-10042936D02*
X7329706Y-10023889D01*
X7329706Y-10023889D02*
X7320182Y-9985793D01*
X7320182Y-9985793D02*
X7320182Y-9938174D01*
X7320182Y-9938174D02*
X7329706Y-9900079D01*
X7329706Y-9900079D02*
X7339229Y-9881031D01*
X7339229Y-9881031D02*
X7348753Y-9871508D01*
X7348753Y-9871508D02*
X7367801Y-9861984D01*
X7510658Y-9881031D02*
X7520182Y-9871508D01*
X7520182Y-9871508D02*
X7539229Y-9861984D01*
X7539229Y-9861984D02*
X7586848Y-9861984D01*
X7586848Y-9861984D02*
X7605896Y-9871508D01*
X7605896Y-9871508D02*
X7615420Y-9881031D01*
X7615420Y-9881031D02*
X7624944Y-9900079D01*
X7624944Y-9900079D02*
X7624944Y-9919127D01*
X7624944Y-9919127D02*
X7615420Y-9947698D01*
X7615420Y-9947698D02*
X7501134Y-10061984D01*
X7501134Y-10061984D02*
X7624944Y-10061984D01*
X7701134Y-9861984D02*
X7701134Y-9900079D01*
X7777325Y-9861984D02*
X7777325Y-9900079D01*
X8072563Y-10138174D02*
X8063039Y-10128650D01*
X8063039Y-10128650D02*
X8043991Y-10100079D01*
X8043991Y-10100079D02*
X8034468Y-10081031D01*
X8034468Y-10081031D02*
X8024944Y-10052460D01*
X8024944Y-10052460D02*
X8015420Y-10004841D01*
X8015420Y-10004841D02*
X8015420Y-9966746D01*
X8015420Y-9966746D02*
X8024944Y-9919127D01*
X8024944Y-9919127D02*
X8034468Y-9890555D01*
X8034468Y-9890555D02*
X8043991Y-9871508D01*
X8043991Y-9871508D02*
X8063039Y-9842936D01*
X8063039Y-9842936D02*
X8072563Y-9833412D01*
X8234468Y-9928650D02*
X8234468Y-10061984D01*
X8186848Y-9852460D02*
X8139229Y-9995317D01*
X8139229Y-9995317D02*
X8263039Y-9995317D01*
X8320182Y-9861984D02*
X8443991Y-9861984D01*
X8443991Y-9861984D02*
X8377325Y-9938174D01*
X8377325Y-9938174D02*
X8405896Y-9938174D01*
X8405896Y-9938174D02*
X8424944Y-9947698D01*
X8424944Y-9947698D02*
X8434468Y-9957222D01*
X8434468Y-9957222D02*
X8443991Y-9976270D01*
X8443991Y-9976270D02*
X8443991Y-10023889D01*
X8443991Y-10023889D02*
X8434468Y-10042936D01*
X8434468Y-10042936D02*
X8424944Y-10052460D01*
X8424944Y-10052460D02*
X8405896Y-10061984D01*
X8405896Y-10061984D02*
X8348753Y-10061984D01*
X8348753Y-10061984D02*
X8329706Y-10052460D01*
X8329706Y-10052460D02*
X8320182Y-10042936D01*
X8682087Y-10061984D02*
X8682087Y-9861984D01*
X8767801Y-10061984D02*
X8767801Y-9957222D01*
X8767801Y-9957222D02*
X8758277Y-9938174D01*
X8758277Y-9938174D02*
X8739230Y-9928650D01*
X8739230Y-9928650D02*
X8710658Y-9928650D01*
X8710658Y-9928650D02*
X8691611Y-9938174D01*
X8691611Y-9938174D02*
X8682087Y-9947698D01*
X8891611Y-10061984D02*
X8872563Y-10052460D01*
X8872563Y-10052460D02*
X8863039Y-10042936D01*
X8863039Y-10042936D02*
X8853515Y-10023889D01*
X8853515Y-10023889D02*
X8853515Y-9966746D01*
X8853515Y-9966746D02*
X8863039Y-9947698D01*
X8863039Y-9947698D02*
X8872563Y-9938174D01*
X8872563Y-9938174D02*
X8891611Y-9928650D01*
X8891611Y-9928650D02*
X8920182Y-9928650D01*
X8920182Y-9928650D02*
X8939230Y-9938174D01*
X8939230Y-9938174D02*
X8948753Y-9947698D01*
X8948753Y-9947698D02*
X8958277Y-9966746D01*
X8958277Y-9966746D02*
X8958277Y-10023889D01*
X8958277Y-10023889D02*
X8948753Y-10042936D01*
X8948753Y-10042936D02*
X8939230Y-10052460D01*
X8939230Y-10052460D02*
X8920182Y-10061984D01*
X8920182Y-10061984D02*
X8891611Y-10061984D01*
X9072563Y-10061984D02*
X9053515Y-10052460D01*
X9053515Y-10052460D02*
X9043992Y-10033412D01*
X9043992Y-10033412D02*
X9043992Y-9861984D01*
X9224944Y-10052460D02*
X9205896Y-10061984D01*
X9205896Y-10061984D02*
X9167801Y-10061984D01*
X9167801Y-10061984D02*
X9148753Y-10052460D01*
X9148753Y-10052460D02*
X9139230Y-10033412D01*
X9139230Y-10033412D02*
X9139230Y-9957222D01*
X9139230Y-9957222D02*
X9148753Y-9938174D01*
X9148753Y-9938174D02*
X9167801Y-9928650D01*
X9167801Y-9928650D02*
X9205896Y-9928650D01*
X9205896Y-9928650D02*
X9224944Y-9938174D01*
X9224944Y-9938174D02*
X9234468Y-9957222D01*
X9234468Y-9957222D02*
X9234468Y-9976270D01*
X9234468Y-9976270D02*
X9139230Y-9995317D01*
X9310658Y-10052460D02*
X9329706Y-10061984D01*
X9329706Y-10061984D02*
X9367801Y-10061984D01*
X9367801Y-10061984D02*
X9386849Y-10052460D01*
X9386849Y-10052460D02*
X9396373Y-10033412D01*
X9396373Y-10033412D02*
X9396373Y-10023889D01*
X9396373Y-10023889D02*
X9386849Y-10004841D01*
X9386849Y-10004841D02*
X9367801Y-9995317D01*
X9367801Y-9995317D02*
X9339230Y-9995317D01*
X9339230Y-9995317D02*
X9320182Y-9985793D01*
X9320182Y-9985793D02*
X9310658Y-9966746D01*
X9310658Y-9966746D02*
X9310658Y-9957222D01*
X9310658Y-9957222D02*
X9320182Y-9938174D01*
X9320182Y-9938174D02*
X9339230Y-9928650D01*
X9339230Y-9928650D02*
X9367801Y-9928650D01*
X9367801Y-9928650D02*
X9386849Y-9938174D01*
X9463039Y-10138174D02*
X9472563Y-10128650D01*
X9472563Y-10128650D02*
X9491611Y-10100079D01*
X9491611Y-10100079D02*
X9501134Y-10081031D01*
X9501134Y-10081031D02*
X9510658Y-10052460D01*
X9510658Y-10052460D02*
X9520182Y-10004841D01*
X9520182Y-10004841D02*
X9520182Y-9966746D01*
X9520182Y-9966746D02*
X9510658Y-9919127D01*
X9510658Y-9919127D02*
X9501134Y-9890555D01*
X9501134Y-9890555D02*
X9491611Y-9871508D01*
X9491611Y-9871508D02*
X9472563Y-9842936D01*
X9472563Y-9842936D02*
X9463039Y-9833412D01*
M02*
