M48
; DRILL file {KiCad 8.0.4} date 2024-08-18T14:41:27+0200
; FORMAT={-:-/ absolute / inch / decimal}
; #@! TF.CreationDate,2024-08-18T14:41:27+02:00
; #@! TF.GenerationSoftware,Kicad,Pcbnew,8.0.4
; #@! TF.FileFunction,Plated,1,2,PTH
FMAT,2
INCH
; #@! TA.AperFunction,Plated,PTH,ComponentDrill
T1C0.0394
; #@! TA.AperFunction,Plated,PTH,ComponentDrill
T2C0.0394
; #@! TA.AperFunction,Plated,PTH,ComponentDrill
T3C0.0402
; #@! TA.AperFunction,Plated,PTH,ComponentDrill
T4C0.0429
; #@! TA.AperFunction,Plated,PTH,ComponentDrill
T5C0.0472
%
G90
G05
T1
X4.5425Y-1.6268
X4.5425Y-1.7268
X4.5425Y-1.8268
X4.5425Y-1.9268
X4.5425Y-2.0268
X4.5425Y-2.1268
X4.5425Y-2.2268
X4.5425Y-2.3268
X4.6425Y-1.6268
X4.6425Y-1.7268
X4.6425Y-1.8268
X4.6425Y-1.9268
X4.6425Y-2.0268
X4.6425Y-2.1268
X4.6425Y-2.2268
X4.6425Y-2.3268
X5.0357Y-3.0476
X5.1065Y-2.9768
X5.1065Y-3.1183
X5.1772Y-3.0476
X5.1772Y-3.189
X5.2479Y-3.1183
T2
X4.8771Y-1.7209
X4.8771Y-1.8803
X4.8771Y-2.0398
X4.8771Y-2.1992
X5.2709Y-1.7209
X5.2709Y-1.8803
X5.2709Y-2.0398
X5.2709Y-2.1992
T3
X4.6617Y-2.5751
X4.7324Y-2.6458
X4.8031Y-2.7165
X5.5748Y-1.5598
X5.5748Y-1.6598
X5.5748Y-1.7598
X5.5748Y-1.8598
X5.5748Y-1.9598
X5.5748Y-2.0598
X5.5748Y-2.1598
X5.5748Y-2.2598
X5.5748Y-2.3598
X5.5748Y-2.4598
X5.5748Y-2.5598
X5.5748Y-2.6598
X5.5748Y-2.7598
X5.5748Y-2.8598
X5.5748Y-2.9598
X5.5748Y-3.0598
X5.5748Y-3.1598
X5.5748Y-3.2598
X5.5748Y-3.3598
X5.5748Y-3.4598
X5.8248Y-3.4508
X5.9248Y-3.4508
X6.0248Y-3.4508
X6.2748Y-1.5598
X6.2748Y-1.6598
X6.2748Y-1.7598
X6.2748Y-1.8598
X6.2748Y-1.9598
X6.2748Y-2.0598
X6.2748Y-2.1598
X6.2748Y-2.2598
X6.2748Y-2.3598
X6.2748Y-2.4598
X6.2748Y-2.5598
X6.2748Y-2.6598
X6.2748Y-2.7598
X6.2748Y-2.8598
X6.2748Y-2.9598
X6.2748Y-3.0598
X6.2748Y-3.1598
X6.2748Y-3.2598
X6.2748Y-3.3598
X6.2748Y-3.4598
T4
X6.6685Y-1.5795
X6.6685Y-1.6795
X6.6685Y-1.7795
X6.6685Y-1.8795
X6.6685Y-1.9795
X6.6685Y-2.0795
X6.6685Y-2.1795
X6.6685Y-2.2795
X6.6685Y-2.3795
X6.6685Y-2.4795
X6.6685Y-2.5795
X6.6685Y-2.6795
X6.6685Y-2.7795
X6.6685Y-2.8795
X6.6685Y-2.9795
X6.6685Y-3.0795
X6.6685Y-3.1795
X6.6685Y-3.2795
X6.6685Y-3.3795
X6.6685Y-3.4795
T5
X4.8622Y-1.5551
X5.2559Y-1.5551
M30
