%TF.GenerationSoftware,KiCad,Pcbnew,8.0.4*%
%TF.CreationDate,2024-08-18T14:41:24+02:00*%
%TF.ProjectId,pico-modxo,7069636f-2d6d-46f6-9478-6f2e6b696361,1.0*%
%TF.SameCoordinates,Original*%
%TF.FileFunction,Soldermask,Top*%
%TF.FilePolarity,Negative*%
%FSLAX46Y46*%
G04 Gerber Fmt 4.6, Leading zero omitted, Abs format (unit mm)*
G04 Created by KiCad (PCBNEW 8.0.4) date 2024-08-18 14:41:24*
%MOMM*%
%LPD*%
G01*
G04 APERTURE LIST*
G04 Aperture macros list*
%AMRoundRect*
0 Rectangle with rounded corners*
0 $1 Rounding radius*
0 $2 $3 $4 $5 $6 $7 $8 $9 X,Y pos of 4 corners*
0 Add a 4 corners polygon primitive as box body*
4,1,4,$2,$3,$4,$5,$6,$7,$8,$9,$2,$3,0*
0 Add four circle primitives for the rounded corners*
1,1,$1+$1,$2,$3*
1,1,$1+$1,$4,$5*
1,1,$1+$1,$6,$7*
1,1,$1+$1,$8,$9*
0 Add four rect primitives between the rounded corners*
20,1,$1+$1,$2,$3,$4,$5,0*
20,1,$1+$1,$4,$5,$6,$7,0*
20,1,$1+$1,$6,$7,$8,$9,0*
20,1,$1+$1,$8,$9,$2,$3,0*%
%AMHorizOval*
0 Thick line with rounded ends*
0 $1 width*
0 $2 $3 position (X,Y) of the first rounded end (center of the circle)*
0 $4 $5 position (X,Y) of the second rounded end (center of the circle)*
0 Add line between two ends*
20,1,$1,$2,$3,$4,$5,0*
0 Add two circle primitives to create the rounded ends*
1,1,$1,$2,$3*
1,1,$1,$4,$5*%
%AMRotRect*
0 Rectangle, with rotation*
0 The origin of the aperture is its center*
0 $1 length*
0 $2 width*
0 $3 Rotation angle, in degrees counterclockwise*
0 Add horizontal line*
21,1,$1,$2,0,0,$3*%
G04 Aperture macros list end*
%ADD10RoundRect,0.250000X2.000000X1.100000X-2.000000X1.100000X-2.000000X-1.100000X2.000000X-1.100000X0*%
%ADD11RoundRect,0.250000X-2.000000X-1.100000X2.000000X-1.100000X2.000000X1.100000X-2.000000X1.100000X0*%
%ADD12R,4.000000X4.000000*%
%ADD13R,1.500000X0.900000*%
%ADD14R,1.700000X1.700000*%
%ADD15O,1.700000X1.700000*%
%ADD16O,1.800000X1.800000*%
%ADD17O,1.500000X1.500000*%
%ADD18R,3.500000X1.700000*%
%ADD19R,1.700000X3.500000*%
%ADD20R,1.998980X1.998980*%
%ADD21R,2.999740X1.399540*%
%ADD22RoundRect,0.250000X0.620000X-0.620000X0.620000X0.620000X-0.620000X0.620000X-0.620000X-0.620000X0*%
%ADD23C,1.740000*%
%ADD24RotRect,2.030000X1.730000X225.000000*%
%ADD25HorizOval,1.730000X-0.106066X-0.106066X0.106066X0.106066X0*%
%ADD26RotRect,1.700000X1.700000X45.000000*%
%ADD27HorizOval,1.700000X0.000000X0.000000X0.000000X0.000000X0*%
G04 APERTURE END LIST*
D10*
%TO.C,D1*%
X132400000Y-39500000D03*
D11*
X124600000Y-39500000D03*
%TD*%
D12*
%TO.C,D0*%
X130500000Y-61500000D03*
%TD*%
D13*
%TO.C,D2*%
X127980000Y-66360000D03*
X127980000Y-69660000D03*
X132880000Y-69660000D03*
X132880000Y-66360000D03*
%TD*%
D14*
%TO.C,J1*%
X117920000Y-59100000D03*
D15*
X115380000Y-59100000D03*
X117920000Y-56560000D03*
X115380000Y-56560000D03*
X117920000Y-54020000D03*
X115380000Y-54020000D03*
X117920000Y-51480000D03*
X115380000Y-51480000D03*
X117920000Y-48940000D03*
X115380000Y-48940000D03*
X117920000Y-46400000D03*
X115380000Y-46400000D03*
X117920000Y-43860000D03*
X115380000Y-43860000D03*
X117920000Y-41320000D03*
X115380000Y-41320000D03*
%TD*%
D16*
%TO.C,U1*%
X147765000Y-39750000D03*
D17*
X148065000Y-42780000D03*
X152915000Y-42780000D03*
D16*
X153215000Y-39750000D03*
D15*
X141600000Y-39620000D03*
D18*
X140700000Y-39620000D03*
D15*
X141600000Y-42160000D03*
D18*
X140700000Y-42160000D03*
D14*
X141600000Y-44700000D03*
D18*
X140700000Y-44700000D03*
D15*
X141600000Y-47240000D03*
D18*
X140700000Y-47240000D03*
D15*
X141600000Y-49780000D03*
D18*
X140700000Y-49780000D03*
D15*
X141600000Y-52320000D03*
D18*
X140700000Y-52320000D03*
D15*
X141600000Y-54860000D03*
D18*
X140700000Y-54860000D03*
D14*
X141600000Y-57400000D03*
D18*
X140700000Y-57400000D03*
D15*
X141600000Y-59940000D03*
D18*
X140700000Y-59940000D03*
D15*
X141600000Y-62480000D03*
D18*
X140700000Y-62480000D03*
D15*
X141600000Y-65020000D03*
D18*
X140700000Y-65020000D03*
D15*
X141600000Y-67560000D03*
D18*
X140700000Y-67560000D03*
D14*
X141600000Y-70100000D03*
D18*
X140700000Y-70100000D03*
D15*
X141600000Y-72640000D03*
D18*
X140700000Y-72640000D03*
D15*
X141600000Y-75180000D03*
D18*
X140700000Y-75180000D03*
D15*
X141600000Y-77720000D03*
D18*
X140700000Y-77720000D03*
D15*
X141600000Y-80260000D03*
D18*
X140700000Y-80260000D03*
D14*
X141600000Y-82800000D03*
D18*
X140700000Y-82800000D03*
D15*
X141600000Y-85340000D03*
D18*
X140700000Y-85340000D03*
D15*
X141600000Y-87880000D03*
D18*
X140700000Y-87880000D03*
D15*
X159380000Y-87880000D03*
D18*
X160280000Y-87880000D03*
D15*
X159380000Y-85340000D03*
D18*
X160280000Y-85340000D03*
D14*
X159380000Y-82800000D03*
D18*
X160280000Y-82800000D03*
D15*
X159380000Y-80260000D03*
D18*
X160280000Y-80260000D03*
D15*
X159380000Y-77720000D03*
D18*
X160280000Y-77720000D03*
D15*
X159380000Y-75180000D03*
D18*
X160280000Y-75180000D03*
D15*
X159380000Y-72640000D03*
D18*
X160280000Y-72640000D03*
D14*
X159380000Y-70100000D03*
D18*
X160280000Y-70100000D03*
D15*
X159380000Y-67560000D03*
D18*
X160280000Y-67560000D03*
D15*
X159380000Y-65020000D03*
D18*
X160280000Y-65020000D03*
D15*
X159380000Y-62480000D03*
D18*
X160280000Y-62480000D03*
D15*
X159380000Y-59940000D03*
D18*
X160280000Y-59940000D03*
D14*
X159380000Y-57400000D03*
D18*
X160280000Y-57400000D03*
D15*
X159380000Y-54860000D03*
D18*
X160280000Y-54860000D03*
D15*
X159380000Y-52320000D03*
D18*
X160280000Y-52320000D03*
D15*
X159380000Y-49780000D03*
D18*
X160280000Y-49780000D03*
D15*
X159380000Y-47240000D03*
D18*
X160280000Y-47240000D03*
D14*
X159380000Y-44700000D03*
D18*
X160280000Y-44700000D03*
D15*
X159380000Y-42160000D03*
D18*
X160280000Y-42160000D03*
D15*
X159380000Y-39620000D03*
D18*
X160280000Y-39620000D03*
D15*
X147950000Y-87650000D03*
D19*
X147950000Y-88550000D03*
D14*
X150490000Y-87650000D03*
D19*
X150490000Y-88550000D03*
D15*
X153030000Y-87650000D03*
D19*
X153030000Y-88550000D03*
%TD*%
D20*
%TO.C,R1*%
X123878740Y-43710000D03*
D21*
X126279040Y-43710000D03*
X131480960Y-43710000D03*
D20*
X133881260Y-43710000D03*
%TD*%
D22*
%TO.C,J2*%
X169380000Y-88380000D03*
D23*
X169380000Y-85840000D03*
X169380000Y-83300000D03*
X169380000Y-80760000D03*
X169380000Y-78220000D03*
X169380000Y-75680000D03*
X169380000Y-73140000D03*
X169380000Y-70600000D03*
X169380000Y-68060000D03*
X169380000Y-65520000D03*
X169380000Y-62980000D03*
X169380000Y-60440000D03*
X169380000Y-57900000D03*
X169380000Y-55360000D03*
X169380000Y-52820000D03*
X169380000Y-50280000D03*
X169380000Y-47740000D03*
X169380000Y-45200000D03*
X169380000Y-42660000D03*
X169380000Y-40120000D03*
%TD*%
D24*
%TO.C,RGB1*%
X122000000Y-69000000D03*
D25*
X120203949Y-67203949D03*
X118407898Y-65407898D03*
%TD*%
D20*
%TO.C,R3*%
X123878740Y-51810000D03*
D21*
X126279040Y-51810000D03*
X131480960Y-51810000D03*
D20*
X133881260Y-51810000D03*
%TD*%
%TO.C,R2*%
X123878740Y-47760000D03*
D21*
X126279040Y-47760000D03*
X131480960Y-47760000D03*
D20*
X133881260Y-47760000D03*
%TD*%
D26*
%TO.C,EXT1*%
X127907898Y-77407898D03*
D27*
X129703949Y-75611847D03*
X129703949Y-79203949D03*
X131500000Y-77407898D03*
X131500000Y-81000000D03*
X133296052Y-79203949D03*
%TD*%
D20*
%TO.C,R4*%
X123878740Y-55860000D03*
D21*
X126279040Y-55860000D03*
X131480960Y-55860000D03*
D20*
X133881260Y-55860000D03*
%TD*%
M02*
