%TF.GenerationSoftware,KiCad,Pcbnew,8.0.4*%
%TF.CreationDate,2024-07-28T20:22:53+02:00*%
%TF.ProjectId,pico-modxo,7069636f-2d6d-46f6-9478-6f2e6b696361,1.0*%
%TF.SameCoordinates,Original*%
%TF.FileFunction,Soldermask,Top*%
%TF.FilePolarity,Negative*%
%FSLAX46Y46*%
G04 Gerber Fmt 4.6, Leading zero omitted, Abs format (unit mm)*
G04 Created by KiCad (PCBNEW 8.0.4) date 2024-07-28 20:22:53*
%MOMM*%
%LPD*%
G01*
G04 APERTURE LIST*
G04 Aperture macros list*
%AMRoundRect*
0 Rectangle with rounded corners*
0 $1 Rounding radius*
0 $2 $3 $4 $5 $6 $7 $8 $9 X,Y pos of 4 corners*
0 Add a 4 corners polygon primitive as box body*
4,1,4,$2,$3,$4,$5,$6,$7,$8,$9,$2,$3,0*
0 Add four circle primitives for the rounded corners*
1,1,$1+$1,$2,$3*
1,1,$1+$1,$4,$5*
1,1,$1+$1,$6,$7*
1,1,$1+$1,$8,$9*
0 Add four rect primitives between the rounded corners*
20,1,$1+$1,$2,$3,$4,$5,0*
20,1,$1+$1,$4,$5,$6,$7,0*
20,1,$1+$1,$6,$7,$8,$9,0*
20,1,$1+$1,$8,$9,$2,$3,0*%
%AMFreePoly0*
4,1,19,0.500000,-0.750000,0.000000,-0.750000,0.000000,-0.744911,-0.071157,-0.744911,-0.207708,-0.704816,-0.327430,-0.627875,-0.420627,-0.520320,-0.479746,-0.390866,-0.500000,-0.250000,-0.500000,0.250000,-0.479746,0.390866,-0.420627,0.520320,-0.327430,0.627875,-0.207708,0.704816,-0.071157,0.744911,0.000000,0.744911,0.000000,0.750000,0.500000,0.750000,0.500000,-0.750000,0.500000,-0.750000,
$1*%
%AMFreePoly1*
4,1,19,0.000000,0.744911,0.071157,0.744911,0.207708,0.704816,0.327430,0.627875,0.420627,0.520320,0.479746,0.390866,0.500000,0.250000,0.500000,-0.250000,0.479746,-0.390866,0.420627,-0.520320,0.327430,-0.627875,0.207708,-0.704816,0.071157,-0.744911,0.000000,-0.744911,0.000000,-0.750000,-0.500000,-0.750000,-0.500000,0.750000,0.000000,0.750000,0.000000,0.744911,0.000000,0.744911,
$1*%
G04 Aperture macros list end*
%ADD10RoundRect,0.250000X0.312500X0.625000X-0.312500X0.625000X-0.312500X-0.625000X0.312500X-0.625000X0*%
%ADD11O,1.800000X1.800000*%
%ADD12O,1.500000X1.500000*%
%ADD13O,1.700000X1.700000*%
%ADD14R,3.500000X1.700000*%
%ADD15R,1.700000X1.700000*%
%ADD16R,1.700000X3.500000*%
%ADD17C,1.600000*%
%ADD18O,1.600000X1.600000*%
%ADD19FreePoly0,180.000000*%
%ADD20FreePoly1,180.000000*%
%ADD21R,4.000000X4.000000*%
G04 APERTURE END LIST*
D10*
%TO.C,REF\u002A\u002A*%
X78826250Y-42000000D03*
X75901250Y-42000000D03*
%TD*%
D11*
%TO.C,U1*%
X56885000Y-35830000D03*
D12*
X57185000Y-38860000D03*
X62035000Y-38860000D03*
D11*
X62335000Y-35830000D03*
D13*
X50720000Y-35700000D03*
D14*
X49820000Y-35700000D03*
D13*
X50720000Y-38240000D03*
D14*
X49820000Y-38240000D03*
D15*
X50720000Y-40780000D03*
D14*
X49820000Y-40780000D03*
D13*
X50720000Y-43320000D03*
D14*
X49820000Y-43320000D03*
D13*
X50720000Y-45860000D03*
D14*
X49820000Y-45860000D03*
D13*
X50720000Y-48400000D03*
D14*
X49820000Y-48400000D03*
D13*
X50720000Y-50940000D03*
D14*
X49820000Y-50940000D03*
D15*
X50720000Y-53480000D03*
D14*
X49820000Y-53480000D03*
D13*
X50720000Y-56020000D03*
D14*
X49820000Y-56020000D03*
D13*
X50720000Y-58560000D03*
D14*
X49820000Y-58560000D03*
D13*
X50720000Y-61100000D03*
D14*
X49820000Y-61100000D03*
D13*
X50720000Y-63640000D03*
D14*
X49820000Y-63640000D03*
D15*
X50720000Y-66180000D03*
D14*
X49820000Y-66180000D03*
D13*
X50720000Y-68720000D03*
D14*
X49820000Y-68720000D03*
D13*
X50720000Y-71260000D03*
D14*
X49820000Y-71260000D03*
D13*
X50720000Y-73800000D03*
D14*
X49820000Y-73800000D03*
D13*
X50720000Y-76340000D03*
D14*
X49820000Y-76340000D03*
D15*
X50720000Y-78880000D03*
D14*
X49820000Y-78880000D03*
D13*
X50720000Y-81420000D03*
D14*
X49820000Y-81420000D03*
D13*
X50720000Y-83960000D03*
D14*
X49820000Y-83960000D03*
D13*
X68500000Y-83960000D03*
D14*
X69400000Y-83960000D03*
D13*
X68500000Y-81420000D03*
D14*
X69400000Y-81420000D03*
D15*
X68500000Y-78880000D03*
D14*
X69400000Y-78880000D03*
D13*
X68500000Y-76340000D03*
D14*
X69400000Y-76340000D03*
D13*
X68500000Y-73800000D03*
D14*
X69400000Y-73800000D03*
D13*
X68500000Y-71260000D03*
D14*
X69400000Y-71260000D03*
D13*
X68500000Y-68720000D03*
D14*
X69400000Y-68720000D03*
D15*
X68500000Y-66180000D03*
D14*
X69400000Y-66180000D03*
D13*
X68500000Y-63640000D03*
D14*
X69400000Y-63640000D03*
D13*
X68500000Y-61100000D03*
D14*
X69400000Y-61100000D03*
D13*
X68500000Y-58560000D03*
D14*
X69400000Y-58560000D03*
D13*
X68500000Y-56020000D03*
D14*
X69400000Y-56020000D03*
D15*
X68500000Y-53480000D03*
D14*
X69400000Y-53480000D03*
D13*
X68500000Y-50940000D03*
D14*
X69400000Y-50940000D03*
D13*
X68500000Y-48400000D03*
D14*
X69400000Y-48400000D03*
D13*
X68500000Y-45860000D03*
D14*
X69400000Y-45860000D03*
D13*
X68500000Y-43320000D03*
D14*
X69400000Y-43320000D03*
D15*
X68500000Y-40780000D03*
D14*
X69400000Y-40780000D03*
D13*
X68500000Y-38240000D03*
D14*
X69400000Y-38240000D03*
D13*
X68500000Y-35700000D03*
D14*
X69400000Y-35700000D03*
D13*
X57070000Y-83730000D03*
D16*
X57070000Y-84630000D03*
D15*
X59610000Y-83730000D03*
D16*
X59610000Y-84630000D03*
D13*
X62150000Y-83730000D03*
D16*
X62150000Y-84630000D03*
%TD*%
D10*
%TO.C,REF\u002A\u002A*%
X78600000Y-45300000D03*
X75675000Y-45300000D03*
%TD*%
D17*
%TO.C,R2*%
X81310000Y-38500000D03*
D18*
X73690000Y-38500000D03*
%TD*%
D19*
%TO.C,JP2*%
X77250000Y-60700000D03*
D20*
X75950000Y-60700000D03*
%TD*%
D15*
%TO.C,J1*%
X87048500Y-53220000D03*
D13*
X84508500Y-53220000D03*
X87048500Y-50680000D03*
X84508500Y-50680000D03*
X87048500Y-48140000D03*
X84508500Y-48140000D03*
X87048500Y-45600000D03*
X84508500Y-45600000D03*
X87048500Y-43060000D03*
X84508500Y-43060000D03*
X87048500Y-40520000D03*
X84508500Y-40520000D03*
X87048500Y-37980000D03*
X84508500Y-37980000D03*
X87048500Y-35440000D03*
X84508500Y-35440000D03*
%TD*%
D10*
%TO.C,REF\u002A\u002A*%
X79136250Y-35200000D03*
X76211250Y-35200000D03*
%TD*%
D21*
%TO.C,D0*%
X77000000Y-53000000D03*
%TD*%
D17*
%TO.C,R1*%
X81310000Y-35200000D03*
D18*
X73690000Y-35200000D03*
%TD*%
D17*
%TO.C,R3*%
X81310000Y-42000000D03*
D18*
X73690000Y-42000000D03*
%TD*%
D17*
%TO.C,R4*%
X81273750Y-45300000D03*
D18*
X73653750Y-45300000D03*
%TD*%
D10*
%TO.C,REF\u002A\u002A*%
X78826250Y-38500000D03*
X75901250Y-38500000D03*
%TD*%
D19*
%TO.C,JP1*%
X77250000Y-58000000D03*
D20*
X75950000Y-58000000D03*
%TD*%
M02*
