%TF.GenerationSoftware,KiCad,Pcbnew,8.0.4*%
%TF.CreationDate,2024-08-18T14:41:23+02:00*%
%TF.ProjectId,pico-modxo,7069636f-2d6d-46f6-9478-6f2e6b696361,1.0*%
%TF.SameCoordinates,Original*%
%TF.FileFunction,Copper,L1,Top*%
%TF.FilePolarity,Positive*%
%FSLAX46Y46*%
G04 Gerber Fmt 4.6, Leading zero omitted, Abs format (unit mm)*
G04 Created by KiCad (PCBNEW 8.0.4) date 2024-08-18 14:41:23*
%MOMM*%
%LPD*%
G01*
G04 APERTURE LIST*
G04 Aperture macros list*
%AMRoundRect*
0 Rectangle with rounded corners*
0 $1 Rounding radius*
0 $2 $3 $4 $5 $6 $7 $8 $9 X,Y pos of 4 corners*
0 Add a 4 corners polygon primitive as box body*
4,1,4,$2,$3,$4,$5,$6,$7,$8,$9,$2,$3,0*
0 Add four circle primitives for the rounded corners*
1,1,$1+$1,$2,$3*
1,1,$1+$1,$4,$5*
1,1,$1+$1,$6,$7*
1,1,$1+$1,$8,$9*
0 Add four rect primitives between the rounded corners*
20,1,$1+$1,$2,$3,$4,$5,0*
20,1,$1+$1,$4,$5,$6,$7,0*
20,1,$1+$1,$6,$7,$8,$9,0*
20,1,$1+$1,$8,$9,$2,$3,0*%
%AMHorizOval*
0 Thick line with rounded ends*
0 $1 width*
0 $2 $3 position (X,Y) of the first rounded end (center of the circle)*
0 $4 $5 position (X,Y) of the second rounded end (center of the circle)*
0 Add line between two ends*
20,1,$1,$2,$3,$4,$5,0*
0 Add two circle primitives to create the rounded ends*
1,1,$1,$2,$3*
1,1,$1,$4,$5*%
%AMRotRect*
0 Rectangle, with rotation*
0 The origin of the aperture is its center*
0 $1 length*
0 $2 width*
0 $3 Rotation angle, in degrees counterclockwise*
0 Add horizontal line*
21,1,$1,$2,0,0,$3*%
G04 Aperture macros list end*
%TA.AperFunction,ComponentPad*%
%ADD10RoundRect,0.250000X2.000000X1.100000X-2.000000X1.100000X-2.000000X-1.100000X2.000000X-1.100000X0*%
%TD*%
%TA.AperFunction,ComponentPad*%
%ADD11RoundRect,0.250000X-2.000000X-1.100000X2.000000X-1.100000X2.000000X1.100000X-2.000000X1.100000X0*%
%TD*%
%TA.AperFunction,SMDPad,CuDef*%
%ADD12R,4.000000X4.000000*%
%TD*%
%TA.AperFunction,SMDPad,CuDef*%
%ADD13R,1.500000X0.900000*%
%TD*%
%TA.AperFunction,ComponentPad*%
%ADD14R,1.700000X1.700000*%
%TD*%
%TA.AperFunction,ComponentPad*%
%ADD15O,1.700000X1.700000*%
%TD*%
%TA.AperFunction,SMDPad,CuDef*%
%ADD16R,3.500000X1.700000*%
%TD*%
%TA.AperFunction,SMDPad,CuDef*%
%ADD17R,1.700000X3.500000*%
%TD*%
%TA.AperFunction,ComponentPad*%
%ADD18R,1.998980X1.998980*%
%TD*%
%TA.AperFunction,SMDPad,CuDef*%
%ADD19R,2.999740X1.399540*%
%TD*%
%TA.AperFunction,ComponentPad*%
%ADD20RoundRect,0.250000X0.620000X-0.620000X0.620000X0.620000X-0.620000X0.620000X-0.620000X-0.620000X0*%
%TD*%
%TA.AperFunction,ComponentPad*%
%ADD21C,1.740000*%
%TD*%
%TA.AperFunction,ComponentPad*%
%ADD22RotRect,2.030000X1.730000X225.000000*%
%TD*%
%TA.AperFunction,ComponentPad*%
%ADD23HorizOval,1.730000X-0.106066X-0.106066X0.106066X0.106066X0*%
%TD*%
%TA.AperFunction,ComponentPad*%
%ADD24RotRect,1.700000X1.700000X45.000000*%
%TD*%
%TA.AperFunction,ComponentPad*%
%ADD25HorizOval,1.700000X0.000000X0.000000X0.000000X0.000000X0*%
%TD*%
%TA.AperFunction,Conductor*%
%ADD26C,0.200000*%
%TD*%
G04 APERTURE END LIST*
D10*
%TO.P,D1,1,K*%
%TO.N,+5V*%
X132400000Y-39500000D03*
D11*
%TO.P,D1,2,A*%
%TO.N,LPC_5V*%
X124600000Y-39500000D03*
%TD*%
D12*
%TO.P,D0,1,Pin_1*%
%TO.N,Net-(D0-Pin_1)*%
X130500000Y-61500000D03*
%TD*%
D13*
%TO.P,D2,1,VDD*%
%TO.N,LPC_5V*%
X127980000Y-66360000D03*
%TO.P,D2,2,DOUT*%
%TO.N,Net-(D2-DOUT)*%
X127980000Y-69660000D03*
%TO.P,D2,3,VSS*%
%TO.N,GND*%
X132880000Y-69660000D03*
%TO.P,D2,4,DIN*%
%TO.N,RGBDI*%
X132880000Y-66360000D03*
%TD*%
D14*
%TO.P,J1,1,LCLK*%
%TO.N,LCLK*%
X117920000Y-59100000D03*
D15*
%TO.P,J1,2,GND*%
%TO.N,GND*%
X115380000Y-59100000D03*
%TO.P,J1,3,LFRAME#*%
%TO.N,LFRAME*%
X117920000Y-56560000D03*
%TO.P,J1,4,PWR_(v1.6)*%
%TO.N,unconnected-(J1-PWR_(v1.6)-Pad4)*%
X115380000Y-56560000D03*
%TO.P,J1,5,LRESET#*%
%TO.N,LRESET*%
X117920000Y-54020000D03*
%TO.P,J1,6,5V*%
%TO.N,LPC_5V*%
X115380000Y-54020000D03*
%TO.P,J1,7,LAD3*%
%TO.N,LAD3*%
X117920000Y-51480000D03*
%TO.P,J1,8,LAD2*%
%TO.N,LAD2*%
X115380000Y-51480000D03*
%TO.P,J1,9,3.3V*%
%TO.N,+3.3V*%
X117920000Y-48940000D03*
%TO.P,J1,10,LAD1*%
%TO.N,LAD1*%
X115380000Y-48940000D03*
%TO.P,J1,11,LAD0*%
%TO.N,LAD0*%
X117920000Y-46400000D03*
%TO.P,J1,12,GND*%
%TO.N,GND*%
X115380000Y-46400000D03*
%TO.P,J1,13,SCL*%
%TO.N,LSCL*%
X117920000Y-43860000D03*
%TO.P,J1,14,SDA*%
%TO.N,LSDA*%
X115380000Y-43860000D03*
%TO.P,J1,15,3.3V*%
%TO.N,+3.3V*%
X117920000Y-41320000D03*
%TO.P,J1,16,SERIRQ_(v1.0)*%
%TO.N,unconnected-(J1-SERIRQ_(v1.0)-Pad16)*%
X115380000Y-41320000D03*
%TD*%
%TO.P,U1,1,GPIO0*%
%TO.N,Net-(U1-GPIO0)*%
X141600000Y-39620000D03*
D16*
X140700000Y-39620000D03*
D15*
%TO.P,U1,2,GPIO1*%
%TO.N,Net-(U1-GPIO1)*%
X141600000Y-42160000D03*
D16*
X140700000Y-42160000D03*
D14*
%TO.P,U1,3,GND*%
%TO.N,GND*%
X141600000Y-44700000D03*
D16*
X140700000Y-44700000D03*
D15*
%TO.P,U1,4,GPIO2*%
%TO.N,Net-(U1-GPIO2)*%
X141600000Y-47240000D03*
D16*
X140700000Y-47240000D03*
D15*
%TO.P,U1,5,GPIO3*%
%TO.N,Net-(U1-GPIO3)*%
X141600000Y-49780000D03*
D16*
X140700000Y-49780000D03*
D15*
%TO.P,U1,6,GPIO4*%
%TO.N,LCLK*%
X141600000Y-52320000D03*
D16*
X140700000Y-52320000D03*
D15*
%TO.P,U1,7,GPIO5*%
%TO.N,LFRAME*%
X141600000Y-54860000D03*
D16*
X140700000Y-54860000D03*
D14*
%TO.P,U1,8,GND*%
%TO.N,GND*%
X141600000Y-57400000D03*
D16*
X140700000Y-57400000D03*
D15*
%TO.P,U1,9,GPIO6*%
%TO.N,Net-(D0-Pin_1)*%
X141600000Y-59940000D03*
D16*
X140700000Y-59940000D03*
D15*
%TO.P,U1,10,GPIO7*%
%TO.N,LRESET*%
X141600000Y-62480000D03*
D16*
X140700000Y-62480000D03*
D15*
%TO.P,U1,11,GPIO8*%
%TO.N,unconnected-(U1-GPIO8-Pad11)*%
X141600000Y-65020000D03*
D16*
X140700000Y-65020000D03*
D15*
%TO.P,U1,12,GPIO9*%
%TO.N,GPIO9*%
X141600000Y-67560000D03*
D16*
X140700000Y-67560000D03*
D14*
%TO.P,U1,13,GND*%
%TO.N,GND*%
X141600000Y-70100000D03*
D16*
X140700000Y-70100000D03*
D15*
%TO.P,U1,14,GPIO10*%
%TO.N,GPIO10*%
X141600000Y-72640000D03*
D16*
X140700000Y-72640000D03*
D15*
%TO.P,U1,15,GPIO11*%
%TO.N,GPIO11*%
X141600000Y-75180000D03*
D16*
X140700000Y-75180000D03*
D15*
%TO.P,U1,16,GPIO12*%
%TO.N,SD_SPI1_MISO*%
X141600000Y-77720000D03*
D16*
X140700000Y-77720000D03*
D15*
%TO.P,U1,17,GPIO13*%
%TO.N,SD_SPI1_CS*%
X141600000Y-80260000D03*
D16*
X140700000Y-80260000D03*
D14*
%TO.P,U1,18,GND*%
%TO.N,GND*%
X141600000Y-82800000D03*
D16*
X140700000Y-82800000D03*
D15*
%TO.P,U1,19,GPIO14*%
%TO.N,SD_SPI1_SCK*%
X141600000Y-85340000D03*
D16*
X140700000Y-85340000D03*
D15*
%TO.P,U1,20,GPIO15*%
%TO.N,SD_SPI1_MOSI*%
X141600000Y-87880000D03*
D16*
X140700000Y-87880000D03*
D15*
%TO.P,U1,21,GPIO16*%
%TO.N,UART_TX*%
X159380000Y-87880000D03*
D16*
X160280000Y-87880000D03*
D15*
%TO.P,U1,22,GPIO17*%
%TO.N,UART_RX*%
X159380000Y-85340000D03*
D16*
X160280000Y-85340000D03*
D14*
%TO.P,U1,23,GND*%
%TO.N,GND*%
X159380000Y-82800000D03*
D16*
X160280000Y-82800000D03*
D15*
%TO.P,U1,24,GPIO18*%
%TO.N,DISPLAY_I2C1_SDA*%
X159380000Y-80260000D03*
D16*
X160280000Y-80260000D03*
D15*
%TO.P,U1,25,GPIO19*%
%TO.N,DISPLAY_I2C1_SCL*%
X159380000Y-77720000D03*
D16*
X160280000Y-77720000D03*
D15*
%TO.P,U1,26,GPIO20*%
%TO.N,EXT_I2C0_SDA*%
X159380000Y-75180000D03*
D16*
X160280000Y-75180000D03*
D15*
%TO.P,U1,27,GPIO21*%
%TO.N,EXT_I2C0_SCL*%
X159380000Y-72640000D03*
D16*
X160280000Y-72640000D03*
D14*
%TO.P,U1,28,GND*%
%TO.N,GND*%
X159380000Y-70100000D03*
D16*
X160280000Y-70100000D03*
D15*
%TO.P,U1,29,GPIO22*%
%TO.N,RGBDI*%
X159380000Y-67560000D03*
D16*
X160280000Y-67560000D03*
D15*
%TO.P,U1,30,RUN*%
%TO.N,unconnected-(U1-RUN-Pad30)*%
X159380000Y-65020000D03*
D16*
%TO.N,unconnected-(U1-RUN-Pad30)_1*%
X160280000Y-65020000D03*
D15*
%TO.P,U1,31,GPIO26_ADC0*%
%TO.N,DISPLAY_BRIGHTNESS*%
X159380000Y-62480000D03*
D16*
X160280000Y-62480000D03*
D15*
%TO.P,U1,32,GPIO27_ADC1*%
%TO.N,DISPLAY_CONTRAST*%
X159380000Y-59940000D03*
D16*
X160280000Y-59940000D03*
D14*
%TO.P,U1,33,AGND*%
%TO.N,GND*%
X159380000Y-57400000D03*
D16*
X160280000Y-57400000D03*
D15*
%TO.P,U1,34,GPIO28_ADC2*%
%TO.N,GPIO28*%
X159380000Y-54860000D03*
D16*
X160280000Y-54860000D03*
D15*
%TO.P,U1,35,ADC_VREF*%
%TO.N,unconnected-(U1-ADC_VREF-Pad35)*%
X159380000Y-52320000D03*
D16*
%TO.N,unconnected-(U1-ADC_VREF-Pad35)_1*%
X160280000Y-52320000D03*
D15*
%TO.P,U1,36,3V3*%
%TO.N,unconnected-(U1-3V3-Pad36)*%
X159380000Y-49780000D03*
D16*
%TO.N,unconnected-(U1-3V3-Pad36)_1*%
X160280000Y-49780000D03*
D15*
%TO.P,U1,37,3V3_EN*%
%TO.N,unconnected-(U1-3V3_EN-Pad37)*%
X159380000Y-47240000D03*
D16*
%TO.N,unconnected-(U1-3V3_EN-Pad37)_1*%
X160280000Y-47240000D03*
D14*
%TO.P,U1,38,GND*%
%TO.N,GND*%
X159380000Y-44700000D03*
D16*
X160280000Y-44700000D03*
D15*
%TO.P,U1,39,VSYS*%
%TO.N,+5V*%
X159380000Y-42160000D03*
D16*
X160280000Y-42160000D03*
D15*
%TO.P,U1,40,VBUS*%
%TO.N,unconnected-(U1-VBUS-Pad40)_1*%
X159380000Y-39620000D03*
D16*
%TO.N,unconnected-(U1-VBUS-Pad40)*%
X160280000Y-39620000D03*
D15*
%TO.P,U1,41,SWCLK*%
%TO.N,unconnected-(U1-SWCLK-Pad41)*%
X147950000Y-87650000D03*
D17*
%TO.N,unconnected-(U1-SWCLK-Pad41)_1*%
X147950000Y-88550000D03*
D14*
%TO.P,U1,42,GND*%
%TO.N,unconnected-(U1-GND-Pad42)*%
X150490000Y-87650000D03*
D17*
%TO.N,unconnected-(U1-GND-Pad42)_1*%
X150490000Y-88550000D03*
D15*
%TO.P,U1,43,SWDIO*%
%TO.N,unconnected-(U1-SWDIO-Pad43)_1*%
X153030000Y-87650000D03*
D17*
%TO.N,unconnected-(U1-SWDIO-Pad43)*%
X153030000Y-88550000D03*
%TD*%
D18*
%TO.P,R1,1*%
%TO.N,LAD0*%
X123878740Y-43710000D03*
D19*
X126279040Y-43710000D03*
%TO.P,R1,2*%
%TO.N,Net-(U1-GPIO0)*%
X131480960Y-43710000D03*
D18*
X133881260Y-43710000D03*
%TD*%
D20*
%TO.P,J2,1,Pin_1*%
%TO.N,SD_SPI1_MISO*%
X169380000Y-88380000D03*
D21*
%TO.P,J2,2,Pin_2*%
%TO.N,SD_SPI1_CS*%
X169380000Y-85840000D03*
%TO.P,J2,3,Pin_3*%
%TO.N,SD_SPI1_SCK*%
X169380000Y-83300000D03*
%TO.P,J2,4,Pin_4*%
%TO.N,SD_SPI1_MOSI*%
X169380000Y-80760000D03*
%TO.P,J2,5,Pin_5*%
%TO.N,UART_TX*%
X169380000Y-78220000D03*
%TO.P,J2,6,Pin_6*%
%TO.N,UART_RX*%
X169380000Y-75680000D03*
%TO.P,J2,7,Pin_7*%
%TO.N,GND*%
X169380000Y-73140000D03*
%TO.P,J2,8,Pin_8*%
%TO.N,DISPLAY_I2C1_SDA*%
X169380000Y-70600000D03*
%TO.P,J2,9,Pin_9*%
%TO.N,DISPLAY_I2C1_SCL*%
X169380000Y-68060000D03*
%TO.P,J2,10,Pin_10*%
%TO.N,EXT_I2C0_SDA*%
X169380000Y-65520000D03*
%TO.P,J2,11,Pin_11*%
%TO.N,EXT_I2C0_SCL*%
X169380000Y-62980000D03*
%TO.P,J2,12,Pin_12*%
%TO.N,DISPLAY_BRIGHTNESS*%
X169380000Y-60440000D03*
%TO.P,J2,13,Pin_13*%
%TO.N,DISPLAY_CONTRAST*%
X169380000Y-57900000D03*
%TO.P,J2,14,Pin_14*%
%TO.N,GND*%
X169380000Y-55360000D03*
%TO.P,J2,15,Pin_15*%
%TO.N,GPIO9*%
X169380000Y-52820000D03*
%TO.P,J2,16,Pin_16*%
%TO.N,GPIO10*%
X169380000Y-50280000D03*
%TO.P,J2,17,Pin_17*%
%TO.N,GPIO11*%
X169380000Y-47740000D03*
%TO.P,J2,18,Pin_18*%
%TO.N,GPIO28*%
X169380000Y-45200000D03*
%TO.P,J2,19,Pin_19*%
%TO.N,GND*%
X169380000Y-42660000D03*
%TO.P,J2,20,Pin_20*%
X169380000Y-40120000D03*
%TD*%
D22*
%TO.P,RGB1,1,Pin_1*%
%TO.N,Net-(D2-DOUT)*%
X122000000Y-69000000D03*
D23*
%TO.P,RGB1,2,Pin_2*%
%TO.N,LPC_5V*%
X120203949Y-67203949D03*
%TO.P,RGB1,3,Pin_3*%
%TO.N,GND*%
X118407898Y-65407898D03*
%TD*%
D18*
%TO.P,R3,1*%
%TO.N,LAD2*%
X123878740Y-51810000D03*
D19*
X126279040Y-51810000D03*
%TO.P,R3,2*%
%TO.N,Net-(U1-GPIO2)*%
X131480960Y-51810000D03*
D18*
X133881260Y-51810000D03*
%TD*%
%TO.P,R2,1*%
%TO.N,LAD1*%
X123878740Y-47760000D03*
D19*
X126279040Y-47760000D03*
%TO.P,R2,2*%
%TO.N,Net-(U1-GPIO1)*%
X131480960Y-47760000D03*
D18*
X133881260Y-47760000D03*
%TD*%
D24*
%TO.P,EXT1,1,Pin_1*%
%TO.N,LSDA*%
X127907898Y-77407898D03*
D25*
%TO.P,EXT1,2,Pin_2*%
%TO.N,LPC_5V*%
X129703949Y-75611847D03*
%TO.P,EXT1,3,Pin_3*%
%TO.N,LSCL*%
X129703949Y-79203949D03*
%TO.P,EXT1,4,Pin_4*%
%TO.N,GND*%
X131500000Y-77407898D03*
%TO.P,EXT1,5,Pin_5*%
X131500000Y-81000000D03*
%TO.P,EXT1,6,Pin_6*%
%TO.N,+3.3V*%
X133296052Y-79203949D03*
%TD*%
D18*
%TO.P,R4,1*%
%TO.N,LAD3*%
X123878740Y-55860000D03*
D19*
X126279040Y-55860000D03*
%TO.P,R4,2*%
%TO.N,Net-(U1-GPIO3)*%
X131480960Y-55860000D03*
D18*
X133881260Y-55860000D03*
%TD*%
D26*
%TO.N,Net-(D0-Pin_1)*%
X129880000Y-59860000D02*
X141520000Y-59860000D01*
X141520000Y-59860000D02*
X141600000Y-59940000D01*
%TO.N,LPC_5V*%
X121176220Y-68176220D02*
X121981801Y-67370639D01*
X129703949Y-75611847D02*
X126592102Y-72500000D01*
X123500000Y-39500000D02*
X123500000Y-39906346D01*
X127000000Y-67340000D02*
X127980000Y-66360000D01*
X122230331Y-67370639D02*
X125359692Y-70500000D01*
X125359692Y-70500000D02*
X126574314Y-70500000D01*
X118344259Y-67203949D02*
X120203949Y-67203949D01*
X115380000Y-54020000D02*
X115380000Y-54933654D01*
X123500000Y-39906346D02*
X118156346Y-45250000D01*
X129030000Y-70410000D02*
X129030000Y-68910000D01*
X114750000Y-45250000D02*
X113830000Y-46170000D01*
X113830000Y-46170000D02*
X113830000Y-52470000D01*
X126592102Y-72500000D02*
X126565686Y-72500000D01*
X120203949Y-67203949D02*
X121176220Y-68176220D01*
X126532843Y-71672843D02*
X127795686Y-70410000D01*
X121981801Y-67370639D02*
X122230331Y-67370639D01*
X115380000Y-54933654D02*
X114230000Y-56083654D01*
X126574314Y-69335686D02*
X127000000Y-68910000D01*
X126565686Y-72500000D02*
X126532843Y-72467157D01*
X127000000Y-68910000D02*
X127000000Y-67340000D01*
X114230000Y-56083654D02*
X114230000Y-63089690D01*
X114230000Y-63089690D02*
X118344259Y-67203949D01*
X129030000Y-68910000D02*
X127000000Y-68910000D01*
X113830000Y-52470000D02*
X115380000Y-54020000D01*
X118156346Y-45250000D02*
X114750000Y-45250000D01*
X126532843Y-72467157D02*
X126532843Y-71672843D01*
X127795686Y-70410000D02*
X129030000Y-70410000D01*
X126574314Y-70500000D02*
X126574314Y-69335686D01*
%TO.N,RGBDI*%
X142800000Y-69000000D02*
X142750000Y-68950000D01*
X159380000Y-67560000D02*
X157940000Y-69000000D01*
X135470000Y-68950000D02*
X132880000Y-66360000D01*
X157940000Y-69000000D02*
X142800000Y-69000000D01*
X142750000Y-68950000D02*
X135470000Y-68950000D01*
%TO.N,Net-(D2-DOUT)*%
X122000000Y-69000000D02*
X123229361Y-70229361D01*
X124295047Y-70229361D02*
X125065686Y-71000000D01*
X126640000Y-71000000D02*
X127980000Y-69660000D01*
X125065686Y-71000000D02*
X126640000Y-71000000D01*
X123229361Y-70229361D02*
X124295047Y-70229361D01*
%TO.N,LSDA*%
X124129361Y-70629361D02*
X127907898Y-74407898D01*
X121203985Y-70629361D02*
X124129361Y-70629361D01*
X127907898Y-74407898D02*
X127907898Y-77407898D01*
X115380000Y-43860000D02*
X113430000Y-45810000D01*
X113430000Y-45810000D02*
X113430000Y-62855376D01*
X113430000Y-62855376D02*
X121203985Y-70629361D01*
%TO.N,+3.3V*%
X131330295Y-79203949D02*
X133296052Y-79203949D01*
X112630000Y-63186748D02*
X120872613Y-71429361D01*
X114903654Y-40170000D02*
X112630000Y-42443654D01*
X121679760Y-48160000D02*
X122579250Y-49059490D01*
X122365256Y-37850000D02*
X122050000Y-38165256D01*
X122050000Y-38165256D02*
X122050000Y-40450000D01*
X128078910Y-48759770D02*
X128078910Y-39094166D01*
X126005816Y-73637188D02*
X126005816Y-77697848D01*
X126834744Y-37850000D02*
X122365256Y-37850000D01*
X122050000Y-40450000D02*
X121180000Y-41320000D01*
X128661917Y-80353949D02*
X130180295Y-80353949D01*
X127779190Y-49059490D02*
X128078910Y-48759770D01*
X128078910Y-39094166D02*
X126834744Y-37850000D01*
X117920000Y-48940000D02*
X118700000Y-48160000D01*
X126005816Y-77697848D02*
X128661917Y-80353949D01*
X122579250Y-49059490D02*
X127779190Y-49059490D01*
X120872613Y-71429361D02*
X123797989Y-71429361D01*
X112630000Y-42443654D02*
X112630000Y-63186748D01*
X123797989Y-71429361D02*
X126005816Y-73637188D01*
X121180000Y-41320000D02*
X117920000Y-41320000D01*
X118700000Y-48160000D02*
X121679760Y-48160000D01*
X116770000Y-40170000D02*
X114903654Y-40170000D01*
X117920000Y-41320000D02*
X116770000Y-40170000D01*
X130180295Y-80353949D02*
X131330295Y-79203949D01*
%TO.N,LSCL*%
X121038299Y-71029361D02*
X123963675Y-71029361D01*
X126405816Y-73471502D02*
X126405816Y-77532162D01*
X117920000Y-43860000D02*
X116770000Y-42710000D01*
X123963675Y-71029361D02*
X126405816Y-73471502D01*
X116770000Y-42710000D02*
X114903654Y-42710000D01*
X113030000Y-63021062D02*
X121038299Y-71029361D01*
X126405816Y-77532162D02*
X128077603Y-79203949D01*
X128077603Y-79203949D02*
X129703949Y-79203949D01*
X113030000Y-44583654D02*
X113030000Y-63021062D01*
X114903654Y-42710000D02*
X113030000Y-44583654D01*
%TO.N,GND*%
X158230000Y-58550000D02*
X158230000Y-66170000D01*
X167340000Y-44700000D02*
X169380000Y-42660000D01*
X115143654Y-52870000D02*
X115856346Y-52870000D01*
X142750000Y-76570000D02*
X137930000Y-76570000D01*
X138650000Y-64000000D02*
X127500000Y-64000000D01*
X159380000Y-44700000D02*
X167340000Y-44700000D01*
X169380000Y-42660000D02*
X169380000Y-40120000D01*
X162730000Y-78470000D02*
X162090000Y-79110000D01*
X168210000Y-50764630D02*
X168210000Y-47255370D01*
X168210000Y-47255370D02*
X168895370Y-46570000D01*
X158230000Y-66170000D02*
X162090000Y-66170000D01*
X169984314Y-51450000D02*
X168895370Y-51450000D01*
X141600000Y-82800000D02*
X142750000Y-81650000D01*
X158230000Y-79110000D02*
X158230000Y-81650000D01*
X133600000Y-70100000D02*
X141600000Y-70100000D01*
X115380000Y-46400000D02*
X114230000Y-47550000D01*
X115380000Y-62380000D02*
X118407898Y-65407898D01*
X138780000Y-63870000D02*
X138650000Y-64000000D01*
X169664630Y-46570000D02*
X170550000Y-45684630D01*
X168895370Y-51450000D02*
X168210000Y-50764630D01*
X159380000Y-70100000D02*
X141600000Y-70100000D01*
X115856346Y-52870000D02*
X116770000Y-53783654D01*
X162467157Y-66547157D02*
X162467157Y-69467157D01*
X139100000Y-57400000D02*
X141600000Y-57400000D01*
X118407898Y-65407898D02*
X128827898Y-65407898D01*
X159380000Y-82800000D02*
X150580000Y-74000000D01*
X142510000Y-63870000D02*
X138780000Y-63870000D01*
X168895370Y-46570000D02*
X169664630Y-46570000D01*
X158230000Y-81650000D02*
X159380000Y-82800000D01*
X133500000Y-81000000D02*
X131500000Y-81000000D01*
X137930000Y-76570000D02*
X133500000Y-81000000D01*
X170550000Y-43830000D02*
X169380000Y-42660000D01*
X162467157Y-69467157D02*
X161834314Y-70100000D01*
X132880000Y-69660000D02*
X133160000Y-69660000D01*
X116770000Y-57710000D02*
X115380000Y-59100000D01*
X114230000Y-51956346D02*
X115143654Y-52870000D01*
X170550000Y-52015686D02*
X169984314Y-51450000D01*
X141600000Y-44700000D02*
X159380000Y-44700000D01*
X170550000Y-69915370D02*
X169864630Y-69230000D01*
X114230000Y-47550000D02*
X114230000Y-51956346D01*
X170550000Y-45684630D02*
X170550000Y-43830000D01*
X140040000Y-70100000D02*
X137930000Y-72210000D01*
X162090000Y-66170000D02*
X162467157Y-66547157D01*
X159380000Y-57400000D02*
X158230000Y-58550000D01*
X170550000Y-54190000D02*
X170550000Y-52015686D01*
X162730000Y-75087056D02*
X162730000Y-78470000D01*
X115380000Y-59100000D02*
X115380000Y-62380000D01*
X137300000Y-59200000D02*
X139100000Y-57400000D01*
X144280000Y-47380000D02*
X144280000Y-62100000D01*
X169380000Y-73140000D02*
X170550000Y-71970000D01*
X168587056Y-69230000D02*
X162730000Y-75087056D01*
X161834314Y-70100000D02*
X159380000Y-70100000D01*
X127500000Y-64000000D02*
X127500000Y-59200000D01*
X169380000Y-55360000D02*
X170550000Y-54190000D01*
X128827898Y-65407898D02*
X132880000Y-69460000D01*
X141600000Y-44700000D02*
X144280000Y-47380000D01*
X127500000Y-59200000D02*
X137300000Y-59200000D01*
X159380000Y-57400000D02*
X167340000Y-57400000D01*
X162090000Y-79110000D02*
X158230000Y-79110000D01*
X142750000Y-81650000D02*
X142750000Y-76570000D01*
X132880000Y-69460000D02*
X132880000Y-69660000D01*
X169864630Y-69230000D02*
X168587056Y-69230000D01*
X141600000Y-70100000D02*
X140040000Y-70100000D01*
X167340000Y-57400000D02*
X169380000Y-55360000D01*
X150580000Y-74000000D02*
X137930000Y-74000000D01*
X144280000Y-62100000D02*
X142510000Y-63870000D01*
X116770000Y-53783654D02*
X116770000Y-57710000D01*
X170550000Y-71970000D02*
X170550000Y-69915370D01*
X133160000Y-69660000D02*
X133600000Y-70100000D01*
X137930000Y-74000000D02*
X137930000Y-76570000D01*
X137930000Y-72210000D02*
X137930000Y-74000000D01*
%TO.N,+5V*%
X133500000Y-39500000D02*
X134000000Y-39500000D01*
X155690000Y-38470000D02*
X159380000Y-42160000D01*
X134000000Y-39500000D02*
X135030000Y-38470000D01*
X135030000Y-38470000D02*
X155690000Y-38470000D01*
%TO.N,GPIO11*%
X146680000Y-75180000D02*
X155690000Y-84190000D01*
X168905370Y-74500000D02*
X170000000Y-74500000D01*
X171500000Y-49860000D02*
X169380000Y-47740000D01*
X163337157Y-82837157D02*
X163337157Y-80068213D01*
X163337157Y-80068213D02*
X168905370Y-74500000D01*
X171500000Y-73000000D02*
X171500000Y-49860000D01*
X161984314Y-84190000D02*
X163337157Y-82837157D01*
X155690000Y-84190000D02*
X161984314Y-84190000D01*
X141600000Y-75180000D02*
X146680000Y-75180000D01*
X170000000Y-74500000D02*
X171500000Y-73000000D01*
%TO.N,EXT_I2C0_SDA*%
X161505685Y-75180000D02*
X163130000Y-73555685D01*
X163130000Y-73555685D02*
X163130000Y-70870000D01*
X159380000Y-75180000D02*
X161505685Y-75180000D01*
X163130000Y-70870000D02*
X168480000Y-65520000D01*
X168480000Y-65520000D02*
X169380000Y-65520000D01*
%TO.N,DISPLAY_CONTRAST*%
X167340000Y-59940000D02*
X169380000Y-57900000D01*
X159380000Y-59940000D02*
X167340000Y-59940000D01*
%TO.N,SD_SPI1_CS*%
X140040000Y-80260000D02*
X138250000Y-82050000D01*
X141600000Y-80260000D02*
X140040000Y-80260000D01*
X161205686Y-91360000D02*
X166725686Y-85840000D01*
X139814315Y-91360000D02*
X161205686Y-91360000D01*
X138250000Y-82050000D02*
X138250000Y-89795685D01*
X138250000Y-89795685D02*
X139814315Y-91360000D01*
X166725686Y-85840000D02*
X169380000Y-85840000D01*
%TO.N,UART_TX*%
X159380000Y-87880000D02*
X162620000Y-87880000D01*
X162620000Y-87880000D02*
X167480000Y-83020000D01*
X167480000Y-83020000D02*
X167480000Y-80120000D01*
X167480000Y-80120000D02*
X169380000Y-78220000D01*
%TO.N,SD_SPI1_SCK*%
X138650000Y-86730000D02*
X138650000Y-89630000D01*
X161400000Y-90600000D02*
X168700000Y-83300000D01*
X140040000Y-85340000D02*
X138650000Y-86730000D01*
X138650000Y-89630000D02*
X139620000Y-90600000D01*
X139620000Y-90600000D02*
X161400000Y-90600000D01*
X141600000Y-85340000D02*
X140040000Y-85340000D01*
X168700000Y-83300000D02*
X169380000Y-83300000D01*
%TO.N,GPIO28*%
X167000000Y-49434630D02*
X167000000Y-47580000D01*
X167000000Y-47580000D02*
X169380000Y-45200000D01*
X159380000Y-54860000D02*
X161574630Y-54860000D01*
X161574630Y-54860000D02*
X167000000Y-49434630D01*
%TO.N,EXT_I2C0_SCL*%
X159380000Y-72640000D02*
X160940000Y-72640000D01*
X169380000Y-63120000D02*
X169380000Y-62980000D01*
X160940000Y-72640000D02*
X162330000Y-71250000D01*
X162330000Y-70170000D02*
X169380000Y-63120000D01*
X162330000Y-71250000D02*
X162330000Y-70170000D01*
%TO.N,Net-(U1-GPIO0)*%
X133881260Y-43710000D02*
X137971260Y-39620000D01*
X137971260Y-39620000D02*
X141600000Y-39620000D01*
%TO.N,Net-(U1-GPIO1)*%
X139481260Y-42160000D02*
X141600000Y-42160000D01*
X133881260Y-47760000D02*
X139481260Y-42160000D01*
%TO.N,Net-(U1-GPIO2)*%
X133881260Y-51810000D02*
X138451260Y-47240000D01*
X138451260Y-47240000D02*
X141600000Y-47240000D01*
%TO.N,Net-(U1-GPIO3)*%
X138250000Y-54684314D02*
X138250000Y-51004315D01*
X139474315Y-49780000D02*
X141600000Y-49780000D01*
X137074314Y-55860000D02*
X138250000Y-54684314D01*
X138250000Y-51004315D02*
X139474315Y-49780000D01*
X133881260Y-55860000D02*
X137074314Y-55860000D01*
%TO.N,SD_SPI1_MOSI*%
X167880000Y-82260000D02*
X169380000Y-80760000D01*
X167880000Y-83480000D02*
X167880000Y-82260000D01*
X162330000Y-89030000D02*
X167880000Y-83480000D01*
X146500000Y-86500000D02*
X154500000Y-86500000D01*
X141720000Y-88000000D02*
X145000000Y-88000000D01*
X157030000Y-89030000D02*
X162330000Y-89030000D01*
X141600000Y-87880000D02*
X141720000Y-88000000D01*
X145000000Y-88000000D02*
X146500000Y-86500000D01*
X154500000Y-86500000D02*
X157030000Y-89030000D01*
%TO.N,SD_SPI1_MISO*%
X141600000Y-77720000D02*
X140040000Y-77720000D01*
X137850000Y-89961370D02*
X139648630Y-91760000D01*
X139648630Y-91760000D02*
X161371372Y-91760000D01*
X140040000Y-77720000D02*
X137850000Y-79910000D01*
X161371372Y-91760000D02*
X164751372Y-88380000D01*
X137850000Y-79910000D02*
X137850000Y-89961370D01*
X164751372Y-88380000D02*
X169380000Y-88380000D01*
%TO.N,DISPLAY_I2C1_SDA*%
X162937157Y-79902527D02*
X168210000Y-74629684D01*
X159380000Y-80260000D02*
X162740000Y-80260000D01*
X168210000Y-71770000D02*
X169380000Y-70600000D01*
X168210000Y-74629684D02*
X168210000Y-71770000D01*
X162937157Y-80062843D02*
X162937157Y-79902527D01*
X162740000Y-80260000D02*
X162937157Y-80062843D01*
%TO.N,GPIO9*%
X153160000Y-56000000D02*
X153170000Y-56010000D01*
X153170000Y-56010000D02*
X166190000Y-56010000D01*
X141600000Y-67560000D02*
X153160000Y-56000000D01*
X166190000Y-56010000D02*
X169380000Y-52820000D01*
%TO.N,DISPLAY_BRIGHTNESS*%
X159380000Y-62480000D02*
X167340000Y-62480000D01*
X167340000Y-62480000D02*
X169380000Y-60440000D01*
%TO.N,GPIO10*%
X141600000Y-72640000D02*
X141740000Y-72500000D01*
X141740000Y-72500000D02*
X156940000Y-72500000D01*
X171000000Y-51900000D02*
X169380000Y-50280000D01*
X156940000Y-72500000D02*
X158230000Y-73790000D01*
X162730000Y-70335686D02*
X167695686Y-65370000D01*
X169000000Y-64150000D02*
X169864630Y-64150000D01*
X162730000Y-73389999D02*
X162730000Y-70335686D01*
X171000000Y-63014630D02*
X171000000Y-51900000D01*
X167695686Y-65370000D02*
X167780000Y-65370000D01*
X169864630Y-64150000D02*
X171000000Y-63014630D01*
X158230000Y-73790000D02*
X162329999Y-73790000D01*
X167780000Y-65370000D02*
X169000000Y-64150000D01*
X162329999Y-73790000D02*
X162730000Y-73389999D01*
%TO.N,DISPLAY_I2C1_SCL*%
X160940000Y-77720000D02*
X162330000Y-76330000D01*
X162330000Y-74921371D02*
X163530000Y-73721371D01*
X162330000Y-76330000D02*
X162330000Y-74921371D01*
X159380000Y-77720000D02*
X160940000Y-77720000D01*
X163530000Y-73721371D02*
X163530000Y-71035686D01*
X166505686Y-68060000D02*
X169380000Y-68060000D01*
X163530000Y-71035686D02*
X166505686Y-68060000D01*
%TO.N,UART_RX*%
X161400000Y-85340000D02*
X163737157Y-83002843D01*
X163737157Y-83002843D02*
X163737157Y-80262843D01*
X168320000Y-75680000D02*
X169380000Y-75680000D01*
X159380000Y-85340000D02*
X161400000Y-85340000D01*
X163737157Y-80262843D02*
X168320000Y-75680000D01*
%TO.N,LAD0*%
X119820000Y-44500000D02*
X123088740Y-44500000D01*
X123088740Y-44500000D02*
X123878740Y-43710000D01*
X117920000Y-46400000D02*
X119820000Y-44500000D01*
%TO.N,LAD1*%
X116560000Y-47760000D02*
X123878740Y-47760000D01*
X115380000Y-48940000D02*
X116560000Y-47760000D01*
%TO.N,LAD2*%
X122398740Y-50330000D02*
X116530000Y-50330000D01*
X123878740Y-51810000D02*
X122398740Y-50330000D01*
X116530000Y-50330000D02*
X115380000Y-51480000D01*
%TO.N,LAD3*%
X123878740Y-55860000D02*
X122300000Y-55860000D01*
X122300000Y-55860000D02*
X117920000Y-51480000D01*
%TO.N,LRESET*%
X138650000Y-51170000D02*
X142750000Y-51170000D01*
X123500000Y-58000000D02*
X135500000Y-58000000D01*
X143880000Y-60200000D02*
X141600000Y-62480000D01*
X119520000Y-54020000D02*
X123500000Y-58000000D01*
X135500000Y-58000000D02*
X138650000Y-54850000D01*
X143880000Y-52300000D02*
X143880000Y-60200000D01*
X117920000Y-54020000D02*
X119520000Y-54020000D01*
X142750000Y-51170000D02*
X143880000Y-52300000D01*
X138650000Y-54850000D02*
X138650000Y-51170000D01*
%TO.N,LFRAME*%
X138484314Y-55850000D02*
X140610000Y-55850000D01*
X119760000Y-58400000D02*
X135934314Y-58400000D01*
X135934314Y-58400000D02*
X138484314Y-55850000D01*
X140610000Y-55850000D02*
X141600000Y-54860000D01*
X117920000Y-56560000D02*
X119760000Y-58400000D01*
%TO.N,LCLK*%
X142490000Y-56250000D02*
X142750000Y-55990000D01*
X118220000Y-58800000D02*
X136100000Y-58800000D01*
X136100000Y-58800000D02*
X138650000Y-56250000D01*
X142750000Y-55990000D02*
X142750000Y-53470000D01*
X117920000Y-59100000D02*
X118220000Y-58800000D01*
X142750000Y-53470000D02*
X141600000Y-52320000D01*
X138650000Y-56250000D02*
X142490000Y-56250000D01*
%TD*%
%TA.AperFunction,Conductor*%
%TO.N,GND*%
G36*
X162984564Y-80549464D02*
G01*
X163027765Y-80604376D01*
X163036657Y-80650486D01*
X163036657Y-82661324D01*
X163016972Y-82728363D01*
X163000338Y-82749005D01*
X162702352Y-83046990D01*
X162641029Y-83080475D01*
X162571337Y-83075491D01*
X162531674Y-83050000D01*
X159824560Y-83050000D01*
X159855245Y-82996853D01*
X159890000Y-82867143D01*
X159890000Y-82732857D01*
X159855245Y-82603147D01*
X159824560Y-82550000D01*
X162530000Y-82550000D01*
X162530000Y-81902172D01*
X162529999Y-81902155D01*
X162523598Y-81842627D01*
X162523596Y-81842620D01*
X162473354Y-81707913D01*
X162473350Y-81707906D01*
X162387190Y-81592812D01*
X162387187Y-81592809D01*
X162272093Y-81506649D01*
X162272087Y-81506646D01*
X162194381Y-81477663D01*
X162138448Y-81435791D01*
X162114031Y-81370327D01*
X162128883Y-81302054D01*
X162168826Y-81258377D01*
X162174552Y-81254552D01*
X162218867Y-81188231D01*
X162218867Y-81188229D01*
X162218868Y-81188229D01*
X162230499Y-81129752D01*
X162230500Y-81129750D01*
X162230500Y-80684500D01*
X162250185Y-80617461D01*
X162302989Y-80571706D01*
X162354500Y-80560500D01*
X162779560Y-80560500D01*
X162779562Y-80560500D01*
X162855989Y-80540021D01*
X162855992Y-80540018D01*
X162863499Y-80536910D01*
X162864657Y-80539706D01*
X162918532Y-80526625D01*
X162984564Y-80549464D01*
G37*
%TD.AperFunction*%
%TA.AperFunction,Conductor*%
G36*
X157973039Y-69320185D02*
G01*
X158018794Y-69372989D01*
X158030000Y-69424500D01*
X158030000Y-69850000D01*
X158935440Y-69850000D01*
X158904755Y-69903147D01*
X158870000Y-70032857D01*
X158870000Y-70167143D01*
X158904755Y-70296853D01*
X158935440Y-70350000D01*
X158030000Y-70350000D01*
X158030000Y-70997844D01*
X158036401Y-71057372D01*
X158036403Y-71057379D01*
X158086645Y-71192086D01*
X158086649Y-71192093D01*
X158172809Y-71307187D01*
X158172812Y-71307190D01*
X158287906Y-71393350D01*
X158287913Y-71393354D01*
X158365617Y-71422336D01*
X158421551Y-71464207D01*
X158445968Y-71529672D01*
X158431116Y-71597945D01*
X158391179Y-71641617D01*
X158385448Y-71645446D01*
X158341132Y-71711769D01*
X158341131Y-71711770D01*
X158329500Y-71770247D01*
X158329500Y-72582299D01*
X158328903Y-72594453D01*
X158324417Y-72639999D01*
X158328903Y-72685545D01*
X158329500Y-72697699D01*
X158329500Y-73165167D01*
X158309815Y-73232206D01*
X158257011Y-73277961D01*
X158187853Y-73287905D01*
X158124297Y-73258880D01*
X158117819Y-73252848D01*
X157124512Y-72259541D01*
X157124504Y-72259535D01*
X157055995Y-72219982D01*
X157055990Y-72219979D01*
X157030513Y-72213152D01*
X156979562Y-72199500D01*
X156979560Y-72199500D01*
X142774500Y-72199500D01*
X142707461Y-72179815D01*
X142661706Y-72127011D01*
X142650500Y-72075500D01*
X142650500Y-71770249D01*
X142650499Y-71770247D01*
X142638868Y-71711770D01*
X142638867Y-71711769D01*
X142594551Y-71645446D01*
X142588823Y-71641619D01*
X142544018Y-71588006D01*
X142535312Y-71518681D01*
X142565468Y-71455654D01*
X142614382Y-71422336D01*
X142692086Y-71393354D01*
X142692093Y-71393350D01*
X142807187Y-71307190D01*
X142807190Y-71307187D01*
X142893350Y-71192093D01*
X142893354Y-71192086D01*
X142943596Y-71057379D01*
X142943598Y-71057372D01*
X142949999Y-70997844D01*
X142950000Y-70997827D01*
X142950000Y-70350000D01*
X142044560Y-70350000D01*
X142075245Y-70296853D01*
X142110000Y-70167143D01*
X142110000Y-70032857D01*
X142075245Y-69903147D01*
X142044560Y-69850000D01*
X142950000Y-69850000D01*
X142950000Y-69424500D01*
X142969685Y-69357461D01*
X143022489Y-69311706D01*
X143074000Y-69300500D01*
X157906000Y-69300500D01*
X157973039Y-69320185D01*
G37*
%TD.AperFunction*%
%TA.AperFunction,Conductor*%
G36*
X160473039Y-69869685D02*
G01*
X160518794Y-69922489D01*
X160530000Y-69974000D01*
X160530000Y-70226000D01*
X160510315Y-70293039D01*
X160457511Y-70338794D01*
X160406000Y-70350000D01*
X159824560Y-70350000D01*
X159855245Y-70296853D01*
X159890000Y-70167143D01*
X159890000Y-70032857D01*
X159855245Y-69903147D01*
X159824560Y-69850000D01*
X160406000Y-69850000D01*
X160473039Y-69869685D01*
G37*
%TD.AperFunction*%
%TA.AperFunction,Conductor*%
G36*
X170509512Y-56135959D02*
G01*
X170562708Y-56130442D01*
X170631420Y-56143105D01*
X170682378Y-56190907D01*
X170699500Y-56253780D01*
X170699500Y-57851467D01*
X170684908Y-57901159D01*
X170697328Y-57925427D01*
X170699500Y-57948532D01*
X170699500Y-60391467D01*
X170684908Y-60441159D01*
X170697328Y-60465427D01*
X170699500Y-60488532D01*
X170699500Y-62838796D01*
X170679815Y-62905835D01*
X170663181Y-62926477D01*
X170654872Y-62934786D01*
X170593549Y-62968271D01*
X170523857Y-62963287D01*
X170467924Y-62921415D01*
X170443788Y-62859259D01*
X170435011Y-62770146D01*
X170431940Y-62760021D01*
X170373799Y-62568355D01*
X170373797Y-62568352D01*
X170373797Y-62568350D01*
X170274399Y-62382389D01*
X170274394Y-62382383D01*
X170140621Y-62219378D01*
X169977616Y-62085605D01*
X169977610Y-62085600D01*
X169791649Y-61986202D01*
X169690750Y-61955595D01*
X169589855Y-61924989D01*
X169589853Y-61924988D01*
X169589855Y-61924988D01*
X169380000Y-61904320D01*
X169170146Y-61924988D01*
X168968350Y-61986202D01*
X168782389Y-62085600D01*
X168782383Y-62085605D01*
X168619378Y-62219378D01*
X168485605Y-62382383D01*
X168485600Y-62382389D01*
X168386202Y-62568350D01*
X168324988Y-62770146D01*
X168304320Y-62980000D01*
X168324988Y-63189853D01*
X168386202Y-63391649D01*
X168446365Y-63504205D01*
X168460607Y-63572608D01*
X168435607Y-63637851D01*
X168424688Y-63650339D01*
X162741681Y-69333347D01*
X162680358Y-69366832D01*
X162610666Y-69361848D01*
X162554733Y-69319976D01*
X162530316Y-69254512D01*
X162530000Y-69245666D01*
X162530000Y-69202172D01*
X162529999Y-69202155D01*
X162523598Y-69142627D01*
X162523596Y-69142620D01*
X162473354Y-69007913D01*
X162473350Y-69007906D01*
X162387190Y-68892812D01*
X162387187Y-68892809D01*
X162272093Y-68806649D01*
X162272087Y-68806646D01*
X162194381Y-68777663D01*
X162138448Y-68735791D01*
X162114031Y-68670327D01*
X162128883Y-68602054D01*
X162168826Y-68558377D01*
X162174552Y-68554552D01*
X162218867Y-68488231D01*
X162218867Y-68488229D01*
X162218868Y-68488229D01*
X162230499Y-68429752D01*
X162230500Y-68429750D01*
X162230500Y-66690249D01*
X162230499Y-66690247D01*
X162218868Y-66631770D01*
X162218867Y-66631769D01*
X162174552Y-66565447D01*
X162108230Y-66521132D01*
X162108229Y-66521131D01*
X162049752Y-66509500D01*
X162049748Y-66509500D01*
X159437701Y-66509500D01*
X159425547Y-66508903D01*
X159380000Y-66504417D01*
X159334453Y-66508903D01*
X159322299Y-66509500D01*
X158510247Y-66509500D01*
X158451770Y-66521131D01*
X158451769Y-66521132D01*
X158385447Y-66565447D01*
X158341132Y-66631769D01*
X158341131Y-66631770D01*
X158329500Y-66690247D01*
X158329500Y-67502299D01*
X158328902Y-67514453D01*
X158324417Y-67560000D01*
X158328903Y-67605545D01*
X158329500Y-67617699D01*
X158329500Y-68134167D01*
X158309815Y-68201206D01*
X158293181Y-68221848D01*
X157851848Y-68663181D01*
X157790525Y-68696666D01*
X157764167Y-68699500D01*
X142950346Y-68699500D01*
X142888346Y-68682887D01*
X142879717Y-68677905D01*
X142879716Y-68677904D01*
X142873914Y-68674554D01*
X142865989Y-68669979D01*
X142789562Y-68649500D01*
X142789560Y-68649500D01*
X142757647Y-68649500D01*
X142690608Y-68629815D01*
X142644853Y-68577011D01*
X142634909Y-68507853D01*
X142636978Y-68500308D01*
X142636485Y-68500210D01*
X142650499Y-68429752D01*
X142650500Y-68429750D01*
X142650500Y-67617699D01*
X142651097Y-67605545D01*
X142655583Y-67560000D01*
X142651097Y-67514453D01*
X142650500Y-67502299D01*
X142650500Y-66985833D01*
X142670185Y-66918794D01*
X142686819Y-66898152D01*
X144564972Y-65019999D01*
X158324417Y-65019999D01*
X158328903Y-65065545D01*
X158329500Y-65077699D01*
X158329500Y-65889752D01*
X158341131Y-65948229D01*
X158341132Y-65948230D01*
X158385447Y-66014552D01*
X158451769Y-66058867D01*
X158451770Y-66058868D01*
X158510247Y-66070499D01*
X158510250Y-66070500D01*
X158510252Y-66070500D01*
X159322299Y-66070500D01*
X159334453Y-66071097D01*
X159380000Y-66075583D01*
X159425547Y-66071097D01*
X159437701Y-66070500D01*
X162049750Y-66070500D01*
X162049751Y-66070499D01*
X162064568Y-66067552D01*
X162108229Y-66058868D01*
X162108229Y-66058867D01*
X162108231Y-66058867D01*
X162174552Y-66014552D01*
X162218867Y-65948231D01*
X162218867Y-65948229D01*
X162218868Y-65948229D01*
X162230499Y-65889752D01*
X162230500Y-65889750D01*
X162230500Y-64150249D01*
X162230499Y-64150247D01*
X162218868Y-64091770D01*
X162218867Y-64091769D01*
X162174552Y-64025447D01*
X162108230Y-63981132D01*
X162108229Y-63981131D01*
X162049752Y-63969500D01*
X162049748Y-63969500D01*
X159437701Y-63969500D01*
X159425547Y-63968903D01*
X159380000Y-63964417D01*
X159334453Y-63968903D01*
X159322299Y-63969500D01*
X158510247Y-63969500D01*
X158451770Y-63981131D01*
X158451769Y-63981132D01*
X158385447Y-64025447D01*
X158341132Y-64091769D01*
X158341131Y-64091770D01*
X158329500Y-64150247D01*
X158329500Y-64962299D01*
X158328903Y-64974453D01*
X158324417Y-65019999D01*
X144564972Y-65019999D01*
X147104972Y-62479999D01*
X158324417Y-62479999D01*
X158328903Y-62525545D01*
X158329500Y-62537699D01*
X158329500Y-63349752D01*
X158341131Y-63408229D01*
X158341132Y-63408230D01*
X158385447Y-63474552D01*
X158451769Y-63518867D01*
X158451770Y-63518868D01*
X158510247Y-63530499D01*
X158510250Y-63530500D01*
X158510252Y-63530500D01*
X159322299Y-63530500D01*
X159334453Y-63531097D01*
X159380000Y-63535583D01*
X159425547Y-63531097D01*
X159437701Y-63530500D01*
X162049750Y-63530500D01*
X162049751Y-63530499D01*
X162064568Y-63527552D01*
X162108229Y-63518868D01*
X162108229Y-63518867D01*
X162108231Y-63518867D01*
X162174552Y-63474552D01*
X162218867Y-63408231D01*
X162218867Y-63408229D01*
X162218868Y-63408229D01*
X162230499Y-63349752D01*
X162230500Y-63349750D01*
X162230500Y-62904500D01*
X162250185Y-62837461D01*
X162302989Y-62791706D01*
X162354500Y-62780500D01*
X167379560Y-62780500D01*
X167379562Y-62780500D01*
X167455989Y-62760021D01*
X167524511Y-62720460D01*
X167580460Y-62664511D01*
X168800895Y-61444074D01*
X168862216Y-61410591D01*
X168931907Y-61415575D01*
X168947029Y-61422400D01*
X168955010Y-61426666D01*
X168968355Y-61433799D01*
X169170145Y-61495011D01*
X169170144Y-61495011D01*
X169188959Y-61496864D01*
X169380000Y-61515680D01*
X169589855Y-61495011D01*
X169791645Y-61433799D01*
X169804990Y-61426666D01*
X169977610Y-61334399D01*
X169977612Y-61334396D01*
X169977616Y-61334395D01*
X170140621Y-61200621D01*
X170274395Y-61037616D01*
X170274396Y-61037612D01*
X170274399Y-61037610D01*
X170373797Y-60851649D01*
X170373797Y-60851648D01*
X170373799Y-60851645D01*
X170435011Y-60649855D01*
X170452097Y-60476377D01*
X170466198Y-60441456D01*
X170456523Y-60426402D01*
X170452097Y-60403621D01*
X170441641Y-60297461D01*
X170435011Y-60230145D01*
X170373799Y-60028355D01*
X170373797Y-60028352D01*
X170373797Y-60028350D01*
X170274399Y-59842389D01*
X170274394Y-59842383D01*
X170140621Y-59679378D01*
X169977616Y-59545605D01*
X169977610Y-59545600D01*
X169791649Y-59446202D01*
X169662439Y-59407007D01*
X169589855Y-59384989D01*
X169589853Y-59384988D01*
X169589855Y-59384988D01*
X169380000Y-59364320D01*
X169170146Y-59384988D01*
X168968350Y-59446202D01*
X168782389Y-59545600D01*
X168782383Y-59545605D01*
X168619378Y-59679378D01*
X168485605Y-59842383D01*
X168485600Y-59842389D01*
X168386202Y-60028350D01*
X168324988Y-60230146D01*
X168304320Y-60440000D01*
X168324988Y-60649853D01*
X168386202Y-60851648D01*
X168397600Y-60872972D01*
X168411841Y-60941375D01*
X168386840Y-61006619D01*
X168375922Y-61019105D01*
X167251848Y-62143181D01*
X167190525Y-62176666D01*
X167164167Y-62179500D01*
X162354500Y-62179500D01*
X162287461Y-62159815D01*
X162241706Y-62107011D01*
X162230500Y-62055500D01*
X162230500Y-61610249D01*
X162230499Y-61610247D01*
X162218868Y-61551770D01*
X162218867Y-61551769D01*
X162174552Y-61485447D01*
X162108230Y-61441132D01*
X162108229Y-61441131D01*
X162049752Y-61429500D01*
X162049748Y-61429500D01*
X159437701Y-61429500D01*
X159425547Y-61428903D01*
X159380000Y-61424417D01*
X159334453Y-61428903D01*
X159322299Y-61429500D01*
X158510247Y-61429500D01*
X158451770Y-61441131D01*
X158451769Y-61441132D01*
X158385447Y-61485447D01*
X158341132Y-61551769D01*
X158341131Y-61551770D01*
X158329500Y-61610247D01*
X158329500Y-62422299D01*
X158328903Y-62434453D01*
X158324417Y-62479999D01*
X147104972Y-62479999D01*
X153238152Y-56346819D01*
X153299475Y-56313334D01*
X153325833Y-56310500D01*
X157912561Y-56310500D01*
X157979600Y-56330185D01*
X158025355Y-56382989D01*
X158035850Y-56447756D01*
X158030000Y-56502155D01*
X158030000Y-57150000D01*
X158935440Y-57150000D01*
X158904755Y-57203147D01*
X158870000Y-57332857D01*
X158870000Y-57467143D01*
X158904755Y-57596853D01*
X158935440Y-57650000D01*
X158030000Y-57650000D01*
X158030000Y-58297844D01*
X158036401Y-58357372D01*
X158036403Y-58357379D01*
X158086645Y-58492086D01*
X158086649Y-58492093D01*
X158172809Y-58607187D01*
X158172812Y-58607190D01*
X158287906Y-58693350D01*
X158287913Y-58693354D01*
X158365617Y-58722336D01*
X158421551Y-58764207D01*
X158445968Y-58829672D01*
X158431116Y-58897945D01*
X158391179Y-58941617D01*
X158385448Y-58945446D01*
X158341132Y-59011769D01*
X158341131Y-59011770D01*
X158329500Y-59070247D01*
X158329500Y-59882299D01*
X158328903Y-59894453D01*
X158324417Y-59939999D01*
X158328903Y-59985545D01*
X158329500Y-59997699D01*
X158329500Y-60809752D01*
X158341131Y-60868229D01*
X158341132Y-60868230D01*
X158385447Y-60934552D01*
X158451769Y-60978867D01*
X158451770Y-60978868D01*
X158510247Y-60990499D01*
X158510250Y-60990500D01*
X158510252Y-60990500D01*
X159322299Y-60990500D01*
X159334453Y-60991097D01*
X159380000Y-60995583D01*
X159425547Y-60991097D01*
X159437701Y-60990500D01*
X162049750Y-60990500D01*
X162049751Y-60990499D01*
X162064568Y-60987552D01*
X162108229Y-60978868D01*
X162108229Y-60978867D01*
X162108231Y-60978867D01*
X162174552Y-60934552D01*
X162218867Y-60868231D01*
X162218867Y-60868229D01*
X162218868Y-60868229D01*
X162230499Y-60809752D01*
X162230500Y-60809750D01*
X162230500Y-60364500D01*
X162250185Y-60297461D01*
X162302989Y-60251706D01*
X162354500Y-60240500D01*
X167379560Y-60240500D01*
X167379562Y-60240500D01*
X167455989Y-60220021D01*
X167524511Y-60180460D01*
X167580460Y-60124511D01*
X168800895Y-58904074D01*
X168862216Y-58870591D01*
X168931907Y-58875575D01*
X168947029Y-58882400D01*
X168957517Y-58888006D01*
X168968355Y-58893799D01*
X169170145Y-58955011D01*
X169170144Y-58955011D01*
X169188959Y-58956864D01*
X169380000Y-58975680D01*
X169589855Y-58955011D01*
X169791645Y-58893799D01*
X169802483Y-58888006D01*
X169977610Y-58794399D01*
X169977612Y-58794396D01*
X169977616Y-58794395D01*
X170140621Y-58660621D01*
X170274395Y-58497616D01*
X170274396Y-58497612D01*
X170274399Y-58497610D01*
X170373797Y-58311649D01*
X170373797Y-58311648D01*
X170373799Y-58311645D01*
X170435011Y-58109855D01*
X170452097Y-57936377D01*
X170466198Y-57901456D01*
X170456523Y-57886402D01*
X170452097Y-57863621D01*
X170438600Y-57726581D01*
X170435011Y-57690145D01*
X170373799Y-57488355D01*
X170373797Y-57488352D01*
X170373797Y-57488350D01*
X170274399Y-57302389D01*
X170274394Y-57302383D01*
X170140621Y-57139378D01*
X169977616Y-57005605D01*
X169977610Y-57005600D01*
X169791646Y-56906201D01*
X169789121Y-56905435D01*
X169787960Y-56904674D01*
X169786021Y-56903871D01*
X169786173Y-56903503D01*
X169730684Y-56867135D01*
X169702230Y-56803322D01*
X169712793Y-56734255D01*
X169759019Y-56681864D01*
X169784858Y-56669495D01*
X169932201Y-56618911D01*
X169932215Y-56618905D01*
X170131881Y-56510852D01*
X170131884Y-56510850D01*
X170157420Y-56490974D01*
X169546152Y-55879704D01*
X169590362Y-55867859D01*
X169714638Y-55796109D01*
X169816109Y-55694638D01*
X169887859Y-55570362D01*
X169899705Y-55526152D01*
X170509512Y-56135959D01*
G37*
%TD.AperFunction*%
%TA.AperFunction,Conductor*%
G36*
X168032796Y-54694686D02*
G01*
X168088730Y-54736558D01*
X168113147Y-54802022D01*
X168103020Y-54860676D01*
X168079789Y-54913639D01*
X168024054Y-55133729D01*
X168024052Y-55133741D01*
X168005305Y-55359994D01*
X168005305Y-55360005D01*
X168024052Y-55586258D01*
X168024054Y-55586270D01*
X168079789Y-55806361D01*
X168170991Y-56014282D01*
X168250485Y-56135958D01*
X168860294Y-55526150D01*
X168872141Y-55570362D01*
X168943891Y-55694638D01*
X169045362Y-55796109D01*
X169169638Y-55867859D01*
X169213847Y-55879705D01*
X168602577Y-56490974D01*
X168628112Y-56510848D01*
X168827789Y-56618908D01*
X168827798Y-56618911D01*
X168975141Y-56669495D01*
X169032156Y-56709881D01*
X169058287Y-56774680D01*
X169045235Y-56843320D01*
X168997147Y-56894008D01*
X168970882Y-56905434D01*
X168968353Y-56906201D01*
X168782389Y-57005600D01*
X168782383Y-57005605D01*
X168619378Y-57139378D01*
X168485605Y-57302383D01*
X168485600Y-57302389D01*
X168386202Y-57488350D01*
X168324988Y-57690146D01*
X168304320Y-57900000D01*
X168324988Y-58109853D01*
X168386202Y-58311648D01*
X168397600Y-58332972D01*
X168411841Y-58401375D01*
X168386840Y-58466619D01*
X168375922Y-58479105D01*
X167251848Y-59603181D01*
X167190525Y-59636666D01*
X167164167Y-59639500D01*
X162354500Y-59639500D01*
X162287461Y-59619815D01*
X162241706Y-59567011D01*
X162230500Y-59515500D01*
X162230500Y-59070249D01*
X162230499Y-59070247D01*
X162218868Y-59011770D01*
X162218867Y-59011769D01*
X162174551Y-58945446D01*
X162168823Y-58941619D01*
X162124018Y-58888006D01*
X162115312Y-58818681D01*
X162145468Y-58755654D01*
X162194382Y-58722336D01*
X162272086Y-58693354D01*
X162272093Y-58693350D01*
X162387187Y-58607190D01*
X162387190Y-58607187D01*
X162473350Y-58492093D01*
X162473354Y-58492086D01*
X162523596Y-58357379D01*
X162523598Y-58357372D01*
X162529999Y-58297844D01*
X162530000Y-58297827D01*
X162530000Y-57650000D01*
X159824560Y-57650000D01*
X159855245Y-57596853D01*
X159890000Y-57467143D01*
X159890000Y-57332857D01*
X159855245Y-57203147D01*
X159824560Y-57150000D01*
X162530000Y-57150000D01*
X162530000Y-56502172D01*
X162529999Y-56502155D01*
X162524150Y-56447756D01*
X162536555Y-56378997D01*
X162584164Y-56327859D01*
X162647439Y-56310500D01*
X166229560Y-56310500D01*
X166229562Y-56310500D01*
X166305989Y-56290021D01*
X166374511Y-56250460D01*
X166430460Y-56194511D01*
X167901785Y-54723185D01*
X167963105Y-54689702D01*
X168032796Y-54694686D01*
G37*
%TD.AperFunction*%
%TA.AperFunction,Conductor*%
G36*
X142855703Y-51701120D02*
G01*
X142862181Y-51707152D01*
X143543181Y-52388152D01*
X143576666Y-52449475D01*
X143579500Y-52475833D01*
X143579500Y-60024167D01*
X143559815Y-60091206D01*
X143543181Y-60111848D01*
X142862181Y-60792848D01*
X142800858Y-60826333D01*
X142731166Y-60821349D01*
X142675233Y-60779477D01*
X142650816Y-60714013D01*
X142650500Y-60705167D01*
X142650500Y-59997699D01*
X142651097Y-59985545D01*
X142655583Y-59940000D01*
X142651097Y-59894453D01*
X142650500Y-59882299D01*
X142650500Y-59070249D01*
X142650499Y-59070247D01*
X142638868Y-59011770D01*
X142638867Y-59011769D01*
X142594551Y-58945446D01*
X142588823Y-58941619D01*
X142544018Y-58888006D01*
X142535312Y-58818681D01*
X142565468Y-58755654D01*
X142614382Y-58722336D01*
X142692086Y-58693354D01*
X142692093Y-58693350D01*
X142807187Y-58607190D01*
X142807190Y-58607187D01*
X142893350Y-58492093D01*
X142893354Y-58492086D01*
X142943596Y-58357379D01*
X142943598Y-58357372D01*
X142949999Y-58297844D01*
X142950000Y-58297827D01*
X142950000Y-57650000D01*
X142044560Y-57650000D01*
X142075245Y-57596853D01*
X142110000Y-57467143D01*
X142110000Y-57332857D01*
X142075245Y-57203147D01*
X142044560Y-57150000D01*
X142950000Y-57150000D01*
X142950000Y-56502172D01*
X142949999Y-56502155D01*
X142943598Y-56442627D01*
X142943597Y-56442623D01*
X142911342Y-56356143D01*
X142906358Y-56286451D01*
X142939843Y-56225128D01*
X142990457Y-56174514D01*
X142990460Y-56174511D01*
X143030022Y-56105988D01*
X143050500Y-56029562D01*
X143050500Y-55950438D01*
X143050500Y-53430438D01*
X143049703Y-53427461D01*
X143047064Y-53417615D01*
X143047063Y-53417611D01*
X143030023Y-53354014D01*
X143030022Y-53354013D01*
X143030022Y-53354012D01*
X142990460Y-53285489D01*
X142686819Y-52981848D01*
X142653334Y-52920525D01*
X142650500Y-52894167D01*
X142650500Y-52377699D01*
X142651097Y-52365545D01*
X142651871Y-52357685D01*
X142655583Y-52320000D01*
X142651097Y-52274453D01*
X142650500Y-52262299D01*
X142650500Y-51794833D01*
X142670185Y-51727794D01*
X142722989Y-51682039D01*
X142792147Y-51672095D01*
X142855703Y-51701120D01*
G37*
%TD.AperFunction*%
%TA.AperFunction,Conductor*%
G36*
X138369334Y-57058151D02*
G01*
X138425267Y-57100023D01*
X138440283Y-57140283D01*
X138450000Y-57150000D01*
X141155440Y-57150000D01*
X141124755Y-57203147D01*
X141090000Y-57332857D01*
X141090000Y-57467143D01*
X141124755Y-57596853D01*
X141155440Y-57650000D01*
X138450000Y-57650000D01*
X138450000Y-58297844D01*
X138456401Y-58357372D01*
X138456403Y-58357379D01*
X138506645Y-58492086D01*
X138506649Y-58492093D01*
X138592809Y-58607187D01*
X138592812Y-58607190D01*
X138707906Y-58693350D01*
X138707913Y-58693354D01*
X138785617Y-58722336D01*
X138841551Y-58764207D01*
X138865968Y-58829672D01*
X138851116Y-58897945D01*
X138811179Y-58941617D01*
X138805448Y-58945446D01*
X138761132Y-59011769D01*
X138761131Y-59011770D01*
X138749500Y-59070247D01*
X138749500Y-59435500D01*
X138729815Y-59502539D01*
X138677011Y-59548294D01*
X138625500Y-59559500D01*
X132818028Y-59559500D01*
X132750989Y-59539815D01*
X132705234Y-59487011D01*
X132696411Y-59459691D01*
X132688868Y-59421770D01*
X132688867Y-59421769D01*
X132644553Y-59355448D01*
X132602878Y-59327602D01*
X132558074Y-59273989D01*
X132549367Y-59204664D01*
X132579522Y-59141637D01*
X132638965Y-59104918D01*
X132671770Y-59100500D01*
X136139560Y-59100500D01*
X136139562Y-59100500D01*
X136215989Y-59080021D01*
X136284511Y-59040460D01*
X136340460Y-58984511D01*
X138238319Y-57086652D01*
X138299642Y-57053167D01*
X138369334Y-57058151D01*
G37*
%TD.AperFunction*%
%TA.AperFunction,Conductor*%
G36*
X117063057Y-50650185D02*
G01*
X117108812Y-50702989D01*
X117118756Y-50772147D01*
X117091871Y-50833165D01*
X117042317Y-50893546D01*
X116944769Y-51076043D01*
X116944768Y-51076045D01*
X116944768Y-51076046D01*
X116940390Y-51090477D01*
X116884699Y-51274067D01*
X116864417Y-51480000D01*
X116884699Y-51685932D01*
X116908680Y-51764988D01*
X116944768Y-51883954D01*
X117042315Y-52066450D01*
X117076969Y-52108677D01*
X117173589Y-52226410D01*
X117270209Y-52305702D01*
X117333550Y-52357685D01*
X117516046Y-52455232D01*
X117714066Y-52515300D01*
X117714065Y-52515300D01*
X117732529Y-52517118D01*
X117920000Y-52535583D01*
X118125934Y-52515300D01*
X118323954Y-52455232D01*
X118338191Y-52447621D01*
X118406592Y-52433379D01*
X118471837Y-52458377D01*
X118484327Y-52469298D01*
X119522848Y-53507819D01*
X119556333Y-53569142D01*
X119551349Y-53638834D01*
X119509477Y-53694767D01*
X119444013Y-53719184D01*
X119435167Y-53719500D01*
X119018579Y-53719500D01*
X118951540Y-53699815D01*
X118905785Y-53647011D01*
X118899919Y-53631497D01*
X118899677Y-53630701D01*
X118895232Y-53616046D01*
X118797685Y-53433550D01*
X118745702Y-53370209D01*
X118666410Y-53273589D01*
X118506452Y-53142317D01*
X118506453Y-53142317D01*
X118506450Y-53142315D01*
X118323954Y-53044768D01*
X118125934Y-52984700D01*
X118125932Y-52984699D01*
X118125934Y-52984699D01*
X117920000Y-52964417D01*
X117714067Y-52984699D01*
X117516043Y-53044769D01*
X117405898Y-53103643D01*
X117333550Y-53142315D01*
X117333548Y-53142316D01*
X117333547Y-53142317D01*
X117173589Y-53273589D01*
X117042317Y-53433547D01*
X117042315Y-53433550D01*
X117009736Y-53494500D01*
X116944769Y-53616043D01*
X116884699Y-53814067D01*
X116864417Y-54020000D01*
X116884699Y-54225932D01*
X116913386Y-54320500D01*
X116944768Y-54423954D01*
X117042315Y-54606450D01*
X117060904Y-54629101D01*
X117173589Y-54766410D01*
X117232131Y-54814453D01*
X117333550Y-54897685D01*
X117516046Y-54995232D01*
X117714066Y-55055300D01*
X117714065Y-55055300D01*
X117732529Y-55057118D01*
X117920000Y-55075583D01*
X118125934Y-55055300D01*
X118323954Y-54995232D01*
X118506450Y-54897685D01*
X118666410Y-54766410D01*
X118797685Y-54606450D01*
X118895232Y-54423954D01*
X118899919Y-54408503D01*
X118938217Y-54350065D01*
X119002030Y-54321609D01*
X119018579Y-54320500D01*
X119344167Y-54320500D01*
X119411206Y-54340185D01*
X119431848Y-54356819D01*
X122962848Y-57887819D01*
X122996333Y-57949142D01*
X122991349Y-58018834D01*
X122949477Y-58074767D01*
X122884013Y-58099184D01*
X122875167Y-58099500D01*
X119935833Y-58099500D01*
X119868794Y-58079815D01*
X119848152Y-58063181D01*
X118909298Y-57124327D01*
X118875813Y-57063004D01*
X118880797Y-56993312D01*
X118887618Y-56978197D01*
X118895232Y-56963954D01*
X118955300Y-56765934D01*
X118975583Y-56560000D01*
X118955300Y-56354066D01*
X118895232Y-56156046D01*
X118797685Y-55973550D01*
X118736621Y-55899143D01*
X118666410Y-55813589D01*
X118527390Y-55699500D01*
X118506450Y-55682315D01*
X118326742Y-55586258D01*
X118323956Y-55584769D01*
X118323955Y-55584768D01*
X118323954Y-55584768D01*
X118125934Y-55524700D01*
X118125932Y-55524699D01*
X118125934Y-55524699D01*
X117920000Y-55504417D01*
X117714067Y-55524699D01*
X117516043Y-55584769D01*
X117418307Y-55637011D01*
X117333550Y-55682315D01*
X117333548Y-55682316D01*
X117333547Y-55682317D01*
X117173589Y-55813589D01*
X117042317Y-55973547D01*
X117042315Y-55973550D01*
X117020543Y-56014282D01*
X116944769Y-56156043D01*
X116884699Y-56354067D01*
X116864417Y-56560000D01*
X116884699Y-56765932D01*
X116908681Y-56844989D01*
X116944768Y-56963954D01*
X117042315Y-57146450D01*
X117070499Y-57180793D01*
X117173589Y-57306410D01*
X117240406Y-57361244D01*
X117333550Y-57437685D01*
X117516046Y-57535232D01*
X117714066Y-57595300D01*
X117714065Y-57595300D01*
X117729834Y-57596853D01*
X117920000Y-57615583D01*
X118125934Y-57595300D01*
X118323954Y-57535232D01*
X118338191Y-57527621D01*
X118406592Y-57513379D01*
X118471837Y-57538377D01*
X118484327Y-57549298D01*
X118772848Y-57837819D01*
X118806333Y-57899142D01*
X118801349Y-57968834D01*
X118759477Y-58024767D01*
X118694013Y-58049184D01*
X118685167Y-58049500D01*
X117050247Y-58049500D01*
X116991770Y-58061131D01*
X116991769Y-58061132D01*
X116925447Y-58105447D01*
X116881132Y-58171769D01*
X116881131Y-58171770D01*
X116869500Y-58230247D01*
X116869500Y-58540543D01*
X116849815Y-58607582D01*
X116797011Y-58653337D01*
X116727853Y-58663281D01*
X116664297Y-58634256D01*
X116633118Y-58592948D01*
X116553600Y-58422422D01*
X116553599Y-58422420D01*
X116418113Y-58228926D01*
X116418108Y-58228920D01*
X116251082Y-58061894D01*
X116057578Y-57926399D01*
X115843492Y-57826570D01*
X115843486Y-57826567D01*
X115721349Y-57793841D01*
X115661689Y-57757476D01*
X115631160Y-57694629D01*
X115639455Y-57625253D01*
X115683940Y-57571375D01*
X115717444Y-57555407D01*
X115783954Y-57535232D01*
X115966450Y-57437685D01*
X116126410Y-57306410D01*
X116257685Y-57146450D01*
X116355232Y-56963954D01*
X116415300Y-56765934D01*
X116435583Y-56560000D01*
X116415300Y-56354066D01*
X116355232Y-56156046D01*
X116257685Y-55973550D01*
X116196621Y-55899143D01*
X116126410Y-55813589D01*
X115987390Y-55699500D01*
X115966450Y-55682315D01*
X115786742Y-55586258D01*
X115783956Y-55584769D01*
X115783955Y-55584768D01*
X115783954Y-55584768D01*
X115585934Y-55524700D01*
X115585932Y-55524699D01*
X115585934Y-55524699D01*
X115508191Y-55517042D01*
X115443404Y-55490880D01*
X115403045Y-55433845D01*
X115399929Y-55364045D01*
X115432661Y-55305962D01*
X115620460Y-55118165D01*
X115647293Y-55071689D01*
X115697857Y-55023476D01*
X115718673Y-55015034D01*
X115783954Y-54995232D01*
X115966450Y-54897685D01*
X116126410Y-54766410D01*
X116257685Y-54606450D01*
X116355232Y-54423954D01*
X116415300Y-54225934D01*
X116435583Y-54020000D01*
X116415300Y-53814066D01*
X116355232Y-53616046D01*
X116257685Y-53433550D01*
X116205702Y-53370209D01*
X116126410Y-53273589D01*
X115966452Y-53142317D01*
X115966453Y-53142317D01*
X115966450Y-53142315D01*
X115783954Y-53044768D01*
X115585934Y-52984700D01*
X115585932Y-52984699D01*
X115585934Y-52984699D01*
X115380000Y-52964417D01*
X115174067Y-52984699D01*
X114976039Y-53044770D01*
X114961800Y-53052381D01*
X114893397Y-53066620D01*
X114828154Y-53041616D01*
X114815672Y-53030701D01*
X114166819Y-52381848D01*
X114133334Y-52320525D01*
X114130500Y-52294167D01*
X114130500Y-51815752D01*
X114150185Y-51748713D01*
X114202989Y-51702958D01*
X114272147Y-51693014D01*
X114335703Y-51722039D01*
X114373160Y-51779755D01*
X114404768Y-51883954D01*
X114502315Y-52066450D01*
X114536969Y-52108677D01*
X114633589Y-52226410D01*
X114730209Y-52305702D01*
X114793550Y-52357685D01*
X114976046Y-52455232D01*
X115174066Y-52515300D01*
X115174065Y-52515300D01*
X115192529Y-52517118D01*
X115380000Y-52535583D01*
X115585934Y-52515300D01*
X115783954Y-52455232D01*
X115966450Y-52357685D01*
X116126410Y-52226410D01*
X116257685Y-52066450D01*
X116355232Y-51883954D01*
X116415300Y-51685934D01*
X116435583Y-51480000D01*
X116415300Y-51274066D01*
X116355232Y-51076046D01*
X116347620Y-51061806D01*
X116333379Y-50993404D01*
X116358379Y-50928160D01*
X116369298Y-50915672D01*
X116487189Y-50797782D01*
X116618152Y-50666819D01*
X116679475Y-50633334D01*
X116705833Y-50630500D01*
X116996018Y-50630500D01*
X117063057Y-50650185D01*
G37*
%TD.AperFunction*%
%TA.AperFunction,Conductor*%
G36*
X117087677Y-48080185D02*
G01*
X117133432Y-48132989D01*
X117143376Y-48202147D01*
X117116492Y-48263164D01*
X117055392Y-48337616D01*
X117042315Y-48353550D01*
X117003643Y-48425898D01*
X116944769Y-48536043D01*
X116884699Y-48734067D01*
X116864417Y-48939997D01*
X116884699Y-49145932D01*
X116908680Y-49224988D01*
X116944768Y-49343954D01*
X117042315Y-49526450D01*
X117042317Y-49526452D01*
X117173589Y-49686410D01*
X117323754Y-49809646D01*
X117363089Y-49867392D01*
X117364960Y-49937237D01*
X117328773Y-49997005D01*
X117266017Y-50027721D01*
X117245090Y-50029500D01*
X116490438Y-50029500D01*
X116414010Y-50049978D01*
X116345489Y-50089540D01*
X116345486Y-50089542D01*
X115944326Y-50490701D01*
X115883003Y-50524186D01*
X115813311Y-50519202D01*
X115798193Y-50512379D01*
X115783956Y-50504769D01*
X115783955Y-50504768D01*
X115783954Y-50504768D01*
X115585934Y-50444700D01*
X115585932Y-50444699D01*
X115585934Y-50444699D01*
X115380000Y-50424417D01*
X115174067Y-50444699D01*
X114976043Y-50504769D01*
X114865898Y-50563643D01*
X114793550Y-50602315D01*
X114793548Y-50602316D01*
X114793547Y-50602317D01*
X114633589Y-50733589D01*
X114505191Y-50890045D01*
X114502315Y-50893550D01*
X114483078Y-50929540D01*
X114404769Y-51076043D01*
X114404768Y-51076045D01*
X114404768Y-51076046D01*
X114400391Y-51090477D01*
X114373161Y-51180242D01*
X114334863Y-51238681D01*
X114271051Y-51267137D01*
X114201984Y-51256577D01*
X114149590Y-51210353D01*
X114130500Y-51144247D01*
X114130500Y-49275752D01*
X114150185Y-49208713D01*
X114202989Y-49162958D01*
X114272147Y-49153014D01*
X114335703Y-49182039D01*
X114373160Y-49239755D01*
X114404768Y-49343954D01*
X114502315Y-49526450D01*
X114502317Y-49526452D01*
X114633589Y-49686410D01*
X114703780Y-49744013D01*
X114793550Y-49817685D01*
X114976046Y-49915232D01*
X115174066Y-49975300D01*
X115174065Y-49975300D01*
X115192529Y-49977118D01*
X115380000Y-49995583D01*
X115585934Y-49975300D01*
X115783954Y-49915232D01*
X115966450Y-49817685D01*
X116126410Y-49686410D01*
X116257685Y-49526450D01*
X116355232Y-49343954D01*
X116415300Y-49145934D01*
X116435583Y-48940000D01*
X116432041Y-48904042D01*
X116420361Y-48785447D01*
X116415300Y-48734066D01*
X116355232Y-48536046D01*
X116347620Y-48521806D01*
X116333379Y-48453404D01*
X116358379Y-48388160D01*
X116369298Y-48375672D01*
X116648152Y-48096819D01*
X116709475Y-48063334D01*
X116735833Y-48060500D01*
X117020638Y-48060500D01*
X117087677Y-48080185D01*
G37*
%TD.AperFunction*%
%TA.AperFunction,Conductor*%
G36*
X114335703Y-47265337D02*
G01*
X114342181Y-47271369D01*
X114508917Y-47438105D01*
X114702421Y-47573600D01*
X114916507Y-47673429D01*
X114916516Y-47673433D01*
X115038649Y-47706158D01*
X115098310Y-47742523D01*
X115128839Y-47805369D01*
X115120545Y-47874745D01*
X115076059Y-47928623D01*
X115042552Y-47944593D01*
X114976046Y-47964767D01*
X114845358Y-48034622D01*
X114793550Y-48062315D01*
X114793548Y-48062316D01*
X114793547Y-48062317D01*
X114633589Y-48193589D01*
X114502317Y-48353547D01*
X114502315Y-48353550D01*
X114463643Y-48425898D01*
X114404769Y-48536043D01*
X114373161Y-48640242D01*
X114334863Y-48698681D01*
X114271051Y-48727137D01*
X114201984Y-48716577D01*
X114149590Y-48670353D01*
X114130500Y-48604247D01*
X114130500Y-47359050D01*
X114150185Y-47292011D01*
X114202989Y-47246256D01*
X114272147Y-47236312D01*
X114335703Y-47265337D01*
G37*
%TD.AperFunction*%
%TA.AperFunction,Conductor*%
G36*
X171002702Y-37000617D02*
G01*
X171386771Y-37017386D01*
X171397506Y-37018326D01*
X171775971Y-37068152D01*
X171786597Y-37070025D01*
X172159284Y-37152648D01*
X172169710Y-37155442D01*
X172533765Y-37270227D01*
X172543911Y-37273920D01*
X172896578Y-37420000D01*
X172906369Y-37424566D01*
X172970102Y-37457743D01*
X173244942Y-37600816D01*
X173254310Y-37606224D01*
X173576244Y-37811318D01*
X173585105Y-37817523D01*
X173887930Y-38049889D01*
X173896217Y-38056843D01*
X174177635Y-38314715D01*
X174185284Y-38322364D01*
X174443156Y-38603782D01*
X174450110Y-38612069D01*
X174682476Y-38914894D01*
X174688681Y-38923755D01*
X174893775Y-39245689D01*
X174899183Y-39255057D01*
X175075430Y-39593623D01*
X175080002Y-39603427D01*
X175226075Y-39956078D01*
X175229775Y-39966244D01*
X175344554Y-40330278D01*
X175347354Y-40340727D01*
X175429971Y-40713389D01*
X175431849Y-40724042D01*
X175481671Y-41102473D01*
X175482614Y-41113249D01*
X175499382Y-41497297D01*
X175499500Y-41502706D01*
X175499500Y-87497293D01*
X175499382Y-87502702D01*
X175482614Y-87886750D01*
X175481671Y-87897526D01*
X175431849Y-88275957D01*
X175429971Y-88286610D01*
X175347354Y-88659272D01*
X175344554Y-88669721D01*
X175229775Y-89033755D01*
X175226075Y-89043921D01*
X175080002Y-89396572D01*
X175075430Y-89406376D01*
X174899183Y-89744942D01*
X174893775Y-89754310D01*
X174688681Y-90076244D01*
X174682476Y-90085105D01*
X174450110Y-90387930D01*
X174443156Y-90396217D01*
X174185284Y-90677635D01*
X174177635Y-90685284D01*
X173896217Y-90943156D01*
X173887930Y-90950110D01*
X173585105Y-91182476D01*
X173576244Y-91188681D01*
X173254310Y-91393775D01*
X173244942Y-91399183D01*
X172906376Y-91575430D01*
X172896572Y-91580002D01*
X172543921Y-91726075D01*
X172533755Y-91729775D01*
X172169721Y-91844554D01*
X172159272Y-91847354D01*
X171786610Y-91929971D01*
X171775957Y-91931849D01*
X171397526Y-91981671D01*
X171386750Y-91982614D01*
X171002703Y-91999382D01*
X170997294Y-91999500D01*
X161856205Y-91999500D01*
X161789166Y-91979815D01*
X161743411Y-91927011D01*
X161733467Y-91857853D01*
X161762492Y-91794297D01*
X161768524Y-91787819D01*
X164839524Y-88716819D01*
X164900847Y-88683334D01*
X164927205Y-88680500D01*
X168185500Y-88680500D01*
X168252539Y-88700185D01*
X168298294Y-88752989D01*
X168309500Y-88804500D01*
X168309500Y-89054269D01*
X168312353Y-89084699D01*
X168312353Y-89084701D01*
X168357206Y-89212880D01*
X168357207Y-89212882D01*
X168437850Y-89322150D01*
X168547118Y-89402793D01*
X168557358Y-89406376D01*
X168675299Y-89447646D01*
X168705730Y-89450500D01*
X168705734Y-89450500D01*
X170054270Y-89450500D01*
X170084699Y-89447646D01*
X170084701Y-89447646D01*
X170148790Y-89425219D01*
X170212882Y-89402793D01*
X170322150Y-89322150D01*
X170402793Y-89212882D01*
X170425219Y-89148790D01*
X170447646Y-89084701D01*
X170447646Y-89084699D01*
X170450500Y-89054269D01*
X170450500Y-87705730D01*
X170447646Y-87675300D01*
X170447646Y-87675298D01*
X170402793Y-87547119D01*
X170402792Y-87547117D01*
X170399887Y-87543181D01*
X170322150Y-87437850D01*
X170212882Y-87357207D01*
X170212880Y-87357206D01*
X170084700Y-87312353D01*
X170054270Y-87309500D01*
X170054266Y-87309500D01*
X168705734Y-87309500D01*
X168705730Y-87309500D01*
X168675300Y-87312353D01*
X168675298Y-87312353D01*
X168547119Y-87357206D01*
X168547117Y-87357207D01*
X168437850Y-87437850D01*
X168357207Y-87547117D01*
X168357206Y-87547119D01*
X168312353Y-87675298D01*
X168312353Y-87675300D01*
X168309500Y-87705730D01*
X168309500Y-87955500D01*
X168289815Y-88022539D01*
X168237011Y-88068294D01*
X168185500Y-88079500D01*
X165210519Y-88079500D01*
X165143480Y-88059815D01*
X165097725Y-88007011D01*
X165087781Y-87937853D01*
X165116806Y-87874297D01*
X165122838Y-87867819D01*
X166813838Y-86176819D01*
X166875161Y-86143334D01*
X166901519Y-86140500D01*
X168260521Y-86140500D01*
X168327560Y-86160185D01*
X168373315Y-86212989D01*
X168379181Y-86228503D01*
X168386201Y-86251644D01*
X168386204Y-86251652D01*
X168485600Y-86437610D01*
X168485605Y-86437616D01*
X168619378Y-86600621D01*
X168782383Y-86734394D01*
X168782389Y-86734399D01*
X168968350Y-86833797D01*
X168968352Y-86833797D01*
X168968355Y-86833799D01*
X169170145Y-86895011D01*
X169170144Y-86895011D01*
X169188959Y-86896864D01*
X169380000Y-86915680D01*
X169589855Y-86895011D01*
X169791645Y-86833799D01*
X169800805Y-86828903D01*
X169977610Y-86734399D01*
X169977612Y-86734396D01*
X169977616Y-86734395D01*
X170140621Y-86600621D01*
X170274395Y-86437616D01*
X170274396Y-86437612D01*
X170274399Y-86437610D01*
X170373797Y-86251649D01*
X170373797Y-86251648D01*
X170373799Y-86251645D01*
X170435011Y-86049855D01*
X170455680Y-85840000D01*
X170435011Y-85630145D01*
X170373799Y-85428355D01*
X170373797Y-85428352D01*
X170373797Y-85428350D01*
X170274399Y-85242389D01*
X170274394Y-85242383D01*
X170140621Y-85079378D01*
X169977616Y-84945605D01*
X169977610Y-84945600D01*
X169791649Y-84846202D01*
X169690750Y-84815595D01*
X169589855Y-84784989D01*
X169589853Y-84784988D01*
X169589855Y-84784988D01*
X169380000Y-84764320D01*
X169170146Y-84784988D01*
X168968350Y-84846202D01*
X168782389Y-84945600D01*
X168782383Y-84945605D01*
X168619378Y-85079378D01*
X168485605Y-85242383D01*
X168485600Y-85242389D01*
X168386204Y-85428347D01*
X168386201Y-85428354D01*
X168379181Y-85451497D01*
X168340883Y-85509935D01*
X168277071Y-85538391D01*
X168260521Y-85539500D01*
X167184833Y-85539500D01*
X167117794Y-85519815D01*
X167072039Y-85467011D01*
X167062095Y-85397853D01*
X167091120Y-85334297D01*
X167097152Y-85327819D01*
X167345593Y-85079378D01*
X168407683Y-84017286D01*
X168469004Y-83983803D01*
X168538695Y-83988787D01*
X168591215Y-84026304D01*
X168619378Y-84060620D01*
X168619379Y-84060621D01*
X168694580Y-84122336D01*
X168782383Y-84194394D01*
X168782389Y-84194399D01*
X168968350Y-84293797D01*
X168968352Y-84293797D01*
X168968355Y-84293799D01*
X169170145Y-84355011D01*
X169170144Y-84355011D01*
X169188959Y-84356864D01*
X169380000Y-84375680D01*
X169589855Y-84355011D01*
X169791645Y-84293799D01*
X169802483Y-84288006D01*
X169977610Y-84194399D01*
X169977612Y-84194396D01*
X169977616Y-84194395D01*
X170140621Y-84060621D01*
X170274395Y-83897616D01*
X170274396Y-83897612D01*
X170274399Y-83897610D01*
X170373797Y-83711649D01*
X170373797Y-83711648D01*
X170373799Y-83711645D01*
X170435011Y-83509855D01*
X170455680Y-83300000D01*
X170435011Y-83090145D01*
X170373799Y-82888355D01*
X170373797Y-82888352D01*
X170373797Y-82888350D01*
X170274399Y-82702389D01*
X170274394Y-82702383D01*
X170140621Y-82539378D01*
X169977616Y-82405605D01*
X169977610Y-82405600D01*
X169791649Y-82306202D01*
X169683610Y-82273429D01*
X169589855Y-82244989D01*
X169589853Y-82244988D01*
X169589855Y-82244988D01*
X169380000Y-82224320D01*
X169170146Y-82244988D01*
X168968350Y-82306202D01*
X168782389Y-82405600D01*
X168782383Y-82405605D01*
X168619378Y-82539378D01*
X168485605Y-82702383D01*
X168485600Y-82702389D01*
X168413858Y-82836611D01*
X168364896Y-82886456D01*
X168296758Y-82901916D01*
X168231078Y-82878084D01*
X168188710Y-82822527D01*
X168180500Y-82778158D01*
X168180500Y-82435832D01*
X168200185Y-82368793D01*
X168216815Y-82348155D01*
X168800895Y-81764074D01*
X168862216Y-81730591D01*
X168931907Y-81735575D01*
X168947029Y-81742400D01*
X168968351Y-81753797D01*
X168968355Y-81753799D01*
X169170145Y-81815011D01*
X169170144Y-81815011D01*
X169188959Y-81816864D01*
X169380000Y-81835680D01*
X169589855Y-81815011D01*
X169791645Y-81753799D01*
X169791649Y-81753797D01*
X169977610Y-81654399D01*
X169977612Y-81654396D01*
X169977616Y-81654395D01*
X170140621Y-81520621D01*
X170274395Y-81357616D01*
X170274396Y-81357612D01*
X170274399Y-81357610D01*
X170373797Y-81171649D01*
X170373797Y-81171648D01*
X170373799Y-81171645D01*
X170435011Y-80969855D01*
X170455680Y-80760000D01*
X170435011Y-80550145D01*
X170373799Y-80348355D01*
X170373797Y-80348352D01*
X170373797Y-80348350D01*
X170274399Y-80162389D01*
X170274394Y-80162383D01*
X170140621Y-79999378D01*
X169977616Y-79865605D01*
X169977610Y-79865600D01*
X169791649Y-79766202D01*
X169659076Y-79725987D01*
X169589855Y-79704989D01*
X169589853Y-79704988D01*
X169589855Y-79704988D01*
X169380000Y-79684320D01*
X169170146Y-79704988D01*
X168968350Y-79766202D01*
X168782389Y-79865600D01*
X168782383Y-79865605D01*
X168619378Y-79999378D01*
X168485605Y-80162383D01*
X168485600Y-80162389D01*
X168386202Y-80348350D01*
X168324988Y-80550146D01*
X168304320Y-80760000D01*
X168324988Y-80969853D01*
X168386202Y-81171648D01*
X168397600Y-81192972D01*
X168411841Y-81261375D01*
X168386840Y-81326619D01*
X168375922Y-81339105D01*
X167992181Y-81722847D01*
X167930858Y-81756332D01*
X167861167Y-81751348D01*
X167805233Y-81709477D01*
X167780816Y-81644012D01*
X167780500Y-81635166D01*
X167780500Y-80295832D01*
X167800185Y-80228793D01*
X167816814Y-80208155D01*
X168800895Y-79224074D01*
X168862216Y-79190591D01*
X168931907Y-79195575D01*
X168947029Y-79202400D01*
X168959195Y-79208903D01*
X168968355Y-79213799D01*
X169170145Y-79275011D01*
X169170144Y-79275011D01*
X169188959Y-79276864D01*
X169380000Y-79295680D01*
X169589855Y-79275011D01*
X169791645Y-79213799D01*
X169800805Y-79208903D01*
X169977610Y-79114399D01*
X169977612Y-79114396D01*
X169977616Y-79114395D01*
X170140621Y-78980621D01*
X170274395Y-78817616D01*
X170274396Y-78817612D01*
X170274399Y-78817610D01*
X170373797Y-78631649D01*
X170373797Y-78631648D01*
X170373799Y-78631645D01*
X170435011Y-78429855D01*
X170455680Y-78220000D01*
X170435011Y-78010145D01*
X170373799Y-77808355D01*
X170373797Y-77808352D01*
X170373797Y-77808350D01*
X170274399Y-77622389D01*
X170274394Y-77622383D01*
X170140621Y-77459378D01*
X169977616Y-77325605D01*
X169977610Y-77325600D01*
X169791649Y-77226202D01*
X169690750Y-77195595D01*
X169589855Y-77164989D01*
X169589853Y-77164988D01*
X169589855Y-77164988D01*
X169380000Y-77144320D01*
X169170146Y-77164988D01*
X168968350Y-77226202D01*
X168782389Y-77325600D01*
X168782383Y-77325605D01*
X168619378Y-77459378D01*
X168485605Y-77622383D01*
X168485600Y-77622389D01*
X168386202Y-77808350D01*
X168324988Y-78010146D01*
X168304320Y-78220000D01*
X168324988Y-78429853D01*
X168386202Y-78631648D01*
X168397600Y-78652972D01*
X168411841Y-78721375D01*
X168386840Y-78786619D01*
X168375922Y-78799105D01*
X167295489Y-79879540D01*
X167239541Y-79935487D01*
X167239535Y-79935495D01*
X167199982Y-80004004D01*
X167199979Y-80004009D01*
X167179500Y-80080439D01*
X167179500Y-82844167D01*
X167159815Y-82911206D01*
X167143181Y-82931848D01*
X162531848Y-87543181D01*
X162470525Y-87576666D01*
X162444167Y-87579500D01*
X162354500Y-87579500D01*
X162287461Y-87559815D01*
X162241706Y-87507011D01*
X162230500Y-87455500D01*
X162230500Y-87010249D01*
X162230499Y-87010247D01*
X162218868Y-86951770D01*
X162218867Y-86951769D01*
X162174552Y-86885447D01*
X162108230Y-86841132D01*
X162108229Y-86841131D01*
X162049752Y-86829500D01*
X162049748Y-86829500D01*
X159437701Y-86829500D01*
X159425547Y-86828903D01*
X159380000Y-86824417D01*
X159334453Y-86828903D01*
X159322299Y-86829500D01*
X158510247Y-86829500D01*
X158451770Y-86841131D01*
X158451769Y-86841132D01*
X158385447Y-86885447D01*
X158341132Y-86951769D01*
X158341131Y-86951770D01*
X158329500Y-87010247D01*
X158329500Y-87822299D01*
X158328903Y-87834453D01*
X158324417Y-87879999D01*
X158328903Y-87925545D01*
X158329500Y-87937699D01*
X158329500Y-88605500D01*
X158309815Y-88672539D01*
X158257011Y-88718294D01*
X158205500Y-88729500D01*
X157205833Y-88729500D01*
X157138794Y-88709815D01*
X157118152Y-88693181D01*
X154684511Y-86259540D01*
X154670836Y-86251645D01*
X154615989Y-86219979D01*
X154539562Y-86199500D01*
X146460438Y-86199500D01*
X146422178Y-86209752D01*
X146384010Y-86219979D01*
X146369247Y-86228503D01*
X146329164Y-86251645D01*
X146322326Y-86255592D01*
X146315488Y-86259540D01*
X146315486Y-86259542D01*
X144911848Y-87663181D01*
X144850525Y-87696666D01*
X144824167Y-87699500D01*
X142774500Y-87699500D01*
X142707461Y-87679815D01*
X142661706Y-87627011D01*
X142650500Y-87575500D01*
X142650500Y-87010249D01*
X142650499Y-87010247D01*
X142638868Y-86951770D01*
X142638867Y-86951769D01*
X142594552Y-86885447D01*
X142528230Y-86841132D01*
X142528229Y-86841131D01*
X142469752Y-86829500D01*
X142469748Y-86829500D01*
X141657701Y-86829500D01*
X141645547Y-86828903D01*
X141600000Y-86824417D01*
X141554453Y-86828903D01*
X141542299Y-86829500D01*
X139274833Y-86829500D01*
X139207794Y-86809815D01*
X139162039Y-86757011D01*
X139152095Y-86687853D01*
X139181120Y-86624297D01*
X139187152Y-86617819D01*
X139378152Y-86426819D01*
X139439475Y-86393334D01*
X139465833Y-86390500D01*
X141542299Y-86390500D01*
X141554453Y-86391097D01*
X141600000Y-86395583D01*
X141645547Y-86391097D01*
X141657701Y-86390500D01*
X142469750Y-86390500D01*
X142469751Y-86390499D01*
X142484568Y-86387552D01*
X142528229Y-86378868D01*
X142528229Y-86378867D01*
X142528231Y-86378867D01*
X142594552Y-86334552D01*
X142638867Y-86268231D01*
X142638867Y-86268229D01*
X142638868Y-86268229D01*
X142650499Y-86209752D01*
X142650500Y-86209750D01*
X142650500Y-85397699D01*
X142651097Y-85385545D01*
X142655583Y-85340000D01*
X142651097Y-85294453D01*
X142650500Y-85282299D01*
X142650500Y-84470249D01*
X142650499Y-84470247D01*
X142638868Y-84411770D01*
X142638867Y-84411769D01*
X142594551Y-84345446D01*
X142588823Y-84341619D01*
X142544018Y-84288006D01*
X142535312Y-84218681D01*
X142565468Y-84155654D01*
X142614382Y-84122336D01*
X142692086Y-84093354D01*
X142692093Y-84093350D01*
X142807187Y-84007190D01*
X142807190Y-84007187D01*
X142893350Y-83892093D01*
X142893354Y-83892086D01*
X142943596Y-83757379D01*
X142943598Y-83757372D01*
X142949999Y-83697844D01*
X142950000Y-83697827D01*
X142950000Y-83050000D01*
X142044560Y-83050000D01*
X142075245Y-82996853D01*
X142110000Y-82867143D01*
X142110000Y-82732857D01*
X142075245Y-82603147D01*
X142044560Y-82550000D01*
X142950000Y-82550000D01*
X142950000Y-81902172D01*
X142949999Y-81902155D01*
X142943598Y-81842627D01*
X142943596Y-81842620D01*
X142893354Y-81707913D01*
X142893350Y-81707906D01*
X142807190Y-81592812D01*
X142807187Y-81592809D01*
X142692093Y-81506649D01*
X142692087Y-81506646D01*
X142614381Y-81477663D01*
X142558448Y-81435791D01*
X142534031Y-81370327D01*
X142548883Y-81302054D01*
X142588826Y-81258377D01*
X142594552Y-81254552D01*
X142638867Y-81188231D01*
X142638867Y-81188229D01*
X142638868Y-81188229D01*
X142650499Y-81129752D01*
X142650500Y-81129750D01*
X142650500Y-80317699D01*
X142651097Y-80305545D01*
X142655583Y-80260000D01*
X142651097Y-80214453D01*
X142650500Y-80202299D01*
X142650500Y-79390249D01*
X142650499Y-79390247D01*
X142638868Y-79331770D01*
X142638867Y-79331769D01*
X142594552Y-79265447D01*
X142528230Y-79221132D01*
X142528229Y-79221131D01*
X142469752Y-79209500D01*
X142469748Y-79209500D01*
X141657701Y-79209500D01*
X141645547Y-79208903D01*
X141600000Y-79204417D01*
X141554453Y-79208903D01*
X141542299Y-79209500D01*
X139274833Y-79209500D01*
X139207794Y-79189815D01*
X139162039Y-79137011D01*
X139152095Y-79067853D01*
X139181120Y-79004297D01*
X139187152Y-78997819D01*
X139378152Y-78806819D01*
X139439475Y-78773334D01*
X139465833Y-78770500D01*
X141542299Y-78770500D01*
X141554453Y-78771097D01*
X141600000Y-78775583D01*
X141645547Y-78771097D01*
X141657701Y-78770500D01*
X142469750Y-78770500D01*
X142469751Y-78770499D01*
X142484568Y-78767552D01*
X142528229Y-78758868D01*
X142528229Y-78758867D01*
X142528231Y-78758867D01*
X142594552Y-78714552D01*
X142638867Y-78648231D01*
X142638867Y-78648229D01*
X142638868Y-78648229D01*
X142650499Y-78589752D01*
X142650500Y-78589750D01*
X142650500Y-77777699D01*
X142651097Y-77765545D01*
X142653868Y-77737408D01*
X142655583Y-77720000D01*
X142651097Y-77674453D01*
X142650500Y-77662299D01*
X142650500Y-76850249D01*
X142650499Y-76850247D01*
X142638868Y-76791770D01*
X142638867Y-76791769D01*
X142594552Y-76725447D01*
X142528230Y-76681132D01*
X142528229Y-76681131D01*
X142469752Y-76669500D01*
X142469748Y-76669500D01*
X141657701Y-76669500D01*
X141645547Y-76668903D01*
X141600000Y-76664417D01*
X141554453Y-76668903D01*
X141542299Y-76669500D01*
X138930247Y-76669500D01*
X138871770Y-76681131D01*
X138871769Y-76681132D01*
X138805447Y-76725447D01*
X138761132Y-76791769D01*
X138761131Y-76791770D01*
X138749500Y-76850247D01*
X138749500Y-78534167D01*
X138729815Y-78601206D01*
X138713181Y-78621848D01*
X137609541Y-79725487D01*
X137609535Y-79725495D01*
X137569982Y-79794004D01*
X137569979Y-79794009D01*
X137558862Y-79835500D01*
X137549500Y-79870438D01*
X137549500Y-90000932D01*
X137563152Y-90051883D01*
X137569979Y-90077360D01*
X137569982Y-90077365D01*
X137609535Y-90145874D01*
X137609541Y-90145882D01*
X139123905Y-91660246D01*
X139157390Y-91721569D01*
X139152406Y-91791261D01*
X139110534Y-91847194D01*
X139045070Y-91871611D01*
X139009386Y-91868988D01*
X138911791Y-91847352D01*
X138901342Y-91844552D01*
X138537302Y-91729772D01*
X138527137Y-91726072D01*
X138174494Y-91580006D01*
X138164691Y-91575435D01*
X137826109Y-91399186D01*
X137816740Y-91393778D01*
X137494801Y-91188687D01*
X137485940Y-91182482D01*
X137183110Y-90950121D01*
X137174824Y-90943168D01*
X136892010Y-90684029D01*
X136888100Y-90680286D01*
X112820304Y-66612490D01*
X112816563Y-66608583D01*
X112556828Y-66325134D01*
X112549880Y-66316853D01*
X112518304Y-66275703D01*
X112317517Y-66014035D01*
X112311313Y-66005175D01*
X112238095Y-65890247D01*
X112106211Y-65683234D01*
X112100815Y-65673887D01*
X111960045Y-65403474D01*
X111924559Y-65335306D01*
X111919987Y-65325502D01*
X111793442Y-65020000D01*
X111773910Y-64972847D01*
X111770213Y-64962689D01*
X111760742Y-64932653D01*
X111655428Y-64598645D01*
X111652630Y-64588202D01*
X111639588Y-64529374D01*
X111570008Y-64215527D01*
X111568135Y-64204900D01*
X111518306Y-63826437D01*
X111517366Y-63815696D01*
X111500618Y-63432134D01*
X111500500Y-63426725D01*
X111500500Y-43573772D01*
X111500618Y-43568363D01*
X111505522Y-43456046D01*
X111517388Y-43184294D01*
X111518327Y-43173566D01*
X111568155Y-42795088D01*
X111570026Y-42784476D01*
X111652651Y-42411773D01*
X111654709Y-42404092D01*
X112329500Y-42404092D01*
X112329500Y-63226310D01*
X112343152Y-63277261D01*
X112349979Y-63302738D01*
X112349980Y-63302739D01*
X112381703Y-63357685D01*
X112389540Y-63371259D01*
X120632153Y-71613872D01*
X120688102Y-71669821D01*
X120688104Y-71669822D01*
X120688108Y-71669825D01*
X120756617Y-71709378D01*
X120756624Y-71709382D01*
X120833051Y-71729861D01*
X123622156Y-71729861D01*
X123689195Y-71749546D01*
X123709837Y-71766180D01*
X125668997Y-73725340D01*
X125702482Y-73786663D01*
X125705316Y-73813021D01*
X125705316Y-77737410D01*
X125712855Y-77765545D01*
X125725795Y-77813838D01*
X125725798Y-77813843D01*
X125765351Y-77882352D01*
X125765355Y-77882357D01*
X125765356Y-77882359D01*
X128421457Y-80538460D01*
X128477406Y-80594409D01*
X128477408Y-80594410D01*
X128477412Y-80594413D01*
X128486918Y-80599901D01*
X128545928Y-80633970D01*
X128622355Y-80654449D01*
X128622357Y-80654449D01*
X130039753Y-80654449D01*
X130106792Y-80674134D01*
X130152547Y-80726938D01*
X130163281Y-80789257D01*
X130144843Y-80999999D01*
X130144843Y-81000001D01*
X130165430Y-81235315D01*
X130165432Y-81235326D01*
X130226566Y-81463483D01*
X130226570Y-81463492D01*
X130326400Y-81677579D01*
X130326402Y-81677583D01*
X130385072Y-81761373D01*
X130385073Y-81761373D01*
X131017037Y-81129408D01*
X131034075Y-81192993D01*
X131099901Y-81307007D01*
X131192993Y-81400099D01*
X131307007Y-81465925D01*
X131370590Y-81482962D01*
X130738625Y-82114925D01*
X130822421Y-82173599D01*
X131036507Y-82273429D01*
X131036516Y-82273433D01*
X131264673Y-82334567D01*
X131264684Y-82334569D01*
X131499998Y-82355157D01*
X131500002Y-82355157D01*
X131735315Y-82334569D01*
X131735326Y-82334567D01*
X131963483Y-82273433D01*
X131963492Y-82273429D01*
X132177578Y-82173600D01*
X132177582Y-82173598D01*
X132261373Y-82114926D01*
X132261373Y-82114925D01*
X131629409Y-81482962D01*
X131692993Y-81465925D01*
X131807007Y-81400099D01*
X131900099Y-81307007D01*
X131965925Y-81192993D01*
X131982962Y-81129410D01*
X132614925Y-81761373D01*
X132614926Y-81761373D01*
X132673598Y-81677582D01*
X132673600Y-81677578D01*
X132773429Y-81463492D01*
X132773433Y-81463483D01*
X132834567Y-81235326D01*
X132834569Y-81235315D01*
X132855157Y-81000001D01*
X132855157Y-80999998D01*
X132834569Y-80764684D01*
X132834567Y-80764673D01*
X132773433Y-80536516D01*
X132773429Y-80536507D01*
X132673600Y-80322422D01*
X132673577Y-80322382D01*
X132673572Y-80322361D01*
X132671312Y-80317515D01*
X132672285Y-80317060D01*
X132657103Y-80254482D01*
X132679954Y-80188455D01*
X132734874Y-80145263D01*
X132804428Y-80138620D01*
X132839416Y-80151021D01*
X132892098Y-80179181D01*
X133090118Y-80239249D01*
X133090117Y-80239249D01*
X133108581Y-80241067D01*
X133296052Y-80259532D01*
X133501986Y-80239249D01*
X133700006Y-80179181D01*
X133882502Y-80081634D01*
X134042462Y-79950359D01*
X134173737Y-79790399D01*
X134271284Y-79607903D01*
X134331352Y-79409883D01*
X134351635Y-79203949D01*
X134331352Y-78998015D01*
X134271284Y-78799995D01*
X134173737Y-78617499D01*
X134105349Y-78534167D01*
X134042462Y-78457538D01*
X133882504Y-78326266D01*
X133882505Y-78326266D01*
X133882502Y-78326264D01*
X133700006Y-78228717D01*
X133501986Y-78168649D01*
X133501984Y-78168648D01*
X133501986Y-78168648D01*
X133296052Y-78148366D01*
X133090119Y-78168648D01*
X132892095Y-78228718D01*
X132839415Y-78256876D01*
X132771013Y-78271117D01*
X132705769Y-78246116D01*
X132664399Y-78189811D01*
X132660037Y-78120078D01*
X132671616Y-78090524D01*
X132671312Y-78090383D01*
X132673563Y-78085554D01*
X132673583Y-78085505D01*
X132673601Y-78085472D01*
X132773429Y-77871390D01*
X132773433Y-77871381D01*
X132834567Y-77643224D01*
X132834569Y-77643213D01*
X132855157Y-77407899D01*
X132855157Y-77407896D01*
X132834569Y-77172582D01*
X132834567Y-77172571D01*
X132773433Y-76944414D01*
X132773429Y-76944405D01*
X132673600Y-76730321D01*
X132673599Y-76730319D01*
X132614925Y-76646524D01*
X132614925Y-76646523D01*
X131982961Y-77278486D01*
X131965925Y-77214905D01*
X131900099Y-77100891D01*
X131807007Y-77007799D01*
X131692993Y-76941973D01*
X131629409Y-76924935D01*
X132261373Y-76292971D01*
X132261373Y-76292970D01*
X132177583Y-76234300D01*
X132177579Y-76234298D01*
X131963492Y-76134468D01*
X131963483Y-76134464D01*
X131735326Y-76073330D01*
X131735315Y-76073328D01*
X131500002Y-76052741D01*
X131499998Y-76052741D01*
X131264684Y-76073328D01*
X131264673Y-76073330D01*
X131036516Y-76134464D01*
X131036507Y-76134468D01*
X130822415Y-76234300D01*
X130822365Y-76234330D01*
X130822339Y-76234336D01*
X130817515Y-76236586D01*
X130817062Y-76235615D01*
X130754463Y-76250793D01*
X130688439Y-76227932D01*
X130645256Y-76173004D01*
X130638624Y-76103450D01*
X130651021Y-76068483D01*
X130679181Y-76015801D01*
X130739249Y-75817781D01*
X130759532Y-75611847D01*
X130739249Y-75405913D01*
X130679181Y-75207893D01*
X130581634Y-75025397D01*
X130511175Y-74939542D01*
X130450359Y-74865436D01*
X130332626Y-74768816D01*
X130290399Y-74734162D01*
X130107903Y-74636615D01*
X129909883Y-74576547D01*
X129909881Y-74576546D01*
X129909883Y-74576546D01*
X129703949Y-74556264D01*
X129498016Y-74576546D01*
X129299988Y-74636617D01*
X129285749Y-74644228D01*
X129217346Y-74658467D01*
X129152103Y-74633463D01*
X129139621Y-74622548D01*
X126869662Y-72352589D01*
X126836177Y-72291266D01*
X126833343Y-72264908D01*
X126833343Y-71848676D01*
X126853028Y-71781637D01*
X126869662Y-71760995D01*
X127883838Y-70746819D01*
X127945161Y-70713334D01*
X127971519Y-70710500D01*
X129069560Y-70710500D01*
X129069562Y-70710500D01*
X129145989Y-70690021D01*
X129214511Y-70650460D01*
X129270460Y-70594511D01*
X129310021Y-70525989D01*
X129330500Y-70449562D01*
X129330500Y-70157844D01*
X131630000Y-70157844D01*
X131636401Y-70217372D01*
X131636403Y-70217379D01*
X131686645Y-70352086D01*
X131686649Y-70352093D01*
X131772809Y-70467187D01*
X131772812Y-70467190D01*
X131887906Y-70553350D01*
X131887913Y-70553354D01*
X132022620Y-70603596D01*
X132022627Y-70603598D01*
X132082155Y-70609999D01*
X132082172Y-70610000D01*
X132630000Y-70610000D01*
X133130000Y-70610000D01*
X133677828Y-70610000D01*
X133677844Y-70609999D01*
X133737372Y-70603598D01*
X133737379Y-70603596D01*
X133872086Y-70553354D01*
X133872093Y-70553350D01*
X133987187Y-70467190D01*
X133987190Y-70467187D01*
X134073350Y-70352093D01*
X134073354Y-70352086D01*
X134123596Y-70217379D01*
X134123598Y-70217372D01*
X134129999Y-70157844D01*
X134130000Y-70157827D01*
X134130000Y-69910000D01*
X133130000Y-69910000D01*
X133130000Y-70610000D01*
X132630000Y-70610000D01*
X132630000Y-69910000D01*
X131630000Y-69910000D01*
X131630000Y-70157844D01*
X129330500Y-70157844D01*
X129330500Y-69162155D01*
X131630000Y-69162155D01*
X131630000Y-69410000D01*
X132630000Y-69410000D01*
X133130000Y-69410000D01*
X134130000Y-69410000D01*
X134130000Y-69162172D01*
X134129999Y-69162155D01*
X134123598Y-69102627D01*
X134123596Y-69102620D01*
X134073354Y-68967913D01*
X134073350Y-68967906D01*
X133987190Y-68852812D01*
X133987187Y-68852809D01*
X133872093Y-68766649D01*
X133872086Y-68766645D01*
X133737379Y-68716403D01*
X133737372Y-68716401D01*
X133677844Y-68710000D01*
X133130000Y-68710000D01*
X133130000Y-69410000D01*
X132630000Y-69410000D01*
X132630000Y-68710000D01*
X132082155Y-68710000D01*
X132022627Y-68716401D01*
X132022620Y-68716403D01*
X131887913Y-68766645D01*
X131887906Y-68766649D01*
X131772812Y-68852809D01*
X131772809Y-68852812D01*
X131686649Y-68967906D01*
X131686645Y-68967913D01*
X131636403Y-69102620D01*
X131636401Y-69102627D01*
X131630000Y-69162155D01*
X129330500Y-69162155D01*
X129330500Y-68870438D01*
X129310021Y-68794011D01*
X129294224Y-68766649D01*
X129270464Y-68725495D01*
X129270458Y-68725487D01*
X129214512Y-68669541D01*
X129214504Y-68669535D01*
X129145995Y-68629982D01*
X129145990Y-68629979D01*
X129120513Y-68623152D01*
X129069562Y-68609500D01*
X129069560Y-68609500D01*
X127424500Y-68609500D01*
X127357461Y-68589815D01*
X127311706Y-68537011D01*
X127300500Y-68485500D01*
X127300500Y-67515833D01*
X127320185Y-67448794D01*
X127336819Y-67428152D01*
X127718152Y-67046819D01*
X127779475Y-67013334D01*
X127805833Y-67010500D01*
X128749750Y-67010500D01*
X128749751Y-67010499D01*
X128764568Y-67007552D01*
X128808229Y-66998868D01*
X128808229Y-66998867D01*
X128808231Y-66998867D01*
X128874552Y-66954552D01*
X128918867Y-66888231D01*
X128918867Y-66888229D01*
X128918868Y-66888229D01*
X128930499Y-66829752D01*
X128930500Y-66829750D01*
X128930500Y-65890249D01*
X128930499Y-65890247D01*
X131929500Y-65890247D01*
X131929500Y-66829752D01*
X131941131Y-66888229D01*
X131941132Y-66888230D01*
X131985447Y-66954552D01*
X132051769Y-66998867D01*
X132051770Y-66998868D01*
X132110247Y-67010499D01*
X132110250Y-67010500D01*
X132110252Y-67010500D01*
X133054167Y-67010500D01*
X133121206Y-67030185D01*
X133141848Y-67046819D01*
X135229540Y-69134511D01*
X135285489Y-69190460D01*
X135285491Y-69190461D01*
X135285495Y-69190464D01*
X135336129Y-69219697D01*
X135354011Y-69230021D01*
X135430438Y-69250500D01*
X138326000Y-69250500D01*
X138393039Y-69270185D01*
X138438794Y-69322989D01*
X138450000Y-69374500D01*
X138450000Y-69850000D01*
X141155440Y-69850000D01*
X141124755Y-69903147D01*
X141090000Y-70032857D01*
X141090000Y-70167143D01*
X141124755Y-70296853D01*
X141155440Y-70350000D01*
X138450000Y-70350000D01*
X138450000Y-70997844D01*
X138456401Y-71057372D01*
X138456403Y-71057379D01*
X138506645Y-71192086D01*
X138506649Y-71192093D01*
X138592809Y-71307187D01*
X138592812Y-71307190D01*
X138707906Y-71393350D01*
X138707913Y-71393354D01*
X138785617Y-71422336D01*
X138841551Y-71464207D01*
X138865968Y-71529672D01*
X138851116Y-71597945D01*
X138811179Y-71641617D01*
X138805448Y-71645446D01*
X138761132Y-71711769D01*
X138761131Y-71711770D01*
X138749500Y-71770247D01*
X138749500Y-73509752D01*
X138761131Y-73568229D01*
X138761132Y-73568230D01*
X138805447Y-73634552D01*
X138871769Y-73678867D01*
X138871770Y-73678868D01*
X138930247Y-73690499D01*
X138930250Y-73690500D01*
X138930252Y-73690500D01*
X141542299Y-73690500D01*
X141554453Y-73691097D01*
X141600000Y-73695583D01*
X141645547Y-73691097D01*
X141657701Y-73690500D01*
X142469750Y-73690500D01*
X142469751Y-73690499D01*
X142484568Y-73687552D01*
X142528229Y-73678868D01*
X142528229Y-73678867D01*
X142528231Y-73678867D01*
X142594552Y-73634552D01*
X142638867Y-73568231D01*
X142638867Y-73568229D01*
X142638868Y-73568229D01*
X142650499Y-73509752D01*
X142650500Y-73509750D01*
X142650500Y-72924500D01*
X142670185Y-72857461D01*
X142722989Y-72811706D01*
X142774500Y-72800500D01*
X156764167Y-72800500D01*
X156831206Y-72820185D01*
X156851848Y-72836819D01*
X157989540Y-73974511D01*
X158045489Y-74030460D01*
X158045491Y-74030461D01*
X158045495Y-74030464D01*
X158114004Y-74070017D01*
X158114011Y-74070021D01*
X158190438Y-74090500D01*
X158222353Y-74090500D01*
X158289392Y-74110185D01*
X158335147Y-74162989D01*
X158345091Y-74232147D01*
X158343021Y-74239691D01*
X158343515Y-74239790D01*
X158329500Y-74310247D01*
X158329500Y-75122299D01*
X158328903Y-75134453D01*
X158324417Y-75179999D01*
X158328903Y-75225545D01*
X158329500Y-75237699D01*
X158329500Y-76049752D01*
X158341131Y-76108229D01*
X158341132Y-76108230D01*
X158385447Y-76174552D01*
X158451769Y-76218867D01*
X158451770Y-76218868D01*
X158510247Y-76230499D01*
X158510250Y-76230500D01*
X158510252Y-76230500D01*
X159322299Y-76230500D01*
X159334453Y-76231097D01*
X159380000Y-76235583D01*
X159425547Y-76231097D01*
X159437701Y-76230500D01*
X161705167Y-76230500D01*
X161772206Y-76250185D01*
X161817961Y-76302989D01*
X161827905Y-76372147D01*
X161798880Y-76435703D01*
X161792848Y-76442181D01*
X161601848Y-76633181D01*
X161540525Y-76666666D01*
X161514167Y-76669500D01*
X159437701Y-76669500D01*
X159425547Y-76668903D01*
X159380000Y-76664417D01*
X159334453Y-76668903D01*
X159322299Y-76669500D01*
X158510247Y-76669500D01*
X158451770Y-76681131D01*
X158451769Y-76681132D01*
X158385447Y-76725447D01*
X158341132Y-76791769D01*
X158341131Y-76791770D01*
X158329500Y-76850247D01*
X158329500Y-77662299D01*
X158328903Y-77674453D01*
X158324417Y-77719999D01*
X158328903Y-77765545D01*
X158329500Y-77777699D01*
X158329500Y-78589752D01*
X158341131Y-78648229D01*
X158341132Y-78648230D01*
X158385447Y-78714552D01*
X158451769Y-78758867D01*
X158451770Y-78758868D01*
X158510247Y-78770499D01*
X158510250Y-78770500D01*
X158510252Y-78770500D01*
X159322299Y-78770500D01*
X159334453Y-78771097D01*
X159380000Y-78775583D01*
X159425547Y-78771097D01*
X159437701Y-78770500D01*
X162049750Y-78770500D01*
X162049751Y-78770499D01*
X162064568Y-78767552D01*
X162108229Y-78758868D01*
X162108229Y-78758867D01*
X162108231Y-78758867D01*
X162174552Y-78714552D01*
X162218867Y-78648231D01*
X162218867Y-78648229D01*
X162218868Y-78648229D01*
X162230499Y-78589752D01*
X162230500Y-78589750D01*
X162230500Y-76905833D01*
X162250185Y-76838794D01*
X162266819Y-76818152D01*
X162418305Y-76666666D01*
X162570460Y-76514511D01*
X162610021Y-76445989D01*
X162630500Y-76369562D01*
X162630500Y-75097204D01*
X162650185Y-75030165D01*
X162666819Y-75009523D01*
X163206443Y-74469899D01*
X163770460Y-73905882D01*
X163799152Y-73856185D01*
X163810021Y-73837360D01*
X163830500Y-73760933D01*
X163830500Y-71211519D01*
X163850185Y-71144480D01*
X163866819Y-71123838D01*
X166593838Y-68396819D01*
X166655161Y-68363334D01*
X166681519Y-68360500D01*
X168260521Y-68360500D01*
X168327560Y-68380185D01*
X168373315Y-68432989D01*
X168379181Y-68448503D01*
X168386201Y-68471645D01*
X168386204Y-68471652D01*
X168485600Y-68657610D01*
X168485605Y-68657616D01*
X168619378Y-68820621D01*
X168782383Y-68954394D01*
X168782389Y-68954399D01*
X168968350Y-69053797D01*
X168968352Y-69053797D01*
X168968355Y-69053799D01*
X169170145Y-69115011D01*
X169170144Y-69115011D01*
X169188959Y-69116864D01*
X169380000Y-69135680D01*
X169589855Y-69115011D01*
X169791645Y-69053799D01*
X169791649Y-69053797D01*
X169977610Y-68954399D01*
X169977612Y-68954396D01*
X169977616Y-68954395D01*
X170140621Y-68820621D01*
X170274395Y-68657616D01*
X170274396Y-68657612D01*
X170274399Y-68657610D01*
X170373797Y-68471649D01*
X170373797Y-68471648D01*
X170373799Y-68471645D01*
X170435011Y-68269855D01*
X170455680Y-68060000D01*
X170435011Y-67850145D01*
X170373799Y-67648355D01*
X170373797Y-67648352D01*
X170373797Y-67648350D01*
X170274399Y-67462389D01*
X170274394Y-67462383D01*
X170140621Y-67299378D01*
X169977616Y-67165605D01*
X169977610Y-67165600D01*
X169791649Y-67066202D01*
X169690750Y-67035595D01*
X169589855Y-67004989D01*
X169589853Y-67004988D01*
X169589855Y-67004988D01*
X169380000Y-66984320D01*
X169170146Y-67004988D01*
X168968350Y-67066202D01*
X168782389Y-67165600D01*
X168782383Y-67165605D01*
X168619378Y-67299378D01*
X168485605Y-67462383D01*
X168485600Y-67462389D01*
X168386204Y-67648347D01*
X168386201Y-67648354D01*
X168379181Y-67671497D01*
X168340883Y-67729935D01*
X168277071Y-67758391D01*
X168260521Y-67759500D01*
X166964833Y-67759500D01*
X166897794Y-67739815D01*
X166852039Y-67687011D01*
X166842095Y-67617853D01*
X166871120Y-67554297D01*
X166877152Y-67547819D01*
X167222146Y-67202825D01*
X168308518Y-66116451D01*
X168369839Y-66082968D01*
X168439530Y-66087952D01*
X168492049Y-66125469D01*
X168515179Y-66153652D01*
X168619378Y-66280621D01*
X168782383Y-66414394D01*
X168782389Y-66414399D01*
X168968350Y-66513797D01*
X168968352Y-66513797D01*
X168968355Y-66513799D01*
X169170145Y-66575011D01*
X169170144Y-66575011D01*
X169188959Y-66576864D01*
X169380000Y-66595680D01*
X169589855Y-66575011D01*
X169791645Y-66513799D01*
X169804990Y-66506666D01*
X169977610Y-66414399D01*
X169977612Y-66414396D01*
X169977616Y-66414395D01*
X170140621Y-66280621D01*
X170274395Y-66117616D01*
X170274396Y-66117612D01*
X170274399Y-66117610D01*
X170373797Y-65931649D01*
X170373797Y-65931648D01*
X170373799Y-65931645D01*
X170435011Y-65729855D01*
X170455680Y-65520000D01*
X170435011Y-65310145D01*
X170373799Y-65108355D01*
X170373797Y-65108352D01*
X170373797Y-65108350D01*
X170274399Y-64922389D01*
X170274394Y-64922383D01*
X170140620Y-64759378D01*
X169977450Y-64625468D01*
X169938116Y-64567723D01*
X169936245Y-64497878D01*
X169972432Y-64438110D01*
X169994110Y-64422231D01*
X170049141Y-64390460D01*
X170105090Y-64334511D01*
X170987819Y-63451782D01*
X171049142Y-63418297D01*
X171118834Y-63423281D01*
X171174767Y-63465153D01*
X171199184Y-63530617D01*
X171199500Y-63539463D01*
X171199500Y-72824166D01*
X171179815Y-72891205D01*
X171163181Y-72911847D01*
X170957660Y-73117368D01*
X170896337Y-73150853D01*
X170826645Y-73145869D01*
X170770712Y-73103997D01*
X170746403Y-73039927D01*
X170735947Y-72913740D01*
X170735945Y-72913729D01*
X170680210Y-72693638D01*
X170589008Y-72485717D01*
X170509512Y-72364039D01*
X169899704Y-72973847D01*
X169887859Y-72929638D01*
X169816109Y-72805362D01*
X169714638Y-72703891D01*
X169590362Y-72632141D01*
X169546150Y-72620294D01*
X170157420Y-72009025D01*
X170157420Y-72009023D01*
X170131891Y-71989154D01*
X169932210Y-71881091D01*
X169932201Y-71881088D01*
X169784858Y-71830504D01*
X169727842Y-71790118D01*
X169701712Y-71725318D01*
X169714764Y-71656679D01*
X169762853Y-71605991D01*
X169789128Y-71594562D01*
X169791645Y-71593799D01*
X169807196Y-71585487D01*
X169977610Y-71494399D01*
X169977612Y-71494396D01*
X169977616Y-71494395D01*
X170140621Y-71360621D01*
X170274395Y-71197616D01*
X170274396Y-71197612D01*
X170274399Y-71197610D01*
X170373797Y-71011649D01*
X170373797Y-71011648D01*
X170373799Y-71011645D01*
X170435011Y-70809855D01*
X170455680Y-70600000D01*
X170435011Y-70390145D01*
X170373799Y-70188355D01*
X170373797Y-70188352D01*
X170373797Y-70188350D01*
X170274399Y-70002389D01*
X170274394Y-70002383D01*
X170140621Y-69839378D01*
X169977616Y-69705605D01*
X169977610Y-69705600D01*
X169791649Y-69606202D01*
X169663388Y-69567295D01*
X169589855Y-69544989D01*
X169589853Y-69544988D01*
X169589855Y-69544988D01*
X169380000Y-69524320D01*
X169170146Y-69544988D01*
X168968350Y-69606202D01*
X168782389Y-69705600D01*
X168782383Y-69705605D01*
X168619378Y-69839378D01*
X168485605Y-70002383D01*
X168485600Y-70002389D01*
X168386202Y-70188350D01*
X168324988Y-70390146D01*
X168304320Y-70600000D01*
X168324988Y-70809853D01*
X168386202Y-71011648D01*
X168397600Y-71032972D01*
X168411841Y-71101375D01*
X168386840Y-71166619D01*
X168375922Y-71179105D01*
X168025489Y-71529540D01*
X167969541Y-71585487D01*
X167969535Y-71585495D01*
X167929982Y-71654004D01*
X167929979Y-71654009D01*
X167916326Y-71704962D01*
X167914503Y-71711769D01*
X167909500Y-71730439D01*
X167909500Y-74453851D01*
X167889815Y-74520890D01*
X167873181Y-74541532D01*
X162696698Y-79718014D01*
X162696692Y-79718022D01*
X162657139Y-79786531D01*
X162657136Y-79786536D01*
X162635417Y-79867594D01*
X162599051Y-79927255D01*
X162536204Y-79957783D01*
X162515642Y-79959500D01*
X162354500Y-79959500D01*
X162287461Y-79939815D01*
X162241706Y-79887011D01*
X162230500Y-79835500D01*
X162230500Y-79390249D01*
X162230499Y-79390247D01*
X162218868Y-79331770D01*
X162218867Y-79331769D01*
X162174552Y-79265447D01*
X162108230Y-79221132D01*
X162108229Y-79221131D01*
X162049752Y-79209500D01*
X162049748Y-79209500D01*
X159437701Y-79209500D01*
X159425547Y-79208903D01*
X159380000Y-79204417D01*
X159334453Y-79208903D01*
X159322299Y-79209500D01*
X158510247Y-79209500D01*
X158451770Y-79221131D01*
X158451769Y-79221132D01*
X158385447Y-79265447D01*
X158341132Y-79331769D01*
X158341131Y-79331770D01*
X158329500Y-79390247D01*
X158329500Y-80202299D01*
X158328903Y-80214453D01*
X158324417Y-80259999D01*
X158328903Y-80305545D01*
X158329500Y-80317699D01*
X158329500Y-81129752D01*
X158341131Y-81188229D01*
X158341132Y-81188230D01*
X158385447Y-81254552D01*
X158391175Y-81258379D01*
X158435980Y-81311991D01*
X158444687Y-81381316D01*
X158414533Y-81444343D01*
X158365618Y-81477662D01*
X158287917Y-81506643D01*
X158287906Y-81506649D01*
X158172812Y-81592809D01*
X158172809Y-81592812D01*
X158086649Y-81707906D01*
X158086645Y-81707913D01*
X158036403Y-81842620D01*
X158036401Y-81842627D01*
X158030000Y-81902155D01*
X158030000Y-82550000D01*
X158935440Y-82550000D01*
X158904755Y-82603147D01*
X158870000Y-82732857D01*
X158870000Y-82867143D01*
X158904755Y-82996853D01*
X158935440Y-83050000D01*
X158030000Y-83050000D01*
X158030000Y-83697844D01*
X158035850Y-83752244D01*
X158023445Y-83821003D01*
X157975836Y-83872141D01*
X157912561Y-83889500D01*
X155865833Y-83889500D01*
X155798794Y-83869815D01*
X155778152Y-83853181D01*
X146864513Y-74939542D01*
X146864511Y-74939540D01*
X146848306Y-74930184D01*
X146795991Y-74899980D01*
X146795990Y-74899979D01*
X146770513Y-74893152D01*
X146719562Y-74879500D01*
X146719560Y-74879500D01*
X142774500Y-74879500D01*
X142707461Y-74859815D01*
X142661706Y-74807011D01*
X142650500Y-74755500D01*
X142650500Y-74310249D01*
X142650499Y-74310247D01*
X142638868Y-74251770D01*
X142638867Y-74251769D01*
X142594552Y-74185447D01*
X142528230Y-74141132D01*
X142528229Y-74141131D01*
X142469752Y-74129500D01*
X142469748Y-74129500D01*
X141657701Y-74129500D01*
X141645547Y-74128903D01*
X141600000Y-74124417D01*
X141554453Y-74128903D01*
X141542299Y-74129500D01*
X138930247Y-74129500D01*
X138871770Y-74141131D01*
X138871769Y-74141132D01*
X138805447Y-74185447D01*
X138761132Y-74251769D01*
X138761131Y-74251770D01*
X138749500Y-74310247D01*
X138749500Y-76049752D01*
X138761131Y-76108229D01*
X138761132Y-76108230D01*
X138805447Y-76174552D01*
X138871769Y-76218867D01*
X138871770Y-76218868D01*
X138930247Y-76230499D01*
X138930250Y-76230500D01*
X138930252Y-76230500D01*
X141542299Y-76230500D01*
X141554453Y-76231097D01*
X141600000Y-76235583D01*
X141645547Y-76231097D01*
X141657701Y-76230500D01*
X142469750Y-76230500D01*
X142469751Y-76230499D01*
X142484568Y-76227552D01*
X142528229Y-76218868D01*
X142528229Y-76218867D01*
X142528231Y-76218867D01*
X142594552Y-76174552D01*
X142638867Y-76108231D01*
X142638867Y-76108229D01*
X142638868Y-76108229D01*
X142647552Y-76064568D01*
X142650500Y-76049748D01*
X142650500Y-75604500D01*
X142670185Y-75537461D01*
X142722989Y-75491706D01*
X142774500Y-75480500D01*
X146504167Y-75480500D01*
X146571206Y-75500185D01*
X146591848Y-75516819D01*
X155449540Y-84374511D01*
X155505489Y-84430460D01*
X155505491Y-84430461D01*
X155505495Y-84430464D01*
X155574004Y-84470017D01*
X155574011Y-84470021D01*
X155650438Y-84490500D01*
X158205500Y-84490500D01*
X158272539Y-84510185D01*
X158318294Y-84562989D01*
X158329500Y-84614500D01*
X158329500Y-85282299D01*
X158328903Y-85294453D01*
X158324417Y-85339999D01*
X158328903Y-85385545D01*
X158329500Y-85397699D01*
X158329500Y-86209752D01*
X158341131Y-86268229D01*
X158341132Y-86268230D01*
X158385447Y-86334552D01*
X158451769Y-86378867D01*
X158451770Y-86378868D01*
X158510247Y-86390499D01*
X158510250Y-86390500D01*
X158510252Y-86390500D01*
X159322299Y-86390500D01*
X159334453Y-86391097D01*
X159380000Y-86395583D01*
X159425547Y-86391097D01*
X159437701Y-86390500D01*
X162049750Y-86390500D01*
X162049751Y-86390499D01*
X162064568Y-86387552D01*
X162108229Y-86378868D01*
X162108229Y-86378867D01*
X162108231Y-86378867D01*
X162174552Y-86334552D01*
X162218867Y-86268231D01*
X162218867Y-86268229D01*
X162218868Y-86268229D01*
X162230499Y-86209752D01*
X162230500Y-86209750D01*
X162230500Y-84985833D01*
X162250185Y-84918794D01*
X162266819Y-84898152D01*
X163104351Y-84060620D01*
X163977617Y-83187354D01*
X164007273Y-83135988D01*
X164017178Y-83118832D01*
X164037657Y-83042405D01*
X164037657Y-80438675D01*
X164057342Y-80371636D01*
X164073971Y-80350999D01*
X168249560Y-76175409D01*
X168310881Y-76141926D01*
X168380573Y-76146910D01*
X168436506Y-76188782D01*
X168446597Y-76204639D01*
X168485600Y-76277610D01*
X168485605Y-76277616D01*
X168619378Y-76440621D01*
X168782383Y-76574394D01*
X168782389Y-76574399D01*
X168968350Y-76673797D01*
X168968352Y-76673797D01*
X168968355Y-76673799D01*
X169170145Y-76735011D01*
X169170144Y-76735011D01*
X169188959Y-76736864D01*
X169380000Y-76755680D01*
X169589855Y-76735011D01*
X169791645Y-76673799D01*
X169803561Y-76667430D01*
X169977610Y-76574399D01*
X169977612Y-76574396D01*
X169977616Y-76574395D01*
X170140621Y-76440621D01*
X170274395Y-76277616D01*
X170274396Y-76277612D01*
X170274399Y-76277610D01*
X170373797Y-76091649D01*
X170373797Y-76091648D01*
X170373799Y-76091645D01*
X170435011Y-75889855D01*
X170455680Y-75680000D01*
X170435011Y-75470145D01*
X170373799Y-75268355D01*
X170373797Y-75268352D01*
X170373797Y-75268350D01*
X170274399Y-75082389D01*
X170274394Y-75082383D01*
X170147819Y-74928149D01*
X170120507Y-74863839D01*
X170132298Y-74794972D01*
X170179451Y-74743412D01*
X170181646Y-74742113D01*
X170184511Y-74740460D01*
X170240460Y-74684511D01*
X171740460Y-73184511D01*
X171774939Y-73124791D01*
X171780021Y-73115989D01*
X171800500Y-73039562D01*
X171800500Y-49820438D01*
X171799762Y-49817685D01*
X171789665Y-49780000D01*
X171780023Y-49744013D01*
X171746765Y-49686410D01*
X171740460Y-49675489D01*
X170384076Y-48319105D01*
X170350591Y-48257782D01*
X170355575Y-48188090D01*
X170362396Y-48172977D01*
X170373799Y-48151645D01*
X170435011Y-47949855D01*
X170455680Y-47740000D01*
X170435011Y-47530145D01*
X170373799Y-47328355D01*
X170373797Y-47328352D01*
X170373797Y-47328350D01*
X170274399Y-47142389D01*
X170274394Y-47142383D01*
X170140621Y-46979378D01*
X169977616Y-46845605D01*
X169977610Y-46845600D01*
X169791649Y-46746202D01*
X169652325Y-46703939D01*
X169589855Y-46684989D01*
X169589853Y-46684988D01*
X169589855Y-46684988D01*
X169380000Y-46664320D01*
X169170146Y-46684988D01*
X168968350Y-46746202D01*
X168782389Y-46845600D01*
X168782383Y-46845605D01*
X168619378Y-46979378D01*
X168485605Y-47142383D01*
X168485600Y-47142389D01*
X168386202Y-47328350D01*
X168324988Y-47530146D01*
X168304320Y-47740000D01*
X168324988Y-47949853D01*
X168386202Y-48151649D01*
X168485600Y-48337610D01*
X168485605Y-48337616D01*
X168619378Y-48500621D01*
X168782383Y-48634394D01*
X168782389Y-48634399D01*
X168968350Y-48733797D01*
X168968352Y-48733797D01*
X168968355Y-48733799D01*
X169170145Y-48795011D01*
X169170144Y-48795011D01*
X169188959Y-48796864D01*
X169380000Y-48815680D01*
X169589855Y-48795011D01*
X169791645Y-48733799D01*
X169812969Y-48722400D01*
X169881369Y-48708156D01*
X169946614Y-48733155D01*
X169959105Y-48744076D01*
X171163181Y-49948152D01*
X171196666Y-50009475D01*
X171199500Y-50035833D01*
X171199500Y-51375167D01*
X171179815Y-51442206D01*
X171127011Y-51487961D01*
X171057853Y-51497905D01*
X170994297Y-51468880D01*
X170987819Y-51462848D01*
X170384076Y-50859105D01*
X170350591Y-50797782D01*
X170355575Y-50728090D01*
X170362396Y-50712977D01*
X170373799Y-50691645D01*
X170435011Y-50489855D01*
X170455680Y-50280000D01*
X170435011Y-50070145D01*
X170373799Y-49868355D01*
X170373797Y-49868352D01*
X170373797Y-49868350D01*
X170274399Y-49682389D01*
X170274394Y-49682383D01*
X170140621Y-49519378D01*
X169977616Y-49385605D01*
X169977610Y-49385600D01*
X169791649Y-49286202D01*
X169652529Y-49244001D01*
X169589855Y-49224989D01*
X169589853Y-49224988D01*
X169589855Y-49224988D01*
X169380000Y-49204320D01*
X169170146Y-49224988D01*
X168968350Y-49286202D01*
X168782389Y-49385600D01*
X168782383Y-49385605D01*
X168619378Y-49519378D01*
X168485605Y-49682383D01*
X168485600Y-49682389D01*
X168386202Y-49868350D01*
X168324988Y-50070146D01*
X168304320Y-50280000D01*
X168324988Y-50489853D01*
X168386202Y-50691649D01*
X168485600Y-50877610D01*
X168485605Y-50877616D01*
X168619378Y-51040621D01*
X168782383Y-51174394D01*
X168782389Y-51174399D01*
X168968350Y-51273797D01*
X168968352Y-51273797D01*
X168968355Y-51273799D01*
X169170145Y-51335011D01*
X169170144Y-51335011D01*
X169188959Y-51336864D01*
X169380000Y-51355680D01*
X169589855Y-51335011D01*
X169791645Y-51273799D01*
X169812969Y-51262400D01*
X169881369Y-51248156D01*
X169946614Y-51273155D01*
X169959105Y-51284076D01*
X170663181Y-51988152D01*
X170696666Y-52049475D01*
X170699500Y-52075833D01*
X170699500Y-52771467D01*
X170684908Y-52821159D01*
X170697328Y-52845427D01*
X170699500Y-52868532D01*
X170699500Y-54466218D01*
X170679815Y-54533257D01*
X170627011Y-54579012D01*
X170562709Y-54589556D01*
X170509513Y-54584039D01*
X169899705Y-55193847D01*
X169887859Y-55149638D01*
X169816109Y-55025362D01*
X169714638Y-54923891D01*
X169590362Y-54852141D01*
X169546151Y-54840294D01*
X170157420Y-54229025D01*
X170157420Y-54229023D01*
X170131891Y-54209154D01*
X169932210Y-54101091D01*
X169932201Y-54101088D01*
X169784858Y-54050504D01*
X169727842Y-54010118D01*
X169701712Y-53945318D01*
X169714764Y-53876679D01*
X169762853Y-53825991D01*
X169789128Y-53814562D01*
X169791645Y-53813799D01*
X169800805Y-53808903D01*
X169977610Y-53714399D01*
X169977612Y-53714396D01*
X169977616Y-53714395D01*
X170140621Y-53580621D01*
X170274395Y-53417616D01*
X170274395Y-53417615D01*
X170274399Y-53417611D01*
X170274399Y-53417610D01*
X170373797Y-53231649D01*
X170373797Y-53231648D01*
X170373799Y-53231645D01*
X170435011Y-53029855D01*
X170452097Y-52856377D01*
X170466198Y-52821456D01*
X170456523Y-52806402D01*
X170452097Y-52783621D01*
X170435011Y-52610146D01*
X170435011Y-52610145D01*
X170373799Y-52408355D01*
X170373797Y-52408352D01*
X170373797Y-52408350D01*
X170274399Y-52222389D01*
X170274394Y-52222383D01*
X170140621Y-52059378D01*
X169977616Y-51925605D01*
X169977610Y-51925600D01*
X169791649Y-51826202D01*
X169688238Y-51794833D01*
X169589855Y-51764989D01*
X169589853Y-51764988D01*
X169589855Y-51764988D01*
X169380000Y-51744320D01*
X169170146Y-51764988D01*
X168968350Y-51826202D01*
X168782389Y-51925600D01*
X168782383Y-51925605D01*
X168619378Y-52059378D01*
X168485605Y-52222383D01*
X168485600Y-52222389D01*
X168386202Y-52408350D01*
X168324988Y-52610146D01*
X168304320Y-52820000D01*
X168324988Y-53029853D01*
X168386202Y-53231648D01*
X168397600Y-53252972D01*
X168411841Y-53321375D01*
X168386840Y-53386619D01*
X168375922Y-53399105D01*
X166101848Y-55673181D01*
X166040525Y-55706666D01*
X166014167Y-55709500D01*
X162354500Y-55709500D01*
X162287461Y-55689815D01*
X162241706Y-55637011D01*
X162230500Y-55585500D01*
X162230500Y-54680463D01*
X162250185Y-54613424D01*
X162266819Y-54592782D01*
X164744114Y-52115487D01*
X167240460Y-49619141D01*
X167266484Y-49574066D01*
X167280021Y-49550619D01*
X167300500Y-49474192D01*
X167300500Y-47755832D01*
X167320185Y-47688793D01*
X167336814Y-47668156D01*
X168800895Y-46204074D01*
X168862216Y-46170591D01*
X168931908Y-46175575D01*
X168947029Y-46182400D01*
X168957517Y-46188006D01*
X168968355Y-46193799D01*
X169170145Y-46255011D01*
X169170144Y-46255011D01*
X169188959Y-46256864D01*
X169380000Y-46275680D01*
X169589855Y-46255011D01*
X169791645Y-46193799D01*
X169802483Y-46188006D01*
X169977610Y-46094399D01*
X169977612Y-46094396D01*
X169977616Y-46094395D01*
X170140621Y-45960621D01*
X170274395Y-45797616D01*
X170274396Y-45797612D01*
X170274399Y-45797610D01*
X170373797Y-45611649D01*
X170373797Y-45611648D01*
X170373799Y-45611645D01*
X170435011Y-45409855D01*
X170455680Y-45200000D01*
X170435011Y-44990145D01*
X170373799Y-44788355D01*
X170373797Y-44788352D01*
X170373797Y-44788350D01*
X170274399Y-44602389D01*
X170274394Y-44602383D01*
X170140621Y-44439378D01*
X169977616Y-44305605D01*
X169977610Y-44305600D01*
X169791646Y-44206201D01*
X169789121Y-44205435D01*
X169787960Y-44204674D01*
X169786021Y-44203871D01*
X169786173Y-44203503D01*
X169730684Y-44167135D01*
X169702230Y-44103322D01*
X169712793Y-44034255D01*
X169759019Y-43981864D01*
X169784858Y-43969495D01*
X169932201Y-43918911D01*
X169932215Y-43918905D01*
X170131881Y-43810852D01*
X170131884Y-43810850D01*
X170157420Y-43790974D01*
X169546152Y-43179704D01*
X169590362Y-43167859D01*
X169714638Y-43096109D01*
X169816109Y-42994638D01*
X169887859Y-42870362D01*
X169899705Y-42826152D01*
X170509512Y-43435959D01*
X170589009Y-43314279D01*
X170680210Y-43106361D01*
X170735945Y-42886270D01*
X170735947Y-42886258D01*
X170754695Y-42660005D01*
X170754695Y-42659994D01*
X170735947Y-42433741D01*
X170735945Y-42433729D01*
X170680210Y-42213638D01*
X170589008Y-42005717D01*
X170509512Y-41884039D01*
X169899705Y-42493847D01*
X169887859Y-42449638D01*
X169816109Y-42325362D01*
X169714638Y-42223891D01*
X169590362Y-42152141D01*
X169546151Y-42140294D01*
X170157420Y-41529025D01*
X170157420Y-41529023D01*
X170131887Y-41509150D01*
X170113230Y-41499054D01*
X170063640Y-41449835D01*
X170048532Y-41381618D01*
X170072703Y-41316063D01*
X170113232Y-41280945D01*
X170131877Y-41270855D01*
X170131884Y-41270850D01*
X170157420Y-41250974D01*
X169546152Y-40639704D01*
X169590362Y-40627859D01*
X169714638Y-40556109D01*
X169816109Y-40454638D01*
X169887859Y-40330362D01*
X169899705Y-40286152D01*
X170509512Y-40895959D01*
X170589009Y-40774279D01*
X170680210Y-40566361D01*
X170735945Y-40346270D01*
X170735947Y-40346258D01*
X170754695Y-40120005D01*
X170754695Y-40119994D01*
X170735947Y-39893741D01*
X170735945Y-39893729D01*
X170680210Y-39673638D01*
X170589008Y-39465717D01*
X170509512Y-39344039D01*
X169899705Y-39953847D01*
X169887859Y-39909638D01*
X169816109Y-39785362D01*
X169714638Y-39683891D01*
X169590362Y-39612141D01*
X169546151Y-39600294D01*
X170157420Y-38989025D01*
X170157420Y-38989023D01*
X170131891Y-38969154D01*
X169932210Y-38861091D01*
X169932201Y-38861088D01*
X169717471Y-38787370D01*
X169493520Y-38750000D01*
X169266480Y-38750000D01*
X169042528Y-38787370D01*
X168827798Y-38861088D01*
X168827789Y-38861091D01*
X168628108Y-38969154D01*
X168602578Y-38989023D01*
X168602578Y-38989024D01*
X169213848Y-39600294D01*
X169169638Y-39612141D01*
X169045362Y-39683891D01*
X168943891Y-39785362D01*
X168872141Y-39909638D01*
X168860294Y-39953848D01*
X168250485Y-39344039D01*
X168170990Y-39465720D01*
X168170989Y-39465722D01*
X168079789Y-39673638D01*
X168024054Y-39893729D01*
X168024052Y-39893741D01*
X168005305Y-40119994D01*
X168005305Y-40120005D01*
X168024052Y-40346258D01*
X168024054Y-40346270D01*
X168079789Y-40566361D01*
X168170991Y-40774282D01*
X168250485Y-40895958D01*
X168860294Y-40286150D01*
X168872141Y-40330362D01*
X168943891Y-40454638D01*
X169045362Y-40556109D01*
X169169638Y-40627859D01*
X169213847Y-40639705D01*
X168602577Y-41250974D01*
X168628113Y-41270848D01*
X168628120Y-41270853D01*
X168646770Y-41280946D01*
X168696360Y-41330165D01*
X168711468Y-41398382D01*
X168687297Y-41463937D01*
X168646770Y-41499054D01*
X168628113Y-41509150D01*
X168602578Y-41529023D01*
X168602578Y-41529024D01*
X169213848Y-42140294D01*
X169169638Y-42152141D01*
X169045362Y-42223891D01*
X168943891Y-42325362D01*
X168872141Y-42449638D01*
X168860294Y-42493848D01*
X168250485Y-41884039D01*
X168170990Y-42005720D01*
X168170989Y-42005722D01*
X168079789Y-42213638D01*
X168024054Y-42433729D01*
X168024052Y-42433741D01*
X168005305Y-42659994D01*
X168005305Y-42660005D01*
X168024052Y-42886258D01*
X168024054Y-42886270D01*
X168079789Y-43106361D01*
X168170991Y-43314282D01*
X168250485Y-43435958D01*
X168860294Y-42826150D01*
X168872141Y-42870362D01*
X168943891Y-42994638D01*
X169045362Y-43096109D01*
X169169638Y-43167859D01*
X169213847Y-43179705D01*
X168602577Y-43790974D01*
X168628112Y-43810848D01*
X168827789Y-43918908D01*
X168827798Y-43918911D01*
X168975141Y-43969495D01*
X169032156Y-44009881D01*
X169058287Y-44074680D01*
X169045235Y-44143320D01*
X168997147Y-44194008D01*
X168970882Y-44205434D01*
X168968353Y-44206201D01*
X168782389Y-44305600D01*
X168782383Y-44305605D01*
X168619378Y-44439378D01*
X168485605Y-44602383D01*
X168485600Y-44602389D01*
X168386202Y-44788350D01*
X168324988Y-44990146D01*
X168304320Y-45200000D01*
X168324988Y-45409853D01*
X168386202Y-45611648D01*
X168397600Y-45632972D01*
X168411841Y-45701375D01*
X168386840Y-45766619D01*
X168375922Y-45779105D01*
X166815489Y-47339540D01*
X166759541Y-47395487D01*
X166759535Y-47395495D01*
X166719982Y-47464004D01*
X166719979Y-47464009D01*
X166699500Y-47540439D01*
X166699500Y-49258796D01*
X166679815Y-49325835D01*
X166663181Y-49346477D01*
X162222070Y-53787587D01*
X162160747Y-53821072D01*
X162110199Y-53821524D01*
X162049748Y-53809500D01*
X159437701Y-53809500D01*
X159425547Y-53808903D01*
X159380000Y-53804417D01*
X159334453Y-53808903D01*
X159322299Y-53809500D01*
X158510247Y-53809500D01*
X158451770Y-53821131D01*
X158451769Y-53821132D01*
X158385447Y-53865447D01*
X158341132Y-53931769D01*
X158341131Y-53931770D01*
X158329500Y-53990247D01*
X158329500Y-54802299D01*
X158328902Y-54814453D01*
X158324417Y-54860000D01*
X158328129Y-54897685D01*
X158328903Y-54905545D01*
X158329500Y-54917699D01*
X158329500Y-55585500D01*
X158309815Y-55652539D01*
X158257011Y-55698294D01*
X158205500Y-55709500D01*
X153253207Y-55709500D01*
X153221115Y-55705275D01*
X153199562Y-55699500D01*
X153120438Y-55699500D01*
X153044010Y-55719978D01*
X152975489Y-55759540D01*
X152975486Y-55759542D01*
X142862181Y-65872848D01*
X142800858Y-65906333D01*
X142731166Y-65901349D01*
X142675233Y-65859477D01*
X142650816Y-65794013D01*
X142650500Y-65785167D01*
X142650500Y-65077699D01*
X142651097Y-65065545D01*
X142652200Y-65054345D01*
X142655583Y-65020000D01*
X142651097Y-64974453D01*
X142650500Y-64962299D01*
X142650500Y-64150249D01*
X142650499Y-64150247D01*
X142638868Y-64091770D01*
X142638867Y-64091769D01*
X142594552Y-64025447D01*
X142528230Y-63981132D01*
X142528229Y-63981131D01*
X142469752Y-63969500D01*
X142469748Y-63969500D01*
X141657701Y-63969500D01*
X141645547Y-63968903D01*
X141600000Y-63964417D01*
X141554453Y-63968903D01*
X141542299Y-63969500D01*
X138930247Y-63969500D01*
X138871770Y-63981131D01*
X138871769Y-63981132D01*
X138805447Y-64025447D01*
X138761132Y-64091769D01*
X138761131Y-64091770D01*
X138749500Y-64150247D01*
X138749500Y-65889752D01*
X138761131Y-65948229D01*
X138761132Y-65948230D01*
X138805447Y-66014552D01*
X138871769Y-66058867D01*
X138871770Y-66058868D01*
X138930247Y-66070499D01*
X138930250Y-66070500D01*
X138930252Y-66070500D01*
X141542299Y-66070500D01*
X141554453Y-66071097D01*
X141600000Y-66075583D01*
X141645547Y-66071097D01*
X141657701Y-66070500D01*
X142365167Y-66070500D01*
X142432206Y-66090185D01*
X142477961Y-66142989D01*
X142487905Y-66212147D01*
X142458880Y-66275703D01*
X142452848Y-66282181D01*
X142261848Y-66473181D01*
X142200525Y-66506666D01*
X142174167Y-66509500D01*
X141657701Y-66509500D01*
X141645547Y-66508903D01*
X141600000Y-66504417D01*
X141554453Y-66508903D01*
X141542299Y-66509500D01*
X138930247Y-66509500D01*
X138871770Y-66521131D01*
X138871769Y-66521132D01*
X138805447Y-66565447D01*
X138761132Y-66631769D01*
X138761131Y-66631770D01*
X138749500Y-66690247D01*
X138749500Y-68429752D01*
X138763515Y-68500210D01*
X138759386Y-68501031D01*
X138764379Y-68547538D01*
X138733093Y-68610011D01*
X138672998Y-68645653D01*
X138642353Y-68649500D01*
X135645833Y-68649500D01*
X135578794Y-68629815D01*
X135558152Y-68613181D01*
X133866819Y-66921848D01*
X133833334Y-66860525D01*
X133830500Y-66834167D01*
X133830500Y-65890249D01*
X133830499Y-65890247D01*
X133818868Y-65831770D01*
X133818867Y-65831769D01*
X133774552Y-65765447D01*
X133708230Y-65721132D01*
X133708229Y-65721131D01*
X133649752Y-65709500D01*
X133649748Y-65709500D01*
X132110252Y-65709500D01*
X132110247Y-65709500D01*
X132051770Y-65721131D01*
X132051769Y-65721132D01*
X131985447Y-65765447D01*
X131941132Y-65831769D01*
X131941131Y-65831770D01*
X131929500Y-65890247D01*
X128930499Y-65890247D01*
X128918868Y-65831770D01*
X128918867Y-65831769D01*
X128874552Y-65765447D01*
X128808230Y-65721132D01*
X128808229Y-65721131D01*
X128749752Y-65709500D01*
X128749748Y-65709500D01*
X127210252Y-65709500D01*
X127210247Y-65709500D01*
X127151770Y-65721131D01*
X127151769Y-65721132D01*
X127085447Y-65765447D01*
X127041132Y-65831769D01*
X127041131Y-65831770D01*
X127029500Y-65890247D01*
X127029500Y-66834166D01*
X127009815Y-66901205D01*
X126993181Y-66921847D01*
X126815489Y-67099540D01*
X126759541Y-67155487D01*
X126759535Y-67155495D01*
X126719982Y-67224004D01*
X126719979Y-67224009D01*
X126699500Y-67300439D01*
X126699500Y-68734167D01*
X126679815Y-68801206D01*
X126663181Y-68821848D01*
X126333855Y-69151173D01*
X126333849Y-69151181D01*
X126294296Y-69219690D01*
X126294293Y-69219695D01*
X126273814Y-69296125D01*
X126273814Y-70075500D01*
X126254129Y-70142539D01*
X126201325Y-70188294D01*
X126149814Y-70199500D01*
X125535525Y-70199500D01*
X125468486Y-70179815D01*
X125447844Y-70163181D01*
X122414843Y-67130180D01*
X122414838Y-67130176D01*
X122361772Y-67099539D01*
X122361772Y-67099538D01*
X122349859Y-67092661D01*
X122346320Y-67090618D01*
X122269893Y-67070139D01*
X122021363Y-67070139D01*
X121942239Y-67070139D01*
X121865811Y-67090617D01*
X121797290Y-67130179D01*
X121797287Y-67130181D01*
X121577871Y-67349597D01*
X121516548Y-67383082D01*
X121446856Y-67378098D01*
X121390923Y-67336226D01*
X121366506Y-67270762D01*
X121368572Y-67237726D01*
X121375515Y-67202826D01*
X121375515Y-66992940D01*
X121375515Y-66992937D01*
X121334569Y-66787093D01*
X121334568Y-66787092D01*
X121334568Y-66787088D01*
X121334566Y-66787083D01*
X121254252Y-66593186D01*
X121254245Y-66593173D01*
X121137643Y-66418667D01*
X121137640Y-66418663D01*
X120989234Y-66270257D01*
X120989230Y-66270254D01*
X120814724Y-66153652D01*
X120814711Y-66153645D01*
X120620814Y-66073331D01*
X120620804Y-66073328D01*
X120414960Y-66032383D01*
X120414958Y-66032383D01*
X120205072Y-66032383D01*
X120205070Y-66032383D01*
X119999225Y-66073328D01*
X119999215Y-66073331D01*
X119870711Y-66126559D01*
X119801242Y-66134028D01*
X119738763Y-66102752D01*
X119703111Y-66042663D01*
X119705605Y-65972838D01*
X119712775Y-65955702D01*
X119778956Y-65825816D01*
X119845352Y-65621470D01*
X119878964Y-65409259D01*
X119878964Y-65194404D01*
X119845352Y-64982193D01*
X119778957Y-64777849D01*
X119681415Y-64586415D01*
X119639972Y-64529375D01*
X119639972Y-64529374D01*
X118899025Y-65270321D01*
X118883143Y-65211045D01*
X118816000Y-65094751D01*
X118721045Y-64999796D01*
X118604751Y-64932653D01*
X118545473Y-64916770D01*
X119286420Y-64175823D01*
X119286419Y-64175822D01*
X119229380Y-64134380D01*
X119037946Y-64036838D01*
X118833602Y-63970443D01*
X118621391Y-63936832D01*
X118406537Y-63936832D01*
X118194325Y-63970443D01*
X117989981Y-64036838D01*
X117798544Y-64134382D01*
X117624730Y-64260664D01*
X117624716Y-64260677D01*
X117619472Y-64265919D01*
X118270322Y-64916769D01*
X118211045Y-64932653D01*
X118094751Y-64999796D01*
X117999796Y-65094751D01*
X117932653Y-65211045D01*
X117916769Y-65270322D01*
X117265919Y-64619472D01*
X117260677Y-64624716D01*
X117260664Y-64624730D01*
X117134382Y-64798544D01*
X117036838Y-64989981D01*
X116981267Y-65161012D01*
X116941829Y-65218687D01*
X116877470Y-65245885D01*
X116808624Y-65233970D01*
X116775655Y-65210374D01*
X114566819Y-63001538D01*
X114533334Y-62940215D01*
X114530500Y-62913857D01*
X114530500Y-60388072D01*
X114550185Y-60321033D01*
X114602989Y-60275278D01*
X114672147Y-60265334D01*
X114706905Y-60275690D01*
X114916507Y-60373430D01*
X114916516Y-60373433D01*
X115130000Y-60430634D01*
X115130000Y-59533012D01*
X115187007Y-59565925D01*
X115314174Y-59600000D01*
X115445826Y-59600000D01*
X115572993Y-59565925D01*
X115630000Y-59533012D01*
X115630000Y-60430633D01*
X115843483Y-60373433D01*
X115843492Y-60373429D01*
X116057578Y-60273600D01*
X116251082Y-60138105D01*
X116418105Y-59971082D01*
X116553599Y-59777578D01*
X116633118Y-59607051D01*
X116679290Y-59554612D01*
X116746484Y-59535460D01*
X116813365Y-59555676D01*
X116858699Y-59608841D01*
X116869500Y-59659456D01*
X116869500Y-59969752D01*
X116881131Y-60028229D01*
X116881132Y-60028230D01*
X116925447Y-60094552D01*
X116991769Y-60138867D01*
X116991770Y-60138868D01*
X117050247Y-60150499D01*
X117050250Y-60150500D01*
X117050252Y-60150500D01*
X118789750Y-60150500D01*
X118789751Y-60150499D01*
X118804568Y-60147552D01*
X118848229Y-60138868D01*
X118848229Y-60138867D01*
X118848231Y-60138867D01*
X118914552Y-60094552D01*
X118958867Y-60028231D01*
X118958867Y-60028229D01*
X118958868Y-60028229D01*
X118967552Y-59984568D01*
X118970500Y-59969748D01*
X118970500Y-59224500D01*
X118990185Y-59157461D01*
X119042989Y-59111706D01*
X119094500Y-59100500D01*
X128328230Y-59100500D01*
X128395269Y-59120185D01*
X128441024Y-59172989D01*
X128450968Y-59242147D01*
X128421943Y-59305703D01*
X128397122Y-59327602D01*
X128355446Y-59355448D01*
X128311132Y-59421769D01*
X128311131Y-59421770D01*
X128299500Y-59480247D01*
X128299500Y-63519752D01*
X128311131Y-63578229D01*
X128311132Y-63578230D01*
X128355447Y-63644552D01*
X128421769Y-63688867D01*
X128421770Y-63688868D01*
X128480247Y-63700499D01*
X128480250Y-63700500D01*
X128480252Y-63700500D01*
X132519750Y-63700500D01*
X132519751Y-63700499D01*
X132534568Y-63697552D01*
X132578229Y-63688868D01*
X132578229Y-63688867D01*
X132578231Y-63688867D01*
X132644552Y-63644552D01*
X132688867Y-63578231D01*
X132688867Y-63578229D01*
X132688868Y-63578229D01*
X132697552Y-63534568D01*
X132700500Y-63519748D01*
X132700500Y-60284500D01*
X132720185Y-60217461D01*
X132772989Y-60171706D01*
X132824500Y-60160500D01*
X138625500Y-60160500D01*
X138692539Y-60180185D01*
X138738294Y-60232989D01*
X138749500Y-60284500D01*
X138749500Y-60809752D01*
X138761131Y-60868229D01*
X138761132Y-60868230D01*
X138805447Y-60934552D01*
X138871769Y-60978867D01*
X138871770Y-60978868D01*
X138930247Y-60990499D01*
X138930250Y-60990500D01*
X138930252Y-60990500D01*
X141542299Y-60990500D01*
X141554453Y-60991097D01*
X141600000Y-60995583D01*
X141645547Y-60991097D01*
X141657701Y-60990500D01*
X142365167Y-60990500D01*
X142432206Y-61010185D01*
X142477961Y-61062989D01*
X142487905Y-61132147D01*
X142458880Y-61195703D01*
X142452848Y-61202181D01*
X142261848Y-61393181D01*
X142200525Y-61426666D01*
X142174167Y-61429500D01*
X141657701Y-61429500D01*
X141645547Y-61428903D01*
X141600000Y-61424417D01*
X141554453Y-61428903D01*
X141542299Y-61429500D01*
X138930247Y-61429500D01*
X138871770Y-61441131D01*
X138871769Y-61441132D01*
X138805447Y-61485447D01*
X138761132Y-61551769D01*
X138761131Y-61551770D01*
X138749500Y-61610247D01*
X138749500Y-63349752D01*
X138761131Y-63408229D01*
X138761132Y-63408230D01*
X138805447Y-63474552D01*
X138871769Y-63518867D01*
X138871770Y-63518868D01*
X138930247Y-63530499D01*
X138930250Y-63530500D01*
X138930252Y-63530500D01*
X141542299Y-63530500D01*
X141554453Y-63531097D01*
X141600000Y-63535583D01*
X141645547Y-63531097D01*
X141657701Y-63530500D01*
X142469750Y-63530500D01*
X142469751Y-63530499D01*
X142484568Y-63527552D01*
X142528229Y-63518868D01*
X142528229Y-63518867D01*
X142528231Y-63518867D01*
X142594552Y-63474552D01*
X142638867Y-63408231D01*
X142638867Y-63408229D01*
X142638868Y-63408229D01*
X142650499Y-63349752D01*
X142650500Y-63349750D01*
X142650500Y-62537699D01*
X142651097Y-62525545D01*
X142655583Y-62480000D01*
X142651097Y-62434453D01*
X142650500Y-62422299D01*
X142650500Y-61905833D01*
X142670185Y-61838794D01*
X142686819Y-61818152D01*
X143372824Y-61132147D01*
X144120460Y-60384511D01*
X144143875Y-60343954D01*
X144160021Y-60315989D01*
X144180500Y-60239562D01*
X144180500Y-52320000D01*
X158324417Y-52320000D01*
X158328129Y-52357685D01*
X158328903Y-52365545D01*
X158329500Y-52377699D01*
X158329500Y-53189752D01*
X158341131Y-53248229D01*
X158341132Y-53248230D01*
X158385447Y-53314552D01*
X158451769Y-53358867D01*
X158451770Y-53358868D01*
X158510247Y-53370499D01*
X158510250Y-53370500D01*
X158510252Y-53370500D01*
X159322299Y-53370500D01*
X159334453Y-53371097D01*
X159380000Y-53375583D01*
X159425547Y-53371097D01*
X159437701Y-53370500D01*
X162049750Y-53370500D01*
X162049751Y-53370499D01*
X162064568Y-53367552D01*
X162108229Y-53358868D01*
X162108229Y-53358867D01*
X162108231Y-53358867D01*
X162174552Y-53314552D01*
X162218867Y-53248231D01*
X162218867Y-53248229D01*
X162218868Y-53248229D01*
X162230499Y-53189752D01*
X162230500Y-53189750D01*
X162230500Y-51450249D01*
X162230499Y-51450247D01*
X162218868Y-51391770D01*
X162218867Y-51391769D01*
X162174552Y-51325447D01*
X162108230Y-51281132D01*
X162108229Y-51281131D01*
X162049752Y-51269500D01*
X162049748Y-51269500D01*
X159437701Y-51269500D01*
X159425547Y-51268903D01*
X159380000Y-51264417D01*
X159334453Y-51268903D01*
X159322299Y-51269500D01*
X158510247Y-51269500D01*
X158451770Y-51281131D01*
X158451769Y-51281132D01*
X158385447Y-51325447D01*
X158341132Y-51391769D01*
X158341131Y-51391770D01*
X158329500Y-51450247D01*
X158329500Y-52262299D01*
X158328902Y-52274453D01*
X158324417Y-52320000D01*
X144180500Y-52320000D01*
X144180500Y-52260438D01*
X144160021Y-52184011D01*
X144160017Y-52184004D01*
X144120464Y-52115495D01*
X144120458Y-52115487D01*
X142934512Y-50929541D01*
X142934511Y-50929540D01*
X142920348Y-50921363D01*
X142920346Y-50921361D01*
X142865991Y-50889980D01*
X142865990Y-50889979D01*
X142840513Y-50883152D01*
X142789562Y-50869500D01*
X142789560Y-50869500D01*
X142757647Y-50869500D01*
X142690608Y-50849815D01*
X142644853Y-50797011D01*
X142634909Y-50727853D01*
X142636978Y-50720308D01*
X142636485Y-50720210D01*
X142650499Y-50649752D01*
X142650500Y-50649750D01*
X142650500Y-49837699D01*
X142651097Y-49825545D01*
X142651871Y-49817683D01*
X142655583Y-49780000D01*
X158324417Y-49780000D01*
X158328129Y-49817683D01*
X158328903Y-49825545D01*
X158329500Y-49837699D01*
X158329500Y-50649752D01*
X158341131Y-50708229D01*
X158341132Y-50708230D01*
X158385447Y-50774552D01*
X158451769Y-50818867D01*
X158451770Y-50818868D01*
X158510247Y-50830499D01*
X158510250Y-50830500D01*
X158510252Y-50830500D01*
X159322299Y-50830500D01*
X159334453Y-50831097D01*
X159380000Y-50835583D01*
X159425547Y-50831097D01*
X159437701Y-50830500D01*
X162049750Y-50830500D01*
X162049751Y-50830499D01*
X162064568Y-50827552D01*
X162108229Y-50818868D01*
X162108229Y-50818867D01*
X162108231Y-50818867D01*
X162174552Y-50774552D01*
X162218867Y-50708231D01*
X162218867Y-50708229D01*
X162218868Y-50708229D01*
X162230499Y-50649752D01*
X162230500Y-50649750D01*
X162230500Y-48910249D01*
X162230499Y-48910247D01*
X162218868Y-48851770D01*
X162218867Y-48851769D01*
X162174552Y-48785447D01*
X162108230Y-48741132D01*
X162108229Y-48741131D01*
X162049752Y-48729500D01*
X162049748Y-48729500D01*
X159437701Y-48729500D01*
X159425547Y-48728903D01*
X159380000Y-48724417D01*
X159334453Y-48728903D01*
X159322299Y-48729500D01*
X158510247Y-48729500D01*
X158451770Y-48741131D01*
X158451769Y-48741132D01*
X158385447Y-48785447D01*
X158341132Y-48851769D01*
X158341131Y-48851770D01*
X158329500Y-48910247D01*
X158329500Y-49722299D01*
X158328903Y-49734453D01*
X158327962Y-49744012D01*
X158324417Y-49780000D01*
X142655583Y-49780000D01*
X142651097Y-49734453D01*
X142650500Y-49722299D01*
X142650500Y-48910249D01*
X142650499Y-48910247D01*
X142638868Y-48851770D01*
X142638867Y-48851769D01*
X142594552Y-48785447D01*
X142528230Y-48741132D01*
X142528229Y-48741131D01*
X142469752Y-48729500D01*
X142469748Y-48729500D01*
X141657701Y-48729500D01*
X141645547Y-48728903D01*
X141600000Y-48724417D01*
X141554453Y-48728903D01*
X141542299Y-48729500D01*
X138930247Y-48729500D01*
X138871770Y-48741131D01*
X138871769Y-48741132D01*
X138805447Y-48785447D01*
X138761132Y-48851769D01*
X138761131Y-48851770D01*
X138749500Y-48910247D01*
X138749500Y-50028482D01*
X138729815Y-50095521D01*
X138713181Y-50116163D01*
X138009541Y-50819802D01*
X138009535Y-50819810D01*
X137969982Y-50888319D01*
X137969979Y-50888324D01*
X137949500Y-50964754D01*
X137949500Y-54508481D01*
X137929815Y-54575520D01*
X137913181Y-54596162D01*
X136986162Y-55523181D01*
X136924839Y-55556666D01*
X136898481Y-55559500D01*
X135205250Y-55559500D01*
X135138211Y-55539815D01*
X135092456Y-55487011D01*
X135081250Y-55435500D01*
X135081250Y-54840759D01*
X135081249Y-54840757D01*
X135069618Y-54782280D01*
X135069617Y-54782279D01*
X135025302Y-54715957D01*
X134958980Y-54671642D01*
X134958979Y-54671641D01*
X134900502Y-54660010D01*
X134900498Y-54660010D01*
X132862022Y-54660010D01*
X132862017Y-54660010D01*
X132803540Y-54671641D01*
X132803539Y-54671642D01*
X132737217Y-54715957D01*
X132692902Y-54782279D01*
X132692901Y-54782280D01*
X132681270Y-54840757D01*
X132680673Y-54846822D01*
X132678087Y-54846567D01*
X132661585Y-54902769D01*
X132608781Y-54948524D01*
X132557270Y-54959730D01*
X129961337Y-54959730D01*
X129902860Y-54971361D01*
X129902859Y-54971362D01*
X129836537Y-55015677D01*
X129792222Y-55081999D01*
X129792221Y-55082000D01*
X129780590Y-55140477D01*
X129780590Y-56579522D01*
X129792221Y-56637999D01*
X129792222Y-56638000D01*
X129836537Y-56704322D01*
X129902859Y-56748637D01*
X129902860Y-56748638D01*
X129961337Y-56760269D01*
X129961340Y-56760270D01*
X129961342Y-56760270D01*
X132557270Y-56760270D01*
X132624309Y-56779955D01*
X132670064Y-56832759D01*
X132678895Y-56873353D01*
X132680673Y-56873178D01*
X132681270Y-56879242D01*
X132692901Y-56937719D01*
X132692902Y-56937720D01*
X132737217Y-57004042D01*
X132803539Y-57048357D01*
X132803540Y-57048358D01*
X132862017Y-57059989D01*
X132862020Y-57059990D01*
X132862022Y-57059990D01*
X134900500Y-57059990D01*
X134900501Y-57059989D01*
X134915318Y-57057042D01*
X134958979Y-57048358D01*
X134958979Y-57048357D01*
X134958981Y-57048357D01*
X135025302Y-57004042D01*
X135069617Y-56937721D01*
X135069617Y-56937719D01*
X135069618Y-56937719D01*
X135081249Y-56879242D01*
X135081250Y-56879240D01*
X135081250Y-56284500D01*
X135100935Y-56217461D01*
X135153739Y-56171706D01*
X135205250Y-56160500D01*
X136615167Y-56160500D01*
X136682206Y-56180185D01*
X136727961Y-56232989D01*
X136737905Y-56302147D01*
X136708880Y-56365703D01*
X136702848Y-56372181D01*
X135411848Y-57663181D01*
X135350525Y-57696666D01*
X135324167Y-57699500D01*
X123675833Y-57699500D01*
X123608794Y-57679815D01*
X123588152Y-57663181D01*
X123196642Y-57271671D01*
X123163157Y-57210348D01*
X123168141Y-57140656D01*
X123210013Y-57084723D01*
X123275477Y-57060306D01*
X123284323Y-57059990D01*
X124897980Y-57059990D01*
X124897981Y-57059989D01*
X124912798Y-57057042D01*
X124956459Y-57048358D01*
X124956459Y-57048357D01*
X124956461Y-57048357D01*
X125022782Y-57004042D01*
X125067097Y-56937721D01*
X125067097Y-56937719D01*
X125067098Y-56937719D01*
X125078729Y-56879242D01*
X125078730Y-56879238D01*
X125078730Y-56879231D01*
X125079327Y-56873178D01*
X125081912Y-56873432D01*
X125098415Y-56817231D01*
X125151219Y-56771476D01*
X125202730Y-56760270D01*
X127798660Y-56760270D01*
X127798661Y-56760269D01*
X127813478Y-56757322D01*
X127857139Y-56748638D01*
X127857139Y-56748637D01*
X127857141Y-56748637D01*
X127923462Y-56704322D01*
X127967777Y-56638001D01*
X127967777Y-56637999D01*
X127967778Y-56637999D01*
X127979409Y-56579522D01*
X127979410Y-56579520D01*
X127979410Y-55140479D01*
X127979409Y-55140477D01*
X127967778Y-55082000D01*
X127967777Y-55081999D01*
X127923462Y-55015677D01*
X127857140Y-54971362D01*
X127857139Y-54971361D01*
X127798662Y-54959730D01*
X127798658Y-54959730D01*
X125202730Y-54959730D01*
X125135691Y-54940045D01*
X125089936Y-54887241D01*
X125081104Y-54846646D01*
X125079327Y-54846822D01*
X125078730Y-54840767D01*
X125078730Y-54840762D01*
X125073497Y-54814453D01*
X125067098Y-54782280D01*
X125067097Y-54782279D01*
X125022782Y-54715957D01*
X124956460Y-54671642D01*
X124956459Y-54671641D01*
X124897982Y-54660010D01*
X124897978Y-54660010D01*
X122859502Y-54660010D01*
X122859497Y-54660010D01*
X122801020Y-54671641D01*
X122801019Y-54671642D01*
X122734697Y-54715957D01*
X122690382Y-54782279D01*
X122690381Y-54782280D01*
X122678750Y-54840757D01*
X122678750Y-55435500D01*
X122659065Y-55502539D01*
X122606261Y-55548294D01*
X122554750Y-55559500D01*
X122475833Y-55559500D01*
X122408794Y-55539815D01*
X122388152Y-55523181D01*
X118909298Y-52044327D01*
X118875813Y-51983004D01*
X118880797Y-51913312D01*
X118887618Y-51898197D01*
X118895232Y-51883954D01*
X118955300Y-51685934D01*
X118975583Y-51480000D01*
X118955300Y-51274066D01*
X118895232Y-51076046D01*
X118797685Y-50893550D01*
X118794755Y-50889980D01*
X118748129Y-50833165D01*
X118720816Y-50768855D01*
X118732607Y-50699987D01*
X118779760Y-50648427D01*
X118843982Y-50630500D01*
X122222907Y-50630500D01*
X122289946Y-50650185D01*
X122310588Y-50666819D01*
X122642431Y-50998662D01*
X122675916Y-51059985D01*
X122678750Y-51086343D01*
X122678750Y-52829242D01*
X122690381Y-52887719D01*
X122690382Y-52887720D01*
X122734697Y-52954042D01*
X122801019Y-52998357D01*
X122801020Y-52998358D01*
X122859497Y-53009989D01*
X122859500Y-53009990D01*
X122859502Y-53009990D01*
X124897980Y-53009990D01*
X124897981Y-53009989D01*
X124912798Y-53007042D01*
X124956459Y-52998358D01*
X124956459Y-52998357D01*
X124956461Y-52998357D01*
X125022782Y-52954042D01*
X125067097Y-52887721D01*
X125067097Y-52887719D01*
X125067098Y-52887719D01*
X125078729Y-52829242D01*
X125078730Y-52829238D01*
X125078730Y-52829231D01*
X125079327Y-52823178D01*
X125081912Y-52823432D01*
X125098415Y-52767231D01*
X125151219Y-52721476D01*
X125202730Y-52710270D01*
X127798660Y-52710270D01*
X127798661Y-52710269D01*
X127813478Y-52707322D01*
X127857139Y-52698638D01*
X127857139Y-52698637D01*
X127857141Y-52698637D01*
X127923462Y-52654322D01*
X127967777Y-52588001D01*
X127967777Y-52587999D01*
X127967778Y-52587999D01*
X127976462Y-52544338D01*
X127979410Y-52529518D01*
X127979410Y-51090482D01*
X127979410Y-51090479D01*
X127979409Y-51090477D01*
X127967778Y-51032000D01*
X127967777Y-51031999D01*
X127923462Y-50965677D01*
X127857140Y-50921362D01*
X127857139Y-50921361D01*
X127798662Y-50909730D01*
X127798658Y-50909730D01*
X125202730Y-50909730D01*
X125135691Y-50890045D01*
X125089936Y-50837241D01*
X125081104Y-50796646D01*
X125079327Y-50796822D01*
X125078730Y-50790767D01*
X125078730Y-50790762D01*
X125075027Y-50772147D01*
X125067098Y-50732280D01*
X125067097Y-50732279D01*
X125022782Y-50665957D01*
X124956460Y-50621642D01*
X124956459Y-50621641D01*
X124897982Y-50610010D01*
X124897978Y-50610010D01*
X123155083Y-50610010D01*
X123088044Y-50590325D01*
X123067402Y-50573691D01*
X122583252Y-50089541D01*
X122583247Y-50089537D01*
X122567593Y-50080499D01*
X122567591Y-50080499D01*
X122538037Y-50063436D01*
X122514730Y-50049979D01*
X122489253Y-50043152D01*
X122438302Y-50029500D01*
X118594910Y-50029500D01*
X118527871Y-50009815D01*
X118482116Y-49957011D01*
X118472172Y-49887853D01*
X118501197Y-49824297D01*
X118516246Y-49809646D01*
X118666410Y-49686410D01*
X118675370Y-49675492D01*
X118797685Y-49526450D01*
X118895232Y-49343954D01*
X118955300Y-49145934D01*
X118975583Y-48940000D01*
X118972041Y-48904042D01*
X118960361Y-48785447D01*
X118955300Y-48734066D01*
X118920848Y-48620494D01*
X118920226Y-48550628D01*
X118957475Y-48491515D01*
X119020769Y-48461924D01*
X119039510Y-48460500D01*
X121503927Y-48460500D01*
X121570966Y-48480185D01*
X121591608Y-48496819D01*
X122338790Y-49244001D01*
X122394739Y-49299950D01*
X122394741Y-49299951D01*
X122394745Y-49299954D01*
X122439573Y-49325835D01*
X122463261Y-49339511D01*
X122539688Y-49359990D01*
X122539690Y-49359990D01*
X127818750Y-49359990D01*
X127818752Y-49359990D01*
X127895179Y-49339511D01*
X127963701Y-49299950D01*
X128019650Y-49244001D01*
X128319370Y-48944281D01*
X128321842Y-48940000D01*
X128358931Y-48875759D01*
X128379410Y-48799332D01*
X128379410Y-47040477D01*
X129780590Y-47040477D01*
X129780590Y-48479522D01*
X129792221Y-48537999D01*
X129792222Y-48538000D01*
X129836537Y-48604322D01*
X129902859Y-48648637D01*
X129902860Y-48648638D01*
X129961337Y-48660269D01*
X129961340Y-48660270D01*
X129961342Y-48660270D01*
X132557270Y-48660270D01*
X132624309Y-48679955D01*
X132670064Y-48732759D01*
X132678895Y-48773353D01*
X132680673Y-48773178D01*
X132681270Y-48779242D01*
X132692901Y-48837719D01*
X132692902Y-48837720D01*
X132737217Y-48904042D01*
X132803539Y-48948357D01*
X132803540Y-48948358D01*
X132862017Y-48959989D01*
X132862020Y-48959990D01*
X132862022Y-48959990D01*
X134900500Y-48959990D01*
X134900501Y-48959989D01*
X134915318Y-48957042D01*
X134958979Y-48948358D01*
X134958979Y-48948357D01*
X134958981Y-48948357D01*
X135025302Y-48904042D01*
X135069617Y-48837721D01*
X135069617Y-48837719D01*
X135069618Y-48837719D01*
X135081249Y-48779242D01*
X135081250Y-48779240D01*
X135081250Y-47036342D01*
X135100935Y-46969303D01*
X135117564Y-46948666D01*
X138238319Y-43827910D01*
X138299642Y-43794426D01*
X138369334Y-43799410D01*
X138425267Y-43841282D01*
X138449684Y-43906746D01*
X138450000Y-43915592D01*
X138450000Y-44450000D01*
X141155440Y-44450000D01*
X141124755Y-44503147D01*
X141090000Y-44632857D01*
X141090000Y-44767143D01*
X141124755Y-44896853D01*
X141155440Y-44950000D01*
X138450000Y-44950000D01*
X138450000Y-45597844D01*
X138456401Y-45657372D01*
X138456403Y-45657379D01*
X138506645Y-45792086D01*
X138506649Y-45792093D01*
X138592809Y-45907187D01*
X138592812Y-45907190D01*
X138707906Y-45993350D01*
X138707913Y-45993354D01*
X138785617Y-46022336D01*
X138841551Y-46064207D01*
X138865968Y-46129672D01*
X138851116Y-46197945D01*
X138811179Y-46241617D01*
X138805448Y-46245446D01*
X138761132Y-46311769D01*
X138761131Y-46311770D01*
X138749500Y-46370247D01*
X138749500Y-46815500D01*
X138729815Y-46882539D01*
X138677011Y-46928294D01*
X138625500Y-46939500D01*
X138411698Y-46939500D01*
X138381127Y-46947691D01*
X138335268Y-46959979D01*
X138335267Y-46959980D01*
X138289423Y-46986449D01*
X138289422Y-46986450D01*
X138266750Y-46999539D01*
X138266747Y-46999541D01*
X134692598Y-50573691D01*
X134631275Y-50607176D01*
X134604917Y-50610010D01*
X132862017Y-50610010D01*
X132803540Y-50621641D01*
X132803539Y-50621642D01*
X132737217Y-50665957D01*
X132692902Y-50732279D01*
X132692901Y-50732280D01*
X132681270Y-50790757D01*
X132680673Y-50796822D01*
X132678087Y-50796567D01*
X132661585Y-50852769D01*
X132608781Y-50898524D01*
X132557270Y-50909730D01*
X129961337Y-50909730D01*
X129902860Y-50921361D01*
X129902859Y-50921362D01*
X129836537Y-50965677D01*
X129792222Y-51031999D01*
X129792221Y-51032000D01*
X129780590Y-51090477D01*
X129780590Y-52529522D01*
X129792221Y-52587999D01*
X129792222Y-52588000D01*
X129836537Y-52654322D01*
X129902859Y-52698637D01*
X129902860Y-52698638D01*
X129961337Y-52710269D01*
X129961340Y-52710270D01*
X129961342Y-52710270D01*
X132557270Y-52710270D01*
X132624309Y-52729955D01*
X132670064Y-52782759D01*
X132678895Y-52823353D01*
X132680673Y-52823178D01*
X132681270Y-52829242D01*
X132692901Y-52887719D01*
X132692902Y-52887720D01*
X132737217Y-52954042D01*
X132803539Y-52998357D01*
X132803540Y-52998358D01*
X132862017Y-53009989D01*
X132862020Y-53009990D01*
X132862022Y-53009990D01*
X134900500Y-53009990D01*
X134900501Y-53009989D01*
X134915318Y-53007042D01*
X134958979Y-52998358D01*
X134958979Y-52998357D01*
X134958981Y-52998357D01*
X135025302Y-52954042D01*
X135069617Y-52887721D01*
X135069617Y-52887719D01*
X135069618Y-52887719D01*
X135081249Y-52829242D01*
X135081250Y-52829240D01*
X135081250Y-51086343D01*
X135100935Y-51019304D01*
X135117569Y-50998662D01*
X138537819Y-47578412D01*
X138599142Y-47544927D01*
X138668834Y-47549911D01*
X138724767Y-47591783D01*
X138749184Y-47657247D01*
X138749500Y-47666093D01*
X138749500Y-48109752D01*
X138761131Y-48168229D01*
X138761132Y-48168230D01*
X138805447Y-48234552D01*
X138871769Y-48278867D01*
X138871770Y-48278868D01*
X138930247Y-48290499D01*
X138930250Y-48290500D01*
X138930252Y-48290500D01*
X141542299Y-48290500D01*
X141554453Y-48291097D01*
X141600000Y-48295583D01*
X141645547Y-48291097D01*
X141657701Y-48290500D01*
X142469750Y-48290500D01*
X142469751Y-48290499D01*
X142484568Y-48287552D01*
X142528229Y-48278868D01*
X142528229Y-48278867D01*
X142528231Y-48278867D01*
X142594552Y-48234552D01*
X142638867Y-48168231D01*
X142638867Y-48168229D01*
X142638868Y-48168229D01*
X142650499Y-48109752D01*
X142650500Y-48109750D01*
X142650500Y-47297699D01*
X142651097Y-47285545D01*
X142653182Y-47264376D01*
X142655583Y-47240000D01*
X142651097Y-47194453D01*
X142650500Y-47182299D01*
X142650500Y-46370249D01*
X142650499Y-46370247D01*
X142638868Y-46311770D01*
X142638867Y-46311769D01*
X142594551Y-46245446D01*
X142588823Y-46241619D01*
X142544018Y-46188006D01*
X142535312Y-46118681D01*
X142565468Y-46055654D01*
X142614382Y-46022336D01*
X142692086Y-45993354D01*
X142692093Y-45993350D01*
X142807187Y-45907190D01*
X142807190Y-45907187D01*
X142893350Y-45792093D01*
X142893354Y-45792086D01*
X142943596Y-45657379D01*
X142943598Y-45657372D01*
X142949999Y-45597844D01*
X142950000Y-45597827D01*
X142950000Y-44950000D01*
X142044560Y-44950000D01*
X142075245Y-44896853D01*
X142110000Y-44767143D01*
X142110000Y-44632857D01*
X142075245Y-44503147D01*
X142044560Y-44450000D01*
X142950000Y-44450000D01*
X142950000Y-43802172D01*
X142949999Y-43802155D01*
X142943598Y-43742627D01*
X142943596Y-43742620D01*
X142893354Y-43607913D01*
X142893350Y-43607906D01*
X142807190Y-43492812D01*
X142807187Y-43492809D01*
X142692093Y-43406649D01*
X142692087Y-43406646D01*
X142614381Y-43377663D01*
X142558448Y-43335791D01*
X142534031Y-43270327D01*
X142548883Y-43202054D01*
X142588826Y-43158377D01*
X142594552Y-43154552D01*
X142638867Y-43088231D01*
X142638867Y-43088229D01*
X142638868Y-43088229D01*
X142650499Y-43029752D01*
X142650500Y-43029750D01*
X142650500Y-42878543D01*
X147064499Y-42878543D01*
X147102947Y-43071829D01*
X147102950Y-43071839D01*
X147178364Y-43253907D01*
X147178371Y-43253920D01*
X147287860Y-43417781D01*
X147287863Y-43417785D01*
X147427214Y-43557136D01*
X147427218Y-43557139D01*
X147591079Y-43666628D01*
X147591092Y-43666635D01*
X147773160Y-43742049D01*
X147773165Y-43742051D01*
X147773169Y-43742051D01*
X147773170Y-43742052D01*
X147966456Y-43780500D01*
X147966459Y-43780500D01*
X148163543Y-43780500D01*
X148293582Y-43754632D01*
X148356835Y-43742051D01*
X148538914Y-43666632D01*
X148702782Y-43557139D01*
X148842139Y-43417782D01*
X148951632Y-43253914D01*
X149027051Y-43071835D01*
X149044057Y-42986343D01*
X149065500Y-42878543D01*
X151914499Y-42878543D01*
X151952947Y-43071829D01*
X151952950Y-43071839D01*
X152028364Y-43253907D01*
X152028371Y-43253920D01*
X152137860Y-43417781D01*
X152137863Y-43417785D01*
X152277214Y-43557136D01*
X152277218Y-43557139D01*
X152441079Y-43666628D01*
X152441092Y-43666635D01*
X152623160Y-43742049D01*
X152623165Y-43742051D01*
X152623169Y-43742051D01*
X152623170Y-43742052D01*
X152816456Y-43780500D01*
X152816459Y-43780500D01*
X153013543Y-43780500D01*
X153143582Y-43754632D01*
X153206835Y-43742051D01*
X153388914Y-43666632D01*
X153552782Y-43557139D01*
X153692139Y-43417782D01*
X153801632Y-43253914D01*
X153877051Y-43071835D01*
X153894057Y-42986343D01*
X153915500Y-42878543D01*
X153915500Y-42681456D01*
X153877052Y-42488170D01*
X153877051Y-42488169D01*
X153877051Y-42488165D01*
X153877049Y-42488160D01*
X153801635Y-42306092D01*
X153801628Y-42306079D01*
X153692139Y-42142218D01*
X153692136Y-42142214D01*
X153552785Y-42002863D01*
X153552781Y-42002860D01*
X153388920Y-41893371D01*
X153388907Y-41893364D01*
X153206839Y-41817950D01*
X153206829Y-41817947D01*
X153013543Y-41779500D01*
X153013541Y-41779500D01*
X152816459Y-41779500D01*
X152816457Y-41779500D01*
X152623170Y-41817947D01*
X152623160Y-41817950D01*
X152441092Y-41893364D01*
X152441079Y-41893371D01*
X152277218Y-42002860D01*
X152277214Y-42002863D01*
X152137863Y-42142214D01*
X152137860Y-42142218D01*
X152028371Y-42306079D01*
X152028364Y-42306092D01*
X151952950Y-42488160D01*
X151952947Y-42488170D01*
X151914500Y-42681456D01*
X151914500Y-42681459D01*
X151914500Y-42878541D01*
X151914500Y-42878543D01*
X151914499Y-42878543D01*
X149065500Y-42878543D01*
X149065500Y-42681456D01*
X149027052Y-42488170D01*
X149027051Y-42488169D01*
X149027051Y-42488165D01*
X149027049Y-42488160D01*
X148951635Y-42306092D01*
X148951628Y-42306079D01*
X148842139Y-42142218D01*
X148842136Y-42142214D01*
X148702785Y-42002863D01*
X148702781Y-42002860D01*
X148538920Y-41893371D01*
X148538907Y-41893364D01*
X148356839Y-41817950D01*
X148356829Y-41817947D01*
X148163543Y-41779500D01*
X148163541Y-41779500D01*
X147966459Y-41779500D01*
X147966457Y-41779500D01*
X147773170Y-41817947D01*
X147773160Y-41817950D01*
X147591092Y-41893364D01*
X147591079Y-41893371D01*
X147427218Y-42002860D01*
X147427214Y-42002863D01*
X147287863Y-42142214D01*
X147287860Y-42142218D01*
X147178371Y-42306079D01*
X147178364Y-42306092D01*
X147102950Y-42488160D01*
X147102947Y-42488170D01*
X147064500Y-42681456D01*
X147064500Y-42681459D01*
X147064500Y-42878541D01*
X147064500Y-42878543D01*
X147064499Y-42878543D01*
X142650500Y-42878543D01*
X142650500Y-42217699D01*
X142651097Y-42205545D01*
X142651871Y-42197684D01*
X142655583Y-42160000D01*
X142651097Y-42114453D01*
X142650500Y-42102299D01*
X142650500Y-41290249D01*
X142650499Y-41290247D01*
X142638868Y-41231770D01*
X142638867Y-41231769D01*
X142594552Y-41165447D01*
X142528230Y-41121132D01*
X142528229Y-41121131D01*
X142469752Y-41109500D01*
X142469748Y-41109500D01*
X141657701Y-41109500D01*
X141645547Y-41108903D01*
X141600000Y-41104417D01*
X141554453Y-41108903D01*
X141542299Y-41109500D01*
X138930247Y-41109500D01*
X138871770Y-41121131D01*
X138871769Y-41121132D01*
X138805447Y-41165447D01*
X138761132Y-41231769D01*
X138761131Y-41231770D01*
X138749500Y-41290247D01*
X138749500Y-42415427D01*
X138729815Y-42482466D01*
X138713181Y-42503108D01*
X134692598Y-46523691D01*
X134631275Y-46557176D01*
X134604917Y-46560010D01*
X132862017Y-46560010D01*
X132803540Y-46571641D01*
X132803539Y-46571642D01*
X132737217Y-46615957D01*
X132692902Y-46682279D01*
X132692901Y-46682280D01*
X132681270Y-46740757D01*
X132680673Y-46746822D01*
X132678087Y-46746567D01*
X132661585Y-46802769D01*
X132608781Y-46848524D01*
X132557270Y-46859730D01*
X129961337Y-46859730D01*
X129902860Y-46871361D01*
X129902859Y-46871362D01*
X129836537Y-46915677D01*
X129792222Y-46981999D01*
X129792221Y-46982000D01*
X129780590Y-47040477D01*
X128379410Y-47040477D01*
X128379410Y-42990477D01*
X129780590Y-42990477D01*
X129780590Y-44429522D01*
X129792221Y-44487999D01*
X129792222Y-44488000D01*
X129836537Y-44554322D01*
X129902859Y-44598637D01*
X129902860Y-44598638D01*
X129961337Y-44610269D01*
X129961340Y-44610270D01*
X129961342Y-44610270D01*
X132557270Y-44610270D01*
X132624309Y-44629955D01*
X132670064Y-44682759D01*
X132678895Y-44723353D01*
X132680673Y-44723178D01*
X132681270Y-44729242D01*
X132692901Y-44787719D01*
X132692902Y-44787720D01*
X132737217Y-44854042D01*
X132803539Y-44898357D01*
X132803540Y-44898358D01*
X132862017Y-44909989D01*
X132862020Y-44909990D01*
X132862022Y-44909990D01*
X134900500Y-44909990D01*
X134900501Y-44909989D01*
X134915318Y-44907042D01*
X134958979Y-44898358D01*
X134958979Y-44898357D01*
X134958981Y-44898357D01*
X135025302Y-44854042D01*
X135069617Y-44787721D01*
X135069617Y-44787719D01*
X135069618Y-44787719D01*
X135081249Y-44729242D01*
X135081250Y-44729240D01*
X135081250Y-42986343D01*
X135100935Y-42919304D01*
X135117569Y-42898662D01*
X138059412Y-39956819D01*
X138120735Y-39923334D01*
X138147093Y-39920500D01*
X138625500Y-39920500D01*
X138692539Y-39940185D01*
X138738294Y-39992989D01*
X138749500Y-40044500D01*
X138749500Y-40489752D01*
X138761131Y-40548229D01*
X138761132Y-40548230D01*
X138805447Y-40614552D01*
X138871769Y-40658867D01*
X138871770Y-40658868D01*
X138930247Y-40670499D01*
X138930250Y-40670500D01*
X138930252Y-40670500D01*
X141542299Y-40670500D01*
X141554453Y-40671097D01*
X141600000Y-40675583D01*
X141645547Y-40671097D01*
X141657701Y-40670500D01*
X142469750Y-40670500D01*
X142469751Y-40670499D01*
X142484568Y-40667552D01*
X142528229Y-40658868D01*
X142528229Y-40658867D01*
X142528231Y-40658867D01*
X142594552Y-40614552D01*
X142638867Y-40548231D01*
X142638867Y-40548229D01*
X142638868Y-40548229D01*
X142650499Y-40489752D01*
X142650500Y-40489750D01*
X142650500Y-39677699D01*
X142651097Y-39665545D01*
X142651697Y-39659454D01*
X142655583Y-39620000D01*
X142651097Y-39574453D01*
X142650500Y-39562299D01*
X142650500Y-38894500D01*
X142670185Y-38827461D01*
X142722989Y-38781706D01*
X142774500Y-38770500D01*
X146818084Y-38770500D01*
X146885123Y-38790185D01*
X146930878Y-38842989D01*
X146940822Y-38912147D01*
X146911797Y-38975703D01*
X146905765Y-38982181D01*
X146887445Y-39000500D01*
X146887441Y-39000505D01*
X146781006Y-39147002D01*
X146698788Y-39308360D01*
X146698787Y-39308363D01*
X146642829Y-39480589D01*
X146614500Y-39659448D01*
X146614500Y-39840551D01*
X146642829Y-40019410D01*
X146698787Y-40191636D01*
X146698788Y-40191639D01*
X146735871Y-40264417D01*
X146776813Y-40344769D01*
X146781006Y-40352997D01*
X146887441Y-40499494D01*
X146887445Y-40499499D01*
X147015500Y-40627554D01*
X147015505Y-40627558D01*
X147081607Y-40675583D01*
X147162006Y-40733996D01*
X147267484Y-40787740D01*
X147323360Y-40816211D01*
X147323363Y-40816212D01*
X147409476Y-40844191D01*
X147495591Y-40872171D01*
X147578429Y-40885291D01*
X147674449Y-40900500D01*
X147674454Y-40900500D01*
X147855551Y-40900500D01*
X147942758Y-40886687D01*
X148034409Y-40872171D01*
X148206639Y-40816211D01*
X148367994Y-40733996D01*
X148514501Y-40627553D01*
X148642553Y-40499501D01*
X148748996Y-40352994D01*
X148831211Y-40191639D01*
X148887171Y-40019409D01*
X148907077Y-39893729D01*
X148915500Y-39840551D01*
X148915500Y-39659448D01*
X148890057Y-39498815D01*
X148887171Y-39480591D01*
X148852599Y-39374187D01*
X148831212Y-39308363D01*
X148831211Y-39308360D01*
X148766988Y-39182318D01*
X148748996Y-39147006D01*
X148681863Y-39054605D01*
X148642558Y-39000505D01*
X148642554Y-39000500D01*
X148624235Y-38982181D01*
X148590750Y-38920858D01*
X148595734Y-38851166D01*
X148637606Y-38795233D01*
X148703070Y-38770816D01*
X148711916Y-38770500D01*
X152268084Y-38770500D01*
X152335123Y-38790185D01*
X152380878Y-38842989D01*
X152390822Y-38912147D01*
X152361797Y-38975703D01*
X152355765Y-38982181D01*
X152337445Y-39000500D01*
X152337441Y-39000505D01*
X152231006Y-39147002D01*
X152148788Y-39308360D01*
X152148787Y-39308363D01*
X152092829Y-39480589D01*
X152064500Y-39659448D01*
X152064500Y-39840551D01*
X152092829Y-40019410D01*
X152148787Y-40191636D01*
X152148788Y-40191639D01*
X152185871Y-40264417D01*
X152226813Y-40344769D01*
X152231006Y-40352997D01*
X152337441Y-40499494D01*
X152337445Y-40499499D01*
X152465500Y-40627554D01*
X152465505Y-40627558D01*
X152531607Y-40675583D01*
X152612006Y-40733996D01*
X152717484Y-40787740D01*
X152773360Y-40816211D01*
X152773363Y-40816212D01*
X152859476Y-40844191D01*
X152945591Y-40872171D01*
X153028429Y-40885291D01*
X153124449Y-40900500D01*
X153124454Y-40900500D01*
X153305551Y-40900500D01*
X153392758Y-40886687D01*
X153484409Y-40872171D01*
X153656639Y-40816211D01*
X153817994Y-40733996D01*
X153964501Y-40627553D01*
X154092553Y-40499501D01*
X154198996Y-40352994D01*
X154281211Y-40191639D01*
X154337171Y-40019409D01*
X154357077Y-39893729D01*
X154365500Y-39840551D01*
X154365500Y-39659448D01*
X154340057Y-39498815D01*
X154337171Y-39480591D01*
X154302599Y-39374187D01*
X154281212Y-39308363D01*
X154281211Y-39308360D01*
X154216988Y-39182318D01*
X154198996Y-39147006D01*
X154131863Y-39054605D01*
X154092558Y-39000505D01*
X154092554Y-39000500D01*
X154074235Y-38982181D01*
X154040750Y-38920858D01*
X154045734Y-38851166D01*
X154087606Y-38795233D01*
X154153070Y-38770816D01*
X154161916Y-38770500D01*
X155514167Y-38770500D01*
X155581206Y-38790185D01*
X155601848Y-38806819D01*
X158293181Y-41498152D01*
X158326666Y-41559475D01*
X158329500Y-41585833D01*
X158329500Y-42102299D01*
X158328902Y-42114453D01*
X158324417Y-42160000D01*
X158328129Y-42197684D01*
X158328903Y-42205545D01*
X158329500Y-42217699D01*
X158329500Y-43029752D01*
X158341131Y-43088229D01*
X158341132Y-43088230D01*
X158385447Y-43154552D01*
X158391175Y-43158379D01*
X158435980Y-43211991D01*
X158444687Y-43281316D01*
X158414533Y-43344343D01*
X158365618Y-43377662D01*
X158287917Y-43406643D01*
X158287906Y-43406649D01*
X158172812Y-43492809D01*
X158172809Y-43492812D01*
X158086649Y-43607906D01*
X158086645Y-43607913D01*
X158036403Y-43742620D01*
X158036401Y-43742627D01*
X158030000Y-43802155D01*
X158030000Y-44450000D01*
X158935440Y-44450000D01*
X158904755Y-44503147D01*
X158870000Y-44632857D01*
X158870000Y-44767143D01*
X158904755Y-44896853D01*
X158935440Y-44950000D01*
X158030000Y-44950000D01*
X158030000Y-45597844D01*
X158036401Y-45657372D01*
X158036403Y-45657379D01*
X158086645Y-45792086D01*
X158086649Y-45792093D01*
X158172809Y-45907187D01*
X158172812Y-45907190D01*
X158287906Y-45993350D01*
X158287913Y-45993354D01*
X158365617Y-46022336D01*
X158421551Y-46064207D01*
X158445968Y-46129672D01*
X158431116Y-46197945D01*
X158391179Y-46241617D01*
X158385448Y-46245446D01*
X158341132Y-46311769D01*
X158341131Y-46311770D01*
X158329500Y-46370247D01*
X158329500Y-47182299D01*
X158328903Y-47194453D01*
X158324417Y-47239999D01*
X158328903Y-47285545D01*
X158329500Y-47297699D01*
X158329500Y-48109752D01*
X158341131Y-48168229D01*
X158341132Y-48168230D01*
X158385447Y-48234552D01*
X158451769Y-48278867D01*
X158451770Y-48278868D01*
X158510247Y-48290499D01*
X158510250Y-48290500D01*
X158510252Y-48290500D01*
X159322299Y-48290500D01*
X159334453Y-48291097D01*
X159380000Y-48295583D01*
X159425547Y-48291097D01*
X159437701Y-48290500D01*
X162049750Y-48290500D01*
X162049751Y-48290499D01*
X162064568Y-48287552D01*
X162108229Y-48278868D01*
X162108229Y-48278867D01*
X162108231Y-48278867D01*
X162174552Y-48234552D01*
X162218867Y-48168231D01*
X162218867Y-48168229D01*
X162218868Y-48168229D01*
X162230499Y-48109752D01*
X162230500Y-48109750D01*
X162230500Y-46370249D01*
X162230499Y-46370247D01*
X162218868Y-46311770D01*
X162218867Y-46311769D01*
X162174551Y-46245446D01*
X162168823Y-46241619D01*
X162124018Y-46188006D01*
X162115312Y-46118681D01*
X162145468Y-46055654D01*
X162194382Y-46022336D01*
X162272086Y-45993354D01*
X162272093Y-45993350D01*
X162387187Y-45907190D01*
X162387190Y-45907187D01*
X162473350Y-45792093D01*
X162473354Y-45792086D01*
X162523596Y-45657379D01*
X162523598Y-45657372D01*
X162529999Y-45597844D01*
X162530000Y-45597827D01*
X162530000Y-44950000D01*
X159824560Y-44950000D01*
X159855245Y-44896853D01*
X159890000Y-44767143D01*
X159890000Y-44632857D01*
X159855245Y-44503147D01*
X159824560Y-44450000D01*
X162530000Y-44450000D01*
X162530000Y-43802172D01*
X162529999Y-43802155D01*
X162523598Y-43742627D01*
X162523596Y-43742620D01*
X162473354Y-43607913D01*
X162473350Y-43607906D01*
X162387190Y-43492812D01*
X162387187Y-43492809D01*
X162272093Y-43406649D01*
X162272087Y-43406646D01*
X162194381Y-43377663D01*
X162138448Y-43335791D01*
X162114031Y-43270327D01*
X162128883Y-43202054D01*
X162168826Y-43158377D01*
X162174552Y-43154552D01*
X162218867Y-43088231D01*
X162218867Y-43088229D01*
X162218868Y-43088229D01*
X162230499Y-43029752D01*
X162230500Y-43029750D01*
X162230500Y-41290249D01*
X162230499Y-41290247D01*
X162218868Y-41231770D01*
X162218867Y-41231769D01*
X162174552Y-41165447D01*
X162108230Y-41121132D01*
X162108229Y-41121131D01*
X162049752Y-41109500D01*
X162049748Y-41109500D01*
X159437701Y-41109500D01*
X159425547Y-41108903D01*
X159380000Y-41104417D01*
X159334453Y-41108903D01*
X159322299Y-41109500D01*
X158805833Y-41109500D01*
X158738794Y-41089815D01*
X158718152Y-41073181D01*
X158527152Y-40882181D01*
X158493667Y-40820858D01*
X158498651Y-40751166D01*
X158540523Y-40695233D01*
X158605987Y-40670816D01*
X158614833Y-40670500D01*
X159322299Y-40670500D01*
X159334453Y-40671097D01*
X159380000Y-40675583D01*
X159425547Y-40671097D01*
X159437701Y-40670500D01*
X162049750Y-40670500D01*
X162049751Y-40670499D01*
X162064568Y-40667552D01*
X162108229Y-40658868D01*
X162108229Y-40658867D01*
X162108231Y-40658867D01*
X162174552Y-40614552D01*
X162218867Y-40548231D01*
X162218867Y-40548229D01*
X162218868Y-40548229D01*
X162230499Y-40489752D01*
X162230500Y-40489750D01*
X162230500Y-38750249D01*
X162230499Y-38750247D01*
X162218868Y-38691770D01*
X162218867Y-38691769D01*
X162174552Y-38625447D01*
X162108230Y-38581132D01*
X162108229Y-38581131D01*
X162049752Y-38569500D01*
X162049748Y-38569500D01*
X159437701Y-38569500D01*
X159425547Y-38568903D01*
X159380000Y-38564417D01*
X159334453Y-38568903D01*
X159322299Y-38569500D01*
X158510247Y-38569500D01*
X158451770Y-38581131D01*
X158451769Y-38581132D01*
X158385447Y-38625447D01*
X158341132Y-38691769D01*
X158341131Y-38691770D01*
X158329500Y-38750247D01*
X158329500Y-39562299D01*
X158328902Y-39574453D01*
X158324417Y-39620000D01*
X158328302Y-39659448D01*
X158328903Y-39665545D01*
X158329500Y-39677699D01*
X158329500Y-40385167D01*
X158309815Y-40452206D01*
X158257011Y-40497961D01*
X158187853Y-40507905D01*
X158124297Y-40478880D01*
X158117819Y-40472848D01*
X155874512Y-38229541D01*
X155874504Y-38229535D01*
X155805995Y-38189982D01*
X155805990Y-38189979D01*
X155780513Y-38183152D01*
X155729562Y-38169500D01*
X134990438Y-38169500D01*
X134914011Y-38189979D01*
X134914009Y-38189980D01*
X134906161Y-38192083D01*
X134905352Y-38189063D01*
X134850526Y-38194925D01*
X134788066Y-38163612D01*
X134772846Y-38146541D01*
X134722151Y-38077851D01*
X134688724Y-38053181D01*
X134612882Y-37997207D01*
X134612880Y-37997206D01*
X134484700Y-37952353D01*
X134454270Y-37949500D01*
X134454266Y-37949500D01*
X130345734Y-37949500D01*
X130345730Y-37949500D01*
X130315300Y-37952353D01*
X130315298Y-37952353D01*
X130187119Y-37997206D01*
X130187117Y-37997207D01*
X130077850Y-38077850D01*
X129997207Y-38187117D01*
X129997206Y-38187119D01*
X129952353Y-38315298D01*
X129952353Y-38315300D01*
X129949500Y-38345730D01*
X129949500Y-40654269D01*
X129952353Y-40684699D01*
X129952353Y-40684701D01*
X129997206Y-40812880D01*
X129997207Y-40812882D01*
X130077850Y-40922150D01*
X130187118Y-41002793D01*
X130226765Y-41016666D01*
X130315299Y-41047646D01*
X130345730Y-41050500D01*
X130345734Y-41050500D01*
X134454270Y-41050500D01*
X134484699Y-41047646D01*
X134484701Y-41047646D01*
X134548790Y-41025219D01*
X134612882Y-41002793D01*
X134722150Y-40922150D01*
X134802793Y-40812882D01*
X134830396Y-40733996D01*
X134847646Y-40684701D01*
X134847646Y-40684699D01*
X134850500Y-40654269D01*
X134850500Y-39125833D01*
X134870185Y-39058794D01*
X134886819Y-39038152D01*
X135118152Y-38806819D01*
X135179475Y-38773334D01*
X135205833Y-38770500D01*
X138625500Y-38770500D01*
X138692539Y-38790185D01*
X138738294Y-38842989D01*
X138749500Y-38894500D01*
X138749500Y-39195500D01*
X138729815Y-39262539D01*
X138677011Y-39308294D01*
X138625500Y-39319500D01*
X137931698Y-39319500D01*
X137893484Y-39329739D01*
X137855269Y-39339979D01*
X137819010Y-39360913D01*
X137796021Y-39374187D01*
X137789981Y-39377673D01*
X137786745Y-39379542D01*
X137786744Y-39379543D01*
X134692598Y-42473691D01*
X134631275Y-42507176D01*
X134604917Y-42510010D01*
X132862017Y-42510010D01*
X132803540Y-42521641D01*
X132803539Y-42521642D01*
X132737217Y-42565957D01*
X132692902Y-42632279D01*
X132692901Y-42632280D01*
X132681270Y-42690757D01*
X132680673Y-42696822D01*
X132678087Y-42696567D01*
X132661585Y-42752769D01*
X132608781Y-42798524D01*
X132557270Y-42809730D01*
X129961337Y-42809730D01*
X129902860Y-42821361D01*
X129902859Y-42821362D01*
X129836537Y-42865677D01*
X129792222Y-42931999D01*
X129792221Y-42932000D01*
X129780590Y-42990477D01*
X128379410Y-42990477D01*
X128379410Y-39054604D01*
X128358931Y-38978177D01*
X128320809Y-38912147D01*
X128319374Y-38909661D01*
X128319368Y-38909653D01*
X127019256Y-37609541D01*
X127019251Y-37609537D01*
X127008478Y-37603317D01*
X127008476Y-37603317D01*
X126976193Y-37584678D01*
X126950734Y-37569979D01*
X126925257Y-37563152D01*
X126874306Y-37549500D01*
X122325694Y-37549500D01*
X122271704Y-37563967D01*
X122249263Y-37569980D01*
X122191523Y-37603317D01*
X122180748Y-37609537D01*
X122180743Y-37609541D01*
X121809541Y-37980743D01*
X121809535Y-37980751D01*
X121769982Y-38049260D01*
X121769979Y-38049265D01*
X121749500Y-38125695D01*
X121749500Y-40274167D01*
X121729815Y-40341206D01*
X121713181Y-40361848D01*
X121091848Y-40983181D01*
X121030525Y-41016666D01*
X121004167Y-41019500D01*
X119018579Y-41019500D01*
X118951540Y-40999815D01*
X118905785Y-40947011D01*
X118899919Y-40931497D01*
X118899677Y-40930701D01*
X118895232Y-40916046D01*
X118797685Y-40733550D01*
X118741428Y-40665000D01*
X118666410Y-40573589D01*
X118540794Y-40470500D01*
X118506450Y-40442315D01*
X118323954Y-40344768D01*
X118125934Y-40284700D01*
X118125932Y-40284699D01*
X118125934Y-40284699D01*
X117920000Y-40264417D01*
X117714067Y-40284699D01*
X117516039Y-40344770D01*
X117501800Y-40352381D01*
X117433397Y-40366620D01*
X117368154Y-40341616D01*
X117355672Y-40330701D01*
X116954512Y-39929541D01*
X116954507Y-39929537D01*
X116938853Y-39920499D01*
X116938851Y-39920499D01*
X116909297Y-39903436D01*
X116885990Y-39889979D01*
X116860513Y-39883152D01*
X116809562Y-39869500D01*
X114864092Y-39869500D01*
X114796693Y-39887559D01*
X114787661Y-39889980D01*
X114734802Y-39920499D01*
X114719146Y-39929537D01*
X114719141Y-39929541D01*
X112389541Y-42259141D01*
X112389535Y-42259149D01*
X112349982Y-42327658D01*
X112349979Y-42327663D01*
X112342574Y-42355300D01*
X112329500Y-42404092D01*
X111654709Y-42404092D01*
X111655442Y-42401358D01*
X111770227Y-42037300D01*
X111773927Y-42027137D01*
X111854679Y-41832181D01*
X111919993Y-41674492D01*
X111924564Y-41664691D01*
X112076578Y-41372665D01*
X112100815Y-41326105D01*
X112106212Y-41316754D01*
X112311323Y-40994784D01*
X112317505Y-40985957D01*
X112549884Y-40683102D01*
X112556813Y-40674844D01*
X112816012Y-40391963D01*
X112819689Y-40388123D01*
X114887534Y-38320279D01*
X114891388Y-38316589D01*
X115174862Y-38056830D01*
X115183126Y-38049896D01*
X115485978Y-37817508D01*
X115494813Y-37811322D01*
X115816753Y-37606223D01*
X115826118Y-37600818D01*
X115924699Y-37549500D01*
X116164708Y-37424560D01*
X116174480Y-37420003D01*
X116527142Y-37273928D01*
X116537305Y-37270229D01*
X116537321Y-37270224D01*
X116901363Y-37155444D01*
X116911772Y-37152655D01*
X117284464Y-37070035D01*
X117295090Y-37068161D01*
X117673534Y-37018342D01*
X117684310Y-37017400D01*
X118068794Y-37000617D01*
X118074197Y-37000500D01*
X118136953Y-37000501D01*
X118136957Y-37000500D01*
X170934108Y-37000500D01*
X170997294Y-37000500D01*
X171002702Y-37000617D01*
G37*
%TD.AperFunction*%
%TA.AperFunction,Conductor*%
G36*
X141124755Y-82603147D02*
G01*
X141090000Y-82732857D01*
X141090000Y-82867143D01*
X141124755Y-82996853D01*
X141155440Y-83050000D01*
X140574000Y-83050000D01*
X140506961Y-83030315D01*
X140461206Y-82977511D01*
X140450000Y-82926000D01*
X140450000Y-82674000D01*
X140469685Y-82606961D01*
X140522489Y-82561206D01*
X140574000Y-82550000D01*
X141155440Y-82550000D01*
X141124755Y-82603147D01*
G37*
%TD.AperFunction*%
%TD*%
M02*
