%TF.GenerationSoftware,KiCad,Pcbnew,8.0.4*%
%TF.CreationDate,2024-07-28T20:23:25+02:00*%
%TF.ProjectId,pico-modxo,7069636f-2d6d-46f6-9478-6f2e6b696361,1.0*%
%TF.SameCoordinates,Original*%
%TF.FileFunction,Drillmap*%
%TF.FilePolarity,Positive*%
%FSLAX45Y45*%
G04 Gerber Fmt 4.5, Leading zero omitted, Abs format (unit mm)*
G04 Created by KiCad (PCBNEW 8.0.4) date 2024-07-28 20:23:25*
%MOMM*%
%LPD*%
G01*
G04 APERTURE LIST*
%ADD10C,0.050000*%
%ADD11C,0.200000*%
%ADD12C,0.150000*%
%ADD13C,0.180000*%
G04 APERTURE END LIST*
D10*
X8500000Y-3100000D02*
G75*
G02*
X9000000Y-3600000I0J-500000D01*
G01*
X9000000Y-5392893D02*
G75*
G02*
X8853552Y-5746445I-500000J3D01*
G01*
X4500000Y-8300000D02*
X4500000Y-3600000D01*
X8853553Y-5746447D02*
X7746447Y-6853553D01*
X7600000Y-7207107D02*
X7600000Y-8300000D01*
X7100000Y-8800000D02*
X5000000Y-8800000D01*
X7600000Y-7207107D02*
G75*
G02*
X7746444Y-6853551I500020J-3D01*
G01*
X5000000Y-8800000D02*
G75*
G02*
X4500000Y-8300000I0J500000D01*
G01*
X7600000Y-8300000D02*
G75*
G02*
X7100000Y-8800000I-500000J0D01*
G01*
X9000000Y-3600000D02*
X9000000Y-5392893D01*
X4500000Y-3600000D02*
G75*
G02*
X5000000Y-3100000I500000J0D01*
G01*
X5000000Y-3100000D02*
X8500000Y-3100000D01*
D11*
D12*
X5643500Y-3811000D02*
X5793500Y-3961000D01*
X5793500Y-3811000D02*
X5643500Y-3961000D01*
X6128500Y-3811000D02*
X6278500Y-3961000D01*
X6278500Y-3811000D02*
X6128500Y-3961000D01*
D13*
X5778500Y-3583000D02*
G75*
G02*
X5598500Y-3583000I-90000J0D01*
G01*
X5598500Y-3583000D02*
G75*
G02*
X5778500Y-3583000I90000J0D01*
G01*
X6323500Y-3583000D02*
G75*
G02*
X6143500Y-3583000I-90000J0D01*
G01*
X6143500Y-3583000D02*
G75*
G02*
X6323500Y-3583000I90000J0D01*
G01*
D11*
X4758277Y-9113984D02*
X4758277Y-8913984D01*
X4758277Y-8913984D02*
X4805896Y-8913984D01*
X4805896Y-8913984D02*
X4834467Y-8923508D01*
X4834467Y-8923508D02*
X4853515Y-8942555D01*
X4853515Y-8942555D02*
X4863039Y-8961603D01*
X4863039Y-8961603D02*
X4872563Y-8999698D01*
X4872563Y-8999698D02*
X4872563Y-9028270D01*
X4872563Y-9028270D02*
X4863039Y-9066365D01*
X4863039Y-9066365D02*
X4853515Y-9085412D01*
X4853515Y-9085412D02*
X4834467Y-9104460D01*
X4834467Y-9104460D02*
X4805896Y-9113984D01*
X4805896Y-9113984D02*
X4758277Y-9113984D01*
X4958277Y-9113984D02*
X4958277Y-8980650D01*
X4958277Y-9018746D02*
X4967801Y-8999698D01*
X4967801Y-8999698D02*
X4977324Y-8990174D01*
X4977324Y-8990174D02*
X4996372Y-8980650D01*
X4996372Y-8980650D02*
X5015420Y-8980650D01*
X5082086Y-9113984D02*
X5082086Y-8980650D01*
X5082086Y-8913984D02*
X5072563Y-8923508D01*
X5072563Y-8923508D02*
X5082086Y-8933031D01*
X5082086Y-8933031D02*
X5091610Y-8923508D01*
X5091610Y-8923508D02*
X5082086Y-8913984D01*
X5082086Y-8913984D02*
X5082086Y-8933031D01*
X5205896Y-9113984D02*
X5186848Y-9104460D01*
X5186848Y-9104460D02*
X5177324Y-9085412D01*
X5177324Y-9085412D02*
X5177324Y-8913984D01*
X5310658Y-9113984D02*
X5291610Y-9104460D01*
X5291610Y-9104460D02*
X5282086Y-9085412D01*
X5282086Y-9085412D02*
X5282086Y-8913984D01*
X5539229Y-9113984D02*
X5539229Y-8913984D01*
X5539229Y-8913984D02*
X5605896Y-9056841D01*
X5605896Y-9056841D02*
X5672562Y-8913984D01*
X5672562Y-8913984D02*
X5672562Y-9113984D01*
X5853515Y-9113984D02*
X5853515Y-9009222D01*
X5853515Y-9009222D02*
X5843991Y-8990174D01*
X5843991Y-8990174D02*
X5824943Y-8980650D01*
X5824943Y-8980650D02*
X5786848Y-8980650D01*
X5786848Y-8980650D02*
X5767801Y-8990174D01*
X5853515Y-9104460D02*
X5834467Y-9113984D01*
X5834467Y-9113984D02*
X5786848Y-9113984D01*
X5786848Y-9113984D02*
X5767801Y-9104460D01*
X5767801Y-9104460D02*
X5758277Y-9085412D01*
X5758277Y-9085412D02*
X5758277Y-9066365D01*
X5758277Y-9066365D02*
X5767801Y-9047317D01*
X5767801Y-9047317D02*
X5786848Y-9037793D01*
X5786848Y-9037793D02*
X5834467Y-9037793D01*
X5834467Y-9037793D02*
X5853515Y-9028270D01*
X5948753Y-8980650D02*
X5948753Y-9180650D01*
X5948753Y-8990174D02*
X5967801Y-8980650D01*
X5967801Y-8980650D02*
X6005896Y-8980650D01*
X6005896Y-8980650D02*
X6024943Y-8990174D01*
X6024943Y-8990174D02*
X6034467Y-8999698D01*
X6034467Y-8999698D02*
X6043991Y-9018746D01*
X6043991Y-9018746D02*
X6043991Y-9075889D01*
X6043991Y-9075889D02*
X6034467Y-9094936D01*
X6034467Y-9094936D02*
X6024943Y-9104460D01*
X6024943Y-9104460D02*
X6005896Y-9113984D01*
X6005896Y-9113984D02*
X5967801Y-9113984D01*
X5967801Y-9113984D02*
X5948753Y-9104460D01*
X6129705Y-9094936D02*
X6139229Y-9104460D01*
X6139229Y-9104460D02*
X6129705Y-9113984D01*
X6129705Y-9113984D02*
X6120182Y-9104460D01*
X6120182Y-9104460D02*
X6129705Y-9094936D01*
X6129705Y-9094936D02*
X6129705Y-9113984D01*
X6129705Y-8990174D02*
X6139229Y-8999698D01*
X6139229Y-8999698D02*
X6129705Y-9009222D01*
X6129705Y-9009222D02*
X6120182Y-8999698D01*
X6120182Y-8999698D02*
X6129705Y-8990174D01*
X6129705Y-8990174D02*
X6129705Y-9009222D01*
D12*
X4347500Y-9367500D02*
X4497500Y-9517500D01*
X4497500Y-9367500D02*
X4347500Y-9517500D01*
D11*
X4863039Y-9533984D02*
X4748753Y-9533984D01*
X4805896Y-9533984D02*
X4805896Y-9333984D01*
X4805896Y-9333984D02*
X4786848Y-9362555D01*
X4786848Y-9362555D02*
X4767801Y-9381603D01*
X4767801Y-9381603D02*
X4748753Y-9391127D01*
X4948753Y-9514936D02*
X4958277Y-9524460D01*
X4958277Y-9524460D02*
X4948753Y-9533984D01*
X4948753Y-9533984D02*
X4939229Y-9524460D01*
X4939229Y-9524460D02*
X4948753Y-9514936D01*
X4948753Y-9514936D02*
X4948753Y-9533984D01*
X5139229Y-9333984D02*
X5043991Y-9333984D01*
X5043991Y-9333984D02*
X5034467Y-9429222D01*
X5034467Y-9429222D02*
X5043991Y-9419698D01*
X5043991Y-9419698D02*
X5063039Y-9410174D01*
X5063039Y-9410174D02*
X5110658Y-9410174D01*
X5110658Y-9410174D02*
X5129705Y-9419698D01*
X5129705Y-9419698D02*
X5139229Y-9429222D01*
X5139229Y-9429222D02*
X5148753Y-9448270D01*
X5148753Y-9448270D02*
X5148753Y-9495889D01*
X5148753Y-9495889D02*
X5139229Y-9514936D01*
X5139229Y-9514936D02*
X5129705Y-9524460D01*
X5129705Y-9524460D02*
X5110658Y-9533984D01*
X5110658Y-9533984D02*
X5063039Y-9533984D01*
X5063039Y-9533984D02*
X5043991Y-9524460D01*
X5043991Y-9524460D02*
X5034467Y-9514936D01*
X5272563Y-9333984D02*
X5291610Y-9333984D01*
X5291610Y-9333984D02*
X5310658Y-9343508D01*
X5310658Y-9343508D02*
X5320182Y-9353031D01*
X5320182Y-9353031D02*
X5329705Y-9372079D01*
X5329705Y-9372079D02*
X5339229Y-9410174D01*
X5339229Y-9410174D02*
X5339229Y-9457793D01*
X5339229Y-9457793D02*
X5329705Y-9495889D01*
X5329705Y-9495889D02*
X5320182Y-9514936D01*
X5320182Y-9514936D02*
X5310658Y-9524460D01*
X5310658Y-9524460D02*
X5291610Y-9533984D01*
X5291610Y-9533984D02*
X5272563Y-9533984D01*
X5272563Y-9533984D02*
X5253515Y-9524460D01*
X5253515Y-9524460D02*
X5243991Y-9514936D01*
X5243991Y-9514936D02*
X5234467Y-9495889D01*
X5234467Y-9495889D02*
X5224944Y-9457793D01*
X5224944Y-9457793D02*
X5224944Y-9410174D01*
X5224944Y-9410174D02*
X5234467Y-9372079D01*
X5234467Y-9372079D02*
X5243991Y-9353031D01*
X5243991Y-9353031D02*
X5253515Y-9343508D01*
X5253515Y-9343508D02*
X5272563Y-9333984D01*
X5463039Y-9333984D02*
X5482086Y-9333984D01*
X5482086Y-9333984D02*
X5501134Y-9343508D01*
X5501134Y-9343508D02*
X5510658Y-9353031D01*
X5510658Y-9353031D02*
X5520182Y-9372079D01*
X5520182Y-9372079D02*
X5529705Y-9410174D01*
X5529705Y-9410174D02*
X5529705Y-9457793D01*
X5529705Y-9457793D02*
X5520182Y-9495889D01*
X5520182Y-9495889D02*
X5510658Y-9514936D01*
X5510658Y-9514936D02*
X5501134Y-9524460D01*
X5501134Y-9524460D02*
X5482086Y-9533984D01*
X5482086Y-9533984D02*
X5463039Y-9533984D01*
X5463039Y-9533984D02*
X5443991Y-9524460D01*
X5443991Y-9524460D02*
X5434467Y-9514936D01*
X5434467Y-9514936D02*
X5424944Y-9495889D01*
X5424944Y-9495889D02*
X5415420Y-9457793D01*
X5415420Y-9457793D02*
X5415420Y-9410174D01*
X5415420Y-9410174D02*
X5424944Y-9372079D01*
X5424944Y-9372079D02*
X5434467Y-9353031D01*
X5434467Y-9353031D02*
X5443991Y-9343508D01*
X5443991Y-9343508D02*
X5463039Y-9333984D01*
X5615420Y-9533984D02*
X5615420Y-9400650D01*
X5615420Y-9419698D02*
X5624943Y-9410174D01*
X5624943Y-9410174D02*
X5643991Y-9400650D01*
X5643991Y-9400650D02*
X5672563Y-9400650D01*
X5672563Y-9400650D02*
X5691610Y-9410174D01*
X5691610Y-9410174D02*
X5701134Y-9429222D01*
X5701134Y-9429222D02*
X5701134Y-9533984D01*
X5701134Y-9429222D02*
X5710658Y-9410174D01*
X5710658Y-9410174D02*
X5729705Y-9400650D01*
X5729705Y-9400650D02*
X5758277Y-9400650D01*
X5758277Y-9400650D02*
X5777324Y-9410174D01*
X5777324Y-9410174D02*
X5786848Y-9429222D01*
X5786848Y-9429222D02*
X5786848Y-9533984D01*
X5882086Y-9533984D02*
X5882086Y-9400650D01*
X5882086Y-9419698D02*
X5891610Y-9410174D01*
X5891610Y-9410174D02*
X5910658Y-9400650D01*
X5910658Y-9400650D02*
X5939229Y-9400650D01*
X5939229Y-9400650D02*
X5958277Y-9410174D01*
X5958277Y-9410174D02*
X5967801Y-9429222D01*
X5967801Y-9429222D02*
X5967801Y-9533984D01*
X5967801Y-9429222D02*
X5977324Y-9410174D01*
X5977324Y-9410174D02*
X5996372Y-9400650D01*
X5996372Y-9400650D02*
X6024943Y-9400650D01*
X6024943Y-9400650D02*
X6043991Y-9410174D01*
X6043991Y-9410174D02*
X6053515Y-9429222D01*
X6053515Y-9429222D02*
X6053515Y-9533984D01*
X6443991Y-9324460D02*
X6272563Y-9581603D01*
X6701134Y-9333984D02*
X6720182Y-9333984D01*
X6720182Y-9333984D02*
X6739229Y-9343508D01*
X6739229Y-9343508D02*
X6748753Y-9353031D01*
X6748753Y-9353031D02*
X6758277Y-9372079D01*
X6758277Y-9372079D02*
X6767801Y-9410174D01*
X6767801Y-9410174D02*
X6767801Y-9457793D01*
X6767801Y-9457793D02*
X6758277Y-9495889D01*
X6758277Y-9495889D02*
X6748753Y-9514936D01*
X6748753Y-9514936D02*
X6739229Y-9524460D01*
X6739229Y-9524460D02*
X6720182Y-9533984D01*
X6720182Y-9533984D02*
X6701134Y-9533984D01*
X6701134Y-9533984D02*
X6682086Y-9524460D01*
X6682086Y-9524460D02*
X6672563Y-9514936D01*
X6672563Y-9514936D02*
X6663039Y-9495889D01*
X6663039Y-9495889D02*
X6653515Y-9457793D01*
X6653515Y-9457793D02*
X6653515Y-9410174D01*
X6653515Y-9410174D02*
X6663039Y-9372079D01*
X6663039Y-9372079D02*
X6672563Y-9353031D01*
X6672563Y-9353031D02*
X6682086Y-9343508D01*
X6682086Y-9343508D02*
X6701134Y-9333984D01*
X6853515Y-9514936D02*
X6863039Y-9524460D01*
X6863039Y-9524460D02*
X6853515Y-9533984D01*
X6853515Y-9533984D02*
X6843991Y-9524460D01*
X6843991Y-9524460D02*
X6853515Y-9514936D01*
X6853515Y-9514936D02*
X6853515Y-9533984D01*
X6986848Y-9333984D02*
X7005896Y-9333984D01*
X7005896Y-9333984D02*
X7024944Y-9343508D01*
X7024944Y-9343508D02*
X7034467Y-9353031D01*
X7034467Y-9353031D02*
X7043991Y-9372079D01*
X7043991Y-9372079D02*
X7053515Y-9410174D01*
X7053515Y-9410174D02*
X7053515Y-9457793D01*
X7053515Y-9457793D02*
X7043991Y-9495889D01*
X7043991Y-9495889D02*
X7034467Y-9514936D01*
X7034467Y-9514936D02*
X7024944Y-9524460D01*
X7024944Y-9524460D02*
X7005896Y-9533984D01*
X7005896Y-9533984D02*
X6986848Y-9533984D01*
X6986848Y-9533984D02*
X6967801Y-9524460D01*
X6967801Y-9524460D02*
X6958277Y-9514936D01*
X6958277Y-9514936D02*
X6948753Y-9495889D01*
X6948753Y-9495889D02*
X6939229Y-9457793D01*
X6939229Y-9457793D02*
X6939229Y-9410174D01*
X6939229Y-9410174D02*
X6948753Y-9372079D01*
X6948753Y-9372079D02*
X6958277Y-9353031D01*
X6958277Y-9353031D02*
X6967801Y-9343508D01*
X6967801Y-9343508D02*
X6986848Y-9333984D01*
X7234467Y-9333984D02*
X7139229Y-9333984D01*
X7139229Y-9333984D02*
X7129706Y-9429222D01*
X7129706Y-9429222D02*
X7139229Y-9419698D01*
X7139229Y-9419698D02*
X7158277Y-9410174D01*
X7158277Y-9410174D02*
X7205896Y-9410174D01*
X7205896Y-9410174D02*
X7224944Y-9419698D01*
X7224944Y-9419698D02*
X7234467Y-9429222D01*
X7234467Y-9429222D02*
X7243991Y-9448270D01*
X7243991Y-9448270D02*
X7243991Y-9495889D01*
X7243991Y-9495889D02*
X7234467Y-9514936D01*
X7234467Y-9514936D02*
X7224944Y-9524460D01*
X7224944Y-9524460D02*
X7205896Y-9533984D01*
X7205896Y-9533984D02*
X7158277Y-9533984D01*
X7158277Y-9533984D02*
X7139229Y-9524460D01*
X7139229Y-9524460D02*
X7129706Y-9514936D01*
X7339229Y-9533984D02*
X7377325Y-9533984D01*
X7377325Y-9533984D02*
X7396372Y-9524460D01*
X7396372Y-9524460D02*
X7405896Y-9514936D01*
X7405896Y-9514936D02*
X7424944Y-9486365D01*
X7424944Y-9486365D02*
X7434467Y-9448270D01*
X7434467Y-9448270D02*
X7434467Y-9372079D01*
X7434467Y-9372079D02*
X7424944Y-9353031D01*
X7424944Y-9353031D02*
X7415420Y-9343508D01*
X7415420Y-9343508D02*
X7396372Y-9333984D01*
X7396372Y-9333984D02*
X7358277Y-9333984D01*
X7358277Y-9333984D02*
X7339229Y-9343508D01*
X7339229Y-9343508D02*
X7329706Y-9353031D01*
X7329706Y-9353031D02*
X7320182Y-9372079D01*
X7320182Y-9372079D02*
X7320182Y-9419698D01*
X7320182Y-9419698D02*
X7329706Y-9438746D01*
X7329706Y-9438746D02*
X7339229Y-9448270D01*
X7339229Y-9448270D02*
X7358277Y-9457793D01*
X7358277Y-9457793D02*
X7396372Y-9457793D01*
X7396372Y-9457793D02*
X7415420Y-9448270D01*
X7415420Y-9448270D02*
X7424944Y-9438746D01*
X7424944Y-9438746D02*
X7434467Y-9419698D01*
X7624944Y-9533984D02*
X7510658Y-9533984D01*
X7567801Y-9533984D02*
X7567801Y-9333984D01*
X7567801Y-9333984D02*
X7548753Y-9362555D01*
X7548753Y-9362555D02*
X7529706Y-9381603D01*
X7529706Y-9381603D02*
X7510658Y-9391127D01*
X7701134Y-9333984D02*
X7701134Y-9372079D01*
X7777325Y-9333984D02*
X7777325Y-9372079D01*
X8072563Y-9610174D02*
X8063039Y-9600650D01*
X8063039Y-9600650D02*
X8043991Y-9572079D01*
X8043991Y-9572079D02*
X8034468Y-9553031D01*
X8034468Y-9553031D02*
X8024944Y-9524460D01*
X8024944Y-9524460D02*
X8015420Y-9476841D01*
X8015420Y-9476841D02*
X8015420Y-9438746D01*
X8015420Y-9438746D02*
X8024944Y-9391127D01*
X8024944Y-9391127D02*
X8034468Y-9362555D01*
X8034468Y-9362555D02*
X8043991Y-9343508D01*
X8043991Y-9343508D02*
X8063039Y-9314936D01*
X8063039Y-9314936D02*
X8072563Y-9305412D01*
X8139229Y-9353031D02*
X8148753Y-9343508D01*
X8148753Y-9343508D02*
X8167801Y-9333984D01*
X8167801Y-9333984D02*
X8215420Y-9333984D01*
X8215420Y-9333984D02*
X8234468Y-9343508D01*
X8234468Y-9343508D02*
X8243991Y-9353031D01*
X8243991Y-9353031D02*
X8253515Y-9372079D01*
X8253515Y-9372079D02*
X8253515Y-9391127D01*
X8253515Y-9391127D02*
X8243991Y-9419698D01*
X8243991Y-9419698D02*
X8129706Y-9533984D01*
X8129706Y-9533984D02*
X8253515Y-9533984D01*
X8491611Y-9533984D02*
X8491611Y-9333984D01*
X8577325Y-9533984D02*
X8577325Y-9429222D01*
X8577325Y-9429222D02*
X8567801Y-9410174D01*
X8567801Y-9410174D02*
X8548753Y-9400650D01*
X8548753Y-9400650D02*
X8520182Y-9400650D01*
X8520182Y-9400650D02*
X8501134Y-9410174D01*
X8501134Y-9410174D02*
X8491611Y-9419698D01*
X8701134Y-9533984D02*
X8682087Y-9524460D01*
X8682087Y-9524460D02*
X8672563Y-9514936D01*
X8672563Y-9514936D02*
X8663039Y-9495889D01*
X8663039Y-9495889D02*
X8663039Y-9438746D01*
X8663039Y-9438746D02*
X8672563Y-9419698D01*
X8672563Y-9419698D02*
X8682087Y-9410174D01*
X8682087Y-9410174D02*
X8701134Y-9400650D01*
X8701134Y-9400650D02*
X8729706Y-9400650D01*
X8729706Y-9400650D02*
X8748753Y-9410174D01*
X8748753Y-9410174D02*
X8758277Y-9419698D01*
X8758277Y-9419698D02*
X8767801Y-9438746D01*
X8767801Y-9438746D02*
X8767801Y-9495889D01*
X8767801Y-9495889D02*
X8758277Y-9514936D01*
X8758277Y-9514936D02*
X8748753Y-9524460D01*
X8748753Y-9524460D02*
X8729706Y-9533984D01*
X8729706Y-9533984D02*
X8701134Y-9533984D01*
X8882087Y-9533984D02*
X8863039Y-9524460D01*
X8863039Y-9524460D02*
X8853515Y-9505412D01*
X8853515Y-9505412D02*
X8853515Y-9333984D01*
X9034468Y-9524460D02*
X9015420Y-9533984D01*
X9015420Y-9533984D02*
X8977325Y-9533984D01*
X8977325Y-9533984D02*
X8958277Y-9524460D01*
X8958277Y-9524460D02*
X8948753Y-9505412D01*
X8948753Y-9505412D02*
X8948753Y-9429222D01*
X8948753Y-9429222D02*
X8958277Y-9410174D01*
X8958277Y-9410174D02*
X8977325Y-9400650D01*
X8977325Y-9400650D02*
X9015420Y-9400650D01*
X9015420Y-9400650D02*
X9034468Y-9410174D01*
X9034468Y-9410174D02*
X9043992Y-9429222D01*
X9043992Y-9429222D02*
X9043992Y-9448270D01*
X9043992Y-9448270D02*
X8948753Y-9467317D01*
X9120182Y-9524460D02*
X9139230Y-9533984D01*
X9139230Y-9533984D02*
X9177325Y-9533984D01*
X9177325Y-9533984D02*
X9196373Y-9524460D01*
X9196373Y-9524460D02*
X9205896Y-9505412D01*
X9205896Y-9505412D02*
X9205896Y-9495889D01*
X9205896Y-9495889D02*
X9196373Y-9476841D01*
X9196373Y-9476841D02*
X9177325Y-9467317D01*
X9177325Y-9467317D02*
X9148753Y-9467317D01*
X9148753Y-9467317D02*
X9129706Y-9457793D01*
X9129706Y-9457793D02*
X9120182Y-9438746D01*
X9120182Y-9438746D02*
X9120182Y-9429222D01*
X9120182Y-9429222D02*
X9129706Y-9410174D01*
X9129706Y-9410174D02*
X9148753Y-9400650D01*
X9148753Y-9400650D02*
X9177325Y-9400650D01*
X9177325Y-9400650D02*
X9196373Y-9410174D01*
X9272563Y-9610174D02*
X9282087Y-9600650D01*
X9282087Y-9600650D02*
X9301134Y-9572079D01*
X9301134Y-9572079D02*
X9310658Y-9553031D01*
X9310658Y-9553031D02*
X9320182Y-9524460D01*
X9320182Y-9524460D02*
X9329706Y-9476841D01*
X9329706Y-9476841D02*
X9329706Y-9438746D01*
X9329706Y-9438746D02*
X9320182Y-9391127D01*
X9320182Y-9391127D02*
X9310658Y-9362555D01*
X9310658Y-9362555D02*
X9301134Y-9343508D01*
X9301134Y-9343508D02*
X9282087Y-9314936D01*
X9282087Y-9314936D02*
X9272563Y-9305412D01*
X9634468Y-9610174D02*
X9624944Y-9600650D01*
X9624944Y-9600650D02*
X9605896Y-9572079D01*
X9605896Y-9572079D02*
X9596373Y-9553031D01*
X9596373Y-9553031D02*
X9586849Y-9524460D01*
X9586849Y-9524460D02*
X9577325Y-9476841D01*
X9577325Y-9476841D02*
X9577325Y-9438746D01*
X9577325Y-9438746D02*
X9586849Y-9391127D01*
X9586849Y-9391127D02*
X9596373Y-9362555D01*
X9596373Y-9362555D02*
X9605896Y-9343508D01*
X9605896Y-9343508D02*
X9624944Y-9314936D01*
X9624944Y-9314936D02*
X9634468Y-9305412D01*
X9710658Y-9400650D02*
X9710658Y-9533984D01*
X9710658Y-9419698D02*
X9720182Y-9410174D01*
X9720182Y-9410174D02*
X9739230Y-9400650D01*
X9739230Y-9400650D02*
X9767801Y-9400650D01*
X9767801Y-9400650D02*
X9786849Y-9410174D01*
X9786849Y-9410174D02*
X9796373Y-9429222D01*
X9796373Y-9429222D02*
X9796373Y-9533984D01*
X9920182Y-9533984D02*
X9901134Y-9524460D01*
X9901134Y-9524460D02*
X9891611Y-9514936D01*
X9891611Y-9514936D02*
X9882087Y-9495889D01*
X9882087Y-9495889D02*
X9882087Y-9438746D01*
X9882087Y-9438746D02*
X9891611Y-9419698D01*
X9891611Y-9419698D02*
X9901134Y-9410174D01*
X9901134Y-9410174D02*
X9920182Y-9400650D01*
X9920182Y-9400650D02*
X9948754Y-9400650D01*
X9948754Y-9400650D02*
X9967801Y-9410174D01*
X9967801Y-9410174D02*
X9977325Y-9419698D01*
X9977325Y-9419698D02*
X9986849Y-9438746D01*
X9986849Y-9438746D02*
X9986849Y-9495889D01*
X9986849Y-9495889D02*
X9977325Y-9514936D01*
X9977325Y-9514936D02*
X9967801Y-9524460D01*
X9967801Y-9524460D02*
X9948754Y-9533984D01*
X9948754Y-9533984D02*
X9920182Y-9533984D01*
X10043992Y-9400650D02*
X10120182Y-9400650D01*
X10072563Y-9333984D02*
X10072563Y-9505412D01*
X10072563Y-9505412D02*
X10082087Y-9524460D01*
X10082087Y-9524460D02*
X10101134Y-9533984D01*
X10101134Y-9533984D02*
X10120182Y-9533984D01*
X10339230Y-9400650D02*
X10339230Y-9600650D01*
X10339230Y-9410174D02*
X10358277Y-9400650D01*
X10358277Y-9400650D02*
X10396373Y-9400650D01*
X10396373Y-9400650D02*
X10415420Y-9410174D01*
X10415420Y-9410174D02*
X10424944Y-9419698D01*
X10424944Y-9419698D02*
X10434468Y-9438746D01*
X10434468Y-9438746D02*
X10434468Y-9495889D01*
X10434468Y-9495889D02*
X10424944Y-9514936D01*
X10424944Y-9514936D02*
X10415420Y-9524460D01*
X10415420Y-9524460D02*
X10396373Y-9533984D01*
X10396373Y-9533984D02*
X10358277Y-9533984D01*
X10358277Y-9533984D02*
X10339230Y-9524460D01*
X10548754Y-9533984D02*
X10529706Y-9524460D01*
X10529706Y-9524460D02*
X10520182Y-9505412D01*
X10520182Y-9505412D02*
X10520182Y-9333984D01*
X10710658Y-9533984D02*
X10710658Y-9429222D01*
X10710658Y-9429222D02*
X10701135Y-9410174D01*
X10701135Y-9410174D02*
X10682087Y-9400650D01*
X10682087Y-9400650D02*
X10643992Y-9400650D01*
X10643992Y-9400650D02*
X10624944Y-9410174D01*
X10710658Y-9524460D02*
X10691611Y-9533984D01*
X10691611Y-9533984D02*
X10643992Y-9533984D01*
X10643992Y-9533984D02*
X10624944Y-9524460D01*
X10624944Y-9524460D02*
X10615420Y-9505412D01*
X10615420Y-9505412D02*
X10615420Y-9486365D01*
X10615420Y-9486365D02*
X10624944Y-9467317D01*
X10624944Y-9467317D02*
X10643992Y-9457793D01*
X10643992Y-9457793D02*
X10691611Y-9457793D01*
X10691611Y-9457793D02*
X10710658Y-9448270D01*
X10777325Y-9400650D02*
X10853515Y-9400650D01*
X10805896Y-9333984D02*
X10805896Y-9505412D01*
X10805896Y-9505412D02*
X10815420Y-9524460D01*
X10815420Y-9524460D02*
X10834468Y-9533984D01*
X10834468Y-9533984D02*
X10853515Y-9533984D01*
X10996373Y-9524460D02*
X10977325Y-9533984D01*
X10977325Y-9533984D02*
X10939230Y-9533984D01*
X10939230Y-9533984D02*
X10920182Y-9524460D01*
X10920182Y-9524460D02*
X10910658Y-9505412D01*
X10910658Y-9505412D02*
X10910658Y-9429222D01*
X10910658Y-9429222D02*
X10920182Y-9410174D01*
X10920182Y-9410174D02*
X10939230Y-9400650D01*
X10939230Y-9400650D02*
X10977325Y-9400650D01*
X10977325Y-9400650D02*
X10996373Y-9410174D01*
X10996373Y-9410174D02*
X11005896Y-9429222D01*
X11005896Y-9429222D02*
X11005896Y-9448270D01*
X11005896Y-9448270D02*
X10910658Y-9467317D01*
X11177325Y-9533984D02*
X11177325Y-9333984D01*
X11177325Y-9524460D02*
X11158277Y-9533984D01*
X11158277Y-9533984D02*
X11120182Y-9533984D01*
X11120182Y-9533984D02*
X11101135Y-9524460D01*
X11101135Y-9524460D02*
X11091611Y-9514936D01*
X11091611Y-9514936D02*
X11082087Y-9495889D01*
X11082087Y-9495889D02*
X11082087Y-9438746D01*
X11082087Y-9438746D02*
X11091611Y-9419698D01*
X11091611Y-9419698D02*
X11101135Y-9410174D01*
X11101135Y-9410174D02*
X11120182Y-9400650D01*
X11120182Y-9400650D02*
X11158277Y-9400650D01*
X11158277Y-9400650D02*
X11177325Y-9410174D01*
X11253515Y-9610174D02*
X11263039Y-9600650D01*
X11263039Y-9600650D02*
X11282087Y-9572079D01*
X11282087Y-9572079D02*
X11291611Y-9553031D01*
X11291611Y-9553031D02*
X11301134Y-9524460D01*
X11301134Y-9524460D02*
X11310658Y-9476841D01*
X11310658Y-9476841D02*
X11310658Y-9438746D01*
X11310658Y-9438746D02*
X11301134Y-9391127D01*
X11301134Y-9391127D02*
X11291611Y-9362555D01*
X11291611Y-9362555D02*
X11282087Y-9343508D01*
X11282087Y-9343508D02*
X11263039Y-9314936D01*
X11263039Y-9314936D02*
X11253515Y-9305412D01*
D13*
X4497500Y-9712500D02*
G75*
G02*
X4317500Y-9712500I-90000J0D01*
G01*
X4317500Y-9712500D02*
G75*
G02*
X4497500Y-9712500I90000J0D01*
G01*
D11*
X4863039Y-9803984D02*
X4748753Y-9803984D01*
X4805896Y-9803984D02*
X4805896Y-9603984D01*
X4805896Y-9603984D02*
X4786848Y-9632555D01*
X4786848Y-9632555D02*
X4767801Y-9651603D01*
X4767801Y-9651603D02*
X4748753Y-9661127D01*
X4948753Y-9784936D02*
X4958277Y-9794460D01*
X4958277Y-9794460D02*
X4948753Y-9803984D01*
X4948753Y-9803984D02*
X4939229Y-9794460D01*
X4939229Y-9794460D02*
X4948753Y-9784936D01*
X4948753Y-9784936D02*
X4948753Y-9803984D01*
X5072563Y-9689698D02*
X5053515Y-9680174D01*
X5053515Y-9680174D02*
X5043991Y-9670650D01*
X5043991Y-9670650D02*
X5034467Y-9651603D01*
X5034467Y-9651603D02*
X5034467Y-9642079D01*
X5034467Y-9642079D02*
X5043991Y-9623031D01*
X5043991Y-9623031D02*
X5053515Y-9613508D01*
X5053515Y-9613508D02*
X5072563Y-9603984D01*
X5072563Y-9603984D02*
X5110658Y-9603984D01*
X5110658Y-9603984D02*
X5129705Y-9613508D01*
X5129705Y-9613508D02*
X5139229Y-9623031D01*
X5139229Y-9623031D02*
X5148753Y-9642079D01*
X5148753Y-9642079D02*
X5148753Y-9651603D01*
X5148753Y-9651603D02*
X5139229Y-9670650D01*
X5139229Y-9670650D02*
X5129705Y-9680174D01*
X5129705Y-9680174D02*
X5110658Y-9689698D01*
X5110658Y-9689698D02*
X5072563Y-9689698D01*
X5072563Y-9689698D02*
X5053515Y-9699222D01*
X5053515Y-9699222D02*
X5043991Y-9708746D01*
X5043991Y-9708746D02*
X5034467Y-9727793D01*
X5034467Y-9727793D02*
X5034467Y-9765889D01*
X5034467Y-9765889D02*
X5043991Y-9784936D01*
X5043991Y-9784936D02*
X5053515Y-9794460D01*
X5053515Y-9794460D02*
X5072563Y-9803984D01*
X5072563Y-9803984D02*
X5110658Y-9803984D01*
X5110658Y-9803984D02*
X5129705Y-9794460D01*
X5129705Y-9794460D02*
X5139229Y-9784936D01*
X5139229Y-9784936D02*
X5148753Y-9765889D01*
X5148753Y-9765889D02*
X5148753Y-9727793D01*
X5148753Y-9727793D02*
X5139229Y-9708746D01*
X5139229Y-9708746D02*
X5129705Y-9699222D01*
X5129705Y-9699222D02*
X5110658Y-9689698D01*
X5272563Y-9603984D02*
X5291610Y-9603984D01*
X5291610Y-9603984D02*
X5310658Y-9613508D01*
X5310658Y-9613508D02*
X5320182Y-9623031D01*
X5320182Y-9623031D02*
X5329705Y-9642079D01*
X5329705Y-9642079D02*
X5339229Y-9680174D01*
X5339229Y-9680174D02*
X5339229Y-9727793D01*
X5339229Y-9727793D02*
X5329705Y-9765889D01*
X5329705Y-9765889D02*
X5320182Y-9784936D01*
X5320182Y-9784936D02*
X5310658Y-9794460D01*
X5310658Y-9794460D02*
X5291610Y-9803984D01*
X5291610Y-9803984D02*
X5272563Y-9803984D01*
X5272563Y-9803984D02*
X5253515Y-9794460D01*
X5253515Y-9794460D02*
X5243991Y-9784936D01*
X5243991Y-9784936D02*
X5234467Y-9765889D01*
X5234467Y-9765889D02*
X5224944Y-9727793D01*
X5224944Y-9727793D02*
X5224944Y-9680174D01*
X5224944Y-9680174D02*
X5234467Y-9642079D01*
X5234467Y-9642079D02*
X5243991Y-9623031D01*
X5243991Y-9623031D02*
X5253515Y-9613508D01*
X5253515Y-9613508D02*
X5272563Y-9603984D01*
X5463039Y-9603984D02*
X5482086Y-9603984D01*
X5482086Y-9603984D02*
X5501134Y-9613508D01*
X5501134Y-9613508D02*
X5510658Y-9623031D01*
X5510658Y-9623031D02*
X5520182Y-9642079D01*
X5520182Y-9642079D02*
X5529705Y-9680174D01*
X5529705Y-9680174D02*
X5529705Y-9727793D01*
X5529705Y-9727793D02*
X5520182Y-9765889D01*
X5520182Y-9765889D02*
X5510658Y-9784936D01*
X5510658Y-9784936D02*
X5501134Y-9794460D01*
X5501134Y-9794460D02*
X5482086Y-9803984D01*
X5482086Y-9803984D02*
X5463039Y-9803984D01*
X5463039Y-9803984D02*
X5443991Y-9794460D01*
X5443991Y-9794460D02*
X5434467Y-9784936D01*
X5434467Y-9784936D02*
X5424944Y-9765889D01*
X5424944Y-9765889D02*
X5415420Y-9727793D01*
X5415420Y-9727793D02*
X5415420Y-9680174D01*
X5415420Y-9680174D02*
X5424944Y-9642079D01*
X5424944Y-9642079D02*
X5434467Y-9623031D01*
X5434467Y-9623031D02*
X5443991Y-9613508D01*
X5443991Y-9613508D02*
X5463039Y-9603984D01*
X5615420Y-9803984D02*
X5615420Y-9670650D01*
X5615420Y-9689698D02*
X5624943Y-9680174D01*
X5624943Y-9680174D02*
X5643991Y-9670650D01*
X5643991Y-9670650D02*
X5672563Y-9670650D01*
X5672563Y-9670650D02*
X5691610Y-9680174D01*
X5691610Y-9680174D02*
X5701134Y-9699222D01*
X5701134Y-9699222D02*
X5701134Y-9803984D01*
X5701134Y-9699222D02*
X5710658Y-9680174D01*
X5710658Y-9680174D02*
X5729705Y-9670650D01*
X5729705Y-9670650D02*
X5758277Y-9670650D01*
X5758277Y-9670650D02*
X5777324Y-9680174D01*
X5777324Y-9680174D02*
X5786848Y-9699222D01*
X5786848Y-9699222D02*
X5786848Y-9803984D01*
X5882086Y-9803984D02*
X5882086Y-9670650D01*
X5882086Y-9689698D02*
X5891610Y-9680174D01*
X5891610Y-9680174D02*
X5910658Y-9670650D01*
X5910658Y-9670650D02*
X5939229Y-9670650D01*
X5939229Y-9670650D02*
X5958277Y-9680174D01*
X5958277Y-9680174D02*
X5967801Y-9699222D01*
X5967801Y-9699222D02*
X5967801Y-9803984D01*
X5967801Y-9699222D02*
X5977324Y-9680174D01*
X5977324Y-9680174D02*
X5996372Y-9670650D01*
X5996372Y-9670650D02*
X6024943Y-9670650D01*
X6024943Y-9670650D02*
X6043991Y-9680174D01*
X6043991Y-9680174D02*
X6053515Y-9699222D01*
X6053515Y-9699222D02*
X6053515Y-9803984D01*
X6443991Y-9594460D02*
X6272563Y-9851603D01*
X6701134Y-9603984D02*
X6720182Y-9603984D01*
X6720182Y-9603984D02*
X6739229Y-9613508D01*
X6739229Y-9613508D02*
X6748753Y-9623031D01*
X6748753Y-9623031D02*
X6758277Y-9642079D01*
X6758277Y-9642079D02*
X6767801Y-9680174D01*
X6767801Y-9680174D02*
X6767801Y-9727793D01*
X6767801Y-9727793D02*
X6758277Y-9765889D01*
X6758277Y-9765889D02*
X6748753Y-9784936D01*
X6748753Y-9784936D02*
X6739229Y-9794460D01*
X6739229Y-9794460D02*
X6720182Y-9803984D01*
X6720182Y-9803984D02*
X6701134Y-9803984D01*
X6701134Y-9803984D02*
X6682086Y-9794460D01*
X6682086Y-9794460D02*
X6672563Y-9784936D01*
X6672563Y-9784936D02*
X6663039Y-9765889D01*
X6663039Y-9765889D02*
X6653515Y-9727793D01*
X6653515Y-9727793D02*
X6653515Y-9680174D01*
X6653515Y-9680174D02*
X6663039Y-9642079D01*
X6663039Y-9642079D02*
X6672563Y-9623031D01*
X6672563Y-9623031D02*
X6682086Y-9613508D01*
X6682086Y-9613508D02*
X6701134Y-9603984D01*
X6853515Y-9784936D02*
X6863039Y-9794460D01*
X6863039Y-9794460D02*
X6853515Y-9803984D01*
X6853515Y-9803984D02*
X6843991Y-9794460D01*
X6843991Y-9794460D02*
X6853515Y-9784936D01*
X6853515Y-9784936D02*
X6853515Y-9803984D01*
X6986848Y-9603984D02*
X7005896Y-9603984D01*
X7005896Y-9603984D02*
X7024944Y-9613508D01*
X7024944Y-9613508D02*
X7034467Y-9623031D01*
X7034467Y-9623031D02*
X7043991Y-9642079D01*
X7043991Y-9642079D02*
X7053515Y-9680174D01*
X7053515Y-9680174D02*
X7053515Y-9727793D01*
X7053515Y-9727793D02*
X7043991Y-9765889D01*
X7043991Y-9765889D02*
X7034467Y-9784936D01*
X7034467Y-9784936D02*
X7024944Y-9794460D01*
X7024944Y-9794460D02*
X7005896Y-9803984D01*
X7005896Y-9803984D02*
X6986848Y-9803984D01*
X6986848Y-9803984D02*
X6967801Y-9794460D01*
X6967801Y-9794460D02*
X6958277Y-9784936D01*
X6958277Y-9784936D02*
X6948753Y-9765889D01*
X6948753Y-9765889D02*
X6939229Y-9727793D01*
X6939229Y-9727793D02*
X6939229Y-9680174D01*
X6939229Y-9680174D02*
X6948753Y-9642079D01*
X6948753Y-9642079D02*
X6958277Y-9623031D01*
X6958277Y-9623031D02*
X6967801Y-9613508D01*
X6967801Y-9613508D02*
X6986848Y-9603984D01*
X7120182Y-9603984D02*
X7253515Y-9603984D01*
X7253515Y-9603984D02*
X7167801Y-9803984D01*
X7367801Y-9603984D02*
X7386848Y-9603984D01*
X7386848Y-9603984D02*
X7405896Y-9613508D01*
X7405896Y-9613508D02*
X7415420Y-9623031D01*
X7415420Y-9623031D02*
X7424944Y-9642079D01*
X7424944Y-9642079D02*
X7434467Y-9680174D01*
X7434467Y-9680174D02*
X7434467Y-9727793D01*
X7434467Y-9727793D02*
X7424944Y-9765889D01*
X7424944Y-9765889D02*
X7415420Y-9784936D01*
X7415420Y-9784936D02*
X7405896Y-9794460D01*
X7405896Y-9794460D02*
X7386848Y-9803984D01*
X7386848Y-9803984D02*
X7367801Y-9803984D01*
X7367801Y-9803984D02*
X7348753Y-9794460D01*
X7348753Y-9794460D02*
X7339229Y-9784936D01*
X7339229Y-9784936D02*
X7329706Y-9765889D01*
X7329706Y-9765889D02*
X7320182Y-9727793D01*
X7320182Y-9727793D02*
X7320182Y-9680174D01*
X7320182Y-9680174D02*
X7329706Y-9642079D01*
X7329706Y-9642079D02*
X7339229Y-9623031D01*
X7339229Y-9623031D02*
X7348753Y-9613508D01*
X7348753Y-9613508D02*
X7367801Y-9603984D01*
X7529706Y-9803984D02*
X7567801Y-9803984D01*
X7567801Y-9803984D02*
X7586848Y-9794460D01*
X7586848Y-9794460D02*
X7596372Y-9784936D01*
X7596372Y-9784936D02*
X7615420Y-9756365D01*
X7615420Y-9756365D02*
X7624944Y-9718270D01*
X7624944Y-9718270D02*
X7624944Y-9642079D01*
X7624944Y-9642079D02*
X7615420Y-9623031D01*
X7615420Y-9623031D02*
X7605896Y-9613508D01*
X7605896Y-9613508D02*
X7586848Y-9603984D01*
X7586848Y-9603984D02*
X7548753Y-9603984D01*
X7548753Y-9603984D02*
X7529706Y-9613508D01*
X7529706Y-9613508D02*
X7520182Y-9623031D01*
X7520182Y-9623031D02*
X7510658Y-9642079D01*
X7510658Y-9642079D02*
X7510658Y-9689698D01*
X7510658Y-9689698D02*
X7520182Y-9708746D01*
X7520182Y-9708746D02*
X7529706Y-9718270D01*
X7529706Y-9718270D02*
X7548753Y-9727793D01*
X7548753Y-9727793D02*
X7586848Y-9727793D01*
X7586848Y-9727793D02*
X7605896Y-9718270D01*
X7605896Y-9718270D02*
X7615420Y-9708746D01*
X7615420Y-9708746D02*
X7624944Y-9689698D01*
X7701134Y-9603984D02*
X7701134Y-9642079D01*
X7777325Y-9603984D02*
X7777325Y-9642079D01*
X8072563Y-9880174D02*
X8063039Y-9870650D01*
X8063039Y-9870650D02*
X8043991Y-9842079D01*
X8043991Y-9842079D02*
X8034468Y-9823031D01*
X8034468Y-9823031D02*
X8024944Y-9794460D01*
X8024944Y-9794460D02*
X8015420Y-9746841D01*
X8015420Y-9746841D02*
X8015420Y-9708746D01*
X8015420Y-9708746D02*
X8024944Y-9661127D01*
X8024944Y-9661127D02*
X8034468Y-9632555D01*
X8034468Y-9632555D02*
X8043991Y-9613508D01*
X8043991Y-9613508D02*
X8063039Y-9584936D01*
X8063039Y-9584936D02*
X8072563Y-9575412D01*
X8139229Y-9623031D02*
X8148753Y-9613508D01*
X8148753Y-9613508D02*
X8167801Y-9603984D01*
X8167801Y-9603984D02*
X8215420Y-9603984D01*
X8215420Y-9603984D02*
X8234468Y-9613508D01*
X8234468Y-9613508D02*
X8243991Y-9623031D01*
X8243991Y-9623031D02*
X8253515Y-9642079D01*
X8253515Y-9642079D02*
X8253515Y-9661127D01*
X8253515Y-9661127D02*
X8243991Y-9689698D01*
X8243991Y-9689698D02*
X8129706Y-9803984D01*
X8129706Y-9803984D02*
X8253515Y-9803984D01*
X8491611Y-9803984D02*
X8491611Y-9603984D01*
X8577325Y-9803984D02*
X8577325Y-9699222D01*
X8577325Y-9699222D02*
X8567801Y-9680174D01*
X8567801Y-9680174D02*
X8548753Y-9670650D01*
X8548753Y-9670650D02*
X8520182Y-9670650D01*
X8520182Y-9670650D02*
X8501134Y-9680174D01*
X8501134Y-9680174D02*
X8491611Y-9689698D01*
X8701134Y-9803984D02*
X8682087Y-9794460D01*
X8682087Y-9794460D02*
X8672563Y-9784936D01*
X8672563Y-9784936D02*
X8663039Y-9765889D01*
X8663039Y-9765889D02*
X8663039Y-9708746D01*
X8663039Y-9708746D02*
X8672563Y-9689698D01*
X8672563Y-9689698D02*
X8682087Y-9680174D01*
X8682087Y-9680174D02*
X8701134Y-9670650D01*
X8701134Y-9670650D02*
X8729706Y-9670650D01*
X8729706Y-9670650D02*
X8748753Y-9680174D01*
X8748753Y-9680174D02*
X8758277Y-9689698D01*
X8758277Y-9689698D02*
X8767801Y-9708746D01*
X8767801Y-9708746D02*
X8767801Y-9765889D01*
X8767801Y-9765889D02*
X8758277Y-9784936D01*
X8758277Y-9784936D02*
X8748753Y-9794460D01*
X8748753Y-9794460D02*
X8729706Y-9803984D01*
X8729706Y-9803984D02*
X8701134Y-9803984D01*
X8882087Y-9803984D02*
X8863039Y-9794460D01*
X8863039Y-9794460D02*
X8853515Y-9775412D01*
X8853515Y-9775412D02*
X8853515Y-9603984D01*
X9034468Y-9794460D02*
X9015420Y-9803984D01*
X9015420Y-9803984D02*
X8977325Y-9803984D01*
X8977325Y-9803984D02*
X8958277Y-9794460D01*
X8958277Y-9794460D02*
X8948753Y-9775412D01*
X8948753Y-9775412D02*
X8948753Y-9699222D01*
X8948753Y-9699222D02*
X8958277Y-9680174D01*
X8958277Y-9680174D02*
X8977325Y-9670650D01*
X8977325Y-9670650D02*
X9015420Y-9670650D01*
X9015420Y-9670650D02*
X9034468Y-9680174D01*
X9034468Y-9680174D02*
X9043992Y-9699222D01*
X9043992Y-9699222D02*
X9043992Y-9718270D01*
X9043992Y-9718270D02*
X8948753Y-9737317D01*
X9120182Y-9794460D02*
X9139230Y-9803984D01*
X9139230Y-9803984D02*
X9177325Y-9803984D01*
X9177325Y-9803984D02*
X9196373Y-9794460D01*
X9196373Y-9794460D02*
X9205896Y-9775412D01*
X9205896Y-9775412D02*
X9205896Y-9765889D01*
X9205896Y-9765889D02*
X9196373Y-9746841D01*
X9196373Y-9746841D02*
X9177325Y-9737317D01*
X9177325Y-9737317D02*
X9148753Y-9737317D01*
X9148753Y-9737317D02*
X9129706Y-9727793D01*
X9129706Y-9727793D02*
X9120182Y-9708746D01*
X9120182Y-9708746D02*
X9120182Y-9699222D01*
X9120182Y-9699222D02*
X9129706Y-9680174D01*
X9129706Y-9680174D02*
X9148753Y-9670650D01*
X9148753Y-9670650D02*
X9177325Y-9670650D01*
X9177325Y-9670650D02*
X9196373Y-9680174D01*
X9272563Y-9880174D02*
X9282087Y-9870650D01*
X9282087Y-9870650D02*
X9301134Y-9842079D01*
X9301134Y-9842079D02*
X9310658Y-9823031D01*
X9310658Y-9823031D02*
X9320182Y-9794460D01*
X9320182Y-9794460D02*
X9329706Y-9746841D01*
X9329706Y-9746841D02*
X9329706Y-9708746D01*
X9329706Y-9708746D02*
X9320182Y-9661127D01*
X9320182Y-9661127D02*
X9310658Y-9632555D01*
X9310658Y-9632555D02*
X9301134Y-9613508D01*
X9301134Y-9613508D02*
X9282087Y-9584936D01*
X9282087Y-9584936D02*
X9272563Y-9575412D01*
X9634468Y-9880174D02*
X9624944Y-9870650D01*
X9624944Y-9870650D02*
X9605896Y-9842079D01*
X9605896Y-9842079D02*
X9596373Y-9823031D01*
X9596373Y-9823031D02*
X9586849Y-9794460D01*
X9586849Y-9794460D02*
X9577325Y-9746841D01*
X9577325Y-9746841D02*
X9577325Y-9708746D01*
X9577325Y-9708746D02*
X9586849Y-9661127D01*
X9586849Y-9661127D02*
X9596373Y-9632555D01*
X9596373Y-9632555D02*
X9605896Y-9613508D01*
X9605896Y-9613508D02*
X9624944Y-9584936D01*
X9624944Y-9584936D02*
X9634468Y-9575412D01*
X9710658Y-9670650D02*
X9710658Y-9803984D01*
X9710658Y-9689698D02*
X9720182Y-9680174D01*
X9720182Y-9680174D02*
X9739230Y-9670650D01*
X9739230Y-9670650D02*
X9767801Y-9670650D01*
X9767801Y-9670650D02*
X9786849Y-9680174D01*
X9786849Y-9680174D02*
X9796373Y-9699222D01*
X9796373Y-9699222D02*
X9796373Y-9803984D01*
X9920182Y-9803984D02*
X9901134Y-9794460D01*
X9901134Y-9794460D02*
X9891611Y-9784936D01*
X9891611Y-9784936D02*
X9882087Y-9765889D01*
X9882087Y-9765889D02*
X9882087Y-9708746D01*
X9882087Y-9708746D02*
X9891611Y-9689698D01*
X9891611Y-9689698D02*
X9901134Y-9680174D01*
X9901134Y-9680174D02*
X9920182Y-9670650D01*
X9920182Y-9670650D02*
X9948754Y-9670650D01*
X9948754Y-9670650D02*
X9967801Y-9680174D01*
X9967801Y-9680174D02*
X9977325Y-9689698D01*
X9977325Y-9689698D02*
X9986849Y-9708746D01*
X9986849Y-9708746D02*
X9986849Y-9765889D01*
X9986849Y-9765889D02*
X9977325Y-9784936D01*
X9977325Y-9784936D02*
X9967801Y-9794460D01*
X9967801Y-9794460D02*
X9948754Y-9803984D01*
X9948754Y-9803984D02*
X9920182Y-9803984D01*
X10043992Y-9670650D02*
X10120182Y-9670650D01*
X10072563Y-9603984D02*
X10072563Y-9775412D01*
X10072563Y-9775412D02*
X10082087Y-9794460D01*
X10082087Y-9794460D02*
X10101134Y-9803984D01*
X10101134Y-9803984D02*
X10120182Y-9803984D01*
X10339230Y-9670650D02*
X10339230Y-9870650D01*
X10339230Y-9680174D02*
X10358277Y-9670650D01*
X10358277Y-9670650D02*
X10396373Y-9670650D01*
X10396373Y-9670650D02*
X10415420Y-9680174D01*
X10415420Y-9680174D02*
X10424944Y-9689698D01*
X10424944Y-9689698D02*
X10434468Y-9708746D01*
X10434468Y-9708746D02*
X10434468Y-9765889D01*
X10434468Y-9765889D02*
X10424944Y-9784936D01*
X10424944Y-9784936D02*
X10415420Y-9794460D01*
X10415420Y-9794460D02*
X10396373Y-9803984D01*
X10396373Y-9803984D02*
X10358277Y-9803984D01*
X10358277Y-9803984D02*
X10339230Y-9794460D01*
X10548754Y-9803984D02*
X10529706Y-9794460D01*
X10529706Y-9794460D02*
X10520182Y-9775412D01*
X10520182Y-9775412D02*
X10520182Y-9603984D01*
X10710658Y-9803984D02*
X10710658Y-9699222D01*
X10710658Y-9699222D02*
X10701135Y-9680174D01*
X10701135Y-9680174D02*
X10682087Y-9670650D01*
X10682087Y-9670650D02*
X10643992Y-9670650D01*
X10643992Y-9670650D02*
X10624944Y-9680174D01*
X10710658Y-9794460D02*
X10691611Y-9803984D01*
X10691611Y-9803984D02*
X10643992Y-9803984D01*
X10643992Y-9803984D02*
X10624944Y-9794460D01*
X10624944Y-9794460D02*
X10615420Y-9775412D01*
X10615420Y-9775412D02*
X10615420Y-9756365D01*
X10615420Y-9756365D02*
X10624944Y-9737317D01*
X10624944Y-9737317D02*
X10643992Y-9727793D01*
X10643992Y-9727793D02*
X10691611Y-9727793D01*
X10691611Y-9727793D02*
X10710658Y-9718270D01*
X10777325Y-9670650D02*
X10853515Y-9670650D01*
X10805896Y-9603984D02*
X10805896Y-9775412D01*
X10805896Y-9775412D02*
X10815420Y-9794460D01*
X10815420Y-9794460D02*
X10834468Y-9803984D01*
X10834468Y-9803984D02*
X10853515Y-9803984D01*
X10996373Y-9794460D02*
X10977325Y-9803984D01*
X10977325Y-9803984D02*
X10939230Y-9803984D01*
X10939230Y-9803984D02*
X10920182Y-9794460D01*
X10920182Y-9794460D02*
X10910658Y-9775412D01*
X10910658Y-9775412D02*
X10910658Y-9699222D01*
X10910658Y-9699222D02*
X10920182Y-9680174D01*
X10920182Y-9680174D02*
X10939230Y-9670650D01*
X10939230Y-9670650D02*
X10977325Y-9670650D01*
X10977325Y-9670650D02*
X10996373Y-9680174D01*
X10996373Y-9680174D02*
X11005896Y-9699222D01*
X11005896Y-9699222D02*
X11005896Y-9718270D01*
X11005896Y-9718270D02*
X10910658Y-9737317D01*
X11177325Y-9803984D02*
X11177325Y-9603984D01*
X11177325Y-9794460D02*
X11158277Y-9803984D01*
X11158277Y-9803984D02*
X11120182Y-9803984D01*
X11120182Y-9803984D02*
X11101135Y-9794460D01*
X11101135Y-9794460D02*
X11091611Y-9784936D01*
X11091611Y-9784936D02*
X11082087Y-9765889D01*
X11082087Y-9765889D02*
X11082087Y-9708746D01*
X11082087Y-9708746D02*
X11091611Y-9689698D01*
X11091611Y-9689698D02*
X11101135Y-9680174D01*
X11101135Y-9680174D02*
X11120182Y-9670650D01*
X11120182Y-9670650D02*
X11158277Y-9670650D01*
X11158277Y-9670650D02*
X11177325Y-9680174D01*
X11253515Y-9880174D02*
X11263039Y-9870650D01*
X11263039Y-9870650D02*
X11282087Y-9842079D01*
X11282087Y-9842079D02*
X11291611Y-9823031D01*
X11291611Y-9823031D02*
X11301134Y-9794460D01*
X11301134Y-9794460D02*
X11310658Y-9746841D01*
X11310658Y-9746841D02*
X11310658Y-9708746D01*
X11310658Y-9708746D02*
X11301134Y-9661127D01*
X11301134Y-9661127D02*
X11291611Y-9632555D01*
X11291611Y-9632555D02*
X11282087Y-9613508D01*
X11282087Y-9613508D02*
X11263039Y-9584936D01*
X11263039Y-9584936D02*
X11253515Y-9575412D01*
M02*
