%TF.GenerationSoftware,KiCad,Pcbnew,8.0.4*%
%TF.CreationDate,2024-08-18T14:41:23+02:00*%
%TF.ProjectId,pico-modxo,7069636f-2d6d-46f6-9478-6f2e6b696361,1.0*%
%TF.SameCoordinates,Original*%
%TF.FileFunction,Copper,L2,Bot*%
%TF.FilePolarity,Positive*%
%FSLAX46Y46*%
G04 Gerber Fmt 4.6, Leading zero omitted, Abs format (unit mm)*
G04 Created by KiCad (PCBNEW 8.0.4) date 2024-08-18 14:41:23*
%MOMM*%
%LPD*%
G01*
G04 APERTURE LIST*
G04 Aperture macros list*
%AMRoundRect*
0 Rectangle with rounded corners*
0 $1 Rounding radius*
0 $2 $3 $4 $5 $6 $7 $8 $9 X,Y pos of 4 corners*
0 Add a 4 corners polygon primitive as box body*
4,1,4,$2,$3,$4,$5,$6,$7,$8,$9,$2,$3,0*
0 Add four circle primitives for the rounded corners*
1,1,$1+$1,$2,$3*
1,1,$1+$1,$4,$5*
1,1,$1+$1,$6,$7*
1,1,$1+$1,$8,$9*
0 Add four rect primitives between the rounded corners*
20,1,$1+$1,$2,$3,$4,$5,0*
20,1,$1+$1,$4,$5,$6,$7,0*
20,1,$1+$1,$6,$7,$8,$9,0*
20,1,$1+$1,$8,$9,$2,$3,0*%
%AMHorizOval*
0 Thick line with rounded ends*
0 $1 width*
0 $2 $3 position (X,Y) of the first rounded end (center of the circle)*
0 $4 $5 position (X,Y) of the second rounded end (center of the circle)*
0 Add line between two ends*
20,1,$1,$2,$3,$4,$5,0*
0 Add two circle primitives to create the rounded ends*
1,1,$1,$2,$3*
1,1,$1,$4,$5*%
%AMRotRect*
0 Rectangle, with rotation*
0 The origin of the aperture is its center*
0 $1 length*
0 $2 width*
0 $3 Rotation angle, in degrees counterclockwise*
0 Add horizontal line*
21,1,$1,$2,0,0,$3*%
G04 Aperture macros list end*
%TA.AperFunction,ComponentPad*%
%ADD10RoundRect,0.250000X2.000000X1.100000X-2.000000X1.100000X-2.000000X-1.100000X2.000000X-1.100000X0*%
%TD*%
%TA.AperFunction,ComponentPad*%
%ADD11RoundRect,0.250000X-2.000000X-1.100000X2.000000X-1.100000X2.000000X1.100000X-2.000000X1.100000X0*%
%TD*%
%TA.AperFunction,ComponentPad*%
%ADD12R,1.700000X1.700000*%
%TD*%
%TA.AperFunction,ComponentPad*%
%ADD13O,1.700000X1.700000*%
%TD*%
%TA.AperFunction,ComponentPad*%
%ADD14R,1.998980X1.998980*%
%TD*%
%TA.AperFunction,ComponentPad*%
%ADD15RoundRect,0.250000X0.620000X-0.620000X0.620000X0.620000X-0.620000X0.620000X-0.620000X-0.620000X0*%
%TD*%
%TA.AperFunction,ComponentPad*%
%ADD16C,1.740000*%
%TD*%
%TA.AperFunction,ComponentPad*%
%ADD17RotRect,2.030000X1.730000X225.000000*%
%TD*%
%TA.AperFunction,ComponentPad*%
%ADD18HorizOval,1.730000X-0.106066X-0.106066X0.106066X0.106066X0*%
%TD*%
%TA.AperFunction,ComponentPad*%
%ADD19RotRect,1.700000X1.700000X45.000000*%
%TD*%
%TA.AperFunction,ComponentPad*%
%ADD20HorizOval,1.700000X0.000000X0.000000X0.000000X0.000000X0*%
%TD*%
G04 APERTURE END LIST*
D10*
%TO.P,D1,1,K*%
%TO.N,+5V*%
X132400000Y-39500000D03*
D11*
%TO.P,D1,2,A*%
%TO.N,LPC_5V*%
X124600000Y-39500000D03*
%TD*%
D12*
%TO.P,J1,1,LCLK*%
%TO.N,LCLK*%
X117920000Y-59100000D03*
D13*
%TO.P,J1,2,GND*%
%TO.N,GND*%
X115380000Y-59100000D03*
%TO.P,J1,3,LFRAME#*%
%TO.N,LFRAME*%
X117920000Y-56560000D03*
%TO.P,J1,4,PWR_(v1.6)*%
%TO.N,unconnected-(J1-PWR_(v1.6)-Pad4)*%
X115380000Y-56560000D03*
%TO.P,J1,5,LRESET#*%
%TO.N,LRESET*%
X117920000Y-54020000D03*
%TO.P,J1,6,5V*%
%TO.N,LPC_5V*%
X115380000Y-54020000D03*
%TO.P,J1,7,LAD3*%
%TO.N,LAD3*%
X117920000Y-51480000D03*
%TO.P,J1,8,LAD2*%
%TO.N,LAD2*%
X115380000Y-51480000D03*
%TO.P,J1,9,3.3V*%
%TO.N,+3.3V*%
X117920000Y-48940000D03*
%TO.P,J1,10,LAD1*%
%TO.N,LAD1*%
X115380000Y-48940000D03*
%TO.P,J1,11,LAD0*%
%TO.N,LAD0*%
X117920000Y-46400000D03*
%TO.P,J1,12,GND*%
%TO.N,GND*%
X115380000Y-46400000D03*
%TO.P,J1,13,SCL*%
%TO.N,LSCL*%
X117920000Y-43860000D03*
%TO.P,J1,14,SDA*%
%TO.N,LSDA*%
X115380000Y-43860000D03*
%TO.P,J1,15,3.3V*%
%TO.N,+3.3V*%
X117920000Y-41320000D03*
%TO.P,J1,16,SERIRQ_(v1.0)*%
%TO.N,unconnected-(J1-SERIRQ_(v1.0)-Pad16)*%
X115380000Y-41320000D03*
%TD*%
%TO.P,U1,1,GPIO0*%
%TO.N,Net-(U1-GPIO0)*%
X141600000Y-39620000D03*
%TO.P,U1,2,GPIO1*%
%TO.N,Net-(U1-GPIO1)*%
X141600000Y-42160000D03*
D12*
%TO.P,U1,3,GND*%
%TO.N,GND*%
X141600000Y-44700000D03*
D13*
%TO.P,U1,4,GPIO2*%
%TO.N,Net-(U1-GPIO2)*%
X141600000Y-47240000D03*
%TO.P,U1,5,GPIO3*%
%TO.N,Net-(U1-GPIO3)*%
X141600000Y-49780000D03*
%TO.P,U1,6,GPIO4*%
%TO.N,LCLK*%
X141600000Y-52320000D03*
%TO.P,U1,7,GPIO5*%
%TO.N,LFRAME*%
X141600000Y-54860000D03*
D12*
%TO.P,U1,8,GND*%
%TO.N,GND*%
X141600000Y-57400000D03*
D13*
%TO.P,U1,9,GPIO6*%
%TO.N,Net-(D0-Pin_1)*%
X141600000Y-59940000D03*
%TO.P,U1,10,GPIO7*%
%TO.N,LRESET*%
X141600000Y-62480000D03*
%TO.P,U1,11,GPIO8*%
%TO.N,unconnected-(U1-GPIO8-Pad11)*%
X141600000Y-65020000D03*
%TO.P,U1,12,GPIO9*%
%TO.N,GPIO9*%
X141600000Y-67560000D03*
D12*
%TO.P,U1,13,GND*%
%TO.N,GND*%
X141600000Y-70100000D03*
D13*
%TO.P,U1,14,GPIO10*%
%TO.N,GPIO10*%
X141600000Y-72640000D03*
%TO.P,U1,15,GPIO11*%
%TO.N,GPIO11*%
X141600000Y-75180000D03*
%TO.P,U1,16,GPIO12*%
%TO.N,SD_SPI1_MISO*%
X141600000Y-77720000D03*
%TO.P,U1,17,GPIO13*%
%TO.N,SD_SPI1_CS*%
X141600000Y-80260000D03*
D12*
%TO.P,U1,18,GND*%
%TO.N,GND*%
X141600000Y-82800000D03*
D13*
%TO.P,U1,19,GPIO14*%
%TO.N,SD_SPI1_SCK*%
X141600000Y-85340000D03*
%TO.P,U1,20,GPIO15*%
%TO.N,SD_SPI1_MOSI*%
X141600000Y-87880000D03*
%TO.P,U1,21,GPIO16*%
%TO.N,UART_TX*%
X159380000Y-87880000D03*
%TO.P,U1,22,GPIO17*%
%TO.N,UART_RX*%
X159380000Y-85340000D03*
D12*
%TO.P,U1,23,GND*%
%TO.N,GND*%
X159380000Y-82800000D03*
D13*
%TO.P,U1,24,GPIO18*%
%TO.N,DISPLAY_I2C1_SDA*%
X159380000Y-80260000D03*
%TO.P,U1,25,GPIO19*%
%TO.N,DISPLAY_I2C1_SCL*%
X159380000Y-77720000D03*
%TO.P,U1,26,GPIO20*%
%TO.N,EXT_I2C0_SDA*%
X159380000Y-75180000D03*
%TO.P,U1,27,GPIO21*%
%TO.N,EXT_I2C0_SCL*%
X159380000Y-72640000D03*
D12*
%TO.P,U1,28,GND*%
%TO.N,GND*%
X159380000Y-70100000D03*
D13*
%TO.P,U1,29,GPIO22*%
%TO.N,RGBDI*%
X159380000Y-67560000D03*
%TO.P,U1,30,RUN*%
%TO.N,unconnected-(U1-RUN-Pad30)*%
X159380000Y-65020000D03*
%TO.P,U1,31,GPIO26_ADC0*%
%TO.N,DISPLAY_BRIGHTNESS*%
X159380000Y-62480000D03*
%TO.P,U1,32,GPIO27_ADC1*%
%TO.N,DISPLAY_CONTRAST*%
X159380000Y-59940000D03*
D12*
%TO.P,U1,33,AGND*%
%TO.N,GND*%
X159380000Y-57400000D03*
D13*
%TO.P,U1,34,GPIO28_ADC2*%
%TO.N,GPIO28*%
X159380000Y-54860000D03*
%TO.P,U1,35,ADC_VREF*%
%TO.N,unconnected-(U1-ADC_VREF-Pad35)*%
X159380000Y-52320000D03*
%TO.P,U1,36,3V3*%
%TO.N,unconnected-(U1-3V3-Pad36)*%
X159380000Y-49780000D03*
%TO.P,U1,37,3V3_EN*%
%TO.N,unconnected-(U1-3V3_EN-Pad37)*%
X159380000Y-47240000D03*
D12*
%TO.P,U1,38,GND*%
%TO.N,GND*%
X159380000Y-44700000D03*
D13*
%TO.P,U1,39,VSYS*%
%TO.N,+5V*%
X159380000Y-42160000D03*
%TO.P,U1,40,VBUS*%
%TO.N,unconnected-(U1-VBUS-Pad40)_1*%
X159380000Y-39620000D03*
%TO.P,U1,41,SWCLK*%
%TO.N,unconnected-(U1-SWCLK-Pad41)*%
X147950000Y-87650000D03*
D12*
%TO.P,U1,42,GND*%
%TO.N,unconnected-(U1-GND-Pad42)*%
X150490000Y-87650000D03*
D13*
%TO.P,U1,43,SWDIO*%
%TO.N,unconnected-(U1-SWDIO-Pad43)_1*%
X153030000Y-87650000D03*
%TD*%
D14*
%TO.P,R1,1*%
%TO.N,LAD0*%
X123878740Y-43710000D03*
%TO.P,R1,2*%
%TO.N,Net-(U1-GPIO0)*%
X133881260Y-43710000D03*
%TD*%
D15*
%TO.P,J2,1,Pin_1*%
%TO.N,SD_SPI1_MISO*%
X169380000Y-88380000D03*
D16*
%TO.P,J2,2,Pin_2*%
%TO.N,SD_SPI1_CS*%
X169380000Y-85840000D03*
%TO.P,J2,3,Pin_3*%
%TO.N,SD_SPI1_SCK*%
X169380000Y-83300000D03*
%TO.P,J2,4,Pin_4*%
%TO.N,SD_SPI1_MOSI*%
X169380000Y-80760000D03*
%TO.P,J2,5,Pin_5*%
%TO.N,UART_TX*%
X169380000Y-78220000D03*
%TO.P,J2,6,Pin_6*%
%TO.N,UART_RX*%
X169380000Y-75680000D03*
%TO.P,J2,7,Pin_7*%
%TO.N,GND*%
X169380000Y-73140000D03*
%TO.P,J2,8,Pin_8*%
%TO.N,DISPLAY_I2C1_SDA*%
X169380000Y-70600000D03*
%TO.P,J2,9,Pin_9*%
%TO.N,DISPLAY_I2C1_SCL*%
X169380000Y-68060000D03*
%TO.P,J2,10,Pin_10*%
%TO.N,EXT_I2C0_SDA*%
X169380000Y-65520000D03*
%TO.P,J2,11,Pin_11*%
%TO.N,EXT_I2C0_SCL*%
X169380000Y-62980000D03*
%TO.P,J2,12,Pin_12*%
%TO.N,DISPLAY_BRIGHTNESS*%
X169380000Y-60440000D03*
%TO.P,J2,13,Pin_13*%
%TO.N,DISPLAY_CONTRAST*%
X169380000Y-57900000D03*
%TO.P,J2,14,Pin_14*%
%TO.N,GND*%
X169380000Y-55360000D03*
%TO.P,J2,15,Pin_15*%
%TO.N,GPIO9*%
X169380000Y-52820000D03*
%TO.P,J2,16,Pin_16*%
%TO.N,GPIO10*%
X169380000Y-50280000D03*
%TO.P,J2,17,Pin_17*%
%TO.N,GPIO11*%
X169380000Y-47740000D03*
%TO.P,J2,18,Pin_18*%
%TO.N,GPIO28*%
X169380000Y-45200000D03*
%TO.P,J2,19,Pin_19*%
%TO.N,GND*%
X169380000Y-42660000D03*
%TO.P,J2,20,Pin_20*%
X169380000Y-40120000D03*
%TD*%
D17*
%TO.P,RGB1,1,Pin_1*%
%TO.N,Net-(D2-DOUT)*%
X122000000Y-69000000D03*
D18*
%TO.P,RGB1,2,Pin_2*%
%TO.N,LPC_5V*%
X120203949Y-67203949D03*
%TO.P,RGB1,3,Pin_3*%
%TO.N,GND*%
X118407898Y-65407898D03*
%TD*%
D14*
%TO.P,R3,1*%
%TO.N,LAD2*%
X123878740Y-51810000D03*
%TO.P,R3,2*%
%TO.N,Net-(U1-GPIO2)*%
X133881260Y-51810000D03*
%TD*%
%TO.P,R2,1*%
%TO.N,LAD1*%
X123878740Y-47760000D03*
%TO.P,R2,2*%
%TO.N,Net-(U1-GPIO1)*%
X133881260Y-47760000D03*
%TD*%
D19*
%TO.P,EXT1,1,Pin_1*%
%TO.N,LSDA*%
X127907898Y-77407898D03*
D20*
%TO.P,EXT1,2,Pin_2*%
%TO.N,LPC_5V*%
X129703949Y-75611847D03*
%TO.P,EXT1,3,Pin_3*%
%TO.N,LSCL*%
X129703949Y-79203949D03*
%TO.P,EXT1,4,Pin_4*%
%TO.N,GND*%
X131500000Y-77407898D03*
%TO.P,EXT1,5,Pin_5*%
X131500000Y-81000000D03*
%TO.P,EXT1,6,Pin_6*%
%TO.N,+3.3V*%
X133296052Y-79203949D03*
%TD*%
D14*
%TO.P,R4,1*%
%TO.N,LAD3*%
X123878740Y-55860000D03*
%TO.P,R4,2*%
%TO.N,Net-(U1-GPIO3)*%
X133881260Y-55860000D03*
%TD*%
M02*
