%TF.GenerationSoftware,KiCad,Pcbnew,8.0.4*%
%TF.CreationDate,2024-08-18T14:41:29+02:00*%
%TF.ProjectId,pico-modxo,7069636f-2d6d-46f6-9478-6f2e6b696361,1.0*%
%TF.SameCoordinates,Original*%
%TF.FileFunction,Drillmap*%
%TF.FilePolarity,Positive*%
%FSLAX45Y45*%
G04 Gerber Fmt 4.5, Leading zero omitted, Abs format (unit mm)*
G04 Created by KiCad (PCBNEW 8.0.4) date 2024-08-18 14:41:29*
%MOMM*%
%LPD*%
G01*
G04 APERTURE LIST*
%ADD10C,0.050000*%
%ADD11C,0.200000*%
%ADD12C,0.150000*%
%ADD13C,0.180000*%
G04 APERTURE END LIST*
D10*
X11100000Y-4357107D02*
X11100000Y-6342893D01*
X17600000Y-8750000D02*
X17600000Y-4150000D01*
X11453553Y-3796447D02*
X11246447Y-4003553D01*
X17100000Y-3650000D02*
X11807107Y-3650000D01*
X11246447Y-6696447D02*
X13653553Y-9103553D01*
X11453553Y-3796447D02*
G75*
G02*
X11807107Y-3650002I353547J-353543D01*
G01*
X17100000Y-3650000D02*
G75*
G02*
X17600000Y-4150000I0J-500000D01*
G01*
X17600000Y-8750000D02*
G75*
G02*
X17100000Y-9250000I-500000J0D01*
G01*
X11246447Y-6696447D02*
G75*
G02*
X11099998Y-6342893I353553J353557D01*
G01*
X14007107Y-9250000D02*
X17100000Y-9250000D01*
X11100000Y-4357107D02*
G75*
G02*
X11246444Y-4003551I500020J-3D01*
G01*
X14007107Y-9250000D02*
G75*
G02*
X13653551Y-9103556I3J500020D01*
G01*
D11*
D12*
X14731500Y-4203000D02*
X14881500Y-4353000D01*
X14881500Y-4203000D02*
X14731500Y-4353000D01*
X15216500Y-4203000D02*
X15366500Y-4353000D01*
X15366500Y-4203000D02*
X15216500Y-4353000D01*
D13*
X14866500Y-3975000D02*
G75*
G02*
X14686500Y-3975000I-90000J0D01*
G01*
X14686500Y-3975000D02*
G75*
G02*
X14866500Y-3975000I90000J0D01*
G01*
X15411500Y-3975000D02*
G75*
G02*
X15231500Y-3975000I-90000J0D01*
G01*
X15231500Y-3975000D02*
G75*
G02*
X15411500Y-3975000I90000J0D01*
G01*
D11*
X11358277Y-9563984D02*
X11358277Y-9363984D01*
X11358277Y-9363984D02*
X11405896Y-9363984D01*
X11405896Y-9363984D02*
X11434467Y-9373508D01*
X11434467Y-9373508D02*
X11453515Y-9392555D01*
X11453515Y-9392555D02*
X11463039Y-9411603D01*
X11463039Y-9411603D02*
X11472562Y-9449698D01*
X11472562Y-9449698D02*
X11472562Y-9478270D01*
X11472562Y-9478270D02*
X11463039Y-9516365D01*
X11463039Y-9516365D02*
X11453515Y-9535412D01*
X11453515Y-9535412D02*
X11434467Y-9554460D01*
X11434467Y-9554460D02*
X11405896Y-9563984D01*
X11405896Y-9563984D02*
X11358277Y-9563984D01*
X11558277Y-9563984D02*
X11558277Y-9430650D01*
X11558277Y-9468746D02*
X11567801Y-9449698D01*
X11567801Y-9449698D02*
X11577324Y-9440174D01*
X11577324Y-9440174D02*
X11596372Y-9430650D01*
X11596372Y-9430650D02*
X11615420Y-9430650D01*
X11682086Y-9563984D02*
X11682086Y-9430650D01*
X11682086Y-9363984D02*
X11672562Y-9373508D01*
X11672562Y-9373508D02*
X11682086Y-9383031D01*
X11682086Y-9383031D02*
X11691610Y-9373508D01*
X11691610Y-9373508D02*
X11682086Y-9363984D01*
X11682086Y-9363984D02*
X11682086Y-9383031D01*
X11805896Y-9563984D02*
X11786848Y-9554460D01*
X11786848Y-9554460D02*
X11777324Y-9535412D01*
X11777324Y-9535412D02*
X11777324Y-9363984D01*
X11910658Y-9563984D02*
X11891610Y-9554460D01*
X11891610Y-9554460D02*
X11882086Y-9535412D01*
X11882086Y-9535412D02*
X11882086Y-9363984D01*
X12139229Y-9563984D02*
X12139229Y-9363984D01*
X12139229Y-9363984D02*
X12205896Y-9506841D01*
X12205896Y-9506841D02*
X12272562Y-9363984D01*
X12272562Y-9363984D02*
X12272562Y-9563984D01*
X12453515Y-9563984D02*
X12453515Y-9459222D01*
X12453515Y-9459222D02*
X12443991Y-9440174D01*
X12443991Y-9440174D02*
X12424943Y-9430650D01*
X12424943Y-9430650D02*
X12386848Y-9430650D01*
X12386848Y-9430650D02*
X12367801Y-9440174D01*
X12453515Y-9554460D02*
X12434467Y-9563984D01*
X12434467Y-9563984D02*
X12386848Y-9563984D01*
X12386848Y-9563984D02*
X12367801Y-9554460D01*
X12367801Y-9554460D02*
X12358277Y-9535412D01*
X12358277Y-9535412D02*
X12358277Y-9516365D01*
X12358277Y-9516365D02*
X12367801Y-9497317D01*
X12367801Y-9497317D02*
X12386848Y-9487793D01*
X12386848Y-9487793D02*
X12434467Y-9487793D01*
X12434467Y-9487793D02*
X12453515Y-9478270D01*
X12548753Y-9430650D02*
X12548753Y-9630650D01*
X12548753Y-9440174D02*
X12567801Y-9430650D01*
X12567801Y-9430650D02*
X12605896Y-9430650D01*
X12605896Y-9430650D02*
X12624943Y-9440174D01*
X12624943Y-9440174D02*
X12634467Y-9449698D01*
X12634467Y-9449698D02*
X12643991Y-9468746D01*
X12643991Y-9468746D02*
X12643991Y-9525889D01*
X12643991Y-9525889D02*
X12634467Y-9544936D01*
X12634467Y-9544936D02*
X12624943Y-9554460D01*
X12624943Y-9554460D02*
X12605896Y-9563984D01*
X12605896Y-9563984D02*
X12567801Y-9563984D01*
X12567801Y-9563984D02*
X12548753Y-9554460D01*
X12729705Y-9544936D02*
X12739229Y-9554460D01*
X12739229Y-9554460D02*
X12729705Y-9563984D01*
X12729705Y-9563984D02*
X12720182Y-9554460D01*
X12720182Y-9554460D02*
X12729705Y-9544936D01*
X12729705Y-9544936D02*
X12729705Y-9563984D01*
X12729705Y-9440174D02*
X12739229Y-9449698D01*
X12739229Y-9449698D02*
X12729705Y-9459222D01*
X12729705Y-9459222D02*
X12720182Y-9449698D01*
X12720182Y-9449698D02*
X12729705Y-9440174D01*
X12729705Y-9440174D02*
X12729705Y-9459222D01*
D12*
X10947500Y-9817500D02*
X11097500Y-9967500D01*
X11097500Y-9817500D02*
X10947500Y-9967500D01*
D11*
X11463039Y-9983984D02*
X11348753Y-9983984D01*
X11405896Y-9983984D02*
X11405896Y-9783984D01*
X11405896Y-9783984D02*
X11386848Y-9812555D01*
X11386848Y-9812555D02*
X11367801Y-9831603D01*
X11367801Y-9831603D02*
X11348753Y-9841127D01*
X11548753Y-9964936D02*
X11558277Y-9974460D01*
X11558277Y-9974460D02*
X11548753Y-9983984D01*
X11548753Y-9983984D02*
X11539229Y-9974460D01*
X11539229Y-9974460D02*
X11548753Y-9964936D01*
X11548753Y-9964936D02*
X11548753Y-9983984D01*
X11739229Y-9783984D02*
X11643991Y-9783984D01*
X11643991Y-9783984D02*
X11634467Y-9879222D01*
X11634467Y-9879222D02*
X11643991Y-9869698D01*
X11643991Y-9869698D02*
X11663039Y-9860174D01*
X11663039Y-9860174D02*
X11710658Y-9860174D01*
X11710658Y-9860174D02*
X11729705Y-9869698D01*
X11729705Y-9869698D02*
X11739229Y-9879222D01*
X11739229Y-9879222D02*
X11748753Y-9898270D01*
X11748753Y-9898270D02*
X11748753Y-9945889D01*
X11748753Y-9945889D02*
X11739229Y-9964936D01*
X11739229Y-9964936D02*
X11729705Y-9974460D01*
X11729705Y-9974460D02*
X11710658Y-9983984D01*
X11710658Y-9983984D02*
X11663039Y-9983984D01*
X11663039Y-9983984D02*
X11643991Y-9974460D01*
X11643991Y-9974460D02*
X11634467Y-9964936D01*
X11872562Y-9783984D02*
X11891610Y-9783984D01*
X11891610Y-9783984D02*
X11910658Y-9793508D01*
X11910658Y-9793508D02*
X11920182Y-9803031D01*
X11920182Y-9803031D02*
X11929705Y-9822079D01*
X11929705Y-9822079D02*
X11939229Y-9860174D01*
X11939229Y-9860174D02*
X11939229Y-9907793D01*
X11939229Y-9907793D02*
X11929705Y-9945889D01*
X11929705Y-9945889D02*
X11920182Y-9964936D01*
X11920182Y-9964936D02*
X11910658Y-9974460D01*
X11910658Y-9974460D02*
X11891610Y-9983984D01*
X11891610Y-9983984D02*
X11872562Y-9983984D01*
X11872562Y-9983984D02*
X11853515Y-9974460D01*
X11853515Y-9974460D02*
X11843991Y-9964936D01*
X11843991Y-9964936D02*
X11834467Y-9945889D01*
X11834467Y-9945889D02*
X11824943Y-9907793D01*
X11824943Y-9907793D02*
X11824943Y-9860174D01*
X11824943Y-9860174D02*
X11834467Y-9822079D01*
X11834467Y-9822079D02*
X11843991Y-9803031D01*
X11843991Y-9803031D02*
X11853515Y-9793508D01*
X11853515Y-9793508D02*
X11872562Y-9783984D01*
X12063039Y-9783984D02*
X12082086Y-9783984D01*
X12082086Y-9783984D02*
X12101134Y-9793508D01*
X12101134Y-9793508D02*
X12110658Y-9803031D01*
X12110658Y-9803031D02*
X12120182Y-9822079D01*
X12120182Y-9822079D02*
X12129705Y-9860174D01*
X12129705Y-9860174D02*
X12129705Y-9907793D01*
X12129705Y-9907793D02*
X12120182Y-9945889D01*
X12120182Y-9945889D02*
X12110658Y-9964936D01*
X12110658Y-9964936D02*
X12101134Y-9974460D01*
X12101134Y-9974460D02*
X12082086Y-9983984D01*
X12082086Y-9983984D02*
X12063039Y-9983984D01*
X12063039Y-9983984D02*
X12043991Y-9974460D01*
X12043991Y-9974460D02*
X12034467Y-9964936D01*
X12034467Y-9964936D02*
X12024943Y-9945889D01*
X12024943Y-9945889D02*
X12015420Y-9907793D01*
X12015420Y-9907793D02*
X12015420Y-9860174D01*
X12015420Y-9860174D02*
X12024943Y-9822079D01*
X12024943Y-9822079D02*
X12034467Y-9803031D01*
X12034467Y-9803031D02*
X12043991Y-9793508D01*
X12043991Y-9793508D02*
X12063039Y-9783984D01*
X12215420Y-9983984D02*
X12215420Y-9850650D01*
X12215420Y-9869698D02*
X12224943Y-9860174D01*
X12224943Y-9860174D02*
X12243991Y-9850650D01*
X12243991Y-9850650D02*
X12272563Y-9850650D01*
X12272563Y-9850650D02*
X12291610Y-9860174D01*
X12291610Y-9860174D02*
X12301134Y-9879222D01*
X12301134Y-9879222D02*
X12301134Y-9983984D01*
X12301134Y-9879222D02*
X12310658Y-9860174D01*
X12310658Y-9860174D02*
X12329705Y-9850650D01*
X12329705Y-9850650D02*
X12358277Y-9850650D01*
X12358277Y-9850650D02*
X12377324Y-9860174D01*
X12377324Y-9860174D02*
X12386848Y-9879222D01*
X12386848Y-9879222D02*
X12386848Y-9983984D01*
X12482086Y-9983984D02*
X12482086Y-9850650D01*
X12482086Y-9869698D02*
X12491610Y-9860174D01*
X12491610Y-9860174D02*
X12510658Y-9850650D01*
X12510658Y-9850650D02*
X12539229Y-9850650D01*
X12539229Y-9850650D02*
X12558277Y-9860174D01*
X12558277Y-9860174D02*
X12567801Y-9879222D01*
X12567801Y-9879222D02*
X12567801Y-9983984D01*
X12567801Y-9879222D02*
X12577324Y-9860174D01*
X12577324Y-9860174D02*
X12596372Y-9850650D01*
X12596372Y-9850650D02*
X12624943Y-9850650D01*
X12624943Y-9850650D02*
X12643991Y-9860174D01*
X12643991Y-9860174D02*
X12653515Y-9879222D01*
X12653515Y-9879222D02*
X12653515Y-9983984D01*
X13043991Y-9774460D02*
X12872563Y-10031603D01*
X13301134Y-9783984D02*
X13320182Y-9783984D01*
X13320182Y-9783984D02*
X13339229Y-9793508D01*
X13339229Y-9793508D02*
X13348753Y-9803031D01*
X13348753Y-9803031D02*
X13358277Y-9822079D01*
X13358277Y-9822079D02*
X13367801Y-9860174D01*
X13367801Y-9860174D02*
X13367801Y-9907793D01*
X13367801Y-9907793D02*
X13358277Y-9945889D01*
X13358277Y-9945889D02*
X13348753Y-9964936D01*
X13348753Y-9964936D02*
X13339229Y-9974460D01*
X13339229Y-9974460D02*
X13320182Y-9983984D01*
X13320182Y-9983984D02*
X13301134Y-9983984D01*
X13301134Y-9983984D02*
X13282086Y-9974460D01*
X13282086Y-9974460D02*
X13272563Y-9964936D01*
X13272563Y-9964936D02*
X13263039Y-9945889D01*
X13263039Y-9945889D02*
X13253515Y-9907793D01*
X13253515Y-9907793D02*
X13253515Y-9860174D01*
X13253515Y-9860174D02*
X13263039Y-9822079D01*
X13263039Y-9822079D02*
X13272563Y-9803031D01*
X13272563Y-9803031D02*
X13282086Y-9793508D01*
X13282086Y-9793508D02*
X13301134Y-9783984D01*
X13453515Y-9964936D02*
X13463039Y-9974460D01*
X13463039Y-9974460D02*
X13453515Y-9983984D01*
X13453515Y-9983984D02*
X13443991Y-9974460D01*
X13443991Y-9974460D02*
X13453515Y-9964936D01*
X13453515Y-9964936D02*
X13453515Y-9983984D01*
X13586848Y-9783984D02*
X13605896Y-9783984D01*
X13605896Y-9783984D02*
X13624944Y-9793508D01*
X13624944Y-9793508D02*
X13634467Y-9803031D01*
X13634467Y-9803031D02*
X13643991Y-9822079D01*
X13643991Y-9822079D02*
X13653515Y-9860174D01*
X13653515Y-9860174D02*
X13653515Y-9907793D01*
X13653515Y-9907793D02*
X13643991Y-9945889D01*
X13643991Y-9945889D02*
X13634467Y-9964936D01*
X13634467Y-9964936D02*
X13624944Y-9974460D01*
X13624944Y-9974460D02*
X13605896Y-9983984D01*
X13605896Y-9983984D02*
X13586848Y-9983984D01*
X13586848Y-9983984D02*
X13567801Y-9974460D01*
X13567801Y-9974460D02*
X13558277Y-9964936D01*
X13558277Y-9964936D02*
X13548753Y-9945889D01*
X13548753Y-9945889D02*
X13539229Y-9907793D01*
X13539229Y-9907793D02*
X13539229Y-9860174D01*
X13539229Y-9860174D02*
X13548753Y-9822079D01*
X13548753Y-9822079D02*
X13558277Y-9803031D01*
X13558277Y-9803031D02*
X13567801Y-9793508D01*
X13567801Y-9793508D02*
X13586848Y-9783984D01*
X13834467Y-9783984D02*
X13739229Y-9783984D01*
X13739229Y-9783984D02*
X13729706Y-9879222D01*
X13729706Y-9879222D02*
X13739229Y-9869698D01*
X13739229Y-9869698D02*
X13758277Y-9860174D01*
X13758277Y-9860174D02*
X13805896Y-9860174D01*
X13805896Y-9860174D02*
X13824944Y-9869698D01*
X13824944Y-9869698D02*
X13834467Y-9879222D01*
X13834467Y-9879222D02*
X13843991Y-9898270D01*
X13843991Y-9898270D02*
X13843991Y-9945889D01*
X13843991Y-9945889D02*
X13834467Y-9964936D01*
X13834467Y-9964936D02*
X13824944Y-9974460D01*
X13824944Y-9974460D02*
X13805896Y-9983984D01*
X13805896Y-9983984D02*
X13758277Y-9983984D01*
X13758277Y-9983984D02*
X13739229Y-9974460D01*
X13739229Y-9974460D02*
X13729706Y-9964936D01*
X13939229Y-9983984D02*
X13977325Y-9983984D01*
X13977325Y-9983984D02*
X13996372Y-9974460D01*
X13996372Y-9974460D02*
X14005896Y-9964936D01*
X14005896Y-9964936D02*
X14024944Y-9936365D01*
X14024944Y-9936365D02*
X14034467Y-9898270D01*
X14034467Y-9898270D02*
X14034467Y-9822079D01*
X14034467Y-9822079D02*
X14024944Y-9803031D01*
X14024944Y-9803031D02*
X14015420Y-9793508D01*
X14015420Y-9793508D02*
X13996372Y-9783984D01*
X13996372Y-9783984D02*
X13958277Y-9783984D01*
X13958277Y-9783984D02*
X13939229Y-9793508D01*
X13939229Y-9793508D02*
X13929706Y-9803031D01*
X13929706Y-9803031D02*
X13920182Y-9822079D01*
X13920182Y-9822079D02*
X13920182Y-9869698D01*
X13920182Y-9869698D02*
X13929706Y-9888746D01*
X13929706Y-9888746D02*
X13939229Y-9898270D01*
X13939229Y-9898270D02*
X13958277Y-9907793D01*
X13958277Y-9907793D02*
X13996372Y-9907793D01*
X13996372Y-9907793D02*
X14015420Y-9898270D01*
X14015420Y-9898270D02*
X14024944Y-9888746D01*
X14024944Y-9888746D02*
X14034467Y-9869698D01*
X14224944Y-9983984D02*
X14110658Y-9983984D01*
X14167801Y-9983984D02*
X14167801Y-9783984D01*
X14167801Y-9783984D02*
X14148753Y-9812555D01*
X14148753Y-9812555D02*
X14129706Y-9831603D01*
X14129706Y-9831603D02*
X14110658Y-9841127D01*
X14301134Y-9783984D02*
X14301134Y-9822079D01*
X14377325Y-9783984D02*
X14377325Y-9822079D01*
X14672563Y-10060174D02*
X14663039Y-10050650D01*
X14663039Y-10050650D02*
X14643991Y-10022079D01*
X14643991Y-10022079D02*
X14634468Y-10003031D01*
X14634468Y-10003031D02*
X14624944Y-9974460D01*
X14624944Y-9974460D02*
X14615420Y-9926841D01*
X14615420Y-9926841D02*
X14615420Y-9888746D01*
X14615420Y-9888746D02*
X14624944Y-9841127D01*
X14624944Y-9841127D02*
X14634468Y-9812555D01*
X14634468Y-9812555D02*
X14643991Y-9793508D01*
X14643991Y-9793508D02*
X14663039Y-9764936D01*
X14663039Y-9764936D02*
X14672563Y-9755412D01*
X14739229Y-9803031D02*
X14748753Y-9793508D01*
X14748753Y-9793508D02*
X14767801Y-9783984D01*
X14767801Y-9783984D02*
X14815420Y-9783984D01*
X14815420Y-9783984D02*
X14834468Y-9793508D01*
X14834468Y-9793508D02*
X14843991Y-9803031D01*
X14843991Y-9803031D02*
X14853515Y-9822079D01*
X14853515Y-9822079D02*
X14853515Y-9841127D01*
X14853515Y-9841127D02*
X14843991Y-9869698D01*
X14843991Y-9869698D02*
X14729706Y-9983984D01*
X14729706Y-9983984D02*
X14853515Y-9983984D01*
X15091610Y-9983984D02*
X15091610Y-9783984D01*
X15177325Y-9983984D02*
X15177325Y-9879222D01*
X15177325Y-9879222D02*
X15167801Y-9860174D01*
X15167801Y-9860174D02*
X15148753Y-9850650D01*
X15148753Y-9850650D02*
X15120182Y-9850650D01*
X15120182Y-9850650D02*
X15101134Y-9860174D01*
X15101134Y-9860174D02*
X15091610Y-9869698D01*
X15301134Y-9983984D02*
X15282087Y-9974460D01*
X15282087Y-9974460D02*
X15272563Y-9964936D01*
X15272563Y-9964936D02*
X15263039Y-9945889D01*
X15263039Y-9945889D02*
X15263039Y-9888746D01*
X15263039Y-9888746D02*
X15272563Y-9869698D01*
X15272563Y-9869698D02*
X15282087Y-9860174D01*
X15282087Y-9860174D02*
X15301134Y-9850650D01*
X15301134Y-9850650D02*
X15329706Y-9850650D01*
X15329706Y-9850650D02*
X15348753Y-9860174D01*
X15348753Y-9860174D02*
X15358277Y-9869698D01*
X15358277Y-9869698D02*
X15367801Y-9888746D01*
X15367801Y-9888746D02*
X15367801Y-9945889D01*
X15367801Y-9945889D02*
X15358277Y-9964936D01*
X15358277Y-9964936D02*
X15348753Y-9974460D01*
X15348753Y-9974460D02*
X15329706Y-9983984D01*
X15329706Y-9983984D02*
X15301134Y-9983984D01*
X15482087Y-9983984D02*
X15463039Y-9974460D01*
X15463039Y-9974460D02*
X15453515Y-9955412D01*
X15453515Y-9955412D02*
X15453515Y-9783984D01*
X15634468Y-9974460D02*
X15615420Y-9983984D01*
X15615420Y-9983984D02*
X15577325Y-9983984D01*
X15577325Y-9983984D02*
X15558277Y-9974460D01*
X15558277Y-9974460D02*
X15548753Y-9955412D01*
X15548753Y-9955412D02*
X15548753Y-9879222D01*
X15548753Y-9879222D02*
X15558277Y-9860174D01*
X15558277Y-9860174D02*
X15577325Y-9850650D01*
X15577325Y-9850650D02*
X15615420Y-9850650D01*
X15615420Y-9850650D02*
X15634468Y-9860174D01*
X15634468Y-9860174D02*
X15643991Y-9879222D01*
X15643991Y-9879222D02*
X15643991Y-9898270D01*
X15643991Y-9898270D02*
X15548753Y-9917317D01*
X15720182Y-9974460D02*
X15739230Y-9983984D01*
X15739230Y-9983984D02*
X15777325Y-9983984D01*
X15777325Y-9983984D02*
X15796372Y-9974460D01*
X15796372Y-9974460D02*
X15805896Y-9955412D01*
X15805896Y-9955412D02*
X15805896Y-9945889D01*
X15805896Y-9945889D02*
X15796372Y-9926841D01*
X15796372Y-9926841D02*
X15777325Y-9917317D01*
X15777325Y-9917317D02*
X15748753Y-9917317D01*
X15748753Y-9917317D02*
X15729706Y-9907793D01*
X15729706Y-9907793D02*
X15720182Y-9888746D01*
X15720182Y-9888746D02*
X15720182Y-9879222D01*
X15720182Y-9879222D02*
X15729706Y-9860174D01*
X15729706Y-9860174D02*
X15748753Y-9850650D01*
X15748753Y-9850650D02*
X15777325Y-9850650D01*
X15777325Y-9850650D02*
X15796372Y-9860174D01*
X15872563Y-10060174D02*
X15882087Y-10050650D01*
X15882087Y-10050650D02*
X15901134Y-10022079D01*
X15901134Y-10022079D02*
X15910658Y-10003031D01*
X15910658Y-10003031D02*
X15920182Y-9974460D01*
X15920182Y-9974460D02*
X15929706Y-9926841D01*
X15929706Y-9926841D02*
X15929706Y-9888746D01*
X15929706Y-9888746D02*
X15920182Y-9841127D01*
X15920182Y-9841127D02*
X15910658Y-9812555D01*
X15910658Y-9812555D02*
X15901134Y-9793508D01*
X15901134Y-9793508D02*
X15882087Y-9764936D01*
X15882087Y-9764936D02*
X15872563Y-9755412D01*
X16234468Y-10060174D02*
X16224944Y-10050650D01*
X16224944Y-10050650D02*
X16205896Y-10022079D01*
X16205896Y-10022079D02*
X16196372Y-10003031D01*
X16196372Y-10003031D02*
X16186849Y-9974460D01*
X16186849Y-9974460D02*
X16177325Y-9926841D01*
X16177325Y-9926841D02*
X16177325Y-9888746D01*
X16177325Y-9888746D02*
X16186849Y-9841127D01*
X16186849Y-9841127D02*
X16196372Y-9812555D01*
X16196372Y-9812555D02*
X16205896Y-9793508D01*
X16205896Y-9793508D02*
X16224944Y-9764936D01*
X16224944Y-9764936D02*
X16234468Y-9755412D01*
X16310658Y-9850650D02*
X16310658Y-9983984D01*
X16310658Y-9869698D02*
X16320182Y-9860174D01*
X16320182Y-9860174D02*
X16339230Y-9850650D01*
X16339230Y-9850650D02*
X16367801Y-9850650D01*
X16367801Y-9850650D02*
X16386849Y-9860174D01*
X16386849Y-9860174D02*
X16396372Y-9879222D01*
X16396372Y-9879222D02*
X16396372Y-9983984D01*
X16520182Y-9983984D02*
X16501134Y-9974460D01*
X16501134Y-9974460D02*
X16491611Y-9964936D01*
X16491611Y-9964936D02*
X16482087Y-9945889D01*
X16482087Y-9945889D02*
X16482087Y-9888746D01*
X16482087Y-9888746D02*
X16491611Y-9869698D01*
X16491611Y-9869698D02*
X16501134Y-9860174D01*
X16501134Y-9860174D02*
X16520182Y-9850650D01*
X16520182Y-9850650D02*
X16548753Y-9850650D01*
X16548753Y-9850650D02*
X16567801Y-9860174D01*
X16567801Y-9860174D02*
X16577325Y-9869698D01*
X16577325Y-9869698D02*
X16586849Y-9888746D01*
X16586849Y-9888746D02*
X16586849Y-9945889D01*
X16586849Y-9945889D02*
X16577325Y-9964936D01*
X16577325Y-9964936D02*
X16567801Y-9974460D01*
X16567801Y-9974460D02*
X16548753Y-9983984D01*
X16548753Y-9983984D02*
X16520182Y-9983984D01*
X16643992Y-9850650D02*
X16720182Y-9850650D01*
X16672563Y-9783984D02*
X16672563Y-9955412D01*
X16672563Y-9955412D02*
X16682087Y-9974460D01*
X16682087Y-9974460D02*
X16701134Y-9983984D01*
X16701134Y-9983984D02*
X16720182Y-9983984D01*
X16939230Y-9850650D02*
X16939230Y-10050650D01*
X16939230Y-9860174D02*
X16958277Y-9850650D01*
X16958277Y-9850650D02*
X16996373Y-9850650D01*
X16996373Y-9850650D02*
X17015420Y-9860174D01*
X17015420Y-9860174D02*
X17024944Y-9869698D01*
X17024944Y-9869698D02*
X17034468Y-9888746D01*
X17034468Y-9888746D02*
X17034468Y-9945889D01*
X17034468Y-9945889D02*
X17024944Y-9964936D01*
X17024944Y-9964936D02*
X17015420Y-9974460D01*
X17015420Y-9974460D02*
X16996373Y-9983984D01*
X16996373Y-9983984D02*
X16958277Y-9983984D01*
X16958277Y-9983984D02*
X16939230Y-9974460D01*
X17148754Y-9983984D02*
X17129706Y-9974460D01*
X17129706Y-9974460D02*
X17120182Y-9955412D01*
X17120182Y-9955412D02*
X17120182Y-9783984D01*
X17310658Y-9983984D02*
X17310658Y-9879222D01*
X17310658Y-9879222D02*
X17301135Y-9860174D01*
X17301135Y-9860174D02*
X17282087Y-9850650D01*
X17282087Y-9850650D02*
X17243992Y-9850650D01*
X17243992Y-9850650D02*
X17224944Y-9860174D01*
X17310658Y-9974460D02*
X17291611Y-9983984D01*
X17291611Y-9983984D02*
X17243992Y-9983984D01*
X17243992Y-9983984D02*
X17224944Y-9974460D01*
X17224944Y-9974460D02*
X17215420Y-9955412D01*
X17215420Y-9955412D02*
X17215420Y-9936365D01*
X17215420Y-9936365D02*
X17224944Y-9917317D01*
X17224944Y-9917317D02*
X17243992Y-9907793D01*
X17243992Y-9907793D02*
X17291611Y-9907793D01*
X17291611Y-9907793D02*
X17310658Y-9898270D01*
X17377325Y-9850650D02*
X17453515Y-9850650D01*
X17405896Y-9783984D02*
X17405896Y-9955412D01*
X17405896Y-9955412D02*
X17415420Y-9974460D01*
X17415420Y-9974460D02*
X17434468Y-9983984D01*
X17434468Y-9983984D02*
X17453515Y-9983984D01*
X17596373Y-9974460D02*
X17577325Y-9983984D01*
X17577325Y-9983984D02*
X17539230Y-9983984D01*
X17539230Y-9983984D02*
X17520182Y-9974460D01*
X17520182Y-9974460D02*
X17510658Y-9955412D01*
X17510658Y-9955412D02*
X17510658Y-9879222D01*
X17510658Y-9879222D02*
X17520182Y-9860174D01*
X17520182Y-9860174D02*
X17539230Y-9850650D01*
X17539230Y-9850650D02*
X17577325Y-9850650D01*
X17577325Y-9850650D02*
X17596373Y-9860174D01*
X17596373Y-9860174D02*
X17605896Y-9879222D01*
X17605896Y-9879222D02*
X17605896Y-9898270D01*
X17605896Y-9898270D02*
X17510658Y-9917317D01*
X17777325Y-9983984D02*
X17777325Y-9783984D01*
X17777325Y-9974460D02*
X17758277Y-9983984D01*
X17758277Y-9983984D02*
X17720182Y-9983984D01*
X17720182Y-9983984D02*
X17701135Y-9974460D01*
X17701135Y-9974460D02*
X17691611Y-9964936D01*
X17691611Y-9964936D02*
X17682087Y-9945889D01*
X17682087Y-9945889D02*
X17682087Y-9888746D01*
X17682087Y-9888746D02*
X17691611Y-9869698D01*
X17691611Y-9869698D02*
X17701135Y-9860174D01*
X17701135Y-9860174D02*
X17720182Y-9850650D01*
X17720182Y-9850650D02*
X17758277Y-9850650D01*
X17758277Y-9850650D02*
X17777325Y-9860174D01*
X17853516Y-10060174D02*
X17863039Y-10050650D01*
X17863039Y-10050650D02*
X17882087Y-10022079D01*
X17882087Y-10022079D02*
X17891611Y-10003031D01*
X17891611Y-10003031D02*
X17901135Y-9974460D01*
X17901135Y-9974460D02*
X17910658Y-9926841D01*
X17910658Y-9926841D02*
X17910658Y-9888746D01*
X17910658Y-9888746D02*
X17901135Y-9841127D01*
X17901135Y-9841127D02*
X17891611Y-9812555D01*
X17891611Y-9812555D02*
X17882087Y-9793508D01*
X17882087Y-9793508D02*
X17863039Y-9764936D01*
X17863039Y-9764936D02*
X17853516Y-9755412D01*
D13*
X11097500Y-10162500D02*
G75*
G02*
X10917500Y-10162500I-90000J0D01*
G01*
X10917500Y-10162500D02*
G75*
G02*
X11097500Y-10162500I90000J0D01*
G01*
D11*
X11463039Y-10253984D02*
X11348753Y-10253984D01*
X11405896Y-10253984D02*
X11405896Y-10053984D01*
X11405896Y-10053984D02*
X11386848Y-10082555D01*
X11386848Y-10082555D02*
X11367801Y-10101603D01*
X11367801Y-10101603D02*
X11348753Y-10111127D01*
X11548753Y-10234936D02*
X11558277Y-10244460D01*
X11558277Y-10244460D02*
X11548753Y-10253984D01*
X11548753Y-10253984D02*
X11539229Y-10244460D01*
X11539229Y-10244460D02*
X11548753Y-10234936D01*
X11548753Y-10234936D02*
X11548753Y-10253984D01*
X11672562Y-10139698D02*
X11653515Y-10130174D01*
X11653515Y-10130174D02*
X11643991Y-10120650D01*
X11643991Y-10120650D02*
X11634467Y-10101603D01*
X11634467Y-10101603D02*
X11634467Y-10092079D01*
X11634467Y-10092079D02*
X11643991Y-10073031D01*
X11643991Y-10073031D02*
X11653515Y-10063508D01*
X11653515Y-10063508D02*
X11672562Y-10053984D01*
X11672562Y-10053984D02*
X11710658Y-10053984D01*
X11710658Y-10053984D02*
X11729705Y-10063508D01*
X11729705Y-10063508D02*
X11739229Y-10073031D01*
X11739229Y-10073031D02*
X11748753Y-10092079D01*
X11748753Y-10092079D02*
X11748753Y-10101603D01*
X11748753Y-10101603D02*
X11739229Y-10120650D01*
X11739229Y-10120650D02*
X11729705Y-10130174D01*
X11729705Y-10130174D02*
X11710658Y-10139698D01*
X11710658Y-10139698D02*
X11672562Y-10139698D01*
X11672562Y-10139698D02*
X11653515Y-10149222D01*
X11653515Y-10149222D02*
X11643991Y-10158746D01*
X11643991Y-10158746D02*
X11634467Y-10177793D01*
X11634467Y-10177793D02*
X11634467Y-10215889D01*
X11634467Y-10215889D02*
X11643991Y-10234936D01*
X11643991Y-10234936D02*
X11653515Y-10244460D01*
X11653515Y-10244460D02*
X11672562Y-10253984D01*
X11672562Y-10253984D02*
X11710658Y-10253984D01*
X11710658Y-10253984D02*
X11729705Y-10244460D01*
X11729705Y-10244460D02*
X11739229Y-10234936D01*
X11739229Y-10234936D02*
X11748753Y-10215889D01*
X11748753Y-10215889D02*
X11748753Y-10177793D01*
X11748753Y-10177793D02*
X11739229Y-10158746D01*
X11739229Y-10158746D02*
X11729705Y-10149222D01*
X11729705Y-10149222D02*
X11710658Y-10139698D01*
X11872562Y-10053984D02*
X11891610Y-10053984D01*
X11891610Y-10053984D02*
X11910658Y-10063508D01*
X11910658Y-10063508D02*
X11920182Y-10073031D01*
X11920182Y-10073031D02*
X11929705Y-10092079D01*
X11929705Y-10092079D02*
X11939229Y-10130174D01*
X11939229Y-10130174D02*
X11939229Y-10177793D01*
X11939229Y-10177793D02*
X11929705Y-10215889D01*
X11929705Y-10215889D02*
X11920182Y-10234936D01*
X11920182Y-10234936D02*
X11910658Y-10244460D01*
X11910658Y-10244460D02*
X11891610Y-10253984D01*
X11891610Y-10253984D02*
X11872562Y-10253984D01*
X11872562Y-10253984D02*
X11853515Y-10244460D01*
X11853515Y-10244460D02*
X11843991Y-10234936D01*
X11843991Y-10234936D02*
X11834467Y-10215889D01*
X11834467Y-10215889D02*
X11824943Y-10177793D01*
X11824943Y-10177793D02*
X11824943Y-10130174D01*
X11824943Y-10130174D02*
X11834467Y-10092079D01*
X11834467Y-10092079D02*
X11843991Y-10073031D01*
X11843991Y-10073031D02*
X11853515Y-10063508D01*
X11853515Y-10063508D02*
X11872562Y-10053984D01*
X12063039Y-10053984D02*
X12082086Y-10053984D01*
X12082086Y-10053984D02*
X12101134Y-10063508D01*
X12101134Y-10063508D02*
X12110658Y-10073031D01*
X12110658Y-10073031D02*
X12120182Y-10092079D01*
X12120182Y-10092079D02*
X12129705Y-10130174D01*
X12129705Y-10130174D02*
X12129705Y-10177793D01*
X12129705Y-10177793D02*
X12120182Y-10215889D01*
X12120182Y-10215889D02*
X12110658Y-10234936D01*
X12110658Y-10234936D02*
X12101134Y-10244460D01*
X12101134Y-10244460D02*
X12082086Y-10253984D01*
X12082086Y-10253984D02*
X12063039Y-10253984D01*
X12063039Y-10253984D02*
X12043991Y-10244460D01*
X12043991Y-10244460D02*
X12034467Y-10234936D01*
X12034467Y-10234936D02*
X12024943Y-10215889D01*
X12024943Y-10215889D02*
X12015420Y-10177793D01*
X12015420Y-10177793D02*
X12015420Y-10130174D01*
X12015420Y-10130174D02*
X12024943Y-10092079D01*
X12024943Y-10092079D02*
X12034467Y-10073031D01*
X12034467Y-10073031D02*
X12043991Y-10063508D01*
X12043991Y-10063508D02*
X12063039Y-10053984D01*
X12215420Y-10253984D02*
X12215420Y-10120650D01*
X12215420Y-10139698D02*
X12224943Y-10130174D01*
X12224943Y-10130174D02*
X12243991Y-10120650D01*
X12243991Y-10120650D02*
X12272563Y-10120650D01*
X12272563Y-10120650D02*
X12291610Y-10130174D01*
X12291610Y-10130174D02*
X12301134Y-10149222D01*
X12301134Y-10149222D02*
X12301134Y-10253984D01*
X12301134Y-10149222D02*
X12310658Y-10130174D01*
X12310658Y-10130174D02*
X12329705Y-10120650D01*
X12329705Y-10120650D02*
X12358277Y-10120650D01*
X12358277Y-10120650D02*
X12377324Y-10130174D01*
X12377324Y-10130174D02*
X12386848Y-10149222D01*
X12386848Y-10149222D02*
X12386848Y-10253984D01*
X12482086Y-10253984D02*
X12482086Y-10120650D01*
X12482086Y-10139698D02*
X12491610Y-10130174D01*
X12491610Y-10130174D02*
X12510658Y-10120650D01*
X12510658Y-10120650D02*
X12539229Y-10120650D01*
X12539229Y-10120650D02*
X12558277Y-10130174D01*
X12558277Y-10130174D02*
X12567801Y-10149222D01*
X12567801Y-10149222D02*
X12567801Y-10253984D01*
X12567801Y-10149222D02*
X12577324Y-10130174D01*
X12577324Y-10130174D02*
X12596372Y-10120650D01*
X12596372Y-10120650D02*
X12624943Y-10120650D01*
X12624943Y-10120650D02*
X12643991Y-10130174D01*
X12643991Y-10130174D02*
X12653515Y-10149222D01*
X12653515Y-10149222D02*
X12653515Y-10253984D01*
X13043991Y-10044460D02*
X12872563Y-10301603D01*
X13301134Y-10053984D02*
X13320182Y-10053984D01*
X13320182Y-10053984D02*
X13339229Y-10063508D01*
X13339229Y-10063508D02*
X13348753Y-10073031D01*
X13348753Y-10073031D02*
X13358277Y-10092079D01*
X13358277Y-10092079D02*
X13367801Y-10130174D01*
X13367801Y-10130174D02*
X13367801Y-10177793D01*
X13367801Y-10177793D02*
X13358277Y-10215889D01*
X13358277Y-10215889D02*
X13348753Y-10234936D01*
X13348753Y-10234936D02*
X13339229Y-10244460D01*
X13339229Y-10244460D02*
X13320182Y-10253984D01*
X13320182Y-10253984D02*
X13301134Y-10253984D01*
X13301134Y-10253984D02*
X13282086Y-10244460D01*
X13282086Y-10244460D02*
X13272563Y-10234936D01*
X13272563Y-10234936D02*
X13263039Y-10215889D01*
X13263039Y-10215889D02*
X13253515Y-10177793D01*
X13253515Y-10177793D02*
X13253515Y-10130174D01*
X13253515Y-10130174D02*
X13263039Y-10092079D01*
X13263039Y-10092079D02*
X13272563Y-10073031D01*
X13272563Y-10073031D02*
X13282086Y-10063508D01*
X13282086Y-10063508D02*
X13301134Y-10053984D01*
X13453515Y-10234936D02*
X13463039Y-10244460D01*
X13463039Y-10244460D02*
X13453515Y-10253984D01*
X13453515Y-10253984D02*
X13443991Y-10244460D01*
X13443991Y-10244460D02*
X13453515Y-10234936D01*
X13453515Y-10234936D02*
X13453515Y-10253984D01*
X13586848Y-10053984D02*
X13605896Y-10053984D01*
X13605896Y-10053984D02*
X13624944Y-10063508D01*
X13624944Y-10063508D02*
X13634467Y-10073031D01*
X13634467Y-10073031D02*
X13643991Y-10092079D01*
X13643991Y-10092079D02*
X13653515Y-10130174D01*
X13653515Y-10130174D02*
X13653515Y-10177793D01*
X13653515Y-10177793D02*
X13643991Y-10215889D01*
X13643991Y-10215889D02*
X13634467Y-10234936D01*
X13634467Y-10234936D02*
X13624944Y-10244460D01*
X13624944Y-10244460D02*
X13605896Y-10253984D01*
X13605896Y-10253984D02*
X13586848Y-10253984D01*
X13586848Y-10253984D02*
X13567801Y-10244460D01*
X13567801Y-10244460D02*
X13558277Y-10234936D01*
X13558277Y-10234936D02*
X13548753Y-10215889D01*
X13548753Y-10215889D02*
X13539229Y-10177793D01*
X13539229Y-10177793D02*
X13539229Y-10130174D01*
X13539229Y-10130174D02*
X13548753Y-10092079D01*
X13548753Y-10092079D02*
X13558277Y-10073031D01*
X13558277Y-10073031D02*
X13567801Y-10063508D01*
X13567801Y-10063508D02*
X13586848Y-10053984D01*
X13720182Y-10053984D02*
X13853515Y-10053984D01*
X13853515Y-10053984D02*
X13767801Y-10253984D01*
X13967801Y-10053984D02*
X13986848Y-10053984D01*
X13986848Y-10053984D02*
X14005896Y-10063508D01*
X14005896Y-10063508D02*
X14015420Y-10073031D01*
X14015420Y-10073031D02*
X14024944Y-10092079D01*
X14024944Y-10092079D02*
X14034467Y-10130174D01*
X14034467Y-10130174D02*
X14034467Y-10177793D01*
X14034467Y-10177793D02*
X14024944Y-10215889D01*
X14024944Y-10215889D02*
X14015420Y-10234936D01*
X14015420Y-10234936D02*
X14005896Y-10244460D01*
X14005896Y-10244460D02*
X13986848Y-10253984D01*
X13986848Y-10253984D02*
X13967801Y-10253984D01*
X13967801Y-10253984D02*
X13948753Y-10244460D01*
X13948753Y-10244460D02*
X13939229Y-10234936D01*
X13939229Y-10234936D02*
X13929706Y-10215889D01*
X13929706Y-10215889D02*
X13920182Y-10177793D01*
X13920182Y-10177793D02*
X13920182Y-10130174D01*
X13920182Y-10130174D02*
X13929706Y-10092079D01*
X13929706Y-10092079D02*
X13939229Y-10073031D01*
X13939229Y-10073031D02*
X13948753Y-10063508D01*
X13948753Y-10063508D02*
X13967801Y-10053984D01*
X14129706Y-10253984D02*
X14167801Y-10253984D01*
X14167801Y-10253984D02*
X14186848Y-10244460D01*
X14186848Y-10244460D02*
X14196372Y-10234936D01*
X14196372Y-10234936D02*
X14215420Y-10206365D01*
X14215420Y-10206365D02*
X14224944Y-10168270D01*
X14224944Y-10168270D02*
X14224944Y-10092079D01*
X14224944Y-10092079D02*
X14215420Y-10073031D01*
X14215420Y-10073031D02*
X14205896Y-10063508D01*
X14205896Y-10063508D02*
X14186848Y-10053984D01*
X14186848Y-10053984D02*
X14148753Y-10053984D01*
X14148753Y-10053984D02*
X14129706Y-10063508D01*
X14129706Y-10063508D02*
X14120182Y-10073031D01*
X14120182Y-10073031D02*
X14110658Y-10092079D01*
X14110658Y-10092079D02*
X14110658Y-10139698D01*
X14110658Y-10139698D02*
X14120182Y-10158746D01*
X14120182Y-10158746D02*
X14129706Y-10168270D01*
X14129706Y-10168270D02*
X14148753Y-10177793D01*
X14148753Y-10177793D02*
X14186848Y-10177793D01*
X14186848Y-10177793D02*
X14205896Y-10168270D01*
X14205896Y-10168270D02*
X14215420Y-10158746D01*
X14215420Y-10158746D02*
X14224944Y-10139698D01*
X14301134Y-10053984D02*
X14301134Y-10092079D01*
X14377325Y-10053984D02*
X14377325Y-10092079D01*
X14672563Y-10330174D02*
X14663039Y-10320650D01*
X14663039Y-10320650D02*
X14643991Y-10292079D01*
X14643991Y-10292079D02*
X14634468Y-10273031D01*
X14634468Y-10273031D02*
X14624944Y-10244460D01*
X14624944Y-10244460D02*
X14615420Y-10196841D01*
X14615420Y-10196841D02*
X14615420Y-10158746D01*
X14615420Y-10158746D02*
X14624944Y-10111127D01*
X14624944Y-10111127D02*
X14634468Y-10082555D01*
X14634468Y-10082555D02*
X14643991Y-10063508D01*
X14643991Y-10063508D02*
X14663039Y-10034936D01*
X14663039Y-10034936D02*
X14672563Y-10025412D01*
X14739229Y-10073031D02*
X14748753Y-10063508D01*
X14748753Y-10063508D02*
X14767801Y-10053984D01*
X14767801Y-10053984D02*
X14815420Y-10053984D01*
X14815420Y-10053984D02*
X14834468Y-10063508D01*
X14834468Y-10063508D02*
X14843991Y-10073031D01*
X14843991Y-10073031D02*
X14853515Y-10092079D01*
X14853515Y-10092079D02*
X14853515Y-10111127D01*
X14853515Y-10111127D02*
X14843991Y-10139698D01*
X14843991Y-10139698D02*
X14729706Y-10253984D01*
X14729706Y-10253984D02*
X14853515Y-10253984D01*
X15091610Y-10253984D02*
X15091610Y-10053984D01*
X15177325Y-10253984D02*
X15177325Y-10149222D01*
X15177325Y-10149222D02*
X15167801Y-10130174D01*
X15167801Y-10130174D02*
X15148753Y-10120650D01*
X15148753Y-10120650D02*
X15120182Y-10120650D01*
X15120182Y-10120650D02*
X15101134Y-10130174D01*
X15101134Y-10130174D02*
X15091610Y-10139698D01*
X15301134Y-10253984D02*
X15282087Y-10244460D01*
X15282087Y-10244460D02*
X15272563Y-10234936D01*
X15272563Y-10234936D02*
X15263039Y-10215889D01*
X15263039Y-10215889D02*
X15263039Y-10158746D01*
X15263039Y-10158746D02*
X15272563Y-10139698D01*
X15272563Y-10139698D02*
X15282087Y-10130174D01*
X15282087Y-10130174D02*
X15301134Y-10120650D01*
X15301134Y-10120650D02*
X15329706Y-10120650D01*
X15329706Y-10120650D02*
X15348753Y-10130174D01*
X15348753Y-10130174D02*
X15358277Y-10139698D01*
X15358277Y-10139698D02*
X15367801Y-10158746D01*
X15367801Y-10158746D02*
X15367801Y-10215889D01*
X15367801Y-10215889D02*
X15358277Y-10234936D01*
X15358277Y-10234936D02*
X15348753Y-10244460D01*
X15348753Y-10244460D02*
X15329706Y-10253984D01*
X15329706Y-10253984D02*
X15301134Y-10253984D01*
X15482087Y-10253984D02*
X15463039Y-10244460D01*
X15463039Y-10244460D02*
X15453515Y-10225412D01*
X15453515Y-10225412D02*
X15453515Y-10053984D01*
X15634468Y-10244460D02*
X15615420Y-10253984D01*
X15615420Y-10253984D02*
X15577325Y-10253984D01*
X15577325Y-10253984D02*
X15558277Y-10244460D01*
X15558277Y-10244460D02*
X15548753Y-10225412D01*
X15548753Y-10225412D02*
X15548753Y-10149222D01*
X15548753Y-10149222D02*
X15558277Y-10130174D01*
X15558277Y-10130174D02*
X15577325Y-10120650D01*
X15577325Y-10120650D02*
X15615420Y-10120650D01*
X15615420Y-10120650D02*
X15634468Y-10130174D01*
X15634468Y-10130174D02*
X15643991Y-10149222D01*
X15643991Y-10149222D02*
X15643991Y-10168270D01*
X15643991Y-10168270D02*
X15548753Y-10187317D01*
X15720182Y-10244460D02*
X15739230Y-10253984D01*
X15739230Y-10253984D02*
X15777325Y-10253984D01*
X15777325Y-10253984D02*
X15796372Y-10244460D01*
X15796372Y-10244460D02*
X15805896Y-10225412D01*
X15805896Y-10225412D02*
X15805896Y-10215889D01*
X15805896Y-10215889D02*
X15796372Y-10196841D01*
X15796372Y-10196841D02*
X15777325Y-10187317D01*
X15777325Y-10187317D02*
X15748753Y-10187317D01*
X15748753Y-10187317D02*
X15729706Y-10177793D01*
X15729706Y-10177793D02*
X15720182Y-10158746D01*
X15720182Y-10158746D02*
X15720182Y-10149222D01*
X15720182Y-10149222D02*
X15729706Y-10130174D01*
X15729706Y-10130174D02*
X15748753Y-10120650D01*
X15748753Y-10120650D02*
X15777325Y-10120650D01*
X15777325Y-10120650D02*
X15796372Y-10130174D01*
X15872563Y-10330174D02*
X15882087Y-10320650D01*
X15882087Y-10320650D02*
X15901134Y-10292079D01*
X15901134Y-10292079D02*
X15910658Y-10273031D01*
X15910658Y-10273031D02*
X15920182Y-10244460D01*
X15920182Y-10244460D02*
X15929706Y-10196841D01*
X15929706Y-10196841D02*
X15929706Y-10158746D01*
X15929706Y-10158746D02*
X15920182Y-10111127D01*
X15920182Y-10111127D02*
X15910658Y-10082555D01*
X15910658Y-10082555D02*
X15901134Y-10063508D01*
X15901134Y-10063508D02*
X15882087Y-10034936D01*
X15882087Y-10034936D02*
X15872563Y-10025412D01*
X16234468Y-10330174D02*
X16224944Y-10320650D01*
X16224944Y-10320650D02*
X16205896Y-10292079D01*
X16205896Y-10292079D02*
X16196372Y-10273031D01*
X16196372Y-10273031D02*
X16186849Y-10244460D01*
X16186849Y-10244460D02*
X16177325Y-10196841D01*
X16177325Y-10196841D02*
X16177325Y-10158746D01*
X16177325Y-10158746D02*
X16186849Y-10111127D01*
X16186849Y-10111127D02*
X16196372Y-10082555D01*
X16196372Y-10082555D02*
X16205896Y-10063508D01*
X16205896Y-10063508D02*
X16224944Y-10034936D01*
X16224944Y-10034936D02*
X16234468Y-10025412D01*
X16310658Y-10120650D02*
X16310658Y-10253984D01*
X16310658Y-10139698D02*
X16320182Y-10130174D01*
X16320182Y-10130174D02*
X16339230Y-10120650D01*
X16339230Y-10120650D02*
X16367801Y-10120650D01*
X16367801Y-10120650D02*
X16386849Y-10130174D01*
X16386849Y-10130174D02*
X16396372Y-10149222D01*
X16396372Y-10149222D02*
X16396372Y-10253984D01*
X16520182Y-10253984D02*
X16501134Y-10244460D01*
X16501134Y-10244460D02*
X16491611Y-10234936D01*
X16491611Y-10234936D02*
X16482087Y-10215889D01*
X16482087Y-10215889D02*
X16482087Y-10158746D01*
X16482087Y-10158746D02*
X16491611Y-10139698D01*
X16491611Y-10139698D02*
X16501134Y-10130174D01*
X16501134Y-10130174D02*
X16520182Y-10120650D01*
X16520182Y-10120650D02*
X16548753Y-10120650D01*
X16548753Y-10120650D02*
X16567801Y-10130174D01*
X16567801Y-10130174D02*
X16577325Y-10139698D01*
X16577325Y-10139698D02*
X16586849Y-10158746D01*
X16586849Y-10158746D02*
X16586849Y-10215889D01*
X16586849Y-10215889D02*
X16577325Y-10234936D01*
X16577325Y-10234936D02*
X16567801Y-10244460D01*
X16567801Y-10244460D02*
X16548753Y-10253984D01*
X16548753Y-10253984D02*
X16520182Y-10253984D01*
X16643992Y-10120650D02*
X16720182Y-10120650D01*
X16672563Y-10053984D02*
X16672563Y-10225412D01*
X16672563Y-10225412D02*
X16682087Y-10244460D01*
X16682087Y-10244460D02*
X16701134Y-10253984D01*
X16701134Y-10253984D02*
X16720182Y-10253984D01*
X16939230Y-10120650D02*
X16939230Y-10320650D01*
X16939230Y-10130174D02*
X16958277Y-10120650D01*
X16958277Y-10120650D02*
X16996373Y-10120650D01*
X16996373Y-10120650D02*
X17015420Y-10130174D01*
X17015420Y-10130174D02*
X17024944Y-10139698D01*
X17024944Y-10139698D02*
X17034468Y-10158746D01*
X17034468Y-10158746D02*
X17034468Y-10215889D01*
X17034468Y-10215889D02*
X17024944Y-10234936D01*
X17024944Y-10234936D02*
X17015420Y-10244460D01*
X17015420Y-10244460D02*
X16996373Y-10253984D01*
X16996373Y-10253984D02*
X16958277Y-10253984D01*
X16958277Y-10253984D02*
X16939230Y-10244460D01*
X17148754Y-10253984D02*
X17129706Y-10244460D01*
X17129706Y-10244460D02*
X17120182Y-10225412D01*
X17120182Y-10225412D02*
X17120182Y-10053984D01*
X17310658Y-10253984D02*
X17310658Y-10149222D01*
X17310658Y-10149222D02*
X17301135Y-10130174D01*
X17301135Y-10130174D02*
X17282087Y-10120650D01*
X17282087Y-10120650D02*
X17243992Y-10120650D01*
X17243992Y-10120650D02*
X17224944Y-10130174D01*
X17310658Y-10244460D02*
X17291611Y-10253984D01*
X17291611Y-10253984D02*
X17243992Y-10253984D01*
X17243992Y-10253984D02*
X17224944Y-10244460D01*
X17224944Y-10244460D02*
X17215420Y-10225412D01*
X17215420Y-10225412D02*
X17215420Y-10206365D01*
X17215420Y-10206365D02*
X17224944Y-10187317D01*
X17224944Y-10187317D02*
X17243992Y-10177793D01*
X17243992Y-10177793D02*
X17291611Y-10177793D01*
X17291611Y-10177793D02*
X17310658Y-10168270D01*
X17377325Y-10120650D02*
X17453515Y-10120650D01*
X17405896Y-10053984D02*
X17405896Y-10225412D01*
X17405896Y-10225412D02*
X17415420Y-10244460D01*
X17415420Y-10244460D02*
X17434468Y-10253984D01*
X17434468Y-10253984D02*
X17453515Y-10253984D01*
X17596373Y-10244460D02*
X17577325Y-10253984D01*
X17577325Y-10253984D02*
X17539230Y-10253984D01*
X17539230Y-10253984D02*
X17520182Y-10244460D01*
X17520182Y-10244460D02*
X17510658Y-10225412D01*
X17510658Y-10225412D02*
X17510658Y-10149222D01*
X17510658Y-10149222D02*
X17520182Y-10130174D01*
X17520182Y-10130174D02*
X17539230Y-10120650D01*
X17539230Y-10120650D02*
X17577325Y-10120650D01*
X17577325Y-10120650D02*
X17596373Y-10130174D01*
X17596373Y-10130174D02*
X17605896Y-10149222D01*
X17605896Y-10149222D02*
X17605896Y-10168270D01*
X17605896Y-10168270D02*
X17510658Y-10187317D01*
X17777325Y-10253984D02*
X17777325Y-10053984D01*
X17777325Y-10244460D02*
X17758277Y-10253984D01*
X17758277Y-10253984D02*
X17720182Y-10253984D01*
X17720182Y-10253984D02*
X17701135Y-10244460D01*
X17701135Y-10244460D02*
X17691611Y-10234936D01*
X17691611Y-10234936D02*
X17682087Y-10215889D01*
X17682087Y-10215889D02*
X17682087Y-10158746D01*
X17682087Y-10158746D02*
X17691611Y-10139698D01*
X17691611Y-10139698D02*
X17701135Y-10130174D01*
X17701135Y-10130174D02*
X17720182Y-10120650D01*
X17720182Y-10120650D02*
X17758277Y-10120650D01*
X17758277Y-10120650D02*
X17777325Y-10130174D01*
X17853516Y-10330174D02*
X17863039Y-10320650D01*
X17863039Y-10320650D02*
X17882087Y-10292079D01*
X17882087Y-10292079D02*
X17891611Y-10273031D01*
X17891611Y-10273031D02*
X17901135Y-10244460D01*
X17901135Y-10244460D02*
X17910658Y-10196841D01*
X17910658Y-10196841D02*
X17910658Y-10158746D01*
X17910658Y-10158746D02*
X17901135Y-10111127D01*
X17901135Y-10111127D02*
X17891611Y-10082555D01*
X17891611Y-10082555D02*
X17882087Y-10063508D01*
X17882087Y-10063508D02*
X17863039Y-10034936D01*
X17863039Y-10034936D02*
X17853516Y-10025412D01*
M02*
